<svg width="18" height="19" viewBox="0 0 18 19" fill="none" xmlns="http://www.w3.org/2000/svg">
<g id="heroicons-outline/eye" clip-path="url(#clip0_2947_4961)">
<g id="Vector">
<path d="M1.94787 9.86204C1.89763 9.71131 1.89758 9.54813 1.94773 9.39737C2.95736 6.36222 5.82043 4.17352 9.19469 4.17352C12.5674 4.17352 15.4294 6.36018 16.4402 9.39314C16.4905 9.54386 16.4905 9.70705 16.4404 9.8578C15.4307 12.893 12.5677 15.0816 9.19342 15.0816C5.82072 15.0816 2.95875 12.895 1.94787 9.86204Z" stroke="#262626" stroke-width="1.09081" stroke-linecap="round" stroke-linejoin="round"/>
<path d="M11.3757 9.62759C11.3757 10.8325 10.399 11.8092 9.1941 11.8092C7.98922 11.8092 7.01248 10.8325 7.01248 9.62759C7.01248 8.42271 7.98922 7.44596 9.1941 7.44596C10.399 7.44596 11.3757 8.42271 11.3757 9.62759Z" stroke="#262626" stroke-width="1.09081" stroke-linecap="round" stroke-linejoin="round"/>
</g>
</g>
<defs>
<clipPath id="clip0_2947_4961">
<rect width="17.453" height="17.453" fill="white" transform="translate(0.466797 0.901062)"/>
</clipPath>
</defs>
</svg>
