<svg width="75" height="50" viewBox="0 0 75 50" fill="none" xmlns="http://www.w3.org/2000/svg">
<path id="Vector" fill-rule="evenodd" clip-rule="evenodd" d="M43.5837 19.1032H50.3252V47.343H43.5837V19.1032ZM26.8129 27.0771H33.5543V47.343H26.8129V27.0771ZM9.8767 33.7211H16.7834V47.343H9.8767V33.7211ZM63.808 3.48924C63.9356 3.97846 66.2204 7.13933 66.5683 7.67542C67.502 9.0962 68.4791 10.4086 69.3983 11.7942C68.7372 11.7942 67.096 11.7766 67.096 12.9572V47.343H60.3546V13.9532C60.3546 12.0901 59.853 11.7942 58.0524 11.7942C58.5366 10.8685 63.3064 3.82613 63.808 3.48924ZM54.1062 13.4552C54.1062 13.7306 54.8948 14.4512 55.2573 14.4512H57.7248V47.343H52.955V17.7732C52.955 16.9705 52.436 16.4462 51.6387 16.4462H42.2674C41.4729 16.4462 40.9539 16.9705 40.9539 17.7732V47.343H36.1842V25.9141C36.1842 24.8947 35.4013 24.4201 34.3748 24.4201H25.9923C25.2007 24.4201 24.183 24.8742 24.183 25.5831V47.343H19.4133V32.3941C19.4133 31.5885 18.8942 31.0641 18.0998 31.0641H8.39795C7.69916 31.0641 7.24684 32.0923 7.24684 32.8921V47.343H1.3289C-0.378926 47.343 -0.668858 50 1.82184 50H73.1792C75.667 50 75.38 47.343 73.6722 47.343H69.7259V14.4512C71.7092 14.4512 73.1792 14.8145 73.1792 12.9572C73.1792 12.5529 71.3525 10.1127 71.0394 9.63522L65.3853 1.3947C64.4488 -0.0553781 64.3443 0.000282935 63.315 0.000282935C62.5988 0.000282935 59.102 5.54571 58.5134 6.44505L55.0688 11.4368C54.7034 11.9319 54.1062 12.6789 54.1062 13.4552Z" fill="#8F11A6"/>
</svg>
