<svg width="100" height="100" viewBox="0 0 100 100" fill="none" xmlns="http://www.w3.org/2000/svg">
<path d="M100 50.0026C100 77.6126 77.6167 100 50.0001 100C22.3834 100 0 77.6126 0 50.0026C0 22.3874 22.3834 0 50.0001 0C77.6167 0 100 22.3874 100 50.0026Z" fill="#F2F2F2"/>
<path fill-rule="evenodd" clip-rule="evenodd" d="M56.5837 41.1032H63.3252V69.343H56.5837V41.1032ZM39.8129 49.0771H46.5543V69.343H39.8129V49.0771ZM22.8767 55.7211H29.7834V69.343H22.8767V55.7211ZM76.808 25.4892C76.9356 25.9785 79.2204 29.1393 79.5683 29.6754C80.502 31.0962 81.4791 32.4086 82.3983 33.7942C81.7372 33.7942 80.096 33.7766 80.096 34.9572V69.343H73.3546V35.9532C73.3546 34.0901 72.853 33.7942 71.0524 33.7942C71.5366 32.8685 76.3064 25.8261 76.808 25.4892ZM67.1062 35.4552C67.1062 35.7306 67.8948 36.4512 68.2573 36.4512H70.7248V69.343H65.955V39.7732C65.955 38.9705 65.436 38.4462 64.6387 38.4462H55.2674C54.4729 38.4462 53.9539 38.9705 53.9539 39.7732V69.343H49.1842V47.9141C49.1842 46.8947 48.4013 46.4201 47.3748 46.4201H38.9923C38.2007 46.4201 37.183 46.8742 37.183 47.5831V69.343H32.4133V54.3941C32.4133 53.5885 31.8942 53.0641 31.0998 53.0641H21.3979C20.6992 53.0641 20.2468 54.0923 20.2468 54.8921V69.343H14.3289C12.6211 69.343 12.3311 72 14.8218 72H86.1792C88.667 72 88.38 69.343 86.6722 69.343H82.7259V36.4512C84.7092 36.4512 86.1792 36.8145 86.1792 34.9572C86.1792 34.5529 84.3525 32.1127 84.0394 31.6352L78.3853 23.3947C77.4488 21.9446 77.3443 22.0003 76.315 22.0003C75.5988 22.0003 72.102 27.5457 71.5134 28.4451L68.0688 33.4368C67.7034 33.9319 67.1062 34.6789 67.1062 35.4552Z" fill="#8F11A6"/>
</svg>
