<svg width="60" height="73" viewBox="0 0 60 73" fill="none" xmlns="http://www.w3.org/2000/svg">
<g id="Group 427322269">
<path id="Vector" fill-rule="evenodd" clip-rule="evenodd" d="M10.0603 21.4021V3.7234C10.0603 3.28711 10.3681 2.97932 10.8044 2.97932H36.671C37.1073 2.97932 37.4151 3.28711 37.4151 3.7234C37.4151 6.8103 37.6811 20.3861 37.2298 22.3314C32.9446 22.3314 28.6594 22.3135 24.3772 22.3225C23.1221 22.3225 22.8591 22.6841 22.0344 23.1383C20.9616 23.727 16.5419 26.4463 15.8277 26.6107C15.8277 25.7739 16.004 23.9033 15.6873 23.216C14.994 21.7039 12.1223 22.3314 10.2456 22.3314C10.15 21.9131 10.0603 21.9041 10.0603 21.4021ZM40.3914 11.9113H54.9055C55.2701 13.4742 55.2701 29.5153 54.9055 31.0781C49.1321 31.0781 49.3234 30.4387 49.3234 35.5426L43.1048 31.8999C42.268 31.4009 41.8378 31.0722 40.5887 31.0662L30.53 31.0781C27.1264 31.0811 27.739 32.1479 27.739 25.496H36.2974C38.2727 25.496 39.3276 24.7549 40.0208 23.4491C41.0906 23.4491 50.9699 23.73 51.6781 23.1951C52.8256 22.3285 52.1025 20.4697 50.9998 20.4697H40.3914V17.4934H50.8116C52.7689 17.4934 52.7689 14.5171 50.8116 14.5171H40.3914V11.9113ZM7.08398 3.34986V22.3314C7.08398 23.9451 8.87993 25.496 11.1779 25.496H12.6662C12.6662 27.5938 12.1103 32.5992 15.6813 30.3729L19.4436 28.1795C20.5343 27.534 23.6959 25.5199 24.7597 25.496C24.7597 29.4914 24.1113 32.0942 26.3226 33.6092C27.3954 34.3443 28.2889 34.2427 29.9713 34.2397C32.8878 34.2368 35.8014 34.2457 38.718 34.2397C41.7302 34.2368 41.5688 34.4997 45.0771 36.6274C46.0064 37.1862 46.867 37.6255 47.7994 38.1843C48.3074 38.4891 48.6869 38.6803 49.2158 39.0001C53.0498 41.331 52.488 36.9471 52.488 34.2397C54.0628 34.2397 55.6347 34.4101 56.821 33.3642C57.3141 32.9279 58.0701 31.9029 58.0701 31.0781V12.0966C58.0701 10.3813 56.4355 8.74671 54.7203 8.74671H40.3914V2.97932C40.3914 1.64057 38.7538 0 37.4151 0H10.0603C9.36702 0 8.33309 0.696271 7.98047 1.08475C7.52625 1.58977 7.08398 2.42648 7.08398 3.34986Z" fill="#8F11A6"/>
<path id="Vector_2" fill-rule="evenodd" clip-rule="evenodd" d="M22.1413 69.7585H3.07306C2.98939 69.7585 2.92364 69.6927 2.92364 69.6091V68.9905C2.92364 67.7952 3.11492 66.6506 3.47052 65.5838C3.83808 64.4841 4.37891 63.4741 5.06024 62.5836C5.75352 61.6841 6.59026 60.9072 7.54352 60.2916C8.47586 59.688 9.51581 59.2397 10.6334 58.9797H10.6424C11.4941 58.7825 12.3457 58.6958 13.1824 58.7168C14.0311 58.7347 14.8678 58.8662 15.6686 59.1022L15.6776 59.1052C16.4815 59.3413 17.2584 59.685 17.9846 60.1242C18.7107 60.5635 19.3951 61.1014 20.0226 61.7289C20.4678 62.1772 20.8892 62.6912 21.2627 63.2619C21.6123 63.7998 21.9201 64.3885 22.1712 65.025L22.1771 65.037C22.4102 65.6316 22.5985 66.2681 22.724 66.9465C22.8435 67.592 22.9092 68.2763 22.9092 68.9905V69.6091C22.9092 69.6927 22.8405 69.7585 22.7568 69.7585H22.1413ZM8.0127 50.8606C8.0127 50.2091 8.14417 49.5995 8.37726 49.0437C8.62529 48.452 8.98688 47.9261 9.42914 47.4838C9.65924 47.2537 9.91624 47.0445 10.1882 46.8592C10.4631 46.677 10.7529 46.5186 11.0577 46.3901C11.3655 46.2586 11.6853 46.157 12.014 46.0913C12.3367 46.0225 12.6654 45.9897 12.9941 45.9897C13.6008 45.9897 14.2164 46.1032 14.8051 46.3542C15.3549 46.5873 15.8838 46.9369 16.3619 47.4151L16.3679 47.421C16.8401 47.8962 17.1867 48.4221 17.4198 48.972C17.6678 49.5636 17.7844 50.1792 17.7844 50.7888C17.7844 51.1146 17.7515 51.4433 17.6857 51.766C17.617 52.0917 17.5154 52.4145 17.3869 52.7223C17.2584 53.0241 17.1031 53.3169 16.9178 53.5889C16.7355 53.8638 16.5263 54.1178 16.2962 54.3509C15.8539 54.7902 15.328 55.1517 14.7363 55.3998C14.1805 55.6328 13.5679 55.7613 12.9164 55.7613C12.2859 55.7613 11.6704 55.6239 11.0996 55.3759L11.0906 55.3699C10.499 55.1129 9.95507 54.7364 9.49787 54.2792C9.03767 53.819 8.66117 53.2721 8.40119 52.6774C8.15316 52.1067 8.0127 51.4911 8.0127 50.8606ZM5.57129 53.7413C5.85219 54.4047 6.30039 55.0711 6.93988 56.0243C7.08929 56.2275 7.23272 56.4606 7.37317 56.6698C7.41799 56.7385 7.40009 56.8311 7.33136 56.876L6.68293 57.3123C4.89593 58.5106 3.62589 59.3622 2.24829 61.3196C-0.0138424 64.5379 -0.00787169 67.075 0.00109316 70.7685V71.5365C0.00408145 71.662 0.0399759 71.7965 0.111695 71.925L0.114686 71.9339C0.186405 72.0654 0.288009 72.1909 0.416505 72.3015C0.553967 72.418 0.715293 72.5137 0.897578 72.5794C1.0709 72.6422 1.25913 72.678 1.46532 72.678H24.3676C25.022 72.678 25.3955 72.3941 25.6047 71.9459C25.8258 71.4678 25.8767 70.7954 25.8767 70.0633L25.8707 69.4626L25.8527 68.853C25.8408 68.4287 25.8258 68.0043 25.8258 67.7175C25.8258 66.8329 25.7003 65.9932 25.4762 65.1983C25.2551 64.4005 24.9324 63.6444 24.5439 62.9362C24.1495 62.213 23.6803 61.5257 23.1723 60.8833C22.6613 60.2378 22.1144 59.6312 21.5586 59.0694C20.949 58.4538 20.4081 58.1131 19.7745 57.7127L19.7268 57.6828C19.5086 57.5453 19.2756 57.3989 19.0126 57.2196L18.4985 56.876C18.4298 56.8311 18.4119 56.7385 18.4567 56.6698L18.884 56.0363C19.3024 55.4147 19.6341 54.9157 19.8971 54.4584C20.1541 54.0072 20.3423 53.5978 20.4678 53.1496C20.6143 52.6386 20.7039 52.1156 20.7398 51.5957C20.7786 51.0578 20.7637 50.5199 20.6979 49.991C20.5963 49.1841 20.3782 48.3922 20.0585 47.6482C19.7358 46.8951 19.3114 46.1869 18.8004 45.5564C18.2834 44.9199 17.6827 44.361 17.0134 43.9068C16.3679 43.4705 15.6597 43.1329 14.9037 42.9207C14.4614 42.7952 14.0012 42.7115 13.5261 42.6756C13.0659 42.6428 12.5937 42.6547 12.1096 42.7145C11.7092 42.7653 11.3178 42.843 10.9382 42.9446C10.5528 43.0462 10.1792 43.1777 9.82362 43.3271C9.01678 43.6707 8.28464 44.1339 7.64515 44.6868C6.99669 45.2516 6.44386 45.912 6.00757 46.6381C5.57427 47.3673 5.25449 48.1681 5.07818 49.0108C4.90486 49.8266 4.86606 50.6813 4.97364 51.5479C5.01846 51.9154 5.09316 52.286 5.19178 52.6535C5.29039 53.0151 5.41889 53.3797 5.57129 53.7413Z" fill="#8F11A6"/>
<path id="Vector_3" d="M16.4034 14.8126C17.8623 14.8126 19.045 13.6299 19.045 12.1709C19.045 10.712 17.8623 9.5293 16.4034 9.5293C14.9444 9.5293 13.7617 10.712 13.7617 12.1709C13.7617 13.6299 14.9444 14.8126 16.4034 14.8126Z" fill="#8F11A6"/>
<path id="Vector_4" d="M23.4287 14.8126C24.8876 14.8126 26.0704 13.6299 26.0704 12.1709C26.0704 10.712 24.8876 9.5293 23.4287 9.5293C21.9698 9.5293 20.7871 10.712 20.7871 12.1709C20.7871 13.6299 21.9698 14.8126 23.4287 14.8126Z" fill="#8F11A6"/>
<path id="Vector_5" d="M30.3018 14.8126C31.7607 14.8126 32.9434 13.6299 32.9434 12.1709C32.9434 10.712 31.7607 9.5293 30.3018 9.5293C28.8428 9.5293 27.6602 10.712 27.6602 12.1709C27.6602 13.6299 28.8428 14.8126 30.3018 14.8126Z" fill="#8F11A6"/>
<path id="Vector_6" fill-rule="evenodd" clip-rule="evenodd" d="M55.823 69.7585H36.7547C36.674 69.7585 36.6053 69.6927 36.6053 69.6091V68.9905C36.6053 67.7952 36.7995 66.6506 37.1522 65.5838C37.5197 64.4841 38.0606 63.4741 38.742 62.5836C39.4352 61.6841 40.2749 60.9072 41.2252 60.2916C42.1575 59.688 43.1975 59.2397 44.3151 58.9797H44.324C45.1787 58.7825 46.0304 58.6958 46.8641 58.7168C47.7128 58.7347 48.5495 58.8662 49.3504 59.1022L49.3593 59.1052C50.1661 59.3413 50.9401 59.685 51.6663 60.1242C52.3954 60.5635 53.0797 61.1014 53.7042 61.7289C54.1495 62.1772 54.5709 62.6912 54.9444 63.2619C55.294 63.7998 55.6018 64.3885 55.8558 65.025L55.8588 65.037C56.0919 65.6316 56.2801 66.2681 56.4057 66.9465C56.5252 67.592 56.591 68.2763 56.591 68.9905V69.6091C56.591 69.6927 56.5222 69.7585 56.4415 69.7585H55.823ZM41.6973 50.8606C41.6973 50.2091 41.8258 49.5995 42.0589 49.0437C42.3069 48.452 42.6685 47.9261 43.1108 47.4838C43.3439 47.2537 43.5979 47.0445 43.8698 46.8592C44.1447 46.677 44.4376 46.5186 44.7394 46.3901C45.0472 46.2586 45.3699 46.157 45.6956 46.0913C46.0184 46.0225 46.3471 45.9897 46.6758 45.9897C47.2824 45.9897 47.898 46.1032 48.4897 46.3542C49.0365 46.5873 49.5655 46.9369 50.0436 47.4151L50.0496 47.421C50.5247 47.8962 50.8714 48.4221 51.1014 48.972C51.3495 49.5636 51.469 50.1792 51.469 50.7888C51.469 51.1146 51.4332 51.4433 51.3674 51.766C51.2987 52.0917 51.2001 52.4145 51.0686 52.7223C50.9431 53.0241 50.7847 53.3169 50.5994 53.5889C50.4172 53.8638 50.208 54.1178 49.9779 54.3509C49.5356 54.7902 49.0097 55.1517 48.421 55.3998C47.8651 55.6328 47.2525 55.7613 46.5981 55.7613C45.9676 55.7613 45.352 55.6239 44.7813 55.3759L44.7723 55.3699C44.1806 55.1129 43.6397 54.7364 43.1825 54.2792C42.7193 53.819 42.3428 53.2721 42.0828 52.6774C41.8348 52.1067 41.6973 51.4911 41.6973 50.8606ZM39.2529 53.7413C39.5368 54.4047 39.982 55.0711 40.6215 56.0243C40.7709 56.2275 40.9144 56.4606 41.0549 56.6698C41.1027 56.7385 41.0817 56.8311 41.016 56.876L40.3646 57.3123C38.5776 58.5106 37.3075 59.3622 35.9299 61.3196C33.6678 64.5379 33.6738 67.075 33.6827 70.7685L33.6857 71.5365C33.6857 71.662 33.7246 71.7965 33.7933 71.925L33.7963 71.9339C33.868 72.0654 33.9696 72.1909 34.0981 72.3015C34.2356 72.418 34.3999 72.5137 34.5822 72.5794C34.7525 72.6422 34.9438 72.678 35.147 72.678H58.0492C58.7036 72.678 59.0772 72.3941 59.2864 71.9459C59.5075 71.4678 59.5583 70.7954 59.5583 70.0633L59.5523 69.4626L59.5344 68.853C59.5224 68.4287 59.5105 68.0043 59.5105 67.7175C59.5105 66.8329 59.382 65.9932 59.1579 65.1983C58.9367 64.4005 58.614 63.6444 58.2255 62.9362C57.8311 62.213 57.3619 61.5257 56.8539 60.8833C56.3459 60.2378 55.7961 59.6312 55.2403 59.0694C54.6306 58.4538 54.0898 58.1131 53.4592 57.7127L53.4114 57.6828C53.1903 57.5453 52.9572 57.3989 52.6942 57.2196L52.1803 56.876C52.1115 56.8311 52.0936 56.7385 52.1414 56.6698L52.5657 56.0363C52.984 55.4147 53.3188 54.9157 53.5787 54.4584C53.8357 54.0072 54.024 53.5978 54.1525 53.1496C54.2959 52.6386 54.3856 52.1156 54.4245 51.5957C54.4603 51.0578 54.4453 50.5199 54.3796 49.991C54.278 49.1841 54.0599 48.3922 53.7431 47.6482C53.4174 46.8951 52.9931 46.1869 52.4821 45.5564C51.9681 44.9199 51.3645 44.361 50.6951 43.9068C50.0496 43.4705 49.3414 43.1329 48.5883 42.9207C48.1461 42.7952 47.6828 42.7115 47.2077 42.6756C46.7505 42.6428 46.2754 42.6547 45.7913 42.7145C45.3908 42.7653 44.9994 42.843 44.6229 42.9446C44.2344 43.0462 43.8639 43.1777 43.5053 43.3271C42.6984 43.6707 41.9663 44.1339 41.3268 44.6868C40.6783 45.2516 40.1255 45.912 39.6922 46.6381C39.2559 47.3673 38.9361 48.1681 38.7598 49.0108C38.5895 49.8266 38.5477 50.6813 38.6553 51.5479C38.7031 51.9154 38.7748 52.286 38.8764 52.6535C38.975 53.0151 39.1005 53.3797 39.2529 53.7413Z" fill="#8F11A6"/>
</g>
</svg>
