<svg width="25" height="19" viewBox="0 0 25 19" fill="none" xmlns="http://www.w3.org/2000/svg">
<path id="Vector" fill-rule="evenodd" clip-rule="evenodd" d="M20.4459 14.3734L21.4467 13.3503L22.4698 14.3511L21.469 15.3742L20.4459 14.3734ZM12.2663 12.6347C10.6729 12.6347 8.24365 12.3663 6.94375 11.4074C6.81796 11.3124 6.82915 11.2649 6.6726 11.2229V7.49378C6.85151 7.50775 7.19254 7.65871 7.35468 7.72301L11.4417 9.22976C12.4648 9.60994 12.2076 9.44781 13.5802 8.98935C13.7899 8.92226 14.0191 8.8384 14.2512 8.74894L17.7259 7.49378V11.1782C17.5498 11.2984 17.4044 11.413 17.2171 11.5332C15.9787 12.3327 13.7759 12.6347 12.2663 12.6347ZM12.3138 1.6708C12.4145 1.6708 13.214 1.99228 13.3873 2.05378C15.7998 2.88963 18.3102 3.8373 20.7366 4.71228C20.9128 4.77378 20.9099 4.72905 21.0022 4.85485C20.8009 4.87162 20.622 4.97506 20.4515 5.03097C20.2502 5.09806 20.116 5.15956 19.9147 5.22386L12.2216 7.99416C12.0064 7.99416 11.3326 7.71183 11.1258 7.63635L4.15388 5.05612C3.93863 4.98064 3.80443 4.90796 3.57799 4.85485L5.72217 4.04136C6.7537 3.69752 7.97811 3.19434 8.99845 2.85888L11.2013 2.06218C11.3466 2.00627 12.2384 1.6708 12.3138 1.6708ZM0.849609 4.71788C0.849609 5.39717 1.1795 5.41952 1.71344 5.62918L4.66547 6.72502C4.8332 6.78652 5.10433 6.87318 5.26087 6.94866V11.318C5.25528 12.0001 5.95138 12.4334 6.47134 12.7465C6.87947 12.9897 7.17018 13.1462 7.63423 13.3112C9.15497 13.8591 10.2061 13.9765 11.7687 13.9988C11.9784 14.0016 12.0315 14.0408 12.1769 14.0408L13.8123 13.9513C15.6125 13.8115 17.5889 13.2441 18.8525 11.9861C19.2355 11.6087 19.1376 11.2062 19.1376 10.4961C19.1376 9.32761 19.1376 8.16188 19.1376 6.99338L20.7757 6.40354C20.7757 8.03889 20.773 9.67704 20.7757 11.3152C20.7757 12.274 20.9323 11.9078 19.9203 12.9198C19.7051 13.135 19.5234 13.3167 19.3081 13.532C18.9084 13.9317 18.7742 13.9401 18.7742 14.4545C18.7742 14.8011 20.1412 16.0284 20.4459 16.3303C20.8932 16.7775 20.7757 16.498 20.7757 17.7755C20.773 18.1026 20.7366 18.329 20.8708 18.5415C21.1028 18.9161 21.7094 19.0055 22.0141 18.561C22.3412 18.0858 21.9275 16.8894 22.2378 16.5539C22.3105 16.4756 22.3888 16.4113 22.4698 16.3303C22.7717 16.0284 24.1415 14.8011 24.1415 14.4545C24.1415 13.9932 24.0744 14.0016 23.7194 13.6466C23.5209 13.4453 22.14 12.1454 22.14 11.9973V5.99261C22.14 5.6292 23.7781 5.78854 23.7781 4.76539C23.7781 4.62842 23.697 4.49143 23.6327 4.40756C23.437 4.14479 22.9702 4.03856 22.6208 3.91836L15.2743 1.25708C14.8466 1.11451 12.5375 0.214355 12.3138 0.214355C12.1377 0.214355 8.36385 1.59812 7.91377 1.77703C7.66777 1.87208 7.41901 1.95315 7.1786 2.03981C6.93819 2.12647 6.68096 2.21592 6.43776 2.30258C5.94575 2.4787 5.4845 2.66878 4.97293 2.83651L1.29971 4.16716C1.17391 4.21748 1.08444 4.27059 1.00337 4.37122C0.927896 4.46347 0.849609 4.5781 0.849609 4.71788Z" fill="#8F11A6"/>
</svg>
