<svg width="100" height="100" viewBox="0 0 100 100" fill="none" xmlns="http://www.w3.org/2000/svg">
<path d="M100 50.0026C100 77.6126 77.6167 100 50.0001 100C22.3834 100 0 77.6126 0 50.0026C0 22.3874 22.3834 0 50.0001 0C77.6167 0 100 22.3874 100 50.0026Z" fill="#F2F2F2"/>
<path fill-rule="evenodd" clip-rule="evenodd" d="M30.0603 32.4021V14.7234C30.0603 14.2871 30.3681 13.9793 30.8044 13.9793H56.671C57.1073 13.9793 57.4151 14.2871 57.4151 14.7234C57.4151 17.8103 57.6811 31.3861 57.2298 33.3314C52.9446 33.3314 48.6594 33.3135 44.3772 33.3225C43.1221 33.3225 42.8591 33.6841 42.0344 34.1383C40.9616 34.727 36.5419 37.4463 35.8277 37.6107C35.8277 36.7739 36.004 34.9033 35.6873 34.216C34.994 32.7039 32.1223 33.3314 30.2456 33.3314C30.15 32.9131 30.0603 32.9041 30.0603 32.4021ZM60.3914 22.9113H74.9055C75.2701 24.4742 75.2701 40.5153 74.9055 42.0781C69.1321 42.0781 69.3234 41.4387 69.3234 46.5426L63.1048 42.8999C62.268 42.4009 61.8378 42.0722 60.5887 42.0662L50.53 42.0781C47.1264 42.0811 47.739 43.1479 47.739 36.496H56.2974C58.2727 36.496 59.3276 35.7549 60.0208 34.4491C61.0906 34.4491 70.9699 34.73 71.6781 34.1951C72.8256 33.3285 72.1025 31.4697 70.9998 31.4697H60.3914V28.4934H70.8116C72.7689 28.4934 72.7689 25.5171 70.8116 25.5171H60.3914V22.9113ZM27.084 14.3499V33.3314C27.084 34.9451 28.8799 36.496 31.1779 36.496H32.6662C32.6662 38.5938 32.1103 43.5992 35.6813 41.3729L39.4436 39.1795C40.5343 38.534 43.6959 36.5199 44.7597 36.496C44.7597 40.4914 44.1113 43.0942 46.3226 44.6092C47.3954 45.3443 48.2889 45.2427 49.9713 45.2397C52.8878 45.2368 55.8014 45.2457 58.718 45.2397C61.7302 45.2368 61.5688 45.4997 65.0771 47.6274C66.0064 48.1862 66.867 48.6255 67.7994 49.1843C68.3074 49.4891 68.6869 49.6803 69.2158 50.0001C73.0498 52.331 72.488 47.9471 72.488 45.2397C74.0628 45.2397 75.6347 45.4101 76.821 44.3642C77.3141 43.9279 78.0701 42.9029 78.0701 42.0781V23.0966C78.0701 21.3813 76.4355 19.7467 74.7203 19.7467H60.3914V13.9793C60.3914 12.6406 58.7538 11 57.4151 11H30.0603C29.367 11 28.3331 11.6963 27.9805 12.0847C27.5263 12.5898 27.084 13.4265 27.084 14.3499Z" fill="#8F11A6"/>
<path fill-rule="evenodd" clip-rule="evenodd" d="M42.1413 80.7585H23.0731C22.9894 80.7585 22.9236 80.6927 22.9236 80.6091V79.9905C22.9236 78.7952 23.1149 77.6506 23.4705 76.5838C23.8381 75.4841 24.3789 74.4741 25.0602 73.5836C25.7535 72.6841 26.5903 71.9072 27.5435 71.2916C28.4759 70.688 29.5158 70.2397 30.6334 69.9797H30.6424C31.4941 69.7825 32.3457 69.6958 33.1824 69.7168C34.0311 69.7347 34.8678 69.8662 35.6686 70.1022L35.6776 70.1052C36.4815 70.3413 37.2584 70.685 37.9846 71.1242C38.7107 71.5635 39.3951 72.1014 40.0226 72.7289C40.4678 73.1772 40.8892 73.6912 41.2627 74.2619C41.6123 74.7998 41.9201 75.3885 42.1712 76.025L42.1771 76.037C42.4102 76.6316 42.5985 77.2681 42.724 77.9465C42.8435 78.592 42.9092 79.2763 42.9092 79.9905V80.6091C42.9092 80.6927 42.8405 80.7585 42.7568 80.7585H42.1413ZM28.0127 61.8606C28.0127 61.2091 28.1442 60.5995 28.3773 60.0437C28.6253 59.452 28.9869 58.9261 29.4291 58.4838C29.6592 58.2537 29.9162 58.0445 30.1882 57.8592C30.4631 57.677 30.7529 57.5186 31.0577 57.3901C31.3655 57.2586 31.6853 57.157 32.014 57.0913C32.3367 57.0225 32.6654 56.9897 32.9941 56.9897C33.6008 56.9897 34.2164 57.1032 34.8051 57.3542C35.3549 57.5873 35.8838 57.9369 36.3619 58.4151L36.3679 58.421C36.8401 58.8962 37.1867 59.4221 37.4198 59.972C37.6678 60.5636 37.7844 61.1792 37.7844 61.7888C37.7844 62.1146 37.7515 62.4433 37.6857 62.766C37.617 63.0917 37.5154 63.4145 37.3869 63.7223C37.2584 64.0241 37.1031 64.3169 36.9178 64.5889C36.7355 64.8638 36.5263 65.1178 36.2962 65.3509C35.8539 65.7902 35.328 66.1517 34.7363 66.3998C34.1805 66.6328 33.5679 66.7613 32.9164 66.7613C32.2859 66.7613 31.6704 66.6239 31.0996 66.3759L31.0906 66.3699C30.499 66.1129 29.9551 65.7364 29.4979 65.2792C29.0377 64.819 28.6612 64.2721 28.4012 63.6774C28.1532 63.1067 28.0127 62.4911 28.0127 61.8606ZM25.5713 64.7413C25.8522 65.4047 26.3004 66.0711 26.9399 67.0243C27.0893 67.2275 27.2327 67.4606 27.3732 67.6698C27.418 67.7385 27.4001 67.8311 27.3314 67.876L26.6829 68.3123C24.8959 69.5106 23.6259 70.3622 22.2483 72.3196C19.9862 75.5379 19.9921 78.075 20.0011 81.7685V82.5365C20.0041 82.662 20.04 82.7965 20.1117 82.925L20.1147 82.9339C20.1864 83.0654 20.288 83.1909 20.4165 83.3015C20.554 83.418 20.7153 83.5137 20.8976 83.5794C21.0709 83.6422 21.2591 83.678 21.4653 83.678H44.3676C45.022 83.678 45.3955 83.3941 45.6047 82.9459C45.8258 82.4678 45.8767 81.7954 45.8767 81.0633L45.8707 80.4626L45.8527 79.853C45.8408 79.4287 45.8258 79.0043 45.8258 78.7175C45.8258 77.8329 45.7003 76.9932 45.4762 76.1983C45.2551 75.4005 44.9324 74.6444 44.5439 73.9362C44.1495 73.213 43.6803 72.5257 43.1723 71.8833C42.6613 71.2378 42.1144 70.6312 41.5586 70.0694C40.949 69.4538 40.4081 69.1131 39.7745 68.7127L39.7268 68.6828C39.5086 68.5453 39.2756 68.3989 39.0126 68.2196L38.4985 67.876C38.4298 67.8311 38.4119 67.7385 38.4567 67.6698L38.884 67.0363C39.3024 66.4147 39.6341 65.9157 39.8971 65.4584C40.1541 65.0072 40.3423 64.5978 40.4678 64.1496C40.6143 63.6386 40.7039 63.1156 40.7398 62.5957C40.7786 62.0578 40.7637 61.5199 40.6979 60.991C40.5963 60.1841 40.3782 59.3922 40.0585 58.6482C39.7358 57.8951 39.3114 57.1869 38.8004 56.5564C38.2834 55.9199 37.6827 55.361 37.0134 54.9068C36.3679 54.4705 35.6597 54.1329 34.9037 53.9207C34.4614 53.7952 34.0012 53.7115 33.5261 53.6756C33.0659 53.6428 32.5937 53.6547 32.1096 53.7145C31.7092 53.7653 31.3178 53.843 30.9382 53.9446C30.5528 54.0462 30.1792 54.1777 29.8236 54.3271C29.0168 54.6707 28.2846 55.1339 27.6451 55.6868C26.9967 56.2516 26.4439 56.912 26.0076 57.6381C25.5743 58.3673 25.2545 59.1681 25.0782 60.0108C24.9049 60.8266 24.8661 61.6813 24.9736 62.5479C25.0185 62.9154 25.0932 63.286 25.1918 63.6535C25.2904 64.0151 25.4189 64.3797 25.5713 64.7413Z" fill="#8F11A6"/>
<path d="M36.4034 25.8126C37.8623 25.8126 39.045 24.6299 39.045 23.1709C39.045 21.712 37.8623 20.5293 36.4034 20.5293C34.9444 20.5293 33.7617 21.712 33.7617 23.1709C33.7617 24.6299 34.9444 25.8126 36.4034 25.8126Z" fill="#8F11A6"/>
<path d="M43.4287 25.8126C44.8876 25.8126 46.0704 24.6299 46.0704 23.1709C46.0704 21.712 44.8876 20.5293 43.4287 20.5293C41.9698 20.5293 40.7871 21.712 40.7871 23.1709C40.7871 24.6299 41.9698 25.8126 43.4287 25.8126Z" fill="#8F11A6"/>
<path d="M50.3018 25.8126C51.7607 25.8126 52.9434 24.6299 52.9434 23.1709C52.9434 21.712 51.7607 20.5293 50.3018 20.5293C48.8428 20.5293 47.6602 21.712 47.6602 23.1709C47.6602 24.6299 48.8428 25.8126 50.3018 25.8126Z" fill="#8F11A6"/>
<path fill-rule="evenodd" clip-rule="evenodd" d="M75.823 80.7585H56.7547C56.674 80.7585 56.6053 80.6927 56.6053 80.6091V79.9905C56.6053 78.7952 56.7995 77.6506 57.1522 76.5838C57.5197 75.4841 58.0606 74.4741 58.742 73.5836C59.4352 72.6841 60.2749 71.9072 61.2252 71.2916C62.1575 70.688 63.1975 70.2397 64.3151 69.9797H64.324C65.1787 69.7825 66.0304 69.6958 66.8641 69.7168C67.7128 69.7347 68.5495 69.8662 69.3504 70.1022L69.3593 70.1052C70.1661 70.3413 70.9401 70.685 71.6663 71.1242C72.3954 71.5635 73.0797 72.1014 73.7042 72.7289C74.1495 73.1772 74.5709 73.6912 74.9444 74.2619C75.294 74.7998 75.6018 75.3885 75.8558 76.025L75.8588 76.037C76.0919 76.6316 76.2801 77.2681 76.4057 77.9465C76.5252 78.592 76.591 79.2763 76.591 79.9905V80.6091C76.591 80.6927 76.5222 80.7585 76.4415 80.7585H75.823ZM61.6973 61.8606C61.6973 61.2091 61.8258 60.5995 62.0589 60.0437C62.3069 59.452 62.6685 58.9261 63.1108 58.4838C63.3439 58.2537 63.5979 58.0445 63.8698 57.8592C64.1447 57.677 64.4376 57.5186 64.7394 57.3901C65.0472 57.2586 65.3699 57.157 65.6956 57.0913C66.0184 57.0225 66.3471 56.9897 66.6758 56.9897C67.2824 56.9897 67.898 57.1032 68.4897 57.3542C69.0365 57.5873 69.5655 57.9369 70.0436 58.4151L70.0496 58.421C70.5247 58.8962 70.8714 59.4221 71.1014 59.972C71.3495 60.5636 71.469 61.1792 71.469 61.7888C71.469 62.1146 71.4332 62.4433 71.3674 62.766C71.2987 63.0917 71.2001 63.4145 71.0686 63.7223C70.9431 64.0241 70.7847 64.3169 70.5994 64.5889C70.4172 64.8638 70.208 65.1178 69.9779 65.3509C69.5356 65.7902 69.0097 66.1517 68.421 66.3998C67.8651 66.6328 67.2525 66.7613 66.5981 66.7613C65.9676 66.7613 65.352 66.6239 64.7813 66.3759L64.7723 66.3699C64.1806 66.1129 63.6397 65.7364 63.1825 65.2792C62.7193 64.819 62.3428 64.2721 62.0828 63.6774C61.8348 63.1067 61.6973 62.4911 61.6973 61.8606ZM59.2529 64.7413C59.5368 65.4047 59.982 66.0711 60.6215 67.0243C60.7709 67.2275 60.9144 67.4606 61.0549 67.6698C61.1027 67.7385 61.0817 67.8311 61.016 67.876L60.3646 68.3123C58.5776 69.5106 57.3075 70.3622 55.9299 72.3196C53.6678 75.5379 53.6738 78.075 53.6827 81.7685L53.6857 82.5365C53.6857 82.662 53.7246 82.7965 53.7933 82.925L53.7963 82.9339C53.868 83.0654 53.9696 83.1909 54.0981 83.3015C54.2356 83.418 54.3999 83.5137 54.5822 83.5794C54.7525 83.6422 54.9438 83.678 55.147 83.678H78.0492C78.7036 83.678 79.0772 83.3941 79.2864 82.9459C79.5075 82.4678 79.5583 81.7954 79.5583 81.0633L79.5523 80.4626L79.5344 79.853C79.5224 79.4287 79.5105 79.0043 79.5105 78.7175C79.5105 77.8329 79.382 76.9932 79.1579 76.1983C78.9367 75.4005 78.614 74.6444 78.2255 73.9362C77.8311 73.213 77.3619 72.5257 76.8539 71.8833C76.3459 71.2378 75.7961 70.6312 75.2403 70.0694C74.6306 69.4538 74.0898 69.1131 73.4592 68.7127L73.4114 68.6828C73.1903 68.5453 72.9572 68.3989 72.6942 68.2196L72.1803 67.876C72.1115 67.8311 72.0936 67.7385 72.1414 67.6698L72.5657 67.0363C72.984 66.4147 73.3188 65.9157 73.5787 65.4584C73.8357 65.0072 74.024 64.5978 74.1525 64.1496C74.2959 63.6386 74.3856 63.1156 74.4245 62.5957C74.4603 62.0578 74.4453 61.5199 74.3796 60.991C74.278 60.1841 74.0599 59.3922 73.7431 58.6482C73.4174 57.8951 72.9931 57.1869 72.4821 56.5564C71.9681 55.9199 71.3645 55.361 70.6951 54.9068C70.0496 54.4705 69.3414 54.1329 68.5883 53.9207C68.1461 53.7952 67.6828 53.7115 67.2077 53.6756C66.7505 53.6428 66.2754 53.6547 65.7913 53.7145C65.3908 53.7653 64.9994 53.843 64.6229 53.9446C64.2344 54.0462 63.8639 54.1777 63.5053 54.3271C62.6984 54.6707 61.9663 55.1339 61.3268 55.6868C60.6783 56.2516 60.1255 56.912 59.6922 57.6381C59.2559 58.3673 58.9361 59.1681 58.7598 60.0108C58.5895 60.8266 58.5477 61.6813 58.6553 62.5479C58.7031 62.9154 58.7748 63.286 58.8764 63.6535C58.975 64.0151 59.1005 64.3797 59.2529 64.7413Z" fill="#8F11A6"/>
</svg>
