<svg width="100" height="100" viewBox="0 0 100 100" fill="none" xmlns="http://www.w3.org/2000/svg">
<path d="M100 50.0026C100 77.6126 77.6167 100 50.0001 100C22.3834 100 0 77.6126 0 50.0026C0 22.3874 22.3834 0 50.0001 0C77.6167 0 100 22.3874 100 50.0026Z" fill="#F2F2F2"/>
<path fill-rule="evenodd" clip-rule="evenodd" d="M30.704 39.5435C30.704 33.9945 31.5566 31.2465 34.4192 26.9387C36.8093 23.3465 41.802 20.0926 46.0959 19.2204C52.3885 17.9373 57.9459 19.1701 62.9246 23.1061C63.4362 23.5114 63.7074 23.8581 64.2022 24.2355C65.5999 25.3005 67.5092 28.2162 68.2919 29.7761C70.573 34.3187 70.9951 40.3262 69.2451 45.1792C68.6441 46.8481 67.7999 48.3101 66.9613 49.7162C65.4042 52.3356 62.0888 56.9425 60.185 59.7967L56.0645 65.8405C55.4355 66.7882 50.7783 73.3771 50.6357 73.9222H50.3673C50.2331 73.4246 49.3889 72.3931 49.0562 71.8871L40.8683 59.875C38.1427 55.7628 33.2926 49.3137 31.7914 45.277C31.2463 43.8038 30.704 41.5143 30.704 39.5435ZM27.8945 38.4728C27.8945 45.9954 30.8801 49.9734 34.394 55.2484L43.7868 68.9966C44.3263 69.7933 44.768 70.5369 45.3411 71.3224L49.238 77.0587C50.6553 79.1358 52.1006 76.536 52.4528 76.0076L61.8455 62.2595C63.7856 59.3997 68.1522 53.1434 69.5723 50.7226C74.7103 41.9783 74.3022 32.2725 68.0068 24.3109C64.1965 19.4915 57.5377 16 51.3038 16C47.1889 16 44.1725 16.4724 40.8683 18.1385C39.3308 18.9157 37.0721 20.2128 35.8169 21.3813C34.9308 22.2087 33.8321 23.2235 33.1081 24.1572C29.91 28.3001 27.8945 32.6247 27.8945 38.4728Z" fill="#8F11A6"/>
<path fill-rule="evenodd" clip-rule="evenodd" d="M20 75.9266C20 81.688 35.0704 83.6029 39.3866 83.9663C42.5176 84.2291 45.4444 84.4192 48.3657 84.4891H53.2717C54.8959 84.4472 56.548 84.3633 58.2672 84.2291C59.3938 84.1397 59.992 84.1928 61.51 83.9943C62.972 83.8014 64.1433 83.7036 65.5578 83.4939C69.6057 82.8985 81 80.9361 81 75.9266C81 70.9311 70.1563 69.1447 66.033 68.4123C65.5438 68.3229 65.2307 68.2558 64.7891 68.5437C63.819 69.1755 63.889 70.7717 65.2476 71.0792C65.9911 71.2497 66.6536 71.2973 67.4336 71.437C68.9515 71.7082 70.1564 72.0157 71.5821 72.3679C72.9323 72.7034 78.1905 74.4086 78.1905 75.7952C78.1905 78.3223 68.5826 80.2959 66.1589 80.6174C64.996 80.7711 63.7128 80.9724 62.5164 81.1206L50.5014 81.8138C49.0114 81.8138 48.0078 81.6797 46.4871 81.6797C45.6708 81.6797 45.0698 81.6685 44.4436 81.5818L40.5635 81.3162C36.1718 80.7515 32.4818 80.5559 27.9755 79.0575C23.3266 77.5116 20.4221 75.9881 25.6217 73.6566C28.8645 72.2002 32.2106 71.7669 35.6407 71.1016C37.5639 70.727 37.1278 68.0433 35.0816 68.39C30.8856 69.0972 20 70.9674 20 75.9266Z" fill="#8F11A6"/>
<path d="M50.4955 54.5583C59.3436 54.5583 66.5163 47.3855 66.5163 38.5375C66.5163 29.6894 59.3436 22.5166 50.4955 22.5166C41.6474 22.5166 34.4746 29.6894 34.4746 38.5375C34.4746 47.3855 41.6474 54.5583 50.4955 54.5583Z" stroke="#8F11A6" stroke-width="2" stroke-miterlimit="2.61313" stroke-linecap="round" stroke-linejoin="round"/>
<path fill-rule="evenodd" clip-rule="evenodd" d="M58.4459 43.3734L59.4467 42.3503L60.4698 43.3511L59.469 44.3742L58.4459 43.3734ZM50.2663 41.6347C48.6729 41.6347 46.2436 41.3663 44.9438 40.4074C44.818 40.3124 44.8291 40.2649 44.6726 40.2229V36.4938C44.8515 36.5078 45.1925 36.6587 45.3547 36.723L49.4417 38.2298C50.4648 38.6099 50.2076 38.4478 51.5802 37.9893C51.7899 37.9223 52.0191 37.8384 52.2512 37.7489L55.7259 36.4938V40.1782C55.5498 40.2984 55.4044 40.413 55.2171 40.5332C53.9787 41.3327 51.7759 41.6347 50.2663 41.6347ZM50.3138 30.6708C50.4145 30.6708 51.214 30.9923 51.3873 31.0538C53.7998 31.8896 56.3102 32.8373 58.7366 33.7123C58.9128 33.7738 58.9099 33.7291 59.0022 33.8549C58.8009 33.8716 58.622 33.9751 58.4515 34.031C58.2502 34.0981 58.116 34.1596 57.9147 34.2239L50.2216 36.9942C50.0064 36.9942 49.3326 36.7118 49.1258 36.6363L42.1539 34.0561C41.9386 33.9806 41.8044 33.908 41.578 33.8549L43.7222 33.0414C44.7537 32.6975 45.9781 32.1943 46.9985 31.8589L49.2013 31.0622C49.3466 31.0063 50.2384 30.6708 50.3138 30.6708ZM38.8496 33.7179C38.8496 34.3972 39.1795 34.4195 39.7134 34.6292L42.6655 35.725C42.8332 35.7865 43.1043 35.8732 43.2609 35.9487V40.318C43.2553 41.0001 43.9514 41.4334 44.4713 41.7465C44.8795 41.9897 45.1702 42.1462 45.6342 42.3112C47.155 42.8591 48.2061 42.9765 49.7687 42.9988C49.9784 43.0016 50.0315 43.0408 50.1769 43.0408L51.8123 42.9513C53.6125 42.8115 55.5889 42.2441 56.8525 40.9861C57.2355 40.6087 57.1376 40.2062 57.1376 39.4961C57.1376 38.3276 57.1376 37.1619 57.1376 35.9934L58.7757 35.4035C58.7757 37.0389 58.773 38.677 58.7757 40.3152C58.7757 41.274 58.9323 40.9078 57.9203 41.9198C57.7051 42.135 57.5234 42.3167 57.3081 42.532C56.9084 42.9317 56.7742 42.9401 56.7742 43.4545C56.7742 43.8011 58.1412 45.0284 58.4459 45.3303C58.8932 45.7775 58.7757 45.498 58.7757 46.7755C58.773 47.1026 58.7366 47.329 58.8708 47.5415C59.1028 47.9161 59.7094 48.0055 60.0141 47.561C60.3412 47.0858 59.9275 45.8894 60.2378 45.5539C60.3105 45.4756 60.3888 45.4113 60.4698 45.3303C60.7717 45.0284 62.1415 43.8011 62.1415 43.4545C62.1415 42.9932 62.0744 43.0016 61.7194 42.6466C61.5209 42.4453 60.14 41.1454 60.14 40.9973V34.9926C60.14 34.6292 61.7781 34.7885 61.7781 33.7654C61.7781 33.6284 61.697 33.4914 61.6327 33.4076C61.437 33.1448 60.9702 33.0386 60.6208 32.9184L53.2743 30.2571C52.8466 30.1145 50.5375 29.2144 50.3138 29.2144C50.1377 29.2144 46.3638 30.5981 45.9138 30.777C45.6678 30.8721 45.419 30.9531 45.1786 31.0398C44.9382 31.1265 44.681 31.2159 44.4378 31.3026C43.9458 31.4787 43.4845 31.6688 42.9729 31.8365L39.2997 33.1672C39.1739 33.2175 39.0844 33.2706 39.0034 33.3712C38.9279 33.4635 38.8496 33.5781 38.8496 33.7179Z" fill="#8F11A6"/>
</svg>
