<svg width="100" height="100" viewBox="0 0 100 100" fill="none" xmlns="http://www.w3.org/2000/svg">
<path d="M100 50.0026C100 77.6126 77.6167 100 50.0001 100C22.3834 100 0 77.6126 0 50.0026C0 22.3874 22.3834 0 50.0001 0C77.6167 0 100 22.3874 100 50.0026Z" fill="#F2F2F2"/>
<path d="M49.9654 26.2815C52.7064 26.2815 55.3249 26.826 57.7116 27.8161C60.1946 28.8453 62.4275 30.3487 64.2931 32.2142C66.1586 34.0798 67.662 36.3127 68.6911 38.7957C69.6812 41.1849 70.2257 43.8009 70.2257 46.5418C70.2257 49.2802 69.6812 51.8987 68.6911 54.288C67.662 56.7684 66.1586 59.0013 64.2931 60.8669C62.4275 62.7324 60.1946 64.2384 57.7116 65.2649C55.3223 66.255 52.7064 66.8022 49.9654 66.8022C47.2271 66.8022 44.6085 66.255 42.2193 65.2649C39.7388 64.2384 37.5059 62.7324 35.6404 60.8669C33.7748 59.0013 32.2689 56.7684 31.2423 54.288C30.2522 51.8987 29.7051 49.2802 29.7051 46.5418C29.7051 43.8009 30.2522 41.1849 31.2423 38.7957C32.2689 36.3127 33.7748 34.0798 35.6404 32.2142C37.5059 30.3487 39.7388 28.8453 42.2193 27.8161C44.6085 26.826 47.2271 26.2815 49.9654 26.2815ZM62.5109 33.9964C60.8746 32.3575 58.9205 31.0391 56.7527 30.1402C54.6657 29.2752 52.3729 28.7984 49.9654 28.7984C47.5606 28.7984 45.2677 29.2752 43.1807 30.1402C41.0129 31.0391 39.0588 32.3575 37.42 33.9964C35.7837 35.6326 34.4627 37.5868 33.5664 39.7545C32.7014 41.8415 32.2246 44.1344 32.2246 46.5418C32.2246 48.9467 32.7014 51.2396 33.5664 53.3292C34.4627 55.4943 35.7837 57.4485 37.42 59.0873C39.0588 60.7236 41.0103 62.0446 43.1781 62.9408C45.2677 63.8059 47.5606 64.2827 49.9654 64.2827C52.3729 64.2827 54.6657 63.8059 56.7527 62.9408C58.9205 62.0446 60.8746 60.7236 62.5109 59.0873C65.7235 55.8773 67.7089 51.4402 67.7089 46.5418C67.7089 44.1344 67.232 41.8415 66.367 39.7545C65.4681 37.5868 64.1497 35.6326 62.5109 33.9964Z" fill="#8F11A6"/>
<path d="M49.9647 31.5471C51.9918 31.5471 53.9303 31.951 55.6968 32.6831C57.5337 33.4465 59.1881 34.5591 60.5665 35.94C61.9474 37.3183 63.0599 38.9728 63.8233 40.8097C64.5555 42.5762 64.9593 44.5147 64.9593 46.5418C64.9593 48.5688 64.5555 50.5047 63.8233 52.2738C63.0625 54.1107 61.9474 55.7626 60.5665 57.1435C59.1881 58.5244 57.5337 59.637 55.6968 60.3978C53.9303 61.1299 51.9918 61.5338 49.9647 61.5338C47.9376 61.5338 46.0017 61.1299 44.2326 60.3978C42.3957 59.637 40.7438 58.5244 39.3629 57.1435C37.9846 55.7626 36.8695 54.1107 36.1086 52.2738C35.3765 50.5047 34.9727 48.5688 34.9727 46.5418C34.9727 44.5147 35.3765 42.5788 36.1086 40.8097C36.8695 38.9728 37.9846 37.3183 39.3629 35.94C40.7438 34.5591 42.3957 33.4465 44.2326 32.6831C46.0017 31.951 47.9376 31.5471 49.9647 31.5471ZM58.7869 37.7195C56.5306 35.4632 53.4118 34.0666 49.9647 34.0666C48.2711 34.0666 46.6609 34.4001 45.194 35.0098C43.6698 35.6403 42.2967 36.5679 41.1425 37.7195C39.9908 38.8712 39.0633 40.2443 38.4328 41.7685C37.8257 43.2354 37.4896 44.8482 37.4896 46.5418C37.4896 48.2353 37.8257 49.8455 38.4328 51.315C39.0633 52.8366 39.9908 54.2123 41.1425 55.364C42.2941 56.5156 43.6698 57.4432 45.1914 58.0737C46.6609 58.6808 48.2711 59.0169 49.9647 59.0169C51.6583 59.0169 53.2711 58.6808 54.738 58.0737C56.2622 57.4432 57.6353 56.5156 58.7869 55.364C59.9385 54.2123 60.8661 52.8366 61.4966 51.315C62.1063 49.8455 62.4398 48.2353 62.4398 46.5418C62.4398 44.8482 62.1063 43.2354 61.4966 41.7685C60.8661 40.2443 59.9385 38.8712 58.7869 37.7195Z" fill="#8F11A6"/>
<path d="M18.8312 80.5777C19.1022 80.8486 19.4174 81.0571 19.7562 81.2004C20.1079 81.3489 20.4831 81.4245 20.8557 81.4271C21.2309 81.4297 21.6087 81.3567 21.963 81.2134C22.3043 81.0753 22.6248 80.8721 22.8984 80.5985L32.9764 70.6533C33.3204 70.3615 33.6956 70.3302 34.0343 70.4605C34.2063 70.5257 34.3652 70.6377 34.4955 70.7758C34.6153 70.9035 34.7169 71.0572 34.7899 71.2187C34.9722 71.633 34.9749 72.1306 34.67 72.5032L24.6597 82.3885C24.1412 82.8992 23.5471 83.2848 22.9114 83.5427C22.2522 83.8085 21.5487 83.9388 20.8453 83.9362C19.3523 83.9257 18.0105 83.316 17.0438 82.339C16.0772 81.3619 15.4884 80.0123 15.4962 78.5245C15.5014 77.8158 15.6421 77.1124 15.9157 76.4584C16.1814 75.8252 16.5748 75.2338 17.0933 74.7205L34.5867 57.4513C34.7899 57.2506 35.1208 57.2533 35.3214 57.4591C35.3865 57.5242 35.4282 57.6024 35.4517 57.6858C35.522 57.9046 35.608 58.1261 35.707 58.3528L35.7174 58.3788C35.8112 58.5925 35.9181 58.8035 36.0353 59.0094C36.1578 59.223 36.1109 59.4888 35.9363 59.6477L18.8547 76.5105C18.5811 76.7789 18.3752 77.0967 18.2319 77.4328C18.0834 77.7872 18.0079 78.1624 18.0053 78.535C18.0027 78.9075 18.073 79.2879 18.2189 79.6423C18.357 79.9836 18.5602 80.3015 18.8312 80.5777Z" fill="#8F11A6"/>
<path d="M48.1636 17.1412C48.1636 16.8077 48.3173 16.5133 48.5674 16.3048C48.7889 16.1172 49.0937 16 49.422 16C49.7503 16 50.0552 16.1172 50.2766 16.3048C50.5267 16.5133 50.6805 16.8077 50.6805 17.1412V22.2454C50.6805 22.5789 50.5267 22.8733 50.2766 23.0817C50.0552 23.2693 49.7503 23.3866 49.422 23.3866C49.0937 23.3866 48.7889 23.2693 48.5674 23.0817C48.3173 22.8733 48.1636 22.5789 48.1636 22.2454V17.1412ZM41.3736 19.6581C41.6941 19.6269 42.012 19.7207 42.2491 19.9525L45.9072 23.5143C46.1469 23.7461 46.2511 24.064 46.2277 24.3871C46.2068 24.6633 46.087 24.9499 45.8733 25.1818L45.8421 25.2157C45.6128 25.4475 45.3184 25.583 45.0291 25.6117C44.7243 25.6429 44.4221 25.557 44.1876 25.3511L40.4956 21.7555C40.2559 21.5237 40.1516 21.2058 40.1751 20.8853C40.1985 20.5935 40.3262 20.2965 40.5555 20.0594C40.7874 19.8249 41.0818 19.6868 41.3736 19.6581ZM56.6549 19.9525C56.892 19.7207 57.2124 19.6269 57.5329 19.6581C57.8221 19.6868 58.1192 19.8249 58.3484 20.0594C58.5777 20.2965 58.708 20.5961 58.7288 20.8853C58.7523 21.2084 58.6481 21.5237 58.411 21.7555L54.7529 25.3173C54.5132 25.5491 54.1953 25.6455 53.8748 25.6117C53.5856 25.583 53.2938 25.4475 53.0645 25.2157L53.0306 25.1792C52.8196 24.9499 52.6997 24.6633 52.6789 24.3871C52.6554 24.0666 52.7571 23.754 52.9916 23.5195L56.6549 19.9525Z" fill="#8F11A6"/>
<path fill-rule="evenodd" clip-rule="evenodd" d="M55.8551 59.4782H46.134C46.9 59.783 46.3633 59.8039 52.0511 59.8039L55.394 59.7648L55.8551 59.4782ZM42.072 58.1546C42.4212 53.892 45.8787 50.6482 50.1491 50.7498C53.2679 50.8253 56.1079 52.8368 57.2569 55.7367L57.2595 55.7471C57.5774 56.5548 57.7571 57.4016 57.8171 58.264L60.076 56.8675C59.753 54.559 58.3694 52.6466 56.7697 51.0285C56.1313 50.3824 55.1334 49.8196 54.3518 49.2985C54.297 49.262 54.284 49.1865 54.3205 49.1344C54.8729 48.311 55.6441 47.2949 55.9098 46.3491C57.0667 42.2506 53.7186 37.5529 49.3023 38.1027C45.084 38.6316 42.4446 42.8369 44.1356 46.8181C44.4665 47.5997 45.0762 48.4152 45.5582 49.1344C45.5947 49.1865 45.5817 49.262 45.5269 49.2985C43.9037 50.385 42.6739 51.1484 41.5093 52.8081C40.6494 54.0275 40.2039 55.1244 39.9746 56.2578L41.1601 57.0499L41.9861 58.0738C41.9861 58.1624 42.0304 58.139 42.072 58.1546ZM46.0637 44.5409C46.0637 41.8364 48.9636 39.9343 51.4336 40.9792C53.3955 41.8103 54.3049 44.0406 53.4737 46.013C52.3846 48.5976 49.2189 49.2229 47.2387 47.2454C46.5248 46.5289 46.0637 45.5596 46.0637 44.5409Z" fill="#8F11A6"/>
<path fill-rule="evenodd" clip-rule="evenodd" d="M82.8975 59.478H67.8273C67.7622 59.478 67.7101 59.4259 67.7101 59.3608V58.8709C67.7101 57.9277 67.8612 57.021 68.1426 56.1794C68.4318 55.3092 68.8591 54.5093 69.3984 53.8058C69.9456 53.0945 70.61 52.4822 71.3604 51.995C72.0977 51.5182 72.921 51.1639 73.8043 50.958H73.8095C74.4843 50.8017 75.1566 50.734 75.8183 50.7496C76.4906 50.7652 77.1498 50.8694 77.7829 51.057H77.7907C78.4265 51.2446 79.0388 51.5156 79.6146 51.8621C80.1878 52.2087 80.7297 52.6333 81.2248 53.131C81.5765 53.4853 81.9074 53.8918 82.2044 54.3426C82.4806 54.7673 82.7255 55.2336 82.9235 55.7365L82.9262 55.7469C83.1111 56.2159 83.2597 56.7188 83.3587 57.2555C83.4525 57.7662 83.5046 58.3055 83.5046 58.8709V59.3608C83.5046 59.4259 83.4525 59.478 83.3873 59.478H82.8975ZM71.7329 44.5407C71.7329 44.0274 71.8372 43.5428 72.0196 43.105C72.215 42.6387 72.5016 42.2218 72.8507 41.8727C73.0331 41.6903 73.2363 41.5235 73.4526 41.3802C73.6689 41.2343 73.8981 41.1092 74.1378 41.0076C74.3827 40.9034 74.6355 40.8252 74.8961 40.7705C75.1488 40.7184 75.4093 40.6897 75.6699 40.6897C76.1493 40.6897 76.6339 40.7836 77.1003 40.979C77.5354 41.164 77.9523 41.4401 78.3301 41.8179L78.3353 41.8231C78.7105 42.1983 78.9841 42.6152 79.1664 43.0477C79.3645 43.5141 79.4557 44.0039 79.4557 44.486C79.4557 44.7439 79.4296 45.0019 79.3775 45.2572C79.3228 45.5151 79.2446 45.7679 79.1404 46.0128C79.0413 46.2525 78.9163 46.4818 78.7704 46.698C78.6271 46.9143 78.4604 47.1149 78.278 47.2999C77.9288 47.649 77.5145 47.933 77.0481 48.1284C76.6078 48.3134 76.1232 48.4151 75.6074 48.4151C75.1097 48.4151 74.6225 48.3056 74.1717 48.1102L74.1665 48.1076C73.6975 47.9018 73.2676 47.6047 72.908 47.2452C72.5433 46.8804 72.2436 46.4479 72.0404 45.9763C71.8424 45.5256 71.7329 45.0383 71.7329 44.5407ZM69.8023 46.8179C70.0264 47.3416 70.3781 47.8679 70.8836 48.6235C71.0008 48.7824 71.1155 48.9674 71.2275 49.1342C71.264 49.1863 71.2483 49.2618 71.1936 49.2957L70.6829 49.6422C69.2681 50.588 68.265 51.2603 67.1759 52.8079C65.3886 55.3535 65.3938 57.3545 65.399 60.2753L65.4016 60.8824C65.4016 60.9814 65.4329 61.0882 65.485 61.1898L65.4902 61.1976C65.5449 61.3018 65.6283 61.4009 65.7299 61.4868C65.8367 61.5806 65.9644 61.6562 66.1103 61.7083C66.2431 61.7578 66.3943 61.7839 66.5559 61.7839H84.6588C85.1747 61.7839 85.4718 61.5624 85.6359 61.2054C85.8105 60.8276 85.8521 60.2961 85.8521 59.7177L85.8469 59.2435L85.8313 58.7615C85.8235 58.4254 85.8131 58.0919 85.8131 57.8652C85.8131 57.1643 85.7114 56.4999 85.5343 55.872C85.3597 55.2415 85.1044 54.6474 84.7969 54.0846C84.4843 53.514 84.1143 52.9721 83.713 52.4614C83.3118 51.9507 82.8767 51.4739 82.4363 51.0284C81.9569 50.5437 81.5296 50.2728 81.0293 49.9575L80.9929 49.9341C80.8183 49.8246 80.6334 49.71 80.4249 49.5693L80.021 49.2957C79.9663 49.2618 79.9507 49.1863 79.9871 49.1342L80.3259 48.6313C80.6542 48.1415 80.9173 47.7454 81.1258 47.3859C81.329 47.0289 81.4775 46.7058 81.5765 46.3489C81.6912 45.945 81.7615 45.5334 81.7928 45.1217C81.8215 44.6996 81.811 44.2723 81.7563 43.8528C81.6781 43.2145 81.5062 42.5918 81.2534 42.0029C80.9981 41.4063 80.662 40.8487 80.2581 40.3484C79.8517 39.8456 79.3749 39.4052 78.846 39.0457C78.3353 38.7018 77.7751 38.4334 77.1784 38.264C76.8293 38.165 76.4645 38.0999 76.0893 38.0738C75.7272 38.0478 75.352 38.0556 74.969 38.1025C74.6537 38.1416 74.3437 38.2041 74.0441 38.2849C73.7392 38.3656 73.4448 38.4673 73.1634 38.5871C72.5276 38.8581 71.9466 39.2255 71.4412 39.6632C70.9279 40.1087 70.4927 40.6298 70.1488 41.2056C69.8049 41.7815 69.5522 42.4146 69.4115 43.079C69.276 43.7226 69.2447 44.4 69.3307 45.0852C69.3672 45.3744 69.4245 45.6689 69.5026 45.9581C69.5808 46.2447 69.6824 46.5313 69.8023 46.8179Z" fill="#8F11A6"/>
<path fill-rule="evenodd" clip-rule="evenodd" d="M31.4995 59.478H16.4293C16.3641 59.478 16.312 59.4259 16.312 59.3608V58.8709C16.312 57.9277 16.4632 57.021 16.7446 56.1794C17.0338 55.3092 17.4611 54.5093 18.0004 53.8058C18.5476 53.0945 19.2094 52.4822 19.9623 51.995C20.6997 51.5182 21.523 51.1639 22.4063 50.958H22.4115C23.0863 50.8017 23.7586 50.734 24.4204 50.7496C25.09 50.7652 25.7518 50.8694 26.3849 51.057H26.3927C27.0284 51.2446 27.6407 51.5156 28.2165 51.8621C28.7898 52.2087 29.3317 52.6333 29.8268 53.131C30.1785 53.4853 30.5094 53.8918 30.8064 54.3426C31.0826 54.7673 31.3275 55.2336 31.5256 55.7365L31.5282 55.7469C31.7132 56.2159 31.8616 56.7188 31.9606 57.2555C32.0544 57.7662 32.1066 58.3055 32.1066 58.8709V59.3608C32.1066 59.4259 32.0544 59.478 31.9893 59.478H31.4995ZM20.3349 44.5407C20.3349 44.0274 20.4392 43.5428 20.6215 43.105C20.817 42.6387 21.1035 42.2218 21.4527 41.8727C21.6351 41.6903 21.8383 41.5235 22.0546 41.3802C22.2708 41.2343 22.5001 41.1092 22.7398 41.0076C22.9847 40.9034 23.2374 40.8252 23.4954 40.7705C23.7507 40.7184 24.0113 40.6897 24.2692 40.6897C24.7513 40.6897 25.2359 40.7836 25.7023 40.979C26.1374 41.164 26.5543 41.4401 26.9321 41.8179L26.9373 41.8231C27.3125 42.1983 27.586 42.6152 27.7684 43.0477C27.9664 43.5141 28.0576 44.0039 28.0576 44.486C28.0576 44.7439 28.029 45.0019 27.9769 45.2572C27.9248 45.5151 27.8466 45.7679 27.7424 46.0128C27.6434 46.2525 27.5183 46.4818 27.3724 46.698C27.2291 46.9143 27.0623 47.1149 26.8799 47.2999C26.5308 47.649 26.1165 47.933 25.6501 48.1284C25.2098 48.3134 24.7252 48.4151 24.2093 48.4151C23.7116 48.4151 23.2244 48.3056 22.7737 48.1102L22.7659 48.1076C22.2995 47.9018 21.8696 47.6047 21.5074 47.2452C21.1452 46.8804 20.8456 46.4479 20.6424 45.9763C20.4444 45.5256 20.3349 45.0383 20.3349 44.5407ZM18.4043 46.8179C18.6283 47.3416 18.9801 47.8679 19.4855 48.6235C19.6028 48.7824 19.7174 48.9674 19.8295 49.1342C19.8659 49.1863 19.8503 49.2618 19.7956 49.2957L19.2823 49.6422C17.8701 50.588 16.8644 51.2603 15.7779 52.8079C13.9905 55.3535 13.9932 57.3545 14.001 60.2753L14.0036 60.8824C14.0036 60.9814 14.0348 61.0882 14.0869 61.1898L14.0895 61.1976C14.1469 61.3018 14.2303 61.4009 14.3293 61.4868C14.4387 61.5806 14.5664 61.6562 14.7123 61.7083C14.8451 61.7578 14.9963 61.7839 15.1578 61.7839H33.2608C33.7767 61.7839 34.0711 61.5624 34.2379 61.2054C34.4124 60.8276 34.4515 60.2961 34.4515 59.7177L34.4489 59.2435L34.4333 58.7615C34.4228 58.4254 34.4124 58.0919 34.4124 57.8652C34.4124 57.1643 34.3134 56.4999 34.1363 55.872C33.9617 55.2415 33.7063 54.6474 33.3989 54.0846C33.0862 53.514 32.7162 52.9721 32.315 52.4614C31.9111 51.9507 31.4787 51.4739 31.0383 51.0284C30.5589 50.5437 30.1316 50.2728 29.6313 49.9575L29.5923 49.9341C29.4203 49.8246 29.2353 49.71 29.0269 49.5693L28.6204 49.2957C28.5683 49.2618 28.5527 49.1863 28.5891 49.1342L28.9278 48.6313C29.2561 48.1415 29.5193 47.7454 29.7277 47.3859C29.931 47.0289 30.0795 46.7058 30.1785 46.3489C30.2931 45.945 30.3635 45.5334 30.3947 45.1217C30.4234 44.6996 30.4104 44.2723 30.3583 43.8528C30.2801 43.2145 30.1055 42.5918 29.8554 42.0029C29.6001 41.4063 29.264 40.8487 28.8601 40.3484C28.4537 39.8456 27.9769 39.4052 27.4479 39.0457C26.9373 38.7018 26.3771 38.4334 25.7804 38.264C25.4313 38.165 25.0665 38.0999 24.6913 38.0738C24.3292 38.0478 23.954 38.0556 23.571 38.1025C23.2557 38.1416 22.9456 38.2041 22.646 38.2849C22.3412 38.3656 22.0467 38.4673 21.7653 38.5871C21.127 38.8581 20.5486 39.2255 20.0431 39.6632C19.5298 40.1087 19.0947 40.6298 18.7508 41.2056C18.4043 41.7815 18.1541 42.4146 18.0134 43.079C17.878 43.7226 17.8467 44.4 17.9327 45.0852C17.9691 45.3744 18.0265 45.6689 18.1046 45.9581C18.1828 46.2447 18.2818 46.5313 18.4043 46.8179Z" fill="#8F11A6"/>
</svg>
