<svg width="61" height="77" viewBox="0 0 61 77" fill="none" xmlns="http://www.w3.org/2000/svg">
<g id="Group 40051">
<path id="Vector" fill-rule="evenodd" clip-rule="evenodd" d="M11.3192 26.6122C11.061 28.1127 11.0235 29.6843 11.0235 31.7311C11.0235 32.8723 11.2219 34.0735 11.5137 35.2185C11.8917 36.6853 12.4268 38.0661 12.9207 39.0988C15.2145 43.9258 19.2631 47.2748 23.9293 48.8913C28.7151 50.5527 34.1483 50.388 39.0015 48.1279L39.458 47.9109C44.0231 45.6284 47.3235 41.5909 48.9287 36.9248C50.5377 32.2549 50.4442 26.9639 48.2215 22.1893L47.9895 21.7029C47.0503 19.8282 45.8941 18.2379 44.5283 16.8609C43.1587 15.4839 41.5685 14.3089 39.7724 13.2649C39.5479 13.1377 39.3084 13.0105 39.0577 12.887C38.8182 12.7673 38.5562 12.6513 38.2868 12.5428C33.3213 10.5184 28.1501 10.5446 23.6561 12.1873C19.0798 13.8636 15.2032 17.2238 12.9693 21.8001C12.0638 23.6449 11.5774 25.108 11.3192 26.6122ZM9.37715 39.1475C8.25459 36.3897 7.68956 33.355 7.68956 30.036C7.68956 28.5056 7.9103 26.8891 8.25829 25.3736C8.65119 23.6823 9.20502 22.1145 9.79624 20.9395C10.4099 19.7084 11.0685 18.5784 11.7981 17.5082C12.5241 16.438 13.3323 15.424 14.2453 14.4287C14.9937 13.6878 16.4829 12.5128 17.3473 11.8505C21.1827 9.0703 25.8863 7.68206 30.5823 7.69329C35.2634 7.70451 39.9445 9.11146 43.7462 11.9179C44.8426 12.7261 45.8342 13.5643 46.7472 14.481C47.664 15.4015 48.4984 16.4044 49.2842 17.5344C52.0232 21.4821 53.3628 26.0322 53.3217 30.5861C53.2843 35.1624 51.8586 39.7424 49.0672 43.7125C47.0204 46.6237 44.2252 49.0447 41.0259 50.7248C37.8977 52.3712 34.384 53.3104 30.8106 53.3104C27.1697 53.3104 24.0303 52.5995 21.3174 51.4058C18.6046 50.2159 16.3183 48.5396 14.3912 46.6088C12.1723 44.3936 10.4997 41.909 9.37715 39.1475ZM37.8004 60.0832C37.4711 60.1618 37.183 60.2329 36.9397 60.3003L41.2354 67.7653C41.3477 67.9524 41.561 68.3341 41.8267 68.798C42.2906 69.625 42.9118 70.7326 43.3571 71.4622C43.6527 70.4856 44.1279 69.0338 44.6143 67.6194C45.3702 65.4042 46.1785 63.2301 46.373 63.0131C47.1439 62.1674 49.142 62.6352 50.8408 63.0356C51.2113 63.1216 51.5705 63.2039 51.911 63.275L56.057 64.0908C55.028 62.4893 54.1374 60.7792 53.172 59.1365C52.6855 58.246 52.1729 57.3704 51.664 56.4985C51.1551 55.6229 50.6425 54.7473 50.1448 53.8268C49.9764 53.9466 49.8268 54.0738 49.6659 54.2122C49.49 54.3619 49.3029 54.5228 49.0634 54.7024C43.7649 58.6464 39.9482 59.5668 37.8004 60.0832ZM17.6504 70.0142L17.976 70.9234C18.2342 70.5156 18.5148 69.9954 18.7505 69.5614C18.8927 69.2957 19.0274 69.0525 19.1472 68.8467L21.7964 64.2779L22.6271 62.7998C22.8965 62.3209 23.1397 61.9055 23.3792 61.5051C23.6075 61.116 23.8357 60.7306 24.0565 60.3377L23.8619 60.289C22.556 59.9635 19.9479 59.3161 16.7411 57.7109C14.3314 56.5097 12.6588 55.2188 11.5512 54.3619L10.8514 53.8343L9.52305 56.2179C9.2424 56.7343 8.96926 57.1908 8.69611 57.6398C8.42295 58.0925 8.14978 58.5453 7.88785 59.0355L5.24237 63.5706C6.6306 63.2638 8.72602 62.8185 10.5483 62.478C12.0974 62.1862 13.4595 61.9691 14.047 61.9691C15.1172 61.9691 15.8319 64.3564 16.322 66.0066L16.5914 66.8747L17.4371 69.4155L17.6504 70.0142ZM55.0991 42.2719C55.795 40.8612 56.3563 39.357 56.8877 37.4075C57.1309 36.5169 57.333 35.4243 57.4939 34.3017C57.6697 33.0258 57.7857 31.7236 57.8344 30.631C57.8568 30.1258 57.7895 29.2652 57.6885 28.3596C57.5537 27.1323 57.3591 25.8414 57.2282 25.2052C56.375 20.947 54.6238 17.134 52.1317 13.8973C49.5947 10.6119 46.2869 7.91406 42.3692 5.94209C39.8883 4.69231 36.9023 3.83542 33.8677 3.45001C30.8779 3.06833 27.8433 3.14317 25.2015 3.74936C22.7431 4.31064 20.8011 4.93179 18.9863 5.77745C17.1752 6.61937 15.4839 7.69329 13.5194 9.1601C13.2649 9.34719 13.149 9.45945 13.0255 9.57919C12.917 9.68022 12.801 9.79248 12.6401 9.93093L12.2659 10.2303C12.1087 10.3538 11.974 10.4548 11.757 10.6756C9.85236 12.5839 8.3032 14.4923 7.04967 16.5802C5.79615 18.6682 4.8345 20.9433 4.11606 23.5888C4.0038 23.9966 3.88406 24.5167 3.78303 25.0144C3.67451 25.5458 3.57725 26.0734 3.52486 26.4588C3.45751 26.949 3.43129 27.4391 3.40509 27.9256C3.3789 28.4831 3.34897 29.0369 3.26665 29.587C3.16936 30.2268 3.18807 31.1511 3.26665 32.1127C3.3789 33.5122 3.61089 34.979 3.77554 35.7947C4.21333 37.9837 4.87568 40.0567 5.77373 41.9988C6.66429 43.9296 7.78682 45.7406 9.14886 47.4245L14.4361 52.491L14.9525 52.8502C15.4464 53.1944 15.8693 53.4863 16.4942 53.8642C20.1612 56.0719 24.3184 57.3442 28.5393 57.6473C32.7713 57.9541 37.067 57.2918 41.0034 55.6416C42.4291 55.0429 43.9857 54.2122 45.4675 53.2543C46.8707 52.3488 48.1953 51.3385 49.2543 50.3132L50.1561 49.4114L52.4723 46.59C53.5649 45.0035 54.4031 43.6789 55.0991 42.2719ZM1.23109 39.3009C0.374202 36.3972 0 33.2727 0 29.4223C0 27.1435 0.359225 24.9732 0.894313 22.9713C1.4294 20.9844 2.14036 19.1621 2.8588 17.5681C3.67078 15.7608 4.9505 13.6915 6.41357 11.7869C7.81678 9.96086 9.39584 8.28076 10.8963 7.1133L11.4127 6.70918L11.9104 6.30131C12.6063 5.72506 13.5568 5.07772 14.5409 4.47528C15.5811 3.8429 16.6775 3.25543 17.5718 2.85505C19.1659 2.14035 20.9882 1.42565 22.9714 0.894307C24.9733 0.355478 27.1435 0 29.4261 0C32.5655 0 34.6797 0.142193 36.7115 0.568766C38.7433 0.999081 40.6666 1.70255 43.4356 2.82511C43.851 2.9935 44.0493 3.11324 44.3113 3.2704L44.6966 3.49865C46.9567 4.7634 48.6144 5.84855 50.1336 7.12827C51.649 8.40799 53.0149 9.8748 54.695 11.9066C55.346 12.6924 55.9784 13.6541 56.5584 14.6457C57.1384 15.6373 57.6697 16.6476 58.1262 17.5569C59.1852 19.656 59.9036 21.7665 60.3564 24.0191C60.8129 26.2642 61 28.6365 61 31.2671C61 34.3953 60.2703 37.9313 59.0393 41.2466C57.8119 44.532 56.0832 47.6116 54.0663 49.8642L52.6182 51.5181C53.2356 52.8577 56.869 59.0804 58.7811 62.362L59.8625 64.2217L60.0795 64.5585C60.4088 65.0637 60.8466 65.7334 60.8466 66.3284C60.8466 66.7887 60.7568 67.2265 60.5098 67.5557C60.2703 67.8738 59.9149 68.0721 59.4097 68.0721C58.8896 68.0721 56.0121 67.4697 53.288 66.8972C51.346 66.4893 49.4825 66.1002 48.6892 65.9654L45.808 74.3921C45.7481 74.5755 45.6957 74.7588 45.6471 74.9347C45.3627 75.9824 45.0858 76.989 43.7238 76.989C42.7546 76.989 42.3168 76.2032 41.8716 75.3987L41.6433 74.9983C41.2354 74.321 38.0024 68.8093 35.7236 64.8055C34.7246 63.0505 33.9014 61.565 33.5571 60.8503C33.269 60.8615 33.0445 60.8877 32.8199 60.9177C32.4719 60.9588 32.1165 61 31.5777 61L27.4728 60.854C27.1099 61.6922 26.2343 63.1329 25.8227 63.8176L25.7216 63.986C25.3923 64.5323 25.093 65.0562 24.7974 65.5763C24.4868 66.1264 24.1725 66.6764 23.8582 67.1965C23.1472 68.3752 22.4886 69.5427 21.8226 70.7176C21.2538 71.7204 20.6813 72.7307 20.0901 73.7298C19.9741 73.9207 19.8694 74.119 19.7608 74.3248C19.0873 75.5783 18.3165 77.0189 16.9021 76.3417C16.1986 76.0011 16.0302 75.4474 15.8393 74.815L15.6971 74.3697L15.5961 74.0965C15.4165 73.6176 15.2406 73.1386 15.0423 72.5437L12.6401 65.4154C11.6821 65.6549 9.67647 66.074 7.6596 66.4631C5.02532 66.9758 2.33491 67.4585 1.90085 67.4585C0.901775 67.4585 0.512635 66.9533 0.512635 66.1563C0.512635 64.9102 1.83724 62.8073 2.79142 61.2881C3.08329 60.8241 3.33774 60.4163 3.49864 60.1281C3.67825 59.8026 4.10483 59.0804 4.62869 58.1824C5.9608 55.9036 7.97391 52.4685 8.39674 51.4956C8.29571 51.3722 8.18719 51.2711 8.0712 51.1589C7.96268 51.0578 7.8467 50.9456 7.71199 50.7996C6.96362 49.9166 6.05809 48.7341 5.37707 47.7912C3.43504 44.865 2.09172 42.2008 1.23109 39.3009Z" fill="#8F11A6"/>
<path id="Vector_2" fill-rule="evenodd" clip-rule="evenodd" d="M38.0367 39.4323H22.5304V38.9272C22.5304 36.9776 23.1665 35.1928 24.2442 33.7933C25.3443 32.3639 26.8971 31.3274 28.7082 30.9083C30.0927 30.5865 31.4622 30.6314 32.742 31.0056C34.0292 31.3835 35.2228 32.0982 36.2294 33.1085C36.9179 33.8045 37.5316 34.6914 37.9507 35.7466C38.3174 36.6783 38.5381 37.741 38.5381 38.9272V39.4323H38.0367ZM26.6689 24.1842C26.6689 23.129 27.1104 22.2047 27.7877 21.5275C28.1544 21.1608 28.5922 20.8651 29.0712 20.6631C29.5539 20.4573 30.074 20.345 30.5979 20.345C31.5259 20.345 32.4688 20.6855 33.2508 21.4713C34.0329 22.2496 34.3734 23.1963 34.3734 24.128C34.3734 24.6519 34.2612 25.172 34.0591 25.651C33.857 26.13 33.5614 26.5715 33.1984 26.9382C32.5212 27.6155 31.6007 28.0495 30.5342 28.0495C29.5202 28.0495 28.5548 27.5893 27.8439 26.8821C27.1292 26.1674 26.6689 25.202 26.6689 24.1842ZM24.45 26.5752C24.6857 27.1253 25.0524 27.6716 25.5763 28.4574L25.928 28.9775L25.4041 29.3292C23.9373 30.3096 22.8971 31.0094 21.7633 32.6221C19.8999 35.2713 19.9036 37.3481 19.9111 40.3753L19.9148 40.9964C19.9148 41.2471 20.057 41.509 20.2927 41.7111C20.5285 41.9132 20.8503 42.0479 21.2245 42.0479H39.8478C41.0227 42.0479 41.1948 41.0226 41.1948 39.799C41.1948 39.4473 41.1874 39.1554 41.1761 38.871C41.12 36.9178 40.7832 35.5258 40.0985 33.9467C39.4474 32.7568 38.5606 31.6979 37.6475 30.7736C36.9403 30.0627 35.9824 29.5388 35.1442 28.9775L35.4885 28.4611C36.1695 27.4434 36.5811 26.8334 36.7944 26.0813C37.0376 25.2169 37.09 24.3264 36.9815 23.462C36.8131 22.1187 36.2518 20.8352 35.4137 19.795C34.5755 18.7622 33.4641 17.9727 32.1844 17.6134C31.4622 17.4076 30.6802 17.3403 29.8645 17.4413C29.1947 17.5274 28.5585 17.6995 27.9748 17.9502C26.6277 18.5227 25.5276 19.4956 24.8129 20.6893C24.102 21.8792 23.7727 23.2974 23.956 24.7604C24.0309 25.3629 24.1955 25.9728 24.45 26.5752Z" fill="#8F11A6"/>
</g>
</svg>
