<svg width="100" height="100" viewBox="0 0 100 100" fill="none" xmlns="http://www.w3.org/2000/svg">
<path d="M100 50.0026C100 77.6125 77.6167 100 50.0001 100C22.3834 100 0 77.6125 0 50.0026C0 22.3874 22.3834 0 50.0001 0C77.6167 0 100 22.3874 100 50.0026Z" fill="#F2F2F2"/>
<path fill-rule="evenodd" clip-rule="evenodd" d="M77.0734 48.6317C75.8402 48.3439 74.2526 46.7485 71.2545 48.4184C70.1755 49.017 65.4432 53.6901 64.1228 54.7409C63.3777 55.3369 63.0514 55.7634 62.3758 56.3594L58.7662 59.6375C57.7643 60.4725 57.808 60.1719 57.3507 61.5849C56.8086 63.2599 51.2852 78.3608 51.2852 79.224C51.2852 80.3878 53.1657 81.6929 54.1111 78.8464L59.9583 62.2682C60.2949 61.6131 60.9602 61.1481 61.5614 60.6677L70.7792 52.2694C71.1029 51.9971 71.2827 51.7659 71.5833 51.4705C73.6077 49.4949 76.593 50.2553 76.593 53.4358C76.593 55.0543 73.2557 57.1532 72.0663 58.3607L68.2255 61.7262C66.4375 63.2727 67.573 64.4879 68.5852 64.4879C69.51 64.4879 72.6906 61.3562 73.5872 60.5238C73.9982 60.1411 74.2114 60.064 74.6328 59.6452C76.6135 57.6748 78.9462 56.7139 79.2828 53.3921C79.4215 52.0254 78.7047 51.8918 79.2494 50.3298C80.1794 47.6734 84.3079 34.8024 84.76 34.0522C85.7568 32.4003 88.7549 33.0272 88.3182 35.6759C88.1358 36.7806 87.9328 37.6592 87.7119 38.769C86.8872 42.8898 86.1345 46.8128 85.3098 50.9412L82.8898 63.098C82.6817 63.6016 78.4632 67.6813 77.5178 68.6164C77.1196 69.0095 76.9475 69.0685 76.5544 69.4154L71.984 73.9755C71.2005 74.7539 71.1517 75.2805 70.7663 76.4417C70.3167 77.7905 68.8498 80.506 71.3084 80.506C72.6238 80.506 72.8396 78.4636 73.4433 76.7141C73.7079 75.9485 73.7875 76.0102 74.3091 75.4989L84.4826 65.3306C85.5898 64.2438 85.392 64.1539 85.7362 62.4198C86.0651 60.7705 91.008 36.8499 91.008 35.0182C91.008 30.0291 84.1357 28.8319 82.1986 33.2533L80.4569 38.4017C80.0895 39.5089 77.1479 47.7453 77.0734 48.6317Z" fill="#8F11A6"/>
<path fill-rule="evenodd" clip-rule="evenodd" d="M9 34.6972C9 37.1584 11.0938 46.3633 11.6025 48.9118C12.4914 53.3589 13.3828 57.9601 14.2717 62.42C14.8164 65.1535 14.6879 64.4932 17.4497 67.2524C18.6443 68.447 26.1562 75.6943 26.4825 76.4779C26.6597 76.8992 26.819 77.5029 26.9989 78.0424C27.4356 79.3552 27.4741 80.5062 28.8614 80.5062C29.2673 80.5062 29.4651 80.424 29.6861 80.2107C29.776 80.1234 30.1434 79.4734 30.1434 79.3861C30.1434 78.9904 28.9745 75.5325 28.7535 75.0084C28.3399 74.0244 26.7188 72.6782 25.9378 71.8972L22.2461 68.2209C21.1799 67.3295 17.3315 63.7353 17.0771 62.98L11.7001 35.8302C11.1426 33.1507 14.5415 31.6863 15.6693 35.0749C16.6789 38.1115 17.6295 40.9632 18.6314 43.9664L20.8434 50.5715C21.3058 51.9896 19.6103 54.1707 22.3309 56.9248L24.512 58.9055C24.8743 59.1958 24.941 59.2087 25.2981 59.5632L28.8846 62.7026C29.5808 63.2575 30.4645 64.4881 31.4228 64.4881C32.417 64.4881 33.5397 63.3114 31.8672 61.8034L24.8948 55.6402C24.0213 54.8746 23.415 54.7308 23.415 52.7963C23.415 51.1264 25.9738 49.1585 28.3425 51.3936C28.6482 51.6787 28.8281 51.9176 29.1415 52.1951L33.3701 55.9768C33.7658 56.2928 39.7286 61.7058 39.9958 62.1631C40.3272 62.7385 40.6457 63.8869 40.8538 64.5086C41.1415 65.3744 41.4164 66.0244 41.6964 66.8696C42.2051 68.4085 42.76 70.0321 43.3689 71.6044L45.8583 78.7258C46.8294 81.6879 48.7229 80.5216 48.7229 79.0649C48.7229 78.5665 47.2893 74.8542 47.0195 74.0398C45.7016 70.045 43.9547 65.5902 42.6573 61.585C42.1126 59.8997 42.0921 60.5112 40.4351 58.8413L28.8563 48.4751C25.8068 46.7127 24.1754 48.3441 22.9346 48.6318C22.8781 47.9459 22.3617 46.6716 22.1536 46.0499C21.8633 45.1739 21.6038 44.4031 21.3135 43.5271L17.8581 33.3665C15.8568 28.5572 9 30.4146 9 34.6972Z" fill="#8F11A6"/>
<path fill-rule="evenodd" clip-rule="evenodd" d="M25.6855 26.6892C25.6855 27.4625 26.1916 27.9686 26.9675 27.9686H34.6568C36.3755 27.9686 36.3755 25.4072 34.6568 25.4072H26.9675C26.1916 25.4072 25.6855 25.9133 25.6855 26.6892Z" fill="#8F11A6"/>
<path fill-rule="evenodd" clip-rule="evenodd" d="M64.0703 26.6892C64.0703 27.4625 64.5764 27.9686 65.3523 27.9686H73.0389C74.7602 27.9686 74.7602 25.4072 73.0389 25.4072H65.3523C64.5764 25.4072 64.0703 25.9133 64.0703 26.6892Z" fill="#8F11A6"/>
<path fill-rule="evenodd" clip-rule="evenodd" d="M30.8105 19.9608C30.8105 21.343 31.1239 21.2377 33.1484 22.589C33.7495 22.9898 35.2113 24.1253 35.9358 24.1253C37.1176 24.1253 37.9808 22.6044 36.3263 21.492C35.1574 20.7084 33.0816 19 31.7714 19C31.386 19 30.8105 19.5755 30.8105 19.9608Z" fill="#8F11A6"/>
<path fill-rule="evenodd" clip-rule="evenodd" d="M62.7891 22.8431C62.7891 23.6189 63.2952 24.125 64.071 24.125C64.7415 24.125 69.1963 21.3016 69.1963 20.6003C69.1963 17.1012 65.5225 20.2586 63.6805 21.4918C63.1898 21.8232 62.7891 22.1006 62.7891 22.8431Z" fill="#8F11A6"/>
<path fill-rule="evenodd" clip-rule="evenodd" d="M57.7402 49.5412H41.347C41.275 49.5412 41.2185 49.4821 41.2185 49.4127V48.8809C41.2185 47.8533 41.3829 46.8668 41.6887 45.9522C42.0047 45.0068 42.4697 44.1359 43.0554 43.3729C43.6514 42.597 44.3708 41.9316 45.1878 41.4024C45.9893 40.8834 46.8859 40.4981 47.8467 40.2746L47.8544 40.272C48.5866 40.1025 49.3188 40.028 50.0381 40.0459C50.7677 40.0639 51.4845 40.177 52.1756 40.3799L52.1833 40.3825C52.8744 40.5854 53.5423 40.8783 54.1666 41.256C54.7909 41.6336 55.3792 42.096 55.9187 42.6381C56.3015 43.0235 56.6637 43.4654 56.9823 43.956C57.2854 44.4185 57.5501 44.9246 57.7659 45.4692L57.771 45.4821C57.9714 45.9907 58.1306 46.5405 58.2385 47.1237C58.3413 47.6786 58.3978 48.2644 58.3978 48.8809V49.4127C58.3978 49.4821 58.3413 49.5412 58.2694 49.5412H57.7402ZM45.5936 33.2919C45.5936 32.7344 45.7067 32.2077 45.907 31.7299C46.1203 31.2238 46.4311 30.7716 46.8114 30.3914C47.0092 30.191 47.2301 30.0112 47.4639 29.8545C47.7003 29.6952 47.9495 29.559 48.2115 29.4486C48.4762 29.3381 48.751 29.2507 49.0336 29.1916C49.3111 29.1351 49.5937 29.1043 49.8763 29.1043C50.3978 29.1043 50.927 29.2045 51.4331 29.4203C51.9058 29.6207 52.3606 29.9187 52.7716 30.3297L52.7768 30.3374C53.1827 30.7459 53.4806 31.1981 53.681 31.6682C53.8943 32.1769 53.9945 32.7087 53.9945 33.2328C53.9945 33.5128 53.9637 33.7954 53.9071 34.0729C53.8506 34.3529 53.7633 34.6278 53.6528 34.8924C53.5423 35.1544 53.4062 35.4062 53.2494 35.64C53.0927 35.8738 52.9129 36.0947 52.7125 36.2925C52.3349 36.6728 51.8827 36.9836 51.374 37.1968C50.8962 37.3947 50.3695 37.5077 49.8095 37.5077C49.2674 37.5077 48.7382 37.387 48.2475 37.1737L48.2398 37.1712C47.7311 36.9502 47.2635 36.6265 46.8704 36.2334C46.4748 35.8352 46.1511 35.3677 45.9276 34.8539C45.7144 34.3657 45.5936 33.8339 45.5936 33.2919ZM43.4947 35.7684C43.7362 36.3388 44.1216 36.9117 44.6714 37.7338C44.7973 37.9059 44.9231 38.1089 45.0439 38.2887C45.0824 38.3478 45.067 38.4274 45.0079 38.466L44.4504 38.841C42.9141 39.8687 41.8197 40.6009 40.638 42.2862C38.6932 45.053 38.6983 47.2316 38.706 50.407V51.0672C38.706 51.1751 38.7394 51.2907 38.7985 51.4038L38.8036 51.4089C38.8627 51.5245 38.9526 51.6324 39.0631 51.7275C39.1813 51.8277 39.32 51.9099 39.4767 51.9664C39.6232 52.0203 39.7876 52.0486 39.9648 52.0486H59.6541C60.2167 52.0486 60.5379 51.8071 60.7177 51.4192C60.9078 51.0081 60.9515 50.4301 60.9515 49.8007L60.9463 49.2868L60.931 48.7602C60.9207 48.3954 60.9078 48.0331 60.9078 47.7865C60.9078 47.0235 60.7999 46.3016 60.6073 45.6182C60.4146 44.9349 60.1397 44.2849 59.8057 43.6734C59.4666 43.0517 59.0632 42.4634 58.6265 41.9085C58.1872 41.3536 57.7145 40.8346 57.2366 40.3491C56.7151 39.8224 56.2501 39.527 55.7055 39.1853L55.6644 39.1596C55.4769 39.0414 55.2764 38.9155 55.0478 38.7614L54.6085 38.466C54.5494 38.4274 54.534 38.3478 54.5725 38.2887L54.9399 37.7415C55.297 37.2071 55.5847 36.7807 55.8108 36.3876C56.0317 35.9997 56.1936 35.6477 56.3015 35.2598C56.4274 34.8205 56.5044 34.3734 56.5353 33.9264C56.5687 33.464 56.5559 33.0016 56.4968 32.5443C56.412 31.8506 56.2244 31.1724 55.9495 30.5327C55.6721 29.8827 55.3047 29.2764 54.8654 28.7318C54.4235 28.1871 53.9071 27.7067 53.3317 27.3162C52.7767 26.9411 52.1679 26.6508 51.5179 26.4659C51.1377 26.358 50.7421 26.2886 50.3336 26.2578C49.938 26.2295 49.532 26.2372 49.1159 26.2912C48.7716 26.3323 48.435 26.3991 48.1087 26.4864C47.7773 26.5763 47.4562 26.6868 47.1505 26.8178C46.4568 27.1133 45.8274 27.5115 45.2776 27.9868C44.7201 28.4697 44.2449 29.0375 43.8698 29.6644C43.4947 30.2912 43.2224 30.9797 43.0709 31.7042C42.9218 32.403 42.8884 33.1377 42.9809 33.8853C43.0194 34.2013 43.0837 34.5199 43.1684 34.8359C43.2532 35.1467 43.3637 35.4576 43.4947 35.7684Z" fill="#8F11A6"/>
</svg>
