<svg width="82" height="62" viewBox="0 0 82 62" fill="none" xmlns="http://www.w3.org/2000/svg">
<g id="_1383019872688">
<path id="Vector" fill-rule="evenodd" clip-rule="evenodd" d="M68.0734 29.6317C66.8402 29.3439 65.2526 27.7485 62.2545 29.4184C61.1755 30.017 56.4432 34.6901 55.1228 35.7409C54.3777 36.3369 54.0514 36.7634 53.3758 37.3594L49.7662 40.6375C48.7643 41.4725 48.808 41.1719 48.3507 42.5849C47.8086 44.2599 42.2852 59.3608 42.2852 60.224C42.2852 61.3878 44.1657 62.6929 45.1111 59.8464L50.9583 43.2682C51.2949 42.6131 51.9602 42.1481 52.5614 41.6677L61.7792 33.2694C62.1029 32.9971 62.2827 32.7659 62.5833 32.4705C64.6077 30.4949 67.593 31.2553 67.593 34.4358C67.593 36.0543 64.2557 38.1532 63.0663 39.3607L59.2255 42.7262C57.4375 44.2727 58.573 45.4879 59.5852 45.4879C60.51 45.4879 63.6906 42.3562 64.5872 41.5238C64.9982 41.1411 65.2114 41.064 65.6328 40.6452C67.6135 38.6748 69.9462 37.7139 70.2828 34.3921C70.4215 33.0254 69.7047 32.8918 70.2494 31.3298C71.1794 28.6734 75.3079 15.8024 75.76 15.0522C76.7568 13.4003 79.7549 14.0272 79.3182 16.6759C79.1358 17.7806 78.9328 18.6592 78.7119 19.769C77.8872 23.8898 77.1345 27.8128 76.3098 31.9412L73.8898 44.098C73.6817 44.6016 69.4632 48.6813 68.5178 49.6164C68.1196 50.0095 67.9475 50.0685 67.5544 50.4154L62.984 54.9755C62.2005 55.7539 62.1517 56.2805 61.7663 57.4417C61.3167 58.7905 59.8498 61.506 62.3084 61.506C63.6238 61.506 63.8396 59.4636 64.4433 57.7141C64.7079 56.9485 64.7875 57.0102 65.3091 56.4989L75.4826 46.3306C76.5898 45.2438 76.392 45.1539 76.7362 43.4198C77.0651 41.7705 82.008 17.8499 82.008 16.0182C82.008 11.0291 75.1357 9.83191 73.1986 14.2533L71.4569 19.4017C71.0895 20.5089 68.1479 28.7453 68.0734 29.6317Z" fill="#8F11A6"/>
<path id="Vector_2" fill-rule="evenodd" clip-rule="evenodd" d="M0 15.6972C0 18.1584 2.09382 27.3633 2.60249 29.9118C3.49139 34.3589 4.38282 38.9601 5.27172 43.42C5.81636 46.1535 5.68794 45.4932 8.44968 48.2524C9.64429 49.447 17.1562 56.6943 17.4825 57.4779C17.6597 57.8992 17.819 58.5029 17.9989 59.0424C18.4356 60.3552 18.4741 61.5062 19.8614 61.5062C20.2673 61.5062 20.4651 61.424 20.6861 61.2107C20.776 61.1234 21.1434 60.4734 21.1434 60.3861C21.1434 59.9904 19.9745 56.5325 19.7535 56.0084C19.3399 55.0244 17.7188 53.6782 16.9378 52.8972L13.2461 49.2209C12.1799 48.3295 8.33145 44.7353 8.07711 43.98L2.70009 16.8302C2.1426 14.1507 5.54146 12.6863 6.66927 16.0749C7.67892 19.1115 8.62947 21.9632 9.63141 24.9664L11.8434 31.5715C12.3058 32.9896 10.6103 35.1707 13.3309 37.9248L15.512 39.9055C15.8743 40.1958 15.941 40.2087 16.2981 40.5632L19.8846 43.7026C20.5808 44.2575 21.4645 45.4881 22.4228 45.4881C23.417 45.4881 24.5397 44.3114 22.8672 42.8034L15.8948 36.6402C15.0213 35.8746 14.415 35.7308 14.415 33.7963C14.415 32.1264 16.9738 30.1585 19.3425 32.3936C19.6482 32.6787 19.8281 32.9176 20.1415 33.1951L24.3701 36.9768C24.7658 37.2928 30.7286 42.7058 30.9958 43.1631C31.3272 43.7385 31.6457 44.8869 31.8538 45.5086C32.1415 46.3744 32.4164 47.0244 32.6964 47.8696C33.2051 49.4085 33.76 51.0321 34.3689 52.6044L36.8583 59.7258C37.8294 62.6879 39.7229 61.5216 39.7229 60.0649C39.7229 59.5665 38.2893 55.8542 38.0195 55.0398C36.7016 51.045 34.9547 46.5902 33.6573 42.585C33.1126 40.8997 33.0921 41.5112 31.4351 39.8413L19.8563 29.4751C16.8068 27.7127 15.1754 29.3441 13.9346 29.6318C13.8781 28.9459 13.3617 27.6716 13.1536 27.0499C12.8633 26.1739 12.6038 25.4031 12.3135 24.5271L8.85812 14.3665C6.85682 9.55718 0 11.4146 0 15.6972Z" fill="#8F11A6"/>
<path id="Vector_3" fill-rule="evenodd" clip-rule="evenodd" d="M16.6855 7.68919C16.6855 8.46248 17.1916 8.96858 17.9675 8.96858H25.6568C27.3755 8.96858 27.3755 6.40723 25.6568 6.40723H17.9675C17.1916 6.40723 16.6855 6.91333 16.6855 7.68919Z" fill="#8F11A6"/>
<path id="Vector_4" fill-rule="evenodd" clip-rule="evenodd" d="M55.0703 7.68919C55.0703 8.46248 55.5764 8.96858 56.3523 8.96858H64.0389C65.7602 8.96858 65.7602 6.40723 64.0389 6.40723H56.3523C55.5764 6.40723 55.0703 6.91333 55.0703 7.68919Z" fill="#8F11A6"/>
<path id="Vector_5" fill-rule="evenodd" clip-rule="evenodd" d="M21.8105 0.96083C21.8105 2.34299 22.1239 2.23765 24.1484 3.58898C24.7495 3.98975 26.2113 5.12528 26.9358 5.12528C28.1176 5.12528 28.9808 3.6044 27.3263 2.49199C26.1574 1.70843 24.0816 0 22.7714 0C22.386 0 21.8105 0.575471 21.8105 0.96083Z" fill="#8F11A6"/>
<path id="Vector_6" fill-rule="evenodd" clip-rule="evenodd" d="M53.7891 3.84308C53.7891 4.61894 54.2952 5.12504 55.071 5.12504C55.7415 5.12504 60.1963 2.30165 60.1963 1.60029C60.1963 -1.89877 56.5225 1.25861 54.6805 2.49176C54.1898 2.82317 53.7891 3.10062 53.7891 3.84308Z" fill="#8F11A6"/>
<path id="Vector_7" fill-rule="evenodd" clip-rule="evenodd" d="M48.7402 30.5412H32.347C32.275 30.5412 32.2185 30.4821 32.2185 30.4127V29.8809C32.2185 28.8533 32.3829 27.8668 32.6887 26.9522C33.0047 26.0068 33.4697 25.1359 34.0554 24.3729C34.6514 23.597 35.3708 22.9316 36.1878 22.4024C36.9893 21.8834 37.8859 21.4981 38.8467 21.2746L38.8544 21.272C39.5866 21.1025 40.3188 21.028 41.0381 21.0459C41.7677 21.0639 42.4845 21.177 43.1756 21.3799L43.1833 21.3825C43.8744 21.5854 44.5423 21.8783 45.1666 22.256C45.7909 22.6336 46.3792 23.096 46.9187 23.6381C47.3015 24.0235 47.6637 24.4654 47.9823 24.956C48.2854 25.4185 48.5501 25.9246 48.7659 26.4692L48.771 26.4821C48.9714 26.9907 49.1306 27.5405 49.2385 28.1237C49.3413 28.6786 49.3978 29.2644 49.3978 29.8809V30.4127C49.3978 30.4821 49.3413 30.5412 49.2694 30.5412H48.7402ZM36.5936 14.2919C36.5936 13.7344 36.7067 13.2077 36.907 12.7299C37.1203 12.2238 37.4311 11.7716 37.8114 11.3914C38.0092 11.191 38.2301 11.0112 38.4639 10.8545C38.7003 10.6952 38.9495 10.559 39.2115 10.4486C39.4762 10.3381 39.751 10.2507 40.0336 10.1916C40.3111 10.1351 40.5937 10.1043 40.8763 10.1043C41.3978 10.1043 41.927 10.2045 42.4331 10.4203C42.9058 10.6207 43.3606 10.9187 43.7716 11.3297L43.7768 11.3374C44.1827 11.7459 44.4806 12.1981 44.681 12.6682C44.8943 13.1769 44.9945 13.7087 44.9945 14.2328C44.9945 14.5128 44.9637 14.7954 44.9071 15.0729C44.8506 15.3529 44.7633 15.6278 44.6528 15.8924C44.5423 16.1544 44.4062 16.4062 44.2494 16.64C44.0927 16.8738 43.9129 17.0947 43.7125 17.2925C43.3349 17.6728 42.8827 17.9836 42.374 18.1968C41.8962 18.3947 41.3695 18.5077 40.8095 18.5077C40.2674 18.5077 39.7382 18.387 39.2475 18.1737L39.2398 18.1712C38.7311 17.9502 38.2635 17.6265 37.8704 17.2334C37.4748 16.8352 37.1511 16.3677 36.9276 15.8539C36.7144 15.3657 36.5936 14.8339 36.5936 14.2919ZM34.4947 16.7684C34.7362 17.3388 35.1216 17.9117 35.6714 18.7338C35.7973 18.9059 35.9231 19.1089 36.0439 19.2887C36.0824 19.3478 36.067 19.4274 36.0079 19.466L35.4504 19.841C33.9141 20.8687 32.8197 21.6009 31.638 23.2862C29.6932 26.053 29.6983 28.2316 29.706 31.407V32.0672C29.706 32.1751 29.7394 32.2907 29.7985 32.4038L29.8036 32.4089C29.8627 32.5245 29.9526 32.6324 30.0631 32.7275C30.1813 32.8277 30.32 32.9099 30.4767 32.9664C30.6232 33.0203 30.7876 33.0486 30.9648 33.0486H50.6541C51.2167 33.0486 51.5379 32.8071 51.7177 32.4192C51.9078 32.0081 51.9515 31.4301 51.9515 30.8007L51.9463 30.2868L51.931 29.7602C51.9207 29.3954 51.9078 29.0331 51.9078 28.7865C51.9078 28.0235 51.7999 27.3016 51.6073 26.6182C51.4146 25.9349 51.1397 25.2849 50.8057 24.6734C50.4666 24.0517 50.0632 23.4634 49.6265 22.9085C49.1872 22.3536 48.7145 21.8346 48.2366 21.3491C47.7151 20.8224 47.2501 20.527 46.7055 20.1853L46.6644 20.1596C46.4769 20.0414 46.2764 19.9155 46.0478 19.7614L45.6085 19.466C45.5494 19.4274 45.534 19.3478 45.5725 19.2887L45.9399 18.7415C46.297 18.2071 46.5847 17.7807 46.8108 17.3876C47.0317 16.9997 47.1936 16.6477 47.3015 16.2598C47.4274 15.8205 47.5044 15.3734 47.5353 14.9264C47.5687 14.464 47.5559 14.0016 47.4968 13.5443C47.412 12.8506 47.2244 12.1724 46.9495 11.5327C46.6721 10.8827 46.3047 10.2764 45.8654 9.73178C45.4235 9.18714 44.9071 8.70673 44.3317 8.31623C43.7767 7.94115 43.1679 7.65085 42.5179 7.46587C42.1377 7.35797 41.7421 7.2886 41.3336 7.25778C40.938 7.22952 40.532 7.23722 40.1159 7.29118C39.7716 7.33228 39.435 7.39907 39.1087 7.48642C38.7773 7.57634 38.4562 7.68681 38.1505 7.81783C37.4568 8.11328 36.8274 8.51148 36.2776 8.98676C35.7201 9.46974 35.2449 10.0375 34.8698 10.6644C34.4947 11.2912 34.2224 11.9797 34.0709 12.7042C33.9218 13.403 33.8884 14.1377 33.9809 14.8853C34.0194 15.2013 34.0837 15.5199 34.1684 15.8359C34.2532 16.1467 34.3637 16.4576 34.4947 16.7684Z" fill="#8F11A6"/>
</g>
</svg>
