<svg width="100" height="100" viewBox="0 0 100 100" fill="none" xmlns="http://www.w3.org/2000/svg">
<path d="M100 50.0026C100 77.6126 77.6167 100 50.0001 100C22.3834 100 0 77.6126 0 50.0026C0 22.3874 22.3834 0 50.0001 0C77.6167 0 100 22.3874 100 50.0026Z" fill="#F2F2F2"/>
<path fill-rule="evenodd" clip-rule="evenodd" d="M31.3192 38.6122C31.061 40.1127 31.0235 41.6843 31.0235 43.7311C31.0235 44.8723 31.2219 46.0735 31.5137 47.2185C31.8917 48.6853 32.4268 50.0661 32.9207 51.0988C35.2145 55.9258 39.2631 59.2748 43.9293 60.8913C48.7151 62.5527 54.1483 62.388 59.0015 60.1279L59.458 59.9109C64.0231 57.6284 67.3235 53.5909 68.9287 48.9248C70.5377 44.2549 70.4442 38.9639 68.2215 34.1893L67.9895 33.7029C67.0503 31.8282 65.8941 30.2379 64.5283 28.8609C63.1587 27.4839 61.5685 26.3089 59.7724 25.2649C59.5479 25.1377 59.3084 25.0105 59.0577 24.887C58.8182 24.7673 58.5562 24.6513 58.2868 24.5428C53.3213 22.5184 48.1501 22.5446 43.6561 24.1873C39.0798 25.8636 35.2032 29.2238 32.9693 33.8001C32.0638 35.6449 31.5774 37.108 31.3192 38.6122ZM29.3772 51.1475C28.2546 48.3897 27.6896 45.355 27.6896 42.036C27.6896 40.5056 27.9103 38.8891 28.2583 37.3736C28.6512 35.6823 29.205 34.1145 29.7962 32.9395C30.4099 31.7084 31.0685 30.5784 31.7981 29.5082C32.5241 28.438 33.3323 27.424 34.2453 26.4287C34.9937 25.6878 36.4829 24.5128 37.3473 23.8505C41.1827 21.0703 45.8863 19.6821 50.5823 19.6933C55.2634 19.7045 59.9445 21.1115 63.7462 23.9179C64.8426 24.7261 65.8342 25.5643 66.7472 26.481C67.664 27.4015 68.4984 28.4044 69.2842 29.5344C72.0232 33.4821 73.3628 38.0322 73.3217 42.5861C73.2843 47.1624 71.8586 51.7424 69.0672 55.7125C67.0204 58.6237 64.2252 61.0447 61.0259 62.7248C57.8977 64.3712 54.384 65.3104 50.8106 65.3104C47.1697 65.3104 44.0303 64.5995 41.3174 63.4058C38.6046 62.2159 36.3183 60.5396 34.3912 58.6088C32.1723 56.3936 30.4997 53.909 29.3772 51.1475ZM57.8004 72.0832C57.4711 72.1618 57.183 72.2329 56.9397 72.3003L61.2354 79.7653C61.3477 79.9524 61.561 80.3341 61.8267 80.798C62.2906 81.625 62.9118 82.7326 63.3571 83.4622C63.6527 82.4856 64.1279 81.0338 64.6143 79.6194C65.3702 77.4042 66.1785 75.2301 66.373 75.0131C67.1439 74.1674 69.142 74.6352 70.8408 75.0356C71.2113 75.1216 71.5705 75.2039 71.911 75.275L76.057 76.0908C75.028 74.4893 74.1374 72.7792 73.172 71.1365C72.6855 70.246 72.1729 69.3704 71.664 68.4985C71.1551 67.6229 70.6425 66.7473 70.1448 65.8268C69.9764 65.9466 69.8268 66.0738 69.6659 66.2122C69.49 66.3619 69.3029 66.5228 69.0634 66.7024C63.7649 70.6464 59.9482 71.5668 57.8004 72.0832ZM37.6504 82.0142L37.976 82.9234C38.2342 82.5156 38.5148 81.9954 38.7505 81.5614C38.8927 81.2957 39.0274 81.0525 39.1472 80.8467L41.7964 76.2779L42.6271 74.7998C42.8965 74.3209 43.1397 73.9055 43.3792 73.5051C43.6075 73.116 43.8357 72.7306 44.0565 72.3377L43.8619 72.289C42.556 71.9635 39.9479 71.3161 36.7411 69.7109C34.3314 68.5097 32.6588 67.2188 31.5512 66.3619L30.8514 65.8343L29.523 68.2179C29.2424 68.7343 28.9693 69.1908 28.6961 69.6398C28.4229 70.0925 28.1498 70.5453 27.8878 71.0355L25.2424 75.5706C26.6306 75.2638 28.726 74.8185 30.5483 74.478C32.0974 74.1862 33.4595 73.9691 34.047 73.9691C35.1172 73.9691 35.8319 76.3564 36.322 78.0066L36.5914 78.8747L37.4371 81.4155L37.6504 82.0142ZM75.0991 54.2719C75.795 52.8612 76.3563 51.357 76.8877 49.4075C77.1309 48.5169 77.333 47.4243 77.4939 46.3017C77.6697 45.0258 77.7857 43.7236 77.8344 42.631C77.8568 42.1258 77.7895 41.2652 77.6885 40.3596C77.5537 39.1323 77.3591 37.8414 77.2282 37.2052C76.375 32.947 74.6238 29.134 72.1317 25.8973C69.5947 22.6119 66.2869 19.9141 62.3692 17.9421C59.8883 16.6923 56.9023 15.8354 53.8677 15.45C50.8779 15.0683 47.8433 15.1432 45.2015 15.7494C42.7431 16.3106 40.8011 16.9318 38.9863 17.7775C37.1752 18.6194 35.4839 19.6933 33.5194 21.1601C33.2649 21.3472 33.149 21.4595 33.0255 21.5792C32.917 21.6802 32.801 21.7925 32.6401 21.9309L32.2659 22.2303C32.1087 22.3538 31.974 22.4548 31.757 22.6756C29.8524 24.5839 28.3032 26.4923 27.0497 28.5802C25.7961 30.6682 24.8345 32.9433 24.1161 35.5888C24.0038 35.9966 23.8841 36.5167 23.783 37.0144C23.6745 37.5458 23.5772 38.0734 23.5249 38.4588C23.4575 38.949 23.4313 39.4391 23.4051 39.9256C23.3789 40.4831 23.349 41.0369 23.2666 41.587C23.1694 42.2268 23.1881 43.1511 23.2666 44.1127C23.3789 45.5122 23.6109 46.979 23.7755 47.7947C24.2133 49.9837 24.8757 52.0567 25.7737 53.9988C26.6643 55.9296 27.7868 57.7406 29.1489 59.4245L34.4361 64.491L34.9525 64.8502C35.4464 65.1944 35.8693 65.4863 36.4942 65.8642C40.1612 68.0719 44.3184 69.3442 48.5393 69.6473C52.7713 69.9541 57.067 69.2918 61.0034 67.6416C62.4291 67.0429 63.9857 66.2122 65.4675 65.2543C66.8707 64.3488 68.1953 63.3385 69.2543 62.3132L70.1561 61.4114L72.4723 58.59C73.5649 57.0035 74.4031 55.6789 75.0991 54.2719ZM21.2311 51.3009C20.3742 48.3972 20 45.2727 20 41.4223C20 39.1435 20.3592 36.9732 20.8943 34.9713C21.4294 32.9844 22.1404 31.1621 22.8588 29.5681C23.6708 27.7608 24.9505 25.6915 26.4136 23.7869C27.8168 21.9609 29.3958 20.2808 30.8963 19.1133L31.4127 18.7092L31.9104 18.3013C32.6063 17.7251 33.5568 17.0777 34.5409 16.4753C35.5811 15.8429 36.6775 15.2554 37.5718 14.855C39.1659 14.1404 40.9882 13.4257 42.9714 12.8943C44.9733 12.3555 47.1435 12 49.4261 12C52.5655 12 54.6797 12.1422 56.7115 12.5688C58.7433 12.9991 60.6666 13.7026 63.4356 14.8251C63.851 14.9935 64.0493 15.1132 64.3113 15.2704L64.6966 15.4987C66.9567 16.7634 68.6144 17.8485 70.1336 19.1283C71.649 20.408 73.0149 21.8748 74.695 23.9066C75.346 24.6924 75.9784 25.6541 76.5584 26.6457C77.1384 27.6373 77.6697 28.6476 78.1262 29.5569C79.1852 31.656 79.9036 33.7665 80.3564 36.0191C80.8129 38.2642 81 40.6365 81 43.2671C81 46.3953 80.2703 49.9313 79.0393 53.2466C77.8119 56.532 76.0832 59.6116 74.0663 61.8642L72.6182 63.5181C73.2356 64.8577 76.869 71.0804 78.7811 74.362L79.8625 76.2217L80.0795 76.5585C80.4088 77.0637 80.8466 77.7334 80.8466 78.3284C80.8466 78.7887 80.7568 79.2265 80.5098 79.5557C80.2703 79.8738 79.9149 80.0721 79.4097 80.0721C78.8896 80.0721 76.0121 79.4697 73.288 78.8972C71.346 78.4893 69.4825 78.1002 68.6892 77.9654L65.808 86.3921C65.7481 86.5755 65.6957 86.7588 65.6471 86.9347C65.3627 87.9824 65.0858 88.989 63.7238 88.989C62.7546 88.989 62.3168 88.2032 61.8716 87.3987L61.6433 86.9983C61.2354 86.321 58.0024 80.8093 55.7236 76.8055C54.7246 75.0505 53.9014 73.565 53.5571 72.8503C53.269 72.8615 53.0445 72.8877 52.8199 72.9177C52.4719 72.9588 52.1165 73 51.5777 73L47.4728 72.854C47.1099 73.6922 46.2343 75.1329 45.8227 75.8176L45.7216 75.986C45.3923 76.5323 45.093 77.0562 44.7974 77.5763C44.4868 78.1264 44.1725 78.6764 43.8582 79.1965C43.1472 80.3752 42.4886 81.5427 41.8226 82.7176C41.2538 83.7204 40.6813 84.7307 40.0901 85.7298C39.9741 85.9207 39.8694 86.119 39.7608 86.3248C39.0873 87.5783 38.3165 89.0189 36.9021 88.3417C36.1986 88.0011 36.0302 87.4474 35.8393 86.815L35.6971 86.3697L35.5961 86.0965C35.4165 85.6176 35.2406 85.1386 35.0423 84.5437L32.6401 77.4154C31.6821 77.6549 29.6765 78.074 27.6596 78.4631C25.0253 78.9758 22.3349 79.4585 21.9009 79.4585C20.9018 79.4585 20.5126 78.9533 20.5126 78.1563C20.5126 76.9102 21.8372 74.8073 22.7914 73.2881C23.0833 72.8241 23.3377 72.4163 23.4986 72.1281C23.6783 71.8026 24.1048 71.0804 24.6287 70.1824C25.9608 67.9036 27.9739 64.4685 28.3967 63.4956C28.2957 63.3722 28.1872 63.2711 28.0712 63.1589C27.9627 63.0578 27.8467 62.9456 27.712 62.7996C26.9636 61.9166 26.0581 60.7341 25.3771 59.7912C23.435 56.865 22.0917 54.2008 21.2311 51.3009Z" fill="#8F11A6"/>
<path fill-rule="evenodd" clip-rule="evenodd" d="M58.0367 51.4323H42.5304V50.9272C42.5304 48.9776 43.1665 47.1928 44.2442 45.7933C45.3443 44.3639 46.8971 43.3274 48.7082 42.9083C50.0927 42.5865 51.4622 42.6314 52.742 43.0056C54.0292 43.3835 55.2228 44.0982 56.2294 45.1085C56.9179 45.8045 57.5316 46.6914 57.9507 47.7466C58.3174 48.6783 58.5381 49.741 58.5381 50.9272V51.4323H58.0367ZM46.6689 36.1842C46.6689 35.129 47.1104 34.2047 47.7877 33.5275C48.1544 33.1608 48.5922 32.8651 49.0712 32.6631C49.5539 32.4573 50.074 32.345 50.5979 32.345C51.5259 32.345 52.4688 32.6855 53.2508 33.4713C54.0329 34.2496 54.3734 35.1963 54.3734 36.128C54.3734 36.6519 54.2612 37.172 54.0591 37.651C53.857 38.13 53.5614 38.5715 53.1984 38.9382C52.5212 39.6155 51.6007 40.0495 50.5342 40.0495C49.5202 40.0495 48.5548 39.5893 47.8439 38.8821C47.1292 38.1674 46.6689 37.202 46.6689 36.1842ZM44.45 38.5752C44.6857 39.1253 45.0524 39.6716 45.5763 40.4574L45.928 40.9775L45.4041 41.3292C43.9373 42.3096 42.8971 43.0094 41.7633 44.6221C39.8999 47.2713 39.9036 49.3481 39.9111 52.3753L39.9148 52.9964C39.9148 53.2471 40.057 53.509 40.2927 53.7111C40.5285 53.9132 40.8503 54.0479 41.2245 54.0479H59.8478C61.0227 54.0479 61.1948 53.0226 61.1948 51.799C61.1948 51.4473 61.1874 51.1554 61.1761 50.871C61.12 48.9178 60.7832 47.5258 60.0985 45.9467C59.4474 44.7568 58.5606 43.6979 57.6475 42.7736C56.9403 42.0627 55.9824 41.5388 55.1442 40.9775L55.4885 40.4611C56.1695 39.4434 56.5811 38.8334 56.7944 38.0813C57.0376 37.2169 57.09 36.3264 56.9815 35.462C56.8131 34.1187 56.2518 32.8352 55.4137 31.795C54.5755 30.7622 53.4641 29.9727 52.1844 29.6134C51.4622 29.4076 50.6802 29.3403 49.8645 29.4413C49.1947 29.5274 48.5585 29.6995 47.9748 29.9502C46.6277 30.5227 45.5276 31.4956 44.8129 32.6893C44.102 33.8792 43.7727 35.2974 43.956 36.7604C44.0309 37.3629 44.1955 37.9728 44.45 38.5752Z" fill="#8F11A6"/>
</svg>
