<svg width="72" height="68" viewBox="0 0 72 68" fill="none" xmlns="http://www.w3.org/2000/svg">
<g id="Group 40052">
<path id="Vector" d="M35.9654 10.2815C38.7064 10.2815 41.3249 10.826 43.7116 11.8161C46.1946 12.8453 48.4275 14.3487 50.2931 16.2142C52.1586 18.0798 53.662 20.3127 54.6911 22.7957C55.6812 25.1849 56.2257 27.8009 56.2257 30.5418C56.2257 33.2802 55.6812 35.8987 54.6911 38.288C53.662 40.7684 52.1586 43.0013 50.2931 44.8669C48.4275 46.7324 46.1946 48.2384 43.7116 49.2649C41.3223 50.255 38.7064 50.8022 35.9654 50.8022C33.2271 50.8022 30.6085 50.255 28.2193 49.2649C25.7388 48.2384 23.5059 46.7324 21.6404 44.8669C19.7748 43.0013 18.2689 40.7684 17.2423 38.288C16.2522 35.8987 15.7051 33.2802 15.7051 30.5418C15.7051 27.8009 16.2522 25.1849 17.2423 22.7957C18.2689 20.3127 19.7748 18.0798 21.6404 16.2142C23.5059 14.3487 25.7388 12.8453 28.2193 11.8161C30.6085 10.826 33.2271 10.2815 35.9654 10.2815ZM48.5109 17.9964C46.8746 16.3575 44.9205 15.0391 42.7527 14.1402C40.6657 13.2752 38.3729 12.7984 35.9654 12.7984C33.5606 12.7984 31.2677 13.2752 29.1807 14.1402C27.0129 15.0391 25.0588 16.3575 23.42 17.9964C21.7837 19.6326 20.4627 21.5868 19.5664 23.7545C18.7014 25.8415 18.2246 28.1344 18.2246 30.5418C18.2246 32.9467 18.7014 35.2396 19.5664 37.3292C20.4627 39.4943 21.7837 41.4485 23.42 43.0873C25.0588 44.7236 27.0103 46.0446 29.1781 46.9408C31.2677 47.8059 33.5606 48.2827 35.9654 48.2827C38.3729 48.2827 40.6657 47.8059 42.7527 46.9408C44.9205 46.0446 46.8746 44.7236 48.5109 43.0873C51.7235 39.8773 53.7089 35.4402 53.7089 30.5418C53.7089 28.1344 53.232 25.8415 52.367 23.7545C51.4681 21.5868 50.1497 19.6326 48.5109 17.9964Z" fill="#8F11A6"/>
<path id="Vector_2" d="M35.9647 15.5471C37.9918 15.5471 39.9303 15.951 41.6968 16.6831C43.5337 17.4465 45.1881 18.5591 46.5665 19.94C47.9474 21.3183 49.0599 22.9728 49.8233 24.8097C50.5555 26.5762 50.9593 28.5147 50.9593 30.5418C50.9593 32.5688 50.5555 34.5047 49.8233 36.2738C49.0625 38.1107 47.9474 39.7626 46.5665 41.1435C45.1881 42.5244 43.5337 43.637 41.6968 44.3978C39.9303 45.1299 37.9918 45.5338 35.9647 45.5338C33.9376 45.5338 32.0017 45.1299 30.2326 44.3978C28.3957 43.637 26.7438 42.5244 25.3629 41.1435C23.9846 39.7626 22.8695 38.1107 22.1086 36.2738C21.3765 34.5047 20.9727 32.5688 20.9727 30.5418C20.9727 28.5147 21.3765 26.5788 22.1086 24.8097C22.8695 22.9728 23.9846 21.3183 25.3629 19.94C26.7438 18.5591 28.3957 17.4465 30.2326 16.6831C32.0017 15.951 33.9376 15.5471 35.9647 15.5471ZM44.7869 21.7195C42.5306 19.4632 39.4118 18.0666 35.9647 18.0666C34.2711 18.0666 32.6609 18.4001 31.194 19.0098C29.6698 19.6403 28.2967 20.5679 27.1425 21.7195C25.9908 22.8712 25.0633 24.2443 24.4328 25.7685C23.8257 27.2354 23.4896 28.8482 23.4896 30.5418C23.4896 32.2353 23.8257 33.8455 24.4328 35.315C25.0633 36.8366 25.9908 38.2123 27.1425 39.364C28.2941 40.5156 29.6698 41.4432 31.1914 42.0737C32.6609 42.6808 34.2711 43.0169 35.9647 43.0169C37.6583 43.0169 39.2711 42.6808 40.738 42.0737C42.2622 41.4432 43.6353 40.5156 44.7869 39.364C45.9385 38.2123 46.8661 36.8366 47.4966 35.315C48.1063 33.8455 48.4398 32.2353 48.4398 30.5418C48.4398 28.8482 48.1063 27.2354 47.4966 25.7685C46.8661 24.2443 45.9385 22.8712 44.7869 21.7195Z" fill="#8F11A6"/>
<path id="Vector_3" d="M4.83119 64.5777C5.10216 64.8486 5.41744 65.0571 5.75615 65.2004C6.1079 65.3489 6.48308 65.4245 6.85567 65.4271C7.23086 65.4297 7.60865 65.3567 7.963 65.2134C8.30432 65.0753 8.62482 64.8721 8.8984 64.5985L18.9764 54.6533C19.3204 54.3615 19.6956 54.3302 20.0343 54.4605C20.2063 54.5257 20.3652 54.6377 20.4955 54.7758C20.6153 54.9035 20.7169 55.0572 20.7899 55.2187C20.9722 55.633 20.9749 56.1306 20.67 56.5032L10.6597 66.3885C10.1412 66.8992 9.54715 67.2848 8.91141 67.5427C8.25222 67.8085 7.54875 67.9388 6.84527 67.9362C5.35232 67.9257 4.01046 67.316 3.04382 66.339C2.07718 65.3619 1.48835 64.0123 1.49617 62.5245C1.50138 61.8158 1.64207 61.1124 1.91565 60.4584C2.18141 59.8252 2.57485 59.2338 3.09334 58.7205L20.5867 41.4513C20.7899 41.2506 21.1208 41.2533 21.3214 41.4591C21.3865 41.5242 21.4282 41.6024 21.4517 41.6858C21.522 41.9046 21.608 42.1261 21.707 42.3528L21.7174 42.3788C21.8112 42.5925 21.9181 42.8035 22.0353 43.0094C22.1578 43.223 22.1109 43.4888 21.9363 43.6477L4.85466 60.5105C4.58108 60.7789 4.37525 61.0967 4.23194 61.4328C4.08343 61.7872 4.00787 62.1624 4.00527 62.535C4.00266 62.9075 4.073 63.2879 4.2189 63.6423C4.35699 63.9836 4.56022 64.3015 4.83119 64.5777Z" fill="#8F11A6"/>
<path id="Vector_4" d="M34.1636 1.1412C34.1636 0.807698 34.3173 0.513279 34.5674 0.304839C34.7889 0.117243 35.0937 0 35.422 0C35.7503 0 36.0552 0.117243 36.2766 0.304839C36.5267 0.513279 36.6805 0.807698 36.6805 1.1412V6.24538C36.6805 6.57888 36.5267 6.87331 36.2766 7.08175C36.0552 7.26935 35.7503 7.38659 35.422 7.38659C35.0937 7.38659 34.7889 7.26935 34.5674 7.08175C34.3173 6.87331 34.1636 6.57888 34.1636 6.24538V1.1412ZM27.3736 3.65812C27.6941 3.62686 28.012 3.72065 28.2491 3.95254L31.9072 7.51426C32.1469 7.74614 32.2511 8.06401 32.2277 8.38709C32.2068 8.66327 32.087 8.94989 31.8733 9.18178L31.8421 9.21565C31.6128 9.44754 31.3184 9.58302 31.0291 9.61168C30.7243 9.64294 30.4221 9.55696 30.1876 9.35113L26.4956 5.75554C26.2559 5.52365 26.1516 5.20578 26.1751 4.8853C26.1985 4.59349 26.3262 4.29646 26.5555 4.05936C26.7874 3.82487 27.0818 3.68678 27.3736 3.65812ZM42.6549 3.95254C42.892 3.72065 43.2124 3.62686 43.5329 3.65812C43.8221 3.68678 44.1192 3.82487 44.3484 4.05936C44.5777 4.29646 44.708 4.59609 44.7288 4.8853C44.7523 5.20838 44.6481 5.52365 44.411 5.75554L40.7529 9.31726C40.5132 9.54915 40.1953 9.64555 39.8748 9.61168C39.5856 9.58302 39.2938 9.44754 39.0645 9.21565L39.0306 9.17917C38.8196 8.94989 38.6997 8.66327 38.6789 8.38709C38.6554 8.06662 38.7571 7.75397 38.9916 7.51947L42.6549 3.95254Z" fill="#8F11A6"/>
<path id="Vector_5" fill-rule="evenodd" clip-rule="evenodd" d="M41.8551 43.4782H32.134C32.9 43.783 32.3633 43.8039 38.0511 43.8039L41.394 43.7648L41.8551 43.4782ZM28.072 42.1546C28.4212 37.892 31.8787 34.6482 36.1491 34.7498C39.2679 34.8253 42.1079 36.8368 43.2569 39.7367L43.2595 39.7471C43.5774 40.5548 43.7571 41.4016 43.8171 42.264L46.076 40.8675C45.753 38.559 44.3694 36.6466 42.7697 35.0285C42.1313 34.3824 41.1334 33.8196 40.3518 33.2985C40.297 33.262 40.284 33.1865 40.3205 33.1344C40.8729 32.311 41.6441 31.2949 41.9098 30.3491C43.0667 26.2506 39.7186 21.5529 35.3023 22.1027C31.084 22.6316 28.4446 26.8369 30.1356 30.8181C30.4665 31.5997 31.0762 32.4152 31.5582 33.1344C31.5947 33.1865 31.5817 33.262 31.5269 33.2985C29.9037 34.385 28.6739 35.1484 27.5093 36.8081C26.6494 38.0275 26.2039 39.1244 25.9746 40.2578L27.1601 41.0499L27.9861 42.0738C27.9861 42.1624 28.0304 42.139 28.072 42.1546ZM32.0637 28.5409C32.0637 25.8364 34.9636 23.9343 37.4336 24.9792C39.3955 25.8103 40.3049 28.0406 39.4737 30.013C38.3846 32.5976 35.2189 33.2229 33.2387 31.2454C32.5248 30.5289 32.0637 29.5596 32.0637 28.5409Z" fill="#8F11A6"/>
<path id="Vector_6" fill-rule="evenodd" clip-rule="evenodd" d="M68.8975 43.478H53.8273C53.7622 43.478 53.7101 43.4259 53.7101 43.3608V42.8709C53.7101 41.9277 53.8612 41.021 54.1426 40.1794C54.4318 39.3092 54.8591 38.5093 55.3984 37.8058C55.9456 37.0945 56.61 36.4822 57.3604 35.995C58.0977 35.5182 58.921 35.1639 59.8043 34.958H59.8095C60.4843 34.8017 61.1566 34.734 61.8183 34.7496C62.4906 34.7652 63.1498 34.8694 63.7829 35.057H63.7907C64.4265 35.2446 65.0388 35.5156 65.6146 35.8621C66.1878 36.2087 66.7297 36.6333 67.2248 37.131C67.5765 37.4853 67.9074 37.8918 68.2044 38.3426C68.4806 38.7673 68.7255 39.2336 68.9235 39.7365L68.9262 39.7469C69.1111 40.2159 69.2597 40.7188 69.3587 41.2555C69.4525 41.7662 69.5046 42.3055 69.5046 42.8709V43.3608C69.5046 43.4259 69.4525 43.478 69.3873 43.478H68.8975ZM57.7329 28.5407C57.7329 28.0274 57.8372 27.5428 58.0196 27.105C58.215 26.6387 58.5016 26.2218 58.8507 25.8727C59.0331 25.6903 59.2363 25.5235 59.4526 25.3802C59.6689 25.2343 59.8981 25.1092 60.1378 25.0076C60.3827 24.9034 60.6355 24.8252 60.8961 24.7705C61.1488 24.7184 61.4093 24.6897 61.6699 24.6897C62.1493 24.6897 62.6339 24.7836 63.1003 24.979C63.5354 25.164 63.9523 25.4401 64.3301 25.8179L64.3353 25.8231C64.7105 26.1983 64.9841 26.6152 65.1664 27.0477C65.3645 27.5141 65.4557 28.0039 65.4557 28.486C65.4557 28.7439 65.4296 29.0019 65.3775 29.2572C65.3228 29.5151 65.2446 29.7679 65.1404 30.0128C65.0413 30.2525 64.9163 30.4818 64.7704 30.698C64.6271 30.9143 64.4604 31.1149 64.278 31.2999C63.9288 31.649 63.5145 31.933 63.0481 32.1284C62.6078 32.3134 62.1232 32.4151 61.6074 32.4151C61.1097 32.4151 60.6225 32.3056 60.1717 32.1102L60.1665 32.1076C59.6975 31.9018 59.2676 31.6047 58.908 31.2452C58.5433 30.8804 58.2436 30.4479 58.0404 29.9763C57.8424 29.5256 57.7329 29.0383 57.7329 28.5407ZM55.8023 30.8179C56.0264 31.3416 56.3781 31.8679 56.8836 32.6235C57.0008 32.7824 57.1155 32.9674 57.2275 33.1342C57.264 33.1863 57.2483 33.2618 57.1936 33.2957L56.6829 33.6422C55.2681 34.588 54.265 35.2603 53.1759 36.8079C51.3886 39.3535 51.3938 41.3545 51.399 44.2753L51.4016 44.8824C51.4016 44.9814 51.4329 45.0882 51.485 45.1898L51.4902 45.1976C51.5449 45.3018 51.6283 45.4009 51.7299 45.4868C51.8367 45.5806 51.9644 45.6562 52.1103 45.7083C52.2431 45.7578 52.3943 45.7839 52.5559 45.7839H70.6588C71.1747 45.7839 71.4718 45.5624 71.6359 45.2054C71.8105 44.8276 71.8521 44.2961 71.8521 43.7177L71.8469 43.2435L71.8313 42.7615C71.8235 42.4254 71.8131 42.0919 71.8131 41.8652C71.8131 41.1643 71.7114 40.4999 71.5343 39.872C71.3597 39.2415 71.1044 38.6474 70.7969 38.0846C70.4843 37.514 70.1143 36.9721 69.713 36.4614C69.3118 35.9507 68.8767 35.4739 68.4363 35.0284C67.9569 34.5437 67.5296 34.2728 67.0293 33.9575L66.9929 33.9341C66.8183 33.8246 66.6334 33.71 66.4249 33.5693L66.021 33.2957C65.9663 33.2618 65.9507 33.1863 65.9871 33.1342L66.3259 32.6313C66.6542 32.1415 66.9173 31.7454 67.1258 31.3859C67.329 31.0289 67.4775 30.7058 67.5765 30.3489C67.6912 29.945 67.7615 29.5334 67.7928 29.1217C67.8215 28.6996 67.811 28.2723 67.7563 27.8528C67.6781 27.2145 67.5062 26.5918 67.2534 26.0029C66.9981 25.4063 66.662 24.8487 66.2581 24.3484C65.8517 23.8456 65.3749 23.4052 64.846 23.0457C64.3353 22.7018 63.7751 22.4334 63.1784 22.264C62.8293 22.165 62.4645 22.0999 62.0893 22.0738C61.7272 22.0478 61.352 22.0556 60.969 22.1025C60.6537 22.1416 60.3437 22.2041 60.0441 22.2849C59.7392 22.3656 59.4448 22.4673 59.1634 22.5871C58.5276 22.8581 57.9466 23.2255 57.4412 23.6632C56.9279 24.1087 56.4927 24.6298 56.1488 25.2056C55.8049 25.7815 55.5522 26.4146 55.4115 27.079C55.276 27.7226 55.2447 28.4 55.3307 29.0852C55.3672 29.3744 55.4245 29.6689 55.5026 29.9581C55.5808 30.2447 55.6824 30.5313 55.8023 30.8179Z" fill="#8F11A6"/>
<path id="Vector_7" fill-rule="evenodd" clip-rule="evenodd" d="M17.4995 43.478H2.42928C2.36414 43.478 2.31204 43.4259 2.31204 43.3608V42.8709C2.31204 41.9277 2.46317 41.021 2.74457 40.1794C3.03378 39.3092 3.46106 38.5093 4.0004 37.8058C4.54756 37.0945 5.20936 36.4822 5.96235 35.995C6.69971 35.5182 7.52304 35.1639 8.40631 34.958H8.41152C9.08635 34.8017 9.75856 34.734 10.4204 34.7496C11.09 34.7652 11.7518 34.8694 12.3849 35.057H12.3927C13.0284 35.2446 13.6407 35.5156 14.2165 35.8621C14.7898 36.2087 15.3317 36.6333 15.8268 37.131C16.1785 37.4853 16.5094 37.8918 16.8064 38.3426C17.0826 38.7673 17.3275 39.2336 17.5256 39.7365L17.5282 39.7469C17.7132 40.2159 17.8616 40.7188 17.9606 41.2555C18.0544 41.7662 18.1066 42.3055 18.1066 42.8709V43.3608C18.1066 43.4259 18.0544 43.478 17.9893 43.478H17.4995ZM6.33492 28.5407C6.33492 28.0274 6.43916 27.5428 6.62155 27.105C6.81696 26.6387 7.10355 26.2218 7.45269 25.8727C7.63507 25.6903 7.83832 25.5235 8.05457 25.3802C8.27083 25.2343 8.50008 25.1092 8.73979 25.0076C8.9847 24.9034 9.23744 24.8252 9.49539 24.7705C9.75073 24.7184 10.0113 24.6897 10.2692 24.6897C10.7513 24.6897 11.2359 24.7836 11.7023 24.979C12.1374 25.164 12.5543 25.4401 12.9321 25.8179L12.9373 25.8231C13.3125 26.1983 13.586 26.6152 13.7684 27.0477C13.9664 27.5141 14.0576 28.0039 14.0576 28.486C14.0576 28.7439 14.029 29.0019 13.9769 29.2572C13.9248 29.5151 13.8466 29.7679 13.7424 30.0128C13.6434 30.2525 13.5183 30.4818 13.3724 30.698C13.2291 30.9143 13.0623 31.1149 12.8799 31.2999C12.5308 31.649 12.1165 31.933 11.6501 32.1284C11.2098 32.3134 10.7252 32.4151 10.2093 32.4151C9.71164 32.4151 9.22441 32.3056 8.77366 32.1102L8.76587 32.1076C8.29948 31.9018 7.86956 31.6047 7.50739 31.2452C7.14523 30.8804 6.84561 30.4479 6.64238 29.9763C6.44436 29.5256 6.33492 29.0383 6.33492 28.5407ZM4.40427 30.8179C4.62834 31.3416 4.98006 31.8679 5.48552 32.6235C5.60277 32.7824 5.71743 32.9674 5.82947 33.1342C5.86594 33.1863 5.85031 33.2618 5.79559 33.2957L5.28232 33.6422C3.87014 34.588 2.8644 35.2603 1.7779 36.8079C-0.00946683 39.3535 -0.0068473 41.3545 0.000969193 44.2753L0.00357724 44.8824C0.00357724 44.9814 0.0348292 45.0882 0.0869392 45.1898L0.0895472 45.1976C0.146868 45.3018 0.230256 45.4009 0.329264 45.4868C0.438695 45.5806 0.566357 45.6562 0.712265 45.7083C0.845145 45.7578 0.996254 45.7839 1.15779 45.7839H19.2608C19.7767 45.7839 20.0711 45.5624 20.2379 45.2054C20.4124 44.8276 20.4515 44.2961 20.4515 43.7177L20.4489 43.2435L20.4333 42.7615C20.4228 42.4254 20.4124 42.0919 20.4124 41.8652C20.4124 41.1643 20.3134 40.4999 20.1363 39.872C19.9617 39.2415 19.7063 38.6474 19.3989 38.0846C19.0862 37.514 18.7162 36.9721 18.315 36.4614C17.9111 35.9507 17.4787 35.4739 17.0383 35.0284C16.5589 34.5437 16.1316 34.2728 15.6313 33.9575L15.5923 33.9341C15.4203 33.8246 15.2353 33.71 15.0269 33.5693L14.6204 33.2957C14.5683 33.2618 14.5527 33.1863 14.5891 33.1342L14.9278 32.6313C15.2561 32.1415 15.5193 31.7454 15.7277 31.3859C15.931 31.0289 16.0795 30.7058 16.1785 30.3489C16.2931 29.945 16.3635 29.5334 16.3947 29.1217C16.4234 28.6996 16.4104 28.2723 16.3583 27.8528C16.2801 27.2145 16.1055 26.5918 15.8554 26.0029C15.6001 25.4063 15.264 24.8487 14.8601 24.3484C14.4537 23.8456 13.9769 23.4052 13.4479 23.0457C12.9373 22.7018 12.3771 22.4334 11.7804 22.264C11.4313 22.165 11.0665 22.0999 10.6913 22.0738C10.3292 22.0478 9.95397 22.0556 9.57096 22.1025C9.25569 22.1416 8.94563 22.2041 8.64599 22.2849C8.34115 22.3656 8.04673 22.4673 7.76533 22.5871C7.12699 22.8581 6.54857 23.2255 6.0431 23.6632C5.52982 24.1087 5.09471 24.6298 4.75079 25.2056C4.40426 25.7815 4.15414 26.4146 4.01344 27.079C3.87796 27.7226 3.84667 28.4 3.93266 29.0852C3.96913 29.3744 4.02646 29.6689 4.10463 29.9581C4.18279 30.2447 4.28181 30.5313 4.40427 30.8179Z" fill="#8F11A6"/>
</g>
</svg>
