<svg width="276" height="330" viewBox="0 0 276 330" fill="none" xmlns="http://www.w3.org/2000/svg">
<path d="M219.764 325.443C219.413 325.093 219.062 324.742 218.711 324.391L218.36 323.69L219.062 322.988C219.413 322.638 220.116 322.287 220.467 322.287C221.169 322.287 222.222 323.339 222.222 324.04C222.222 324.742 221.169 325.794 220.818 325.794C220.467 325.794 220.116 325.443 219.764 325.443ZM163.23 312.468C161.825 312.117 158.665 309.311 157.612 307.207C156.207 304.402 156.207 299.843 157.261 293.881C157.963 291.076 158.314 288.621 158.314 288.27V287.569H156.909C156.207 287.569 155.505 287.218 155.154 287.218C154.1 285.815 151.642 278.1 148.482 266.177C147.429 263.722 146.726 261.267 146.726 261.267C146.726 260.916 146.375 260.215 146.375 259.513C146.024 258.812 145.673 258.461 145.322 258.111C144.619 258.111 141.81 258.812 139.703 260.215C135.49 262.67 130.222 262.67 124.253 260.215C121.795 259.163 120.39 259.163 118.986 260.565C118.635 260.916 117.932 261.267 117.581 261.267C117.581 261.267 116.879 261.618 116.177 262.319C114.421 263.722 112.314 264.423 109.505 264.774C107.047 264.774 105.642 264.423 103.887 262.67C102.131 260.565 101.78 260.215 100.726 255.656C99.6728 251.097 97.5659 244.784 96.5125 242.33C96.1613 241.277 95.1079 238.472 94.0545 236.017C93.001 233.212 91.9476 230.757 91.5965 230.406L90.8942 229.705L89.1384 230.406C88.085 231.107 86.3293 232.16 84.9247 232.861C82.4667 234.614 82.1155 235.666 82.1155 240.225C81.7644 243.382 82.1155 243.732 83.169 248.291C84.2224 252.5 84.5735 253.201 86.3293 257.409C87.3827 259.513 90.1919 270.034 90.1919 271.437C90.1919 271.788 89.8407 272.84 89.4896 273.892C89.1384 274.593 88.7873 275.294 88.7873 275.645C88.7873 276.347 87.0316 279.503 85.2758 281.607C83.5201 283.711 81.4132 284.763 77.9018 285.465C75.7949 285.815 73.688 285.815 71.9323 284.763C67.7186 282.308 66.6651 278.1 69.1232 271.437C69.4743 270.736 69.8255 268.982 70.1766 267.579C70.5277 265.124 70.5277 265.124 69.1232 263.722C68.0697 262.67 67.3674 261.618 67.3674 260.565C67.0163 259.864 66.314 257.76 65.6117 255.656C64.9094 253.902 64.2071 251.448 63.856 250.045C63.856 248.993 63.1537 245.836 62.4514 243.031C61.398 237.42 61.0468 232.51 61.7491 227.601C62.4514 223.042 63.5048 221.288 67.0163 217.781C70.1766 214.625 70.1766 214.274 69.4743 211.118C68.4209 207.962 66.314 198.493 64.2071 187.622C62.8026 180.608 62.8026 180.257 58.94 174.997C57.5354 173.243 56.1308 171.49 55.7797 170.789C54.7262 169.035 48.4056 160.969 48.0545 160.619C47.7033 160.268 47.3522 159.917 47.3522 159.567C47.3522 159.567 47.001 158.865 46.6499 158.514C46.2987 158.164 45.5964 157.462 45.2453 156.761C44.8942 156.06 44.1919 155.358 44.1919 155.358C43.8407 155.008 42.7873 153.254 41.3827 151.501C39.9781 149.396 38.5735 147.643 38.5735 147.643H38.2224V147.292C38.2224 146.942 38.2224 146.591 37.8713 146.591C37.8713 146.591 35.4132 142.733 29.0926 133.615C28.0392 131.511 26.2835 129.056 25.23 128.004C23.8255 125.9 23.8255 125.9 24.5277 124.497C24.8789 122.744 24.8789 122.744 23.1232 120.289C22.4209 118.886 21.3674 117.484 21.0163 117.133C21.0163 116.782 20.314 116.081 19.9629 115.73C19.6117 115.029 19.2606 114.327 18.9094 113.977C18.2071 112.574 16.4514 111.171 15.398 111.171C13.6422 111.171 11.5354 109.768 10.4819 107.664C9.77965 106.262 9.4285 105.911 8.37507 105.209C6.2682 104.157 5.21476 103.105 4.16133 101.001C3.45904 99.2477 3.45904 98.897 4.51247 95.7408C6.2682 90.8311 11.1842 87.6749 16.1003 88.3763C17.1537 88.3763 19.2606 88.3763 20.6651 88.0256C22.772 87.6749 23.1232 87.6749 24.5277 88.3763C26.2835 89.0777 27.3369 90.1297 29.0926 92.2339C30.1461 93.9873 30.4972 94.6887 30.4972 97.1436C30.4972 98.5463 30.1461 101.001 29.4438 101.352C29.4438 101.703 29.0926 102.053 28.7415 102.755C28.7415 103.807 29.0926 105.209 31.1995 108.716C31.9018 109.418 33.3064 111.522 34.3598 113.275C35.4132 115.029 36.4667 116.432 37.169 116.782C37.8713 117.133 39.2758 119.237 41.3827 122.043C44.543 126.952 48.4056 132.213 49.459 133.615C49.8102 133.966 50.5125 134.667 50.8636 135.369C51.2148 136.07 51.9171 137.122 52.2682 137.473C52.6193 137.824 53.6728 139.577 55.0774 140.98C56.1308 142.733 57.1842 144.136 57.5354 144.136H57.8865L57.5354 142.733C57.1842 141.331 56.1308 134.667 55.7797 132.563C55.0774 130.108 54.7262 126.602 54.3751 124.848C54.0239 123.445 52.6193 113.977 52.2682 111.522C51.9171 110.821 51.9171 110.119 51.9171 109.418C51.5659 108.716 51.2148 106.262 50.8636 104.157C50.5125 101.703 49.8102 98.1956 49.8102 96.0915C49.1079 91.8832 49.1079 91.8832 48.4056 88.0256C48.0545 86.6228 47.7033 84.5187 47.3522 83.4666C47.001 82.0639 47.001 81.7132 43.1384 77.8556C38.9247 73.998 38.9247 73.6473 36.8178 69.0883C35.4132 66.2828 34.0087 62.7759 33.6575 61.3731C31.9018 54.3593 32.6041 44.8906 35.4132 37.1754C38.9247 26.6547 42.085 22.4464 49.8102 17.1861C50.1613 16.4847 50.8636 16.134 50.8636 16.134C53.3216 13.6792 58.5888 10.8736 64.5583 8.41879C69.8255 6.31465 72.2835 5.61327 76.4972 5.26258C81.4132 4.91189 97.5659 5.26258 101.077 5.96396C105.993 7.36672 111.261 8.41879 113.719 9.12018C116.177 10.1722 118.283 10.5229 120.39 11.2243C120.741 11.2243 121.795 11.575 122.146 11.9257L123.551 12.2764V12.6271C123.551 12.9778 122.146 14.3805 118.986 16.134C118.283 16.8354 117.581 17.1861 117.23 17.1861C117.23 17.1861 116.528 17.8874 115.474 18.5888L113.719 19.6409V19.9916C114.07 19.9916 115.123 20.3423 116.879 20.3423C120.039 20.693 127.413 22.0957 130.925 23.1478C138.65 25.6026 145.673 28.4082 146.726 29.4602L147.077 30.1616L146.375 30.5123C146.024 30.863 144.971 31.2137 143.917 31.5644L141.81 31.9151V32.2658C141.81 32.6165 143.215 33.3178 144.619 34.0192C145.322 34.3699 146.375 34.7206 147.077 35.422C147.429 35.7727 148.131 36.1234 148.131 36.1234C148.833 36.1234 160.421 44.5399 160.772 45.592L161.474 46.2934L160.772 46.6441C160.772 46.9948 158.665 46.9948 155.505 47.3455L150.589 47.6962L153.047 49.0989C155.856 51.2031 156.558 52.2551 157.261 56.1127C157.612 57.5155 157.963 58.5676 157.963 58.9183C158.314 58.9183 158.314 63.4772 158.314 69.0883C158.665 76.4528 158.665 79.609 157.963 82.4146C157.963 84.168 157.612 87.6749 157.612 90.1297C157.612 94.6887 157.612 94.6887 159.016 96.4422C159.367 97.4943 160.07 98.1956 160.07 98.1956C160.07 98.5463 160.421 99.2477 161.123 99.9491C162.177 102.053 162.528 105.209 161.825 108.366C161.474 109.418 161.123 110.47 161.123 110.821C160.772 111.522 160.07 112.925 158.665 113.977C157.261 115.379 157.261 116.432 157.261 118.886C156.909 121.341 160.421 136.772 161.474 139.928L161.825 140.629L162.528 140.279C162.879 140.279 163.932 139.928 164.635 139.577L166.039 139.226L168.146 138.525C172.711 136.772 176.222 136.07 184.299 136.421C190.97 136.421 191.673 136.421 195.184 137.122C204.314 139.577 211.688 143.435 214.146 147.292C215.902 150.098 221.871 156.41 223.276 156.761C223.627 157.112 225.032 157.813 226.085 158.514C229.245 160.619 230.299 162.723 230.299 165.879C230.299 169.035 229.245 171.49 226.085 174.646C225.032 175.698 223.978 176.75 223.978 177.101C223.978 177.101 224.68 178.153 226.085 179.205C229.596 182.712 231.352 185.167 235.566 190.778C235.917 191.129 236.619 192.181 237.322 193.233C238.024 193.934 238.726 194.986 239.429 196.038C240.131 197.441 248.909 206.208 253.474 210.066C254.879 211.469 256.986 213.222 258.39 213.924C262.955 217.08 267.169 219.535 269.978 220.937C271.383 221.639 272.787 222.34 273.138 222.691L273.49 223.392L273.138 223.743C272.787 224.094 271.032 224.444 269.276 224.795C267.52 225.146 264.36 225.847 262.253 226.548C260.146 227.25 257.337 227.951 255.932 228.302C252.421 229.354 248.909 231.107 245.047 233.562C243.291 234.614 241.887 235.666 241.887 235.666C241.887 235.666 241.184 236.017 240.833 236.368C234.512 239.875 231.352 241.628 231.001 241.979C230.65 242.33 229.245 243.031 227.841 244.083C226.436 244.784 223.276 246.889 220.818 248.291C213.444 252.85 209.581 254.604 201.505 256.708C194.131 258.461 193.429 258.461 185.001 258.111C180.787 257.76 175.871 257.059 173.764 257.059C172.009 256.708 170.253 256.708 170.253 256.708C169.902 257.059 170.253 258.812 171.658 262.67C172.36 264.072 172.711 265.826 172.711 266.177C173.062 266.878 173.764 269.333 175.871 275.645C177.276 279.853 177.276 280.906 175.52 282.308L174.467 283.36L175.169 286.166C177.978 293.53 178.329 295.635 178.329 300.194C178.329 304.051 178.329 304.402 177.276 306.506C175.871 308.961 174.818 309.662 170.955 311.416C167.795 312.818 165.688 313.169 163.23 312.468ZM212.39 312.117C211.688 311.766 209.23 307.909 206.421 302.648C204.665 299.141 203.963 297.739 200.451 289.322C197.993 284.062 196.589 280.906 195.184 278.1L194.131 275.996L194.833 275.294C195.887 274.242 197.291 274.593 198.345 275.645C198.696 275.996 201.154 281.256 204.314 287.569C207.474 293.53 211.337 300.895 212.741 304.051C214.497 307.207 215.902 310.364 215.902 310.714V311.416C215.551 311.416 215.2 311.766 214.497 311.766C213.795 312.117 213.093 312.117 212.39 312.117ZM136.894 296.687C136.894 296.336 137.948 294.933 138.65 294.933C139.001 294.933 139.352 295.284 139.703 295.635L140.406 295.985L140.054 296.687C139.352 297.037 138.65 297.388 138.299 297.388H137.245L136.894 296.687ZM241.184 294.232C241.184 293.18 242.238 292.829 243.291 293.18L244.345 293.53V294.232V294.582H243.642C243.642 294.933 242.94 294.933 242.238 294.933H241.184V294.232ZM133.032 290.023C132.329 289.322 130.222 285.114 128.116 280.555L123.902 272.489C123.902 272.489 124.604 272.138 124.955 271.788L126.009 271.086L126.711 271.437C126.711 271.788 128.818 274.944 130.574 278.801C132.68 282.659 134.787 286.867 135.49 288.27L136.543 290.374L135.841 291.076C134.787 291.777 133.734 291.426 133.032 290.023ZM237.322 286.867C236.97 286.517 235.566 283.711 234.161 281.256C232.054 277.048 229.596 272.489 226.085 266.177C225.383 264.774 224.68 263.722 224.68 263.371L224.329 263.02L225.032 262.67C225.734 261.968 226.436 261.968 227.138 262.319C227.841 263.02 231.001 267.93 233.108 271.788C234.161 273.892 235.215 275.996 235.917 276.697C237.322 279.503 240.833 285.815 240.833 286.517C240.833 286.867 239.78 287.569 238.726 287.569C238.024 287.569 237.673 287.218 237.322 286.867Z" fill="#040305"/>
<path d="M221.874 324.039V323.337L222.225 323.688V324.389L221.874 325.091V324.039ZM162.53 308.959C160.775 307.907 160.423 306.504 160.423 302.647C160.423 295.633 160.775 287.918 161.477 287.567C161.828 287.216 164.286 286.515 167.446 285.463C169.202 285.112 169.904 286.164 170.958 288.97C172.011 292.827 172.714 297.737 172.714 301.595C172.714 306.504 171.66 308.258 167.446 309.31C164.988 309.66 163.935 309.66 162.53 308.959ZM156.912 295.633V295.282L157.263 295.633V295.984V296.334H156.912V295.633ZM242.24 292.827H242.591H242.943V293.178H242.24H241.889L242.24 292.827ZM156.912 287.216C156.912 286.866 157.263 286.866 157.263 286.866H157.614V287.216V287.567H156.912H156.561L156.912 287.216ZM75.0952 285.463H75.4464H75.7975V285.813H75.0952H74.7441L75.0952 285.463ZM83.1715 283.709C83.1715 283.359 83.5227 283.359 83.8738 283.008C83.5227 283.359 83.5227 283.709 83.1715 283.709ZM156.21 280.904C154.805 276.345 149.889 260.914 147.431 253.55C143.217 238.47 138.652 224.443 137.248 221.637C135.843 218.832 136.546 218.832 124.256 220.585C97.5685 224.443 90.8967 225.495 87.7364 226.547C83.5227 227.949 80.0112 231.106 78.2555 234.262C77.5532 235.665 77.5532 236.015 77.5532 239.172C78.2555 244.783 78.6067 247.237 81.0647 256.355C81.4158 257.408 81.4158 257.758 81.0647 258.109C80.7135 258.46 73.3395 261.265 72.286 261.265C71.9349 261.265 71.5838 260.914 71.2326 260.213C69.828 257.758 67.37 248.29 66.3166 241.977C65.2631 236.717 64.912 228.3 65.2631 226.547C66.6677 222.689 71.5838 217.779 76.1486 216.377C76.4998 216.026 78.9578 215.675 81.767 215.675H86.3318L85.9807 215.325C85.9807 214.623 82.4693 212.519 80.3624 212.168C78.9578 211.818 78.2555 211.818 76.8509 212.168C74.3929 212.519 73.6906 212.519 73.3395 211.467C72.9883 211.116 71.9349 205.856 70.8815 199.894C69.828 193.932 68.0723 184.815 67.0189 179.554C65.9654 174.645 65.2631 169.735 65.2631 169.384C65.2631 168.332 65.9654 167.981 68.7746 166.228C71.2326 165.176 72.6372 164.474 74.3929 164.124C78.6067 163.422 95.1105 162.37 101.782 162.02C109.507 162.02 109.507 162.02 109.507 163.773C109.507 166.228 111.614 168.332 114.072 168.683C115.126 169.033 116.179 169.735 117.584 170.436C121.095 173.592 123.904 174.294 129.523 174.995C131.981 174.995 133.034 174.995 133.385 174.645L134.088 174.294L133.034 172.54C131.278 170.086 131.63 169.735 135.492 168.683C137.248 168.332 139.355 167.631 139.706 167.28L140.408 166.929V166.579C140.057 165.527 136.194 163.072 133.385 161.318C131.981 160.617 130.576 159.565 130.576 159.565V159.214L131.278 158.863C131.63 158.863 135.492 158.863 140.057 159.214C147.08 159.565 148.485 159.565 149.187 159.214C149.187 158.863 150.591 157.11 151.996 155.006C154.805 150.096 156.561 147.641 159.721 145.537C163.233 142.732 166.393 141.329 171.309 140.277C177.63 138.523 181.141 138.173 186.408 138.874C194.133 139.575 198.347 140.627 205.721 144.134C209.233 145.888 212.393 148.343 212.393 149.745C212.393 150.096 212.042 150.798 211.339 151.148C209.584 152.902 206.072 155.006 205.37 155.006C205.019 155.006 203.614 154.304 202.21 153.954C199.752 152.551 194.133 150.447 189.92 149.395C186.057 148.343 180.088 148.343 176.225 149.395C171.309 150.447 168.5 152.2 165.339 155.357C163.233 157.811 160.072 162.02 160.072 163.072H160.775L161.477 162.721V163.072C161.828 163.072 162.53 165.527 163.233 167.981C165.339 174.645 168.149 189.724 168.5 194.634C168.851 201.297 167.095 206.908 163.935 210.415C161.828 212.87 160.072 213.571 152.347 215.675L150.943 216.026L154.454 226.196C157.965 236.366 160.775 245.484 164.637 258.109C167.095 267.578 170.607 279.852 170.607 280.202V280.904L164.988 281.956C161.828 282.657 158.668 283.008 157.965 283.008H156.912L156.21 280.904ZM116.881 205.505C117.584 205.155 118.637 204.103 119.339 203.401C120.393 202.349 120.393 202.349 120.393 199.544C120.042 195.686 120.393 194.985 122.149 194.634C128.469 193.582 132.332 189.023 130.576 184.464C129.874 183.061 128.82 182.71 124.607 181.658C122.851 181.308 121.095 180.957 119.339 180.957L116.53 181.308L115.828 178.853C115.126 176.398 114.423 174.995 112.668 173.242C111.263 171.488 109.859 171.138 107.401 171.839C104.24 172.54 102.836 175.346 102.836 180.957C102.836 183.061 102.836 184.113 102.485 184.464C102.133 184.464 101.08 185.165 99.6754 185.165C95.8128 186.217 93.0036 188.321 93.0036 190.075C93.0036 192.179 94.057 196.037 94.7593 197.089C95.4616 198.141 96.5151 198.491 101.08 198.491C103.538 198.491 104.943 198.491 105.294 198.842C105.294 199.193 105.645 200.245 106.347 201.297C107.049 203.752 108.454 205.856 109.859 206.207C111.614 206.557 115.126 206.207 116.881 205.505ZM72.6372 281.254C72.286 280.904 71.5838 279.852 70.8815 279.15C70.5303 277.748 70.5303 277.748 71.5838 272.487C72.286 269.682 72.9883 266.525 72.9883 265.824C72.9883 265.123 73.3395 264.421 73.3395 264.071C74.3929 263.72 81.767 260.213 82.1181 260.213C82.8204 260.213 84.5761 264.421 84.9273 266.525C87.0341 274.591 83.1715 280.553 75.4464 281.605C74.0418 281.605 73.3395 281.605 72.6372 281.254ZM67.7212 277.397V276.345L68.0723 276.696C68.0723 277.046 68.0723 277.748 68.0723 278.098L67.7212 278.8V277.397ZM106.347 258.81C105.996 258.109 105.645 257.408 105.645 257.057C105.645 256.005 99.3242 239.873 96.5151 233.21L94.7593 229.002L95.1105 228.651C95.8128 227.599 117.935 225.144 131.63 224.443C134.439 224.443 135.492 224.443 135.843 224.793C135.843 225.144 136.897 227.599 137.599 230.404C138.301 232.859 140.057 238.47 141.11 242.328C142.164 246.185 143.217 249.692 143.568 250.394V251.796L142.515 252.147C141.813 252.498 139.355 253.901 136.546 254.953C130.927 257.408 130.225 257.408 124.607 256.355C116.881 254.602 115.477 254.602 111.263 257.758C109.859 258.81 108.454 259.512 107.752 259.862H106.698L106.347 258.81ZM119.339 250.744V250.394H118.988H118.637V250.744V251.095C118.988 251.095 118.988 251.095 119.339 250.744ZM116.53 245.484C116.53 244.081 111.614 233.21 110.561 233.21H110.21L109.859 233.911C109.859 234.262 109.859 234.963 113.019 241.626C114.775 245.484 115.126 246.185 116.179 246.185H116.53V245.484ZM86.3318 258.46V258.109V257.758H86.683V258.109L87.0341 258.81C86.683 258.81 86.683 258.81 86.3318 258.46ZM180.088 257.408H180.439H180.79V257.758H180.088H179.736L180.088 257.408ZM64.2097 251.796V251.446L64.5609 251.796V252.147V252.498H64.2097V251.796ZM176.576 250.744C172.011 250.043 167.446 249.342 167.095 248.991C166.393 248.991 166.042 247.939 164.286 243.029C160.072 230.054 157.263 221.286 157.263 220.585C157.263 220.234 157.614 219.533 158.317 219.182C164.637 215.325 168.149 212.519 169.553 210.064C169.904 209.363 170.607 207.96 170.958 207.259C172.011 205.856 173.065 201.297 173.065 199.544C173.065 197.089 170.958 186.217 169.904 182.36C169.553 180.256 168.5 176.047 167.798 172.891C166.744 169.735 165.691 165.527 164.988 163.773C164.637 162.02 163.935 160.266 163.935 159.915V159.214H165.339C167.446 159.214 176.225 162.02 177.981 163.072C177.981 163.072 179.385 163.773 180.79 164.825C184.652 166.579 190.271 170.086 197.645 175.346C198.347 175.697 201.156 177.801 204.317 179.905C207.477 182.009 210.988 184.464 212.042 185.165C216.958 188.672 226.79 195.686 228.897 197.439C229.599 197.79 231.706 199.544 233.462 200.946C240.133 206.207 243.996 209.012 247.156 211.116C249.263 212.168 252.423 214.273 254.179 216.026C256.286 217.429 258.393 218.832 258.744 219.182L259.798 219.884V220.234C259.798 220.585 258.393 220.936 256.988 221.637C254.53 222.689 237.675 231.106 234.866 232.859C233.813 233.21 231.355 234.963 229.248 236.366C227.141 238.12 224.683 239.873 223.981 240.224C219.767 243.38 213.798 245.835 204.317 249.342C197.996 251.095 194.836 251.796 189.568 252.147C185.706 252.147 184.301 251.796 176.576 250.744ZM211.339 233.21V232.859L210.988 232.508C210.637 232.508 210.286 232.508 209.935 232.508V232.859V233.21C210.286 233.561 210.988 233.561 211.339 233.21ZM204.668 225.495C204.668 224.092 200.103 216.377 195.889 211.467C194.485 209.714 192.027 207.259 190.973 205.505C188.515 201.998 180.439 193.932 179.736 193.932C179.385 193.932 179.034 194.283 178.683 194.283L178.332 194.634L181.843 198.491C195.187 212.87 198.347 217.078 202.912 225.144C203.263 225.845 203.965 226.196 203.965 226.196H204.668V225.495ZM81.4158 240.224V239.172L81.767 239.522C81.767 239.873 81.767 240.574 81.767 240.925L81.4158 241.626V240.224ZM61.4006 230.755V229.703L61.7517 230.054C61.7517 230.404 61.7517 231.106 61.7517 231.456L61.4006 232.158V230.755ZM68.4235 216.727C68.4235 216.377 69.1257 216.026 69.1257 216.026L68.7746 216.727C68.4235 217.078 67.7212 217.429 67.7212 217.429L68.4235 216.727ZM239.08 203.401C238.729 203.05 237.324 201.998 236.622 201.297C235.568 200.596 233.11 198.491 230.652 196.738C228.546 194.985 225.034 192.179 222.927 190.426C220.82 189.023 218.362 187.269 217.309 186.217C199.401 172.54 192.027 167.28 185.706 164.124C182.546 162.37 176.225 159.565 169.553 157.11L167.798 156.759V156.058C167.798 155.006 172.714 152.902 176.225 152.551C178.683 152.551 179.034 152.551 186.057 155.357C189.92 157.11 195.187 160.266 196.943 161.669C196.943 162.02 198.347 163.072 199.752 164.124C201.507 165.527 202.912 166.579 202.912 166.929C203.263 167.28 203.263 168.332 203.263 169.033C203.263 173.242 205.721 175.346 210.637 176.047C212.393 176.047 213.095 176.398 213.798 177.099C214.149 177.801 215.553 178.502 216.958 179.203C218.714 179.905 220.469 181.658 229.95 191.127C235.92 197.089 240.836 202.7 241.187 203.05C241.889 204.453 240.836 204.804 239.08 203.401ZM245.049 202.349C245.401 202.7 245.752 202.7 245.752 203.05C245.401 203.05 245.401 202.7 245.049 202.349ZM243.294 200.946L242.943 200.245L243.645 200.596C243.996 200.946 244.347 201.297 244.347 201.648C243.996 201.648 243.645 201.297 243.294 200.946ZM238.378 194.634C238.729 194.985 239.08 194.985 239.08 195.335C238.729 195.335 238.729 194.985 238.378 194.634ZM214.5 174.995L213.798 174.294L214.149 173.943C214.149 173.592 214.5 173.592 215.202 173.592H215.904L214.851 171.488C213.446 169.384 212.744 168.332 212.393 168.332H212.042V170.086C212.744 172.891 210.988 174.294 208.53 173.592C204.317 172.54 204.668 167.981 208.881 163.773L210.988 162.02L208.881 159.915L206.775 157.811L207.126 157.11C207.828 156.409 213.095 153.603 214.149 153.603C215.202 153.603 216.958 156.058 217.309 157.811L217.66 158.863H219.065C221.523 158.863 222.576 159.214 223.63 160.266C225.385 161.669 226.088 163.422 226.088 166.228C226.088 169.735 223.63 173.242 219.767 175.346C217.309 176.398 215.904 176.398 214.5 174.995ZM123.553 172.19C120.744 171.488 118.286 169.384 118.286 167.981C118.286 167.631 118.988 167.28 119.339 167.28C120.042 166.929 120.744 166.929 121.798 167.631C123.553 168.683 125.66 169.735 127.065 170.086C127.767 170.086 128.82 170.436 129.172 170.787L129.874 171.488V171.839L129.523 172.54H127.065C125.66 172.54 123.904 172.19 123.553 172.19ZM56.1334 171.488C56.4845 171.839 56.8357 171.839 56.8357 172.19C56.4845 172.19 56.4845 171.839 56.1334 171.488ZM58.9425 169.735C57.8891 168.683 54.7288 163.773 51.5685 159.214C48.4082 154.655 44.1944 148.693 42.0876 145.888C37.1715 138.874 28.7441 126.6 28.7441 125.898C28.7441 125.548 29.0952 125.197 29.0952 124.846C30.1486 124.145 35.4158 120.989 36.1181 120.989C36.4693 120.989 37.8738 122.742 42.0876 129.055C43.8433 131.51 47.7059 137.121 50.8662 142.03C57.8891 152.2 58.2402 152.551 58.2402 153.603C57.8891 153.954 58.2402 156.058 58.5914 158.513C59.2937 161.318 59.6448 162.37 60.3471 163.072C61.0494 163.773 61.0494 164.825 61.7517 167.28C61.7517 169.384 62.1028 171.138 62.1028 171.488L61.7517 171.839H61.0494C60.6983 171.839 59.996 171.138 58.9425 169.735ZM229.95 169.033V168.332H230.301V168.683L229.95 169.033ZM125.309 167.28C122.851 166.579 121.446 164.825 121.446 163.072C121.446 160.617 121.798 160.266 124.958 160.266C126.714 160.617 128.469 160.968 130.225 161.669C132.683 162.721 137.599 165.527 137.599 165.877C137.599 166.579 136.546 166.929 134.439 167.28C131.278 168.332 127.767 167.981 125.309 167.28ZM112.668 166.579C110.21 165.176 110.21 159.915 113.019 158.863C115.828 157.461 118.286 158.513 118.988 160.617C119.691 162.37 119.691 163.072 119.339 164.474C117.935 166.929 115.477 167.631 112.668 166.579ZM199.401 159.565C196.24 157.461 193.782 155.357 193.782 155.006V154.655H194.485C195.187 154.655 197.294 155.707 200.805 158.513C201.859 159.214 203.263 159.915 203.614 159.915C205.019 159.915 206.423 161.318 206.423 162.02C206.423 163.072 205.721 163.773 205.37 163.773C205.019 163.773 202.21 162.02 199.401 159.565ZM64.2097 161.318C63.1563 161.318 62.454 159.915 62.1028 157.461C62.1028 155.707 62.1028 155.357 62.8051 154.655C63.8586 153.603 64.5609 153.603 75.4464 154.655C83.8738 155.357 86.683 155.707 92.6525 157.11C94.4082 157.461 96.8662 157.811 98.2708 158.162L100.378 158.513V159.214V159.915H98.9731C97.9196 159.915 93.7059 160.266 89.4922 160.617C81.4158 160.968 66.3166 161.669 65.6143 161.669C65.2631 161.669 64.5609 161.669 64.2097 161.318ZM107.401 158.162C107.049 157.811 93.7059 155.006 89.8433 154.655C88.0876 154.304 83.5227 153.603 80.3624 152.902C69.1257 151.148 66.3166 150.798 64.912 150.798C63.8586 151.148 63.1563 151.148 62.8051 150.798C62.8051 150.447 62.1028 147.641 61.4006 144.485C61.0494 141.68 60.3471 136.77 59.996 133.964C59.2937 130.808 58.2402 124.846 57.538 120.638C56.8357 116.43 56.1334 110.117 55.4311 106.961C54.0265 98.5446 52.2708 87.3225 52.6219 86.2704V85.2183H52.9731C53.3242 85.2183 54.7288 85.9197 56.4845 86.6211C64.5609 90.4787 71.2326 91.5308 82.4693 90.8294C95.8128 90.128 106.347 87.6732 125.66 81.3607C130.225 79.958 134.088 78.9059 134.439 78.9059C134.79 79.2566 135.492 80.6594 140.057 91.5308C141.813 95.7391 143.568 99.9474 144.271 100.298L144.973 100.999L147.08 99.246C150.24 96.0898 153.049 95.7391 156.21 97.8432C159.37 99.9474 160.423 102.753 159.019 106.961C157.614 111.169 155.859 112.572 151.645 113.274L150.591 113.624V114.676C150.591 115.378 151.996 119.937 153.401 124.846C155.859 133.964 156.912 138.874 156.561 139.575C156.21 139.926 154.805 140.627 153.401 140.978C149.187 142.381 147.08 143.433 144.271 145.186C142.866 145.888 140.759 146.94 139.355 147.291C135.141 148.693 123.553 153.954 121.446 155.357C119.339 156.409 118.988 156.759 115.828 156.759C113.721 156.759 112.317 157.11 111.965 157.461C110.912 158.162 107.752 158.513 107.401 158.162ZM109.507 150.798C114.775 150.096 117.935 148.343 122.149 144.485C127.416 138.874 130.927 132.562 134.088 123.444C135.141 120.287 135.843 117.833 135.843 117.833H134.79C134.439 117.833 131.278 118.534 127.767 119.586C121.798 120.989 116.881 122.742 99.3242 129.055C94.4082 130.808 88.4387 132.562 86.3318 133.614C81.767 135.016 80.7135 136.069 81.0647 137.822C81.4158 139.225 88.4387 145.537 91.599 147.992C97.2173 151.85 101.431 152.2 109.507 150.798ZM83.1715 120.989C84.9273 120.287 85.6296 119.586 86.3318 118.183C87.3853 115.728 86.683 112.572 84.5761 111.169C83.8738 110.819 83.5227 110.117 83.5227 109.767V109.416L84.9273 109.065L86.3318 108.715V108.013C86.3318 107.663 85.9807 106.61 85.9807 105.208L85.2784 103.104H84.5761C84.225 103.104 83.8738 103.454 83.5227 103.805C83.5227 104.156 82.8204 104.857 82.4693 104.857C82.1181 105.208 79.309 105.208 75.7975 105.208C72.286 105.208 69.4769 105.208 69.1257 105.558C68.7746 105.909 67.0189 112.222 67.0189 112.572C67.37 112.572 68.0723 112.572 68.7746 112.222C72.286 111.169 77.9044 110.117 78.2555 110.468L78.6067 110.819L77.9044 112.222C76.4998 115.378 77.2021 119.586 80.0112 120.989C81.4158 121.69 81.4158 121.69 83.1715 120.989ZM114.072 114.676C117.584 111.871 118.637 110.819 118.637 110.117V109.767H116.881C115.126 110.117 115.126 110.117 114.423 109.065C114.072 108.715 113.37 107.663 113.019 106.961L111.965 105.909L112.317 105.558C112.317 105.208 114.423 105.208 117.935 104.857C121.798 104.857 123.202 104.506 123.553 104.156L124.256 103.805L123.904 103.104C123.202 102.402 115.126 98.5446 114.423 98.5446C114.072 98.5446 110.912 99.246 107.401 100.298C103.538 100.999 100.027 101.701 99.6754 101.701L98.9731 101.35V100.649C98.9731 98.5446 97.5685 97.4925 96.5151 98.8953C95.8128 99.246 96.1639 104.857 96.8662 106.26C97.5685 107.312 98.2708 107.312 102.836 106.61L105.645 105.909V106.26C105.996 106.26 105.645 107.312 104.943 108.364C103.889 110.468 103.889 111.871 104.943 113.975C105.996 115.728 107.049 116.43 110.21 116.43C111.614 116.43 111.965 116.43 114.072 114.676ZM151.294 108.715C151.645 108.364 152.347 107.663 152.698 106.61C152.698 105.558 153.401 104.156 154.103 103.454L154.805 102.402L154.454 102.052L154.103 101.701L151.645 102.402C148.133 103.805 148.133 104.156 148.133 105.558C148.485 106.961 149.889 109.065 150.24 109.065C150.591 109.065 150.943 109.065 151.294 108.715ZM126.011 156.409V156.058L126.362 155.707C127.416 154.304 150.24 146.589 152.698 146.589H153.401V146.94C153.401 147.992 148.133 154.655 147.431 154.655C146.729 155.006 144.622 155.006 142.164 155.357C137.95 155.357 131.63 156.058 127.767 156.759H126.362L126.011 156.409ZM43.8433 154.655L44.1944 155.006V155.357H43.8433V154.655ZM218.011 152.551L217.66 151.85L218.362 152.2C218.714 152.551 219.065 152.902 219.065 153.252C218.714 153.252 218.362 152.902 218.011 152.551ZM215.553 149.395C215.904 149.745 216.256 149.745 216.256 150.096C215.904 150.096 215.904 149.745 215.553 149.395ZM54.3777 125.548V125.197L54.7288 125.548V125.898V126.249H54.3777V125.548ZM26.6372 120.287C22.7746 115.027 19.9654 110.117 19.9654 109.065V108.013H19.2631C18.912 107.663 17.8586 107.663 16.8051 107.312L14.6983 106.961V106.26C14.6983 105.909 15.4006 104.857 16.454 103.805C17.5074 103.104 18.912 101.35 19.6143 100.649C20.3166 99.5967 21.37 98.1939 22.0723 97.4925C22.7746 96.4405 23.1257 95.7391 23.1257 95.3884V94.687H22.7746C22.7746 94.687 22.4235 95.0377 21.7212 95.3884C19.6143 97.1418 17.1563 95.0377 18.5609 92.2322C19.6143 89.7773 23.4769 89.4266 25.5838 91.5308C28.0418 93.9856 28.7441 98.5446 26.6372 100.999C24.8815 103.454 24.8815 103.454 26.9883 106.61C27.6906 108.364 29.4464 111.52 30.8509 113.624C32.2555 115.728 33.309 117.833 33.309 118.183C33.309 118.534 32.6067 119.235 30.8509 120.287C29.7975 121.339 28.3929 122.041 28.3929 122.041C28.0418 122.041 27.3395 121.339 26.6372 120.287ZM156.561 118.534V117.833L156.912 118.183V118.885L156.561 119.586V118.534ZM51.5685 108.715V108.364L51.9196 108.715V109.065V109.416H51.5685V108.715ZM29.0952 104.857L29.4464 105.208V105.558H29.0952V104.857ZM10.1334 102.402C8.37765 101.701 7.32422 99.246 7.32422 97.1418C7.32422 95.0377 8.37765 93.6349 10.8357 91.8815C12.5914 90.8294 12.9425 90.8294 14.6983 90.8294H17.1563L16.8051 91.8815C16.8051 92.2322 16.8051 93.2842 16.8051 93.9856C16.454 95.0377 16.454 95.3884 17.5074 96.7911C18.2097 97.4925 18.912 98.1939 18.912 98.5446C18.912 99.5967 16.454 102.052 14.3471 102.402C12.2402 103.104 11.538 103.104 10.1334 102.402ZM50.1639 100.298V99.9474L50.5151 100.298V100.649V100.999H50.1639V100.298ZM146.027 93.2842C145.675 92.5829 145.324 91.5308 144.622 90.8294C143.568 89.4266 143.568 86.9718 144.973 86.2704C145.675 85.9197 146.027 85.569 146.027 85.569V85.2183L144.622 84.8677C143.217 84.8677 142.866 84.517 142.866 83.4649C142.515 82.7635 142.515 82.4128 142.866 82.0621C143.217 81.3607 146.729 80.6594 148.836 80.6594H150.591V80.3087C150.591 79.2566 149.187 78.5552 147.431 78.5552C144.973 78.5552 142.515 77.8538 142.164 77.5032C141.462 76.4511 141.813 74.6976 142.866 73.2949C143.568 72.2428 143.92 71.5414 143.92 71.1907V70.84H143.217C141.813 71.5414 128.82 75.7497 126.714 76.4511C125.309 76.8018 123.202 77.5032 122.5 77.8538C121.446 78.2045 120.042 78.5552 119.691 78.5552C118.988 78.5552 116.53 79.2566 114.423 79.958C111.965 80.6594 109.507 81.3607 108.805 81.3607C107.752 81.3607 105.996 81.7114 104.591 82.0621C103.187 82.4128 100.027 83.1142 97.9196 83.4649C95.4616 83.8156 92.3013 84.517 91.2479 84.8677C87.0341 85.569 80.3624 85.9197 78.6067 85.2183C75.7975 84.517 71.5838 81.3607 69.4769 78.5552C68.7746 77.5032 68.0723 75.7497 67.37 74.6976L66.6677 72.2428H65.9654H65.2631L64.912 73.2949C64.5609 73.9962 64.5609 74.6976 64.912 76.1004C65.2631 78.2045 67.0189 82.0621 67.7212 83.1142L68.0723 83.4649H67.0189C65.6143 83.4649 59.2937 81.3607 56.8357 79.958C53.3242 78.2045 50.5151 76.1004 48.057 73.6455C41.7364 66.9824 38.5761 60.3193 37.5227 53.3055C36.8204 46.2917 38.5761 37.1737 42.4387 29.8092C44.5456 25.9516 46.3013 23.4968 48.7593 21.3926C50.8662 19.6392 54.0265 17.1843 54.3777 17.1843C54.7288 17.1843 56.8357 15.7816 57.538 15.0802C57.8891 15.0802 58.2402 14.7295 58.2402 14.7295C58.2402 14.7295 59.6448 14.0281 60.6983 13.3267C62.1028 12.6254 65.2631 11.2226 67.7212 10.1705C73.6906 7.71568 77.5532 7.36499 88.0876 7.36499C98.2708 7.71568 108.805 9.46914 112.317 11.2226L113.721 11.924L113.37 12.2747C113.019 12.6254 107.752 16.483 106.347 17.535C102.836 19.9899 100.729 22.094 100.729 23.4968V24.1981H102.133C102.836 24.1981 104.24 23.8475 105.294 23.4968C107.401 23.1461 113.37 23.1461 120.393 23.8475C123.904 24.1981 133.736 26.3023 134.79 27.0037L135.492 27.3544L135.141 27.7051C135.141 28.0557 133.736 28.4064 132.332 29.1078C129.172 29.8092 128.118 30.5106 128.118 31.5627C128.118 32.9654 128.82 33.3161 133.034 33.6668C136.897 34.0175 137.248 34.0175 140.759 35.7709C141.813 36.1216 143.568 36.823 144.622 37.5244C146.378 38.2258 151.294 41.0313 152.698 42.0834L153.401 42.7848V43.1355C153.049 43.1355 151.294 43.4861 149.187 43.4861C145.324 43.8368 143.568 44.1875 143.568 45.2396C143.568 45.5903 145.324 47.3437 147.08 49.4479C149.187 51.2013 150.943 53.3055 151.294 54.0069C151.645 54.7082 151.996 55.7603 152.347 56.4617C153.049 58.5658 153.752 63.4755 154.103 70.4893C154.103 77.5032 154.103 77.5032 153.401 78.5552C151.996 79.958 151.996 80.3087 153.401 81.0101C154.103 81.3607 154.103 81.3607 154.103 86.9718V92.2322L151.645 92.9335C150.24 93.2842 148.836 93.6349 148.133 93.9856C147.782 93.9856 147.08 94.3363 147.08 94.3363H146.378L146.027 93.2842ZM66.3166 69.4373C67.0189 69.0866 67.37 68.3852 66.3166 67.3331L65.6143 66.6317L64.912 66.9824L63.8586 67.6838L64.2097 68.3852C64.5609 69.7879 65.2631 70.1386 66.3166 69.4373ZM157.263 91.5308V88.7253L157.614 90.128C157.614 90.8294 157.614 92.2322 157.614 92.9335L157.263 94.687V91.5308ZM7.67536 91.1801C7.67536 90.8294 8.02651 90.8294 8.37765 90.4787C8.02651 90.8294 8.02651 91.1801 7.67536 91.1801ZM48.4082 89.0759V88.7253L48.7593 89.0759V89.4266V89.7773H48.4082V89.0759ZM157.614 84.1663V83.8156L157.965 84.1663V84.517V84.8677H157.614V84.1663ZM157.965 81.7114C157.614 81.7114 157.965 81.3607 157.965 81.0101L158.317 80.3087V81.0101V82.0621C157.965 82.0621 157.965 82.0621 157.965 81.7114ZM157.965 77.8538C157.614 77.5032 157.614 75.7497 157.965 74.3469C157.965 72.9442 157.614 69.7879 157.263 67.3331C157.263 64.5276 156.912 62.0728 156.561 61.0207V59.6179H156.912C157.965 60.67 158.668 63.8262 157.965 66.281V67.3331H158.317H158.668V72.9442V78.5552H158.317H157.965V77.8538ZM157.965 59.2672V58.9165L158.317 59.2672V59.6179V59.9686H157.965V59.2672ZM150.591 47.3437C150.591 46.993 150.943 46.993 151.294 46.993L151.645 47.3437H150.943L150.24 47.6944L150.591 47.3437ZM153.752 46.993C154.805 46.993 156.21 46.993 156.912 46.993L158.668 47.3437H155.507H152.347L153.752 46.993ZM141.462 32.6147C141.11 32.6147 141.11 32.264 141.11 32.264V31.9133H141.462H141.813V32.6147L142.164 32.9654H141.813C141.813 32.9654 141.462 32.9654 141.462 32.6147ZM128.82 22.7954L128.469 22.4447H128.82H129.172V22.7954V23.1461C128.82 23.1461 128.82 23.1461 128.82 22.7954ZM43.4922 22.094C43.8433 21.3926 44.5456 21.0419 44.5456 21.0419L43.8433 22.094C43.4922 22.4447 42.7899 22.7954 42.7899 22.7954L43.4922 22.094ZM100.027 5.96223H100.729L101.431 6.31292H100.378H99.6754L100.027 5.96223ZM80.0112 4.91016C80.7135 4.91016 82.1181 4.91016 82.8204 4.91016L84.5761 5.26085H81.4158H78.6067L80.0112 4.91016ZM109.507 203.401C107.752 202.349 107.049 201.297 106.347 198.491C106.347 196.738 105.996 195.686 105.996 195.335C105.996 195.335 104.24 195.686 102.133 195.686C98.6219 196.037 98.2708 196.037 96.8662 195.335C95.1105 194.634 94.7593 193.231 95.1105 191.127C95.4616 188.672 96.5151 187.971 100.378 187.269C102.485 186.568 103.889 186.217 104.24 186.217C104.24 185.867 104.24 184.113 103.889 182.009C103.538 179.203 103.538 177.801 103.889 176.749C104.591 174.645 107.752 173.242 109.859 173.943C111.263 174.294 113.019 177.099 114.072 180.606C114.423 182.009 114.775 183.412 115.126 183.412C115.126 183.762 116.881 183.412 118.988 183.412C123.202 183.061 124.607 183.061 125.66 184.815C127.416 186.919 126.714 190.075 124.607 191.127C123.904 191.478 122.149 192.179 120.393 192.53L117.584 193.231L117.233 197.089C117.233 200.245 116.881 200.946 116.179 201.998C114.775 204.103 111.965 204.804 109.507 203.401ZM107.401 148.343V147.992L108.103 146.94C109.859 145.537 114.423 143.433 116.881 143.433H118.286V144.134C118.286 144.836 117.584 145.186 115.126 146.589C113.37 147.291 111.965 147.641 108.454 148.693H107.752L107.401 148.343ZM90.5456 140.627C89.8433 140.627 89.141 139.926 89.141 139.575C88.0876 138.523 88.7899 137.471 90.1944 136.77C92.3013 135.367 101.782 131.86 106.698 130.107C113.721 127.652 129.523 122.742 130.225 122.742H130.576V123.444C130.576 125.197 127.065 130.457 126.011 131.159C123.202 132.211 103.538 138.523 98.9731 139.926C94.057 140.978 91.9502 141.329 90.5456 140.627ZM79.6601 115.378C78.9578 114.676 78.9578 113.624 79.6601 112.572C80.0112 111.871 81.4158 111.52 82.1181 112.222C82.1181 112.572 82.4693 113.274 82.8204 113.975C83.1715 115.728 80.7135 116.781 79.6601 115.378ZM107.752 111.169C106.698 109.416 107.752 108.364 109.859 108.364L111.263 108.715V109.416C111.263 111.169 110.561 111.871 109.507 111.871C108.454 111.871 108.103 111.52 107.752 111.169Z" fill="#242235"/>
<path d="M162.529 308.259C161.476 307.558 161.125 306.505 160.774 305.804C160.423 303.7 160.423 299.492 160.774 298.79C160.774 298.44 161.125 296.335 161.125 293.881C161.125 287.568 161.125 287.919 165.339 286.516C168.499 285.464 169.201 285.815 169.904 287.568C172.01 292.127 173.064 302.999 172.01 305.453C170.957 307.558 169.201 308.61 165.339 309.311C163.934 309.311 163.583 309.311 162.529 308.259ZM156.911 282.308C155.858 278.45 149.888 259.864 147.43 252.148C143.568 238.471 139.003 223.392 137.598 221.288C136.545 219.183 135.842 218.833 133.384 218.833C128.82 219.183 95.1096 224.444 90.5448 225.145C84.9264 226.548 80.3615 229.704 78.2547 233.562C77.2012 236.017 77.2012 236.017 77.5524 240.926C77.9035 245.836 78.957 250.395 80.3615 255.305L81.0638 257.409L80.7127 258.11C79.6593 258.461 72.6364 260.916 72.2852 260.916C71.2318 260.565 68.7738 252.499 67.018 245.135C65.9646 239.874 65.6135 235.666 65.6135 230.406C65.6135 227.249 65.6135 226.548 66.6669 224.794C67.7203 222.34 71.5829 218.833 74.7432 217.43C76.8501 216.378 77.2012 216.378 81.415 216.027C84.5753 216.027 85.9799 215.677 86.331 215.326L86.6822 214.975L86.331 214.624C85.9799 213.923 82.4684 212.17 80.7127 211.819C79.3081 211.468 78.2547 211.468 76.499 211.819C74.7432 212.17 74.3921 212.17 73.6898 211.819C73.6898 211.468 72.6364 207.26 71.5829 202.701C67.018 178.503 65.6135 170.087 65.6135 169.385C65.6135 168.684 65.9646 168.333 69.1249 166.58C71.9341 165.177 72.9875 164.826 75.4455 164.476C81.0638 163.774 100.026 162.372 104.239 162.372H108.804V163.774C109.155 164.476 109.507 165.878 109.858 166.229C110.56 167.632 113.018 169.385 114.071 169.385C114.774 169.385 115.827 170.087 117.232 171.139C121.446 173.944 123.552 174.646 129.522 175.347C133.033 175.347 134.438 174.996 134.438 174.295C134.438 173.944 134.087 173.243 133.384 172.191C132.682 171.489 132.331 170.437 132.331 170.437C132.682 170.087 134.087 169.385 135.842 169.035C141.11 167.632 141.812 166.931 139.354 164.826C137.247 163.073 134.087 160.969 132.331 160.267L131.278 159.917V159.566V159.215H135.842C138.3 159.566 142.163 159.566 144.621 159.917C149.888 159.917 148.835 160.618 152.697 154.306C156.209 148.344 161.125 144.136 166.743 142.031C169.552 140.979 175.873 139.577 179.736 139.226C183.949 138.525 193.43 139.927 199.049 141.681C205.018 143.785 212.041 147.993 212.041 149.747C212.041 150.448 206.423 154.656 205.72 154.656C205.369 154.656 204.316 154.306 203.262 153.604C200.102 152.201 195.537 150.448 190.972 149.396C183.949 147.292 176.926 147.993 170.606 150.799C166.743 152.552 161.476 158.163 159.72 162.372L159.369 163.774H160.423L161.476 163.424L162.529 167.632C164.285 172.892 167.797 189.725 168.148 194.284C168.499 201.298 166.743 207.26 163.232 210.416C161.125 212.52 159.369 213.222 154.804 214.624C152.697 215.326 150.942 215.677 150.591 215.677C150.591 216.027 151.995 220.586 154.102 226.548C157.965 238.121 160.423 245.836 164.285 258.811C167.094 268.982 170.255 280.204 170.255 280.204C169.904 280.554 159.018 282.658 158.316 282.658H157.262L156.911 282.308ZM89.4913 217.079L89.8425 216.729L89.4913 216.378C88.4379 215.677 87.7356 216.378 88.4379 217.079V217.781H88.789C88.789 217.781 89.1402 217.43 89.4913 217.079ZM117.232 205.857C118.285 205.156 119.339 204.454 119.69 203.753C120.743 202.701 120.743 202.35 120.743 199.194C120.743 197.441 120.743 196.038 121.094 195.687C121.094 195.687 122.148 195.336 123.201 194.986C125.308 194.635 128.117 193.232 129.171 191.83C131.629 189.375 131.98 185.166 129.522 183.062C128.468 182.01 124.255 180.958 120.392 180.607H116.529L116.178 178.854C115.476 176.75 114.071 173.594 112.667 172.542C110.911 170.437 106.697 170.788 104.239 172.892C103.186 174.295 102.484 176.75 102.484 180.607C102.484 184.114 102.484 184.114 99.6745 184.816C95.8119 185.868 92.6516 187.972 92.6516 190.076C92.6516 192.18 93.3539 196.038 94.0562 197.09C95.1096 198.493 96.5142 198.843 101.079 198.843H104.942L105.644 201.298C106.346 203.052 107.049 204.454 107.751 205.156C109.507 206.909 109.858 206.909 113.369 206.909C115.125 206.559 116.178 206.559 117.232 205.857ZM72.6364 280.554C70.8806 279.152 70.5295 277.749 71.9341 272.138C72.6364 269.332 73.3386 266.877 73.3386 266.176C73.3386 265.475 73.6898 264.773 73.6898 264.423C74.0409 264.072 76.1478 263.37 78.2547 262.318L82.1173 260.565L82.4684 260.916C83.1707 261.968 84.9264 267.228 85.2776 269.683C85.6287 275.995 81.7661 280.554 75.4455 281.256C73.6898 281.256 73.3386 281.256 72.6364 280.554ZM106.697 259.162C106.697 258.811 105.995 257.058 105.644 255.305C102.133 244.784 100.377 240.926 97.5677 234.614C96.5142 231.808 95.4608 229.353 95.4608 229.003V228.652H96.5142C103.888 227.249 134.438 224.444 135.14 225.145C135.491 225.145 135.842 226.899 136.545 229.003C137.247 231.107 137.949 234.263 138.652 236.017C141.11 243.381 143.217 251.096 142.865 251.447C142.865 251.798 142.514 251.798 142.514 251.798C142.163 251.798 141.11 252.148 140.056 252.85C134.789 255.305 131.278 256.707 130.224 256.707C129.873 256.707 127.415 256.357 125.308 255.655C122.499 255.305 119.69 254.954 117.934 254.954C114.774 254.603 113.72 254.954 111.262 257.409C109.858 258.461 107.751 259.513 107.4 259.513H107.049L106.697 259.162ZM120.041 250.746V250.044L119.339 249.694H118.636L118.285 250.044C117.934 250.395 117.934 250.746 117.934 251.096V251.447H118.988H120.041V250.746ZM116.529 246.537C116.881 246.187 117.232 245.836 117.232 245.836C117.232 245.135 112.316 233.912 111.965 233.211C111.613 233.211 111.262 232.86 110.56 232.86L109.858 233.211L109.507 233.912C109.507 234.965 113.72 245.485 114.774 246.187C115.827 246.888 115.827 246.888 116.529 246.537ZM185.705 251.447C185.354 251.447 181.14 250.746 176.926 250.044C172.713 249.694 168.499 248.992 167.797 248.641C166.743 248.641 166.743 248.641 164.636 242.68C162.881 237.419 159.369 226.548 158.316 222.69C157.613 220.586 157.613 220.236 159.018 219.534C162.529 218.131 168.499 212.871 169.904 210.416C170.255 209.715 170.957 208.312 171.308 207.611C172.362 206.208 173.415 202 173.415 199.545C173.415 196.389 172.01 187.621 170.255 180.958C169.201 177.451 168.148 173.243 167.797 171.139C167.094 168.684 166.392 165.528 165.69 163.774C164.988 161.67 164.285 159.917 164.636 159.917V159.566L166.392 159.917C170.255 160.267 178.331 163.774 183.598 166.931C185.003 167.632 186.056 168.333 186.407 168.333C186.407 168.333 194.835 173.944 196.591 174.996C197.293 175.347 198.346 176.399 199.049 177.101C200.102 177.451 206.071 182.01 212.743 186.569C223.629 193.934 229.247 198.142 240.133 206.559C241.537 207.961 244.346 209.715 246.453 211.118C248.209 212.17 251.369 214.624 253.476 216.027C255.583 217.43 257.69 219.183 258.041 219.183L259.094 219.885L258.743 220.236C258.743 220.586 258.041 220.937 256.988 220.937C255.934 221.288 250.667 223.742 245.4 226.548C236.27 231.458 232.056 233.912 224.682 239.173C220.82 241.978 218.01 243.381 212.041 245.836C205.018 248.641 200.804 250.044 196.942 250.746C193.43 251.447 187.461 251.798 185.705 251.447ZM211.69 233.211C211.69 232.86 210.988 231.808 210.285 231.808H209.583L209.232 232.51C209.232 232.86 209.934 233.912 210.636 233.912H211.339L211.69 233.211ZM205.018 226.197C205.72 225.145 202.209 218.482 196.942 212.17C195.186 210.065 192.728 207.26 191.675 205.506C188.865 202 182.545 194.986 180.789 193.934C179.736 193.232 179.384 193.232 178.682 193.583C178.331 193.583 177.98 194.284 177.98 194.635C177.98 194.986 180.438 197.791 183.598 201.298C186.758 204.805 190.27 208.663 191.323 210.065C192.728 211.118 193.781 212.52 193.781 212.52C194.484 213.222 197.995 217.781 199.049 219.183C199.4 219.885 200.453 221.638 201.155 223.041C202.911 226.548 204.316 227.6 205.018 226.197ZM233.812 198.493C225.033 191.479 206.774 177.451 199.751 172.542C190.972 166.229 185.003 162.722 175.171 158.865C171.659 157.813 168.85 156.41 168.85 156.41L168.499 156.059L168.85 155.358C169.552 154.656 173.766 153.254 176.224 152.903C177.98 152.903 178.682 152.903 182.545 154.656C189.919 157.462 191.675 158.163 198.346 163.774C202.56 166.931 202.911 167.281 202.911 170.437C203.262 173.594 205.72 175.698 210.285 176.399C212.392 176.399 212.743 176.75 213.446 177.802C214.148 178.503 215.201 179.205 216.255 179.205C217.659 179.906 219.415 181.66 229.598 191.479L241.186 203.402V203.753L240.835 204.104C240.835 204.104 237.675 201.649 233.812 198.493ZM215.201 174.996C214.85 174.646 214.499 174.295 214.499 174.295V173.944H215.201C216.255 173.944 216.255 173.594 214.85 170.788C213.797 169.035 213.094 168.333 212.743 168.333H212.041V170.087C212.041 172.542 211.339 173.243 209.583 173.243C206.774 173.243 205.369 171.139 206.071 168.684C206.423 167.281 208.178 164.826 209.934 163.424C210.636 163.073 211.339 162.372 211.339 162.021C211.339 161.67 210.636 160.618 209.583 159.917C208.178 158.865 207.476 157.813 207.476 157.813C207.476 157.111 213.094 153.955 214.148 153.955C214.85 153.955 216.957 156.76 216.957 157.813C216.957 159.215 217.659 159.566 219.415 159.215C223.98 158.865 226.789 163.424 225.384 168.684C224.682 170.788 222.224 173.594 219.766 174.646C217.308 175.698 215.904 176.048 215.201 174.996ZM123.201 171.489C122.148 171.489 120.743 170.437 120.041 169.736L118.636 168.333L118.988 167.983C119.69 166.931 120.041 167.281 122.499 168.333C123.904 169.035 125.659 169.736 126.713 170.087C128.117 170.437 129.522 171.139 129.522 171.84V172.191H127.064C126.01 172.191 123.904 171.84 123.201 171.489ZM59.644 170.087C59.2928 169.385 57.186 166.58 55.0791 163.774C52.9722 160.618 50.1631 156.76 48.7585 154.656C47.3539 152.201 45.247 149.747 44.5448 148.695C43.8425 147.643 42.4379 145.538 41.0333 143.785C39.9799 142.031 37.5219 138.525 35.415 135.719C33.6593 132.914 31.5524 129.407 30.499 128.355L29.0944 125.9L29.4455 125.549C29.7967 124.848 35.415 121.341 36.1173 121.341C36.1173 121.341 37.5219 123.094 38.9264 124.848C40.6822 128.004 52.9722 145.538 56.4837 150.799C57.5371 151.851 57.5371 152.552 57.5371 153.955C57.5371 154.656 57.8883 156.76 58.2394 158.865C58.9417 161.67 59.2928 162.722 59.9951 163.424C60.6974 164.125 61.0486 165.177 61.0486 166.58C61.0486 167.632 61.3997 169.035 61.7509 170.087V171.489H61.3997C61.0486 171.489 60.3463 170.788 59.644 170.087ZM126.713 167.281C123.552 166.58 121.797 164.826 121.797 162.722C121.797 161.67 122.148 161.319 122.499 160.969C124.255 159.917 130.224 161.67 134.789 164.476L136.896 165.528V165.878C136.545 167.281 129.522 167.983 126.713 167.281ZM113.018 166.229C110.56 164.826 110.56 160.267 113.369 159.215C115.827 157.813 118.285 158.865 118.988 161.319C119.339 163.424 118.988 164.476 117.583 165.528C116.178 166.58 114.774 166.931 113.018 166.229ZM200.102 159.566C197.293 157.813 194.835 155.708 194.484 155.358L194.133 155.007H194.484C194.835 155.007 196.942 156.059 199.049 157.813C201.155 159.215 203.262 160.267 203.613 160.267C204.667 160.267 206.071 161.319 206.071 162.021C206.071 162.372 205.72 162.722 205.72 163.073L205.018 163.424L200.102 159.566ZM65.2623 160.969C63.5066 160.969 62.8043 160.267 62.4531 157.813C62.4531 156.059 62.4531 155.708 63.1554 155.007C64.2089 153.955 64.56 153.955 75.0944 155.007C83.5219 155.708 85.9799 156.059 93.3539 157.462C95.8119 158.163 98.2699 158.514 98.6211 158.514L99.6745 158.865V159.215V159.566H97.9188C97.2165 159.566 93.0028 159.917 88.789 159.917C84.2241 160.267 78.2547 160.618 75.0944 160.969C71.9341 160.969 68.7738 160.969 68.0715 160.969C67.018 160.969 65.9646 160.969 65.2623 160.969ZM107.4 157.813C107.049 157.462 90.5448 154.306 81.415 152.552C67.3692 150.448 66.3157 150.448 64.9112 150.448C63.8577 150.799 63.5066 150.799 63.1554 150.448C62.8043 150.097 62.4531 146.941 61.7509 143.434C61.0486 140.278 59.9951 132.212 58.9417 125.9C57.8883 119.587 56.4837 111.171 55.7814 106.962C55.0791 102.754 54.0257 97.4937 54.0257 95.3896C53.6745 92.9348 53.3234 90.1292 52.9722 89.0772C52.9722 88.0251 52.6211 86.6223 52.9722 86.2716V85.5702C53.3234 85.5702 55.0791 86.2716 57.186 87.3237C63.1554 90.1292 66.3157 90.8306 71.5829 91.1813C85.2776 92.2334 103.537 89.0772 124.957 82.0633C129.873 80.6606 134.087 79.2578 134.087 79.2578C134.438 79.6085 136.194 83.4661 138.3 88.3758C140.407 92.9348 142.514 97.8444 142.865 98.8965C144.27 101.702 145.323 102.053 146.728 99.5979C148.133 98.1951 151.293 96.7924 153.049 96.7924C155.155 97.143 156.209 97.8444 157.613 99.2472C159.369 101.702 159.72 103.806 158.316 108.014C157.262 110.82 155.155 112.223 151.293 112.924L150.239 113.275V113.976C150.239 114.678 151.644 119.587 153.049 125.198C154.453 130.809 155.858 136.42 156.209 137.472V139.927L153.049 140.629C149.888 142.031 145.323 144.136 143.568 145.188C142.865 145.538 141.461 146.24 140.056 146.941C135.14 148.695 123.552 153.604 121.446 155.007C119.339 156.059 118.988 156.059 116.178 156.41C114.071 156.41 112.316 156.76 111.613 157.111C110.56 157.813 107.751 158.163 107.4 157.813ZM107.049 151.851C113.72 150.799 117.934 148.695 122.148 144.837C124.957 142.031 129.171 136.07 131.278 132.212C132.682 129.407 136.194 118.184 135.842 117.834C135.491 117.132 134.087 117.483 128.468 118.886C121.797 120.639 117.232 122.042 103.537 126.952C97.2165 129.407 90.1936 131.861 87.3844 132.563C80.0104 135.018 79.3081 136.42 82.4684 140.278C87.7356 146.59 94.7585 151.149 100.377 151.851C103.186 152.201 103.186 152.201 107.049 151.851ZM83.1707 121.341C85.2776 120.639 86.6822 118.886 87.0333 116.431C87.0333 114.327 86.331 111.872 84.9264 110.82C84.5753 110.469 84.2241 110.119 84.2241 110.119V109.768L85.2776 109.417C85.9799 109.417 86.331 108.716 86.6822 108.716C86.6822 108.365 86.331 106.962 86.331 105.209L85.6287 102.754H84.9264C83.873 102.754 83.5219 102.754 83.1707 103.455C83.1707 103.806 82.8196 104.508 82.4684 104.508C82.1173 104.858 79.3081 104.858 75.7967 104.858C71.2318 104.858 69.4761 104.858 69.1249 105.209C68.4226 105.91 66.3157 112.573 66.6669 112.924C67.018 112.924 68.0715 112.924 69.4761 112.573C72.2852 111.872 76.8501 110.82 77.5524 110.82H78.2547L77.5524 112.223C76.1478 115.379 77.2012 119.938 79.6593 121.341C81.0638 122.042 81.415 122.042 83.1707 121.341ZM115.125 114.327C116.881 112.924 118.636 111.521 118.636 111.171L119.339 110.469L118.988 109.768C118.636 109.417 117.934 109.417 116.881 109.417C115.125 109.768 115.125 109.768 114.071 107.664L112.667 105.91V105.56C113.018 105.56 115.125 105.56 118.285 105.209C122.148 105.209 123.552 104.858 123.904 104.508L124.606 103.806V103.455C124.255 102.754 115.827 98.1951 114.774 98.1951C114.423 98.1951 110.911 98.8965 107.049 99.9486C103.537 100.65 100.026 101.351 99.6745 101.351L99.3234 101.001V100.299C99.3234 99.5979 98.2699 97.8444 97.5677 97.8444C95.8119 97.8444 95.4608 100.65 96.1631 104.858C96.8654 108.014 96.8654 108.014 102.133 106.962C103.537 106.612 104.942 106.612 105.293 106.612V106.962L104.591 108.365C103.537 110.119 103.537 112.223 104.591 113.976C105.644 116.08 106.697 116.782 110.209 116.782C111.965 116.782 112.316 116.782 115.125 114.327ZM151.995 108.716C152.346 108.365 152.697 107.313 153.049 106.261C153.4 105.56 153.751 104.508 154.453 103.806L155.155 102.754L154.804 102.053C154.453 101.351 153.751 101.351 150.591 102.403C148.484 103.455 147.781 103.806 147.781 104.508C147.781 105.209 148.484 108.014 149.186 109.067C149.888 109.768 150.942 109.417 151.995 108.716ZM126.713 156.059C126.713 155.708 127.766 155.358 129.171 154.656C134.087 152.552 148.133 147.993 151.644 147.292L152.697 146.941V147.292C152.697 147.993 147.781 154.306 147.079 154.306C146.728 154.656 144.27 154.656 141.812 154.656C137.949 155.007 130.224 155.708 127.766 156.059L126.713 156.41V156.059ZM24.1783 115.73C21.018 110.82 20.3157 109.768 20.3157 109.067L20.6669 108.014L19.9646 107.664C19.6135 107.664 18.56 107.313 17.1554 106.962L15.0486 106.612V106.261C15.0486 106.261 15.7509 105.56 16.4531 104.508C17.8577 103.455 20.3157 99.9486 22.7738 97.143C23.1249 96.4417 23.476 95.7403 23.476 95.0389V94.3375H23.1249C22.7738 94.3375 22.4226 94.6882 21.7203 95.0389C20.6669 96.091 19.2623 96.091 18.56 95.0389C18.2089 93.9868 18.2089 92.9348 19.2623 91.532C21.7203 89.0772 26.2852 91.1813 27.3386 95.0389C27.6898 96.7924 27.3386 99.2472 26.2852 100.65C24.8806 102.754 24.8806 103.455 25.5829 104.858C25.5829 105.56 27.6898 108.716 29.4455 111.872C31.5524 115.028 32.957 117.834 32.957 118.184C32.957 118.535 29.4455 121.341 28.7432 121.691H28.0409L24.1783 115.73ZM10.1325 102.053C8.72796 101.351 8.02567 99.9486 7.67452 98.1951C6.97223 96.091 8.02567 93.9868 10.4837 92.5841C12.2394 91.1813 12.9417 91.1813 14.6974 91.1813H16.8043L16.4531 91.8827C16.4531 92.2334 16.4531 93.2854 16.4531 94.3375C16.102 95.3896 16.102 95.7403 17.5066 97.143L18.56 98.5458L18.2089 99.2472C17.1554 100.65 15.3997 102.053 13.9951 102.403C11.8883 102.754 11.5371 102.754 10.1325 102.053ZM110.209 203.402C108.453 202.701 107.4 201.298 106.697 198.142C106.697 196.739 106.346 195.336 105.995 195.336C105.995 194.986 104.239 195.336 102.133 195.336C98.9722 195.687 98.6211 195.687 97.5677 195.336C95.4608 194.284 95.1096 193.232 95.4608 191.479C95.8119 189.024 96.5142 188.323 100.728 187.271C102.835 186.92 104.239 186.569 104.591 186.569C104.591 186.218 104.591 184.465 104.239 182.01C103.888 177.451 103.888 176.75 105.644 175.347C107.049 173.944 108.804 173.594 110.209 174.646C111.965 175.698 113.018 177.802 114.071 182.361C114.423 183.062 114.774 183.764 115.125 183.764C115.125 184.114 116.881 184.114 118.636 183.764C122.499 183.413 123.904 183.413 124.957 184.816C126.713 186.218 126.713 188.673 125.659 190.076C124.606 191.128 123.552 191.479 120.041 192.18C118.636 192.531 117.583 192.882 117.232 192.882C116.881 193.232 116.881 194.284 116.881 196.739C116.881 200.597 116.178 202 114.423 203.052C113.018 203.753 111.262 203.753 110.209 203.402ZM108.102 147.643C108.102 146.941 114.774 143.785 116.881 143.785H117.583V144.136C117.583 145.188 111.613 147.993 108.804 147.993H108.102V147.643ZM90.8959 140.629C89.8425 140.278 88.789 138.525 89.1402 137.823C89.8425 136.771 103.888 131.16 117.583 126.952C127.415 123.796 129.873 123.094 130.224 123.445L130.575 123.796L128.82 126.601C128.117 128.004 127.064 129.407 126.713 130.108C124.957 131.511 98.9722 139.927 93.0028 140.629C92.3005 140.979 91.5982 140.629 90.8959 140.629ZM79.6593 115.379C78.6058 114.327 79.6593 111.872 81.0638 112.223C81.7661 112.573 82.8196 114.327 82.1173 115.028C81.7661 115.73 80.3615 116.08 79.6593 115.379ZM108.102 111.171C107.751 110.82 107.751 110.119 107.751 109.417L108.102 108.716H109.507L110.911 109.067V109.768C110.911 111.171 109.155 112.223 108.102 111.171Z" fill="#6D6D6E"/>
<path d="M162.882 308.608C161.126 307.205 160.775 305.802 160.775 302.295C160.775 298.087 161.477 288.268 161.828 287.917C162.18 287.566 167.447 286.163 168.149 286.163C169.202 286.163 169.554 286.865 170.256 288.969C172.363 294.58 173.065 302.997 171.661 305.802C170.958 307.205 170.256 307.906 167.447 308.608C164.989 309.66 163.935 309.309 162.882 308.608ZM156.912 282.306C155.859 278.799 149.89 260.212 147.783 252.146C143.569 238.119 138.653 223.39 137.599 221.286C136.546 219.182 135.844 218.831 133.386 218.831C129.172 219.182 96.1643 224.091 91.2483 225.143C84.9277 226.546 79.6605 230.053 77.9048 234.261C77.2025 236.015 77.2025 236.365 77.5536 240.924C77.9048 245.834 78.9582 250.393 80.3628 255.303L81.0651 257.407L80.3628 258.108C80.3628 258.108 78.2559 259.16 76.1491 259.862L72.2865 260.914L71.5842 260.212C71.233 259.511 69.4773 254.251 68.4239 250.042C66.6681 243.73 65.9659 238.82 65.6147 232.858C65.6147 226.897 65.6147 226.897 66.317 225.143C67.0193 224.091 68.4239 222.338 69.8284 220.935C73.691 217.077 76.5002 216.025 82.4697 216.025H86.3323L86.6834 215.324C86.6834 214.623 86.3323 213.921 84.2254 213.22C81.0651 211.466 79.3094 211.466 76.5002 211.817C74.7445 212.168 74.3933 212.168 73.691 211.817C73.691 211.466 72.6376 206.907 71.5842 201.998C67.0193 178.151 65.6147 170.085 65.6147 169.383C65.6147 168.682 66.6681 167.981 69.1262 166.578C71.9353 165.175 72.9888 164.824 75.4468 164.474C80.7139 163.772 96.1643 162.72 102.485 162.37H108.806V163.772C109.157 164.474 109.508 165.877 109.859 166.227C110.561 167.63 113.019 169.383 114.073 169.383C115.126 169.383 115.828 169.734 118.638 171.838C121.096 173.592 123.905 174.644 127.767 174.994C131.981 175.345 133.737 175.345 134.088 174.644L134.439 173.942L133.386 172.54C132.683 171.488 132.332 170.436 132.332 170.436C132.332 170.085 134.088 169.383 136.195 169.033C140.057 167.981 140.76 167.63 140.76 166.578C140.76 165.526 137.599 163.071 133.386 160.616L131.279 159.564H131.981C132.332 159.213 136.546 159.213 140.76 159.564C150.241 160.265 149.187 160.616 151.996 155.356C157.615 145.536 163.935 141.679 177.279 139.575C180.439 138.873 181.493 138.873 185.706 139.224C193.783 139.925 200.103 141.679 206.424 145.186C208.882 146.238 212.042 149.043 212.042 149.745C212.042 150.446 207.126 154.304 206.073 154.654C205.37 154.654 203.966 153.953 201.859 153.252C197.996 151.147 191.325 149.394 187.111 148.342C181.844 147.641 175.523 148.342 170.607 150.797C167.096 152.55 162.18 157.46 160.073 162.019L159.37 163.772V164.123H159.722L160.073 163.772C160.424 163.772 160.775 163.422 161.126 163.422H161.477L162.531 167.63C164.286 172.54 164.286 173.241 166.393 183.06C167.096 187.269 167.798 192.529 168.149 194.633C168.5 202.699 165.691 209.362 160.775 212.518C160.073 212.869 157.264 213.921 155.157 214.623C152.699 214.973 150.943 215.675 150.592 215.675C150.592 216.025 151.996 220.234 153.752 225.845C158.668 239.872 162.531 252.848 169.202 276.344C169.905 278.448 170.256 280.202 170.256 280.552C169.905 280.552 159.019 282.657 158.317 282.657H157.264L156.912 282.306ZM89.4926 217.428L89.8437 217.077V216.727L89.4926 216.025H89.1414C88.4391 216.025 88.088 216.727 88.088 217.428L88.4391 217.779H88.7903C88.7903 217.779 89.1414 217.779 89.4926 217.428ZM117.233 205.855C118.286 205.154 119.34 204.453 119.691 203.751C120.744 202.699 120.744 202.348 120.744 199.192C120.744 197.439 120.744 195.685 121.096 195.685C121.096 195.685 122.149 195.335 123.202 194.984C128.119 193.932 131.279 190.776 131.279 186.918C131.279 185.165 130.225 183.06 128.821 182.359C126.714 181.658 122.149 180.606 119.34 180.606H116.531L116.18 178.852C115.477 176.748 114.073 173.592 112.668 172.54C110.912 170.435 106.699 170.786 104.241 172.89C103.187 174.293 102.485 176.748 102.485 180.606C102.485 184.112 102.485 184.112 99.6758 184.814C95.462 185.866 92.6529 187.97 92.6529 190.074C92.6529 192.529 93.3552 195.685 94.0575 197.088C95.1109 198.491 96.5155 198.841 101.08 198.841H104.943L105.645 201.296C106.348 203.05 107.05 204.452 107.752 205.154C109.508 206.907 109.859 206.907 113.37 206.907C115.126 206.557 116.18 206.557 117.233 205.855ZM72.6376 280.903C72.2865 280.552 71.9353 279.5 71.5842 278.799C70.8819 277.396 70.8819 277.396 72.2865 271.785C72.9888 268.629 73.691 266.174 73.691 265.823C73.3399 264.771 74.0422 264.421 77.5536 262.667C80.0117 261.615 81.7674 260.914 82.1185 260.914H82.4697L83.5231 263.719C84.5765 266.525 85.2788 268.98 85.2788 271.084C85.2788 273.188 83.8743 276.344 82.4697 277.747C80.3628 280.202 74.3933 281.955 72.6376 280.903ZM236.271 200.244C234.164 198.491 228.546 194.282 224.332 190.776C194.134 167.279 189.218 164.123 176.225 159.213C173.065 157.811 169.554 156.408 169.202 156.408L168.5 156.057L170.607 155.005C174.119 153.252 177.981 152.901 180.79 153.953C181.493 154.304 183.248 155.005 185.004 155.706C190.271 157.811 193.08 159.564 201.157 166.227C202.561 167.279 202.561 167.279 202.561 169.033C202.561 171.137 203.615 173.241 204.668 174.293C205.722 175.345 208.18 176.397 210.638 176.397C212.393 176.748 212.744 177.099 213.447 177.8C213.447 178.151 214.851 178.852 215.905 179.553C218.012 180.255 219.416 182.008 229.599 191.828C235.569 198.14 240.836 203.4 240.836 203.4V203.751C240.836 203.751 238.729 202.348 236.271 200.244ZM215.202 174.994L214.5 174.293H214.851C214.851 173.942 215.202 173.942 215.554 173.942H216.256V173.592C216.256 172.89 215.202 170.786 213.798 169.033L212.744 167.63L212.042 168.331C211.34 169.033 211.34 169.033 211.691 170.085C212.393 171.838 211.691 172.89 209.584 173.241C208.531 173.241 208.18 173.241 207.126 172.189C205.019 170.435 206.073 167.279 209.233 164.123C210.286 163.422 211.34 162.37 211.34 162.019C211.34 161.668 210.638 160.616 209.584 159.564C208.18 158.512 207.477 157.811 207.477 157.46C207.477 157.46 213.447 153.953 214.149 153.953C214.851 153.953 216.607 156.408 216.958 158.161L217.309 159.564L218.714 159.213C221.172 159.213 222.577 159.564 223.981 161.318C227.493 165.526 225.386 172.189 219.065 174.994C216.958 175.696 215.905 176.047 215.202 174.994ZM122.5 171.137C121.447 170.436 120.042 169.734 119.691 169.383L118.989 168.331V167.981C119.691 167.279 120.042 167.63 122.851 168.682C123.905 169.383 126.012 170.085 126.714 170.436C127.767 170.786 128.47 171.137 128.821 171.488L129.172 171.838H126.714C124.607 171.838 123.554 171.488 122.5 171.137ZM60.3475 170.786C59.9964 170.436 57.1872 166.929 54.3781 162.72C48.0575 153.252 42.7903 146.238 40.6834 143.082C39.63 141.679 37.172 138.523 35.4162 135.717C33.6605 132.912 31.5536 129.405 30.5002 128.353L29.0956 125.898L29.4468 125.547C30.1491 124.495 35.7674 121.339 36.1185 121.689C36.4697 121.689 38.9277 125.196 42.088 129.755C44.8972 133.964 49.8132 140.977 52.6223 144.835C57.1872 151.498 57.5384 152.55 57.5384 153.953C57.5384 154.654 57.8895 156.759 58.2407 158.863C58.943 161.668 59.2941 162.72 59.9964 163.422C60.6987 164.474 61.401 167.279 61.401 170.436L61.7521 171.137L61.0498 171.488H60.6987L60.3475 170.786ZM126.012 166.929C123.202 166.227 121.798 164.123 122.149 162.37L122.5 161.318L124.256 160.967C124.958 160.967 126.363 160.967 127.416 161.318C129.172 161.668 135.844 164.824 136.546 165.526L136.897 166.227L134.79 166.578C132.332 167.279 127.416 167.279 126.012 166.929ZM112.317 165.526C110.912 163.772 111.264 160.967 113.019 159.564C114.073 158.863 116.531 158.512 117.584 159.564C118.286 159.915 118.989 162.019 118.989 163.422C118.286 165.877 114.424 167.279 112.317 165.526ZM199.752 159.213C196.943 157.46 194.485 155.356 194.485 155.356V155.005C194.836 155.005 197.645 156.759 200.103 158.512C201.508 159.564 202.912 160.265 203.615 160.265C203.966 160.265 204.668 160.616 205.37 160.967L206.073 162.019V162.37L205.722 163.071H205.019C204.668 163.071 202.21 161.318 199.752 159.213ZM63.859 160.616C62.8056 159.915 62.4544 155.706 63.5078 155.005C64.2101 154.304 80.3628 155.356 88.088 157.109C90.8971 157.46 94.4086 158.161 96.5155 158.512L100.027 159.213H97.9201C96.8666 159.213 92.6529 159.564 88.7903 159.564C82.8208 160.265 67.0193 160.967 64.9124 160.967C64.5613 160.967 64.2101 160.967 63.859 160.616ZM106.699 157.46C103.89 156.759 89.4926 153.953 78.2559 152.2C75.7979 151.849 72.6376 151.147 71.9353 151.147C70.8819 150.797 68.4239 150.797 66.6681 150.446C64.9124 150.446 63.1567 150.446 63.1567 150.095C62.8055 150.095 62.1033 146.238 58.943 125.547C57.8895 119.235 56.4849 111.519 56.1338 107.662C53.6758 95.7384 52.6223 86.2697 53.3246 85.919V85.5683L56.1338 86.9711C59.2941 88.3738 62.8056 89.7766 65.9659 90.8287C67.7216 91.1794 69.4773 91.1794 76.8513 91.1794C81.4162 91.1794 86.6834 91.1794 88.4391 90.8287C100.729 89.4259 112.668 86.2697 128.119 81.36C132.683 79.6066 134.088 79.2559 134.439 79.6066C134.439 79.9573 135.493 82.0614 136.546 84.8669C143.218 100.648 143.569 100.999 144.622 101.349C145.325 101.349 146.027 100.648 147.08 99.9466C149.187 97.8425 150.592 97.1411 152.699 97.1411C156.912 97.1411 160.073 101.349 159.019 105.558C158.317 108.013 157.264 109.766 156.21 110.818C155.157 111.87 152.699 112.922 151.294 112.922C149.538 112.922 149.538 113.273 152.699 123.794C155.508 133.964 156.561 139.224 155.859 139.575C155.859 139.575 154.103 140.276 152.348 140.977C148.836 142.38 147.08 143.082 144.271 144.835C143.218 145.186 141.462 146.238 140.76 146.589C136.546 147.991 123.554 153.602 121.096 155.005C118.638 156.408 118.286 156.408 116.18 156.408C114.424 156.408 113.019 156.759 111.966 157.109C110.561 157.811 108.454 157.811 106.699 157.46ZM107.401 151.849C111.615 151.147 115.477 149.745 118.638 147.991C122.5 145.186 127.767 138.523 131.279 131.86C132.683 129.405 136.195 118.884 136.195 117.832V117.481L135.844 117.13C135.493 117.13 131.981 117.832 127.767 118.884C121.096 120.988 117.233 122.04 98.6223 128.703C95.1109 130.106 90.1949 131.86 87.7368 132.561C82.8208 134.314 81.0651 135.016 80.714 136.068C80.3628 137.821 81.0651 138.873 84.5765 142.38C90.1949 147.991 95.1109 151.147 99.6758 151.849C102.485 152.2 103.187 152.2 107.401 151.849ZM83.8743 121.339C87.3857 119.585 88.088 113.624 85.2788 110.818L84.2254 110.117L85.2788 109.415L86.6834 109.065L86.3323 106.96C86.3323 105.558 86.3323 104.155 85.9811 103.804L85.63 102.752L84.5765 102.401H83.5231L83.172 103.103C83.172 103.804 82.4697 104.155 81.7674 104.506C81.4162 104.856 78.2559 104.856 75.0956 104.856C70.5307 104.856 69.1262 104.856 68.775 105.207C68.0727 105.908 66.317 112.572 66.6681 112.922C67.0193 112.922 68.4239 112.572 70.1796 112.221C74.7445 111.169 77.5536 110.818 77.9048 110.818C77.9048 110.818 77.5536 111.87 77.2025 112.922C76.5002 115.026 76.5002 115.377 76.8513 117.13C77.2025 119.235 77.9048 120.637 79.3094 121.339C80.7139 122.391 82.1185 122.04 83.8743 121.339ZM115.126 114.325C118.638 111.519 119.34 110.818 119.34 110.117V109.766L118.638 109.415C117.935 109.065 117.233 109.065 116.531 109.415L115.477 109.766L114.073 107.662C113.37 106.61 112.668 105.908 112.668 105.908V105.558H117.935C122.149 105.207 123.554 104.856 123.905 104.506C125.309 103.454 124.607 103.103 120.042 100.648C114.775 97.8425 115.126 97.8425 106.348 99.9466C102.836 100.648 100.027 101.349 100.027 100.999H99.3246V100.297C99.3246 98.1932 97.2178 97.1411 96.1643 98.5439C95.462 98.8946 95.8132 104.856 96.5155 106.61C97.2178 108.013 97.9201 108.013 100.378 107.662C101.432 107.311 102.836 106.96 103.538 106.96L104.943 106.61V107.311C104.943 107.662 104.592 108.363 104.592 108.714C103.187 110.818 104.241 115.026 105.996 116.078C107.05 116.78 110.561 117.13 111.615 116.78C112.317 116.429 113.722 115.377 115.126 114.325ZM151.645 109.065C151.996 108.714 152.699 108.013 152.699 106.96C153.05 105.908 153.752 104.506 154.454 103.804C154.806 103.103 155.157 102.401 155.157 102.051L154.806 101.7L154.103 101.349C153.401 101.349 151.996 101.7 150.592 102.401C148.134 103.804 147.783 103.804 147.783 104.856C147.783 105.908 148.485 108.013 149.187 109.065C149.538 109.415 150.592 109.415 151.645 109.065ZM127.767 155.706C128.47 155.005 147.432 148.342 151.645 147.641L152.699 147.29L150.241 150.446C148.836 152.55 147.432 153.953 147.08 153.953C146.378 154.304 143.92 154.304 141.111 154.654C136.195 155.005 133.035 155.356 128.821 156.057H127.416L127.767 155.706ZM25.233 117.13C20.6681 110.467 20.317 109.766 20.317 108.714L20.6681 108.013L19.9659 107.662C19.6147 107.662 18.5613 107.311 17.5078 106.96C16.4544 106.61 15.401 106.61 15.401 106.259H15.0498L17.1567 104.155C18.9124 102.051 20.6681 99.9466 23.1262 96.7904C23.4773 96.089 23.8285 95.3877 23.8285 95.037V94.6863L23.4773 94.3356C23.1262 94.3356 22.0727 94.6863 21.3704 95.037C19.9659 96.089 18.5613 95.7384 18.5613 93.9849C18.5613 92.5821 19.2636 91.5301 20.6681 90.8287C22.775 90.1273 25.233 91.1794 26.6376 93.6342C27.691 95.7384 27.3399 99.596 26.2865 100.999C25.233 102.401 24.8819 103.454 24.8819 104.155C25.233 104.506 26.9888 108.013 29.0956 111.519C31.2025 115.026 32.9582 117.832 32.9582 118.183C32.9582 118.183 29.0956 121.339 28.3933 121.339C28.3933 121.339 26.6376 119.235 25.233 117.13ZM9.78265 101.7C8.37807 100.648 7.67578 98.8946 7.67578 97.1411C7.67578 95.7384 8.02693 95.037 9.08036 93.9849C10.4849 92.2314 13.6452 90.8287 15.401 90.8287L16.8056 91.1794L16.4544 91.8808C16.4544 92.2314 16.4544 93.2835 16.1033 93.9849C16.1033 95.3877 16.1033 95.7384 17.1567 97.1411L18.5613 98.5439L17.859 99.596C15.7521 102.051 11.5384 103.103 9.78265 101.7ZM109.859 203.05C108.103 202.348 107.401 201.296 106.699 198.14C106.699 196.737 106.348 195.335 105.996 195.335C105.996 194.984 104.241 195.335 102.134 195.335C98.9735 195.685 98.6223 195.685 97.5689 195.335C95.462 194.282 95.1109 193.23 95.462 191.477C95.8132 189.022 96.8666 188.321 101.08 187.269C102.836 186.918 104.241 186.567 104.592 186.217C104.592 186.217 104.592 184.112 104.241 182.008C103.89 178.501 103.89 177.8 104.592 176.748C105.294 175.345 106.348 174.293 108.103 173.942C109.508 173.942 109.508 173.942 110.912 175.345C112.317 176.748 112.668 177.8 114.073 182.008L114.775 184.112L116.18 183.762C116.882 183.762 118.989 183.762 120.744 183.762C123.202 183.762 123.554 183.762 124.607 184.463C124.958 184.814 125.661 185.866 126.012 186.567C126.363 187.619 126.363 187.97 126.012 189.022C125.309 190.776 123.905 191.477 120.393 192.178C118.989 192.529 117.584 192.88 117.233 192.88C116.882 193.23 116.882 194.282 116.882 196.387C116.882 199.894 116.18 201.647 114.775 202.699C113.37 203.751 111.264 203.751 109.859 203.05ZM89.8437 139.925C88.4391 138.172 88.7903 137.471 93.7063 135.366C101.432 132.21 111.966 128.353 129.523 123.092H130.225V123.443C130.225 124.144 128.47 126.95 127.416 129.054C127.065 129.755 126.012 130.457 125.309 130.807C123.202 131.86 103.89 138.172 98.6223 139.575C92.6529 140.977 90.8971 140.977 89.8437 139.925ZM80.0117 115.026C78.9582 114.325 79.3094 113.624 80.0117 112.922C80.7139 111.87 81.7674 112.221 82.1185 113.624C82.8208 115.377 81.0651 116.429 80.0117 115.026ZM108.103 110.818C107.401 109.415 108.103 108.714 109.508 108.714H110.561L110.912 109.415C110.912 109.415 110.912 110.117 110.561 110.818C110.21 111.87 108.454 111.87 108.103 110.818Z" fill="#128AB2"/>
<path d="M162.882 308.608C161.126 307.205 160.775 305.802 160.775 302.295C160.775 298.087 161.477 288.268 161.828 287.917C162.18 287.566 167.447 286.163 168.149 286.163C169.202 286.163 169.554 286.865 170.256 288.969C172.363 294.58 173.065 302.997 171.661 305.802C170.958 307.205 170.256 307.906 167.447 308.608C164.989 309.66 163.935 309.309 162.882 308.608ZM156.912 282.306V281.955V281.604H157.264V281.955V282.306H157.966L158.668 282.657H157.966C157.615 282.657 157.264 282.657 156.912 282.306ZM159.019 282.306H159.722L160.424 282.657H159.37H158.668L159.019 282.306ZM160.775 281.955H161.126H161.477V282.306H160.775H160.424L160.775 281.955ZM162.882 281.604H163.233H163.584V281.955H162.882H162.531L162.882 281.604ZM164.638 281.254H164.989H165.34V281.604H164.638H164.286L164.638 281.254ZM72.6376 280.903C72.2865 280.552 71.9353 279.5 71.5842 278.799C70.8819 277.396 70.8819 277.396 72.2865 271.785C72.9888 268.629 73.691 266.174 73.691 265.823C73.3399 264.771 74.0422 264.421 77.5536 262.667C80.0117 261.615 81.7674 260.914 82.1185 260.914H82.4697L83.5231 263.719C84.5765 266.525 85.2788 268.98 85.2788 271.084C85.2788 273.188 83.8743 276.344 82.4697 277.747C80.3628 280.202 74.3933 281.955 72.6376 280.903ZM168.149 280.552H168.5H168.851V280.903H168.149H167.798L168.149 280.552ZM169.905 280.202V279.5H170.256V280.202V280.552H169.905H169.554L169.905 280.202ZM71.9353 260.563L71.5842 260.212L72.2865 260.563H72.9888V260.914H72.6376C72.2865 260.914 71.9353 260.914 71.9353 260.563ZM78.9582 258.459C79.3094 258.108 79.6605 258.108 80.0117 258.108H80.3628L79.6605 258.459C79.3094 258.81 78.9582 258.81 78.9582 258.81H78.6071L78.9582 258.459ZM80.714 257.407V256.705L81.0651 257.056C81.0651 257.407 81.0651 257.758 80.714 257.758L80.3628 258.108L80.714 257.407ZM67.0193 244.782V244.431L67.3704 244.782V245.133V245.483H67.0193V244.782ZM77.5536 244.782V244.081L77.9048 244.431V245.133L77.5536 245.834V244.782ZM66.6681 243.029V242.678L67.0193 243.029V243.379V243.73H66.6681V243.029ZM77.2025 241.626V240.223L77.5536 240.924C77.5536 241.275 77.5536 241.976 77.5536 242.327L77.2025 243.379V241.626ZM65.9659 238.82V237.768L66.317 238.119C66.317 238.47 66.317 239.171 66.317 239.171L65.9659 239.872V238.82ZM76.8513 237.067V235.664L77.2025 236.365C77.2025 236.716 77.2025 237.417 77.2025 237.768L76.8513 238.82V237.067ZM65.6147 234.612V233.209L65.9659 233.911C65.9659 234.261 65.9659 234.963 65.9659 235.313L65.6147 236.015V234.612ZM77.2025 235.313C77.2025 234.963 77.2025 234.612 77.5536 234.261L77.9048 233.911V234.261C77.9048 234.261 77.9048 234.612 77.5536 234.963L77.2025 235.664V235.313ZM80.3628 230.404C81.0651 229.702 81.7674 229.001 81.7674 229.001L80.714 230.404C79.6605 231.105 78.9582 231.806 78.9582 231.806L80.3628 230.404ZM65.9659 226.195C65.9659 225.845 65.9659 225.494 66.317 225.143L66.6681 224.793V225.143C66.6681 225.143 66.6681 225.494 66.317 225.845L65.9659 226.546V226.195ZM95.462 224.091H95.8132H96.1643V224.442H95.462H95.1109L95.462 224.091ZM97.5689 223.74H97.9201H98.2712V224.091H97.5689H97.2178L97.5689 223.74ZM100.027 223.39H100.378H100.729V223.74H100.027H99.6758L100.027 223.39ZM68.0727 222.688C68.4239 221.987 69.1262 221.636 69.1262 221.636L68.4239 222.688C68.0727 223.039 67.3704 223.39 67.3704 223.39L68.0727 222.688ZM102.485 223.039H102.836H103.187V223.39H102.485H102.134L102.485 223.039ZM104.241 222.688H104.943L105.645 223.039H104.592H103.89L104.241 222.688ZM106.699 222.338H107.401L108.103 222.688H107.05H106.348L106.699 222.338ZM111.615 221.636H111.966H112.317V221.987H111.615H111.264L111.615 221.636ZM114.073 221.286H114.424H114.775V221.636H114.073H113.722L114.073 221.286ZM70.8819 219.883C71.5842 218.831 75.4468 216.727 76.1491 216.727H76.8513L74.7445 217.779C73.3399 218.129 71.9353 219.182 71.233 219.883L70.1796 220.584L70.8819 219.883ZM136.897 219.883L136.546 219.182C136.897 219.182 136.897 219.532 137.248 219.883L137.599 220.584C137.248 220.584 137.248 220.234 136.897 219.883ZM124.256 219.883H124.607H124.958V220.234H124.256H123.905L124.256 219.883ZM126.714 219.532H127.416L128.119 219.883H127.065H126.363L126.714 219.532ZM129.172 219.182H129.523H129.874V219.532H129.172H128.821L129.172 219.182ZM131.279 218.831H131.63H131.981V219.182H131.279H130.928L131.279 218.831ZM133.035 218.48C133.386 218.48 134.088 218.48 134.439 218.48L135.493 218.831H133.737H132.332L133.035 218.48ZM89.8437 216.376L90.1949 216.727V217.077H89.8437V216.376ZM80.0117 216.025C81.0651 216.025 82.8208 216.025 83.8743 216.025L85.9811 216.376H82.1185H78.2559L80.0117 216.025ZM151.996 214.973H152.348H152.699V215.324H151.996H151.645L151.996 214.973ZM82.8208 212.518L82.4697 212.168H82.8208C82.8208 212.168 83.172 212.168 83.5231 212.518L84.2254 212.869H83.8743C83.5231 212.869 83.172 212.869 82.8208 212.518ZM73.691 211.817C73.691 211.466 73.3399 211.116 73.3399 210.765V210.414L73.691 211.116C73.691 211.466 74.3933 211.817 75.0956 211.817L76.1491 212.168H75.0956C74.7445 212.168 74.0422 211.817 73.691 211.817ZM80.3628 211.466H80.714H81.0651V211.817H80.3628H80.0117L80.3628 211.466ZM163.233 210.414C163.935 209.713 164.638 209.011 164.638 209.011L163.584 210.414C162.531 211.116 161.828 211.817 161.828 211.817L163.233 210.414ZM72.9888 209.362V209.011L73.3399 209.362V209.713V210.064H72.9888V209.362ZM72.6376 207.609V207.258L72.9888 207.609V207.959V208.31H72.6376V207.609ZM111.615 206.907C111.966 206.907 112.668 206.907 112.668 206.907L113.37 207.258H112.317H111.264L111.615 206.907ZM109.859 206.557H110.21H110.561V206.907H109.859H109.508L109.859 206.557ZM114.775 206.557H115.126H115.477V206.907H114.775H114.424L114.775 206.557ZM166.042 206.557V205.855H166.393V206.206L166.042 206.557ZM107.752 205.505L107.05 204.803L108.103 205.505C108.806 205.855 109.157 206.557 109.157 206.557C108.806 206.557 108.454 206.206 107.752 205.505ZM119.34 204.452C119.691 203.751 120.393 203.4 120.393 203.4L119.691 204.452C119.34 204.803 118.638 205.154 118.638 205.154L119.34 204.452ZM166.744 204.102V203.751L167.096 204.102V204.452V204.803H166.744V204.102ZM71.9353 203.751V203.4L72.2865 203.751V204.102V204.452H71.9353V203.751ZM109.859 203.05C108.103 202.348 107.401 201.296 106.699 198.14C106.699 196.737 106.348 195.335 105.996 195.335C105.996 194.984 104.241 195.335 102.134 195.335C98.9735 195.685 98.6223 195.685 97.5689 195.335C95.462 194.282 95.1109 193.23 95.462 191.477C95.8132 189.022 96.8666 188.321 101.08 187.269C102.836 186.918 104.241 186.567 104.592 186.217C104.592 186.217 104.592 184.112 104.241 182.008C103.89 178.501 103.89 177.8 104.592 176.748C105.294 175.345 106.348 174.293 108.103 173.942C109.508 173.942 109.508 173.942 110.912 175.345C112.317 176.748 112.668 177.8 114.073 182.008L114.775 184.112L116.18 183.762C116.882 183.762 118.989 183.762 120.744 183.762C123.202 183.762 123.554 183.762 124.607 184.463C124.958 184.814 125.661 185.866 126.012 186.567C126.363 187.619 126.363 187.97 126.012 189.022C125.309 190.776 123.905 191.477 120.393 192.178C118.989 192.529 117.584 192.88 117.233 192.88C116.882 193.23 116.882 194.282 116.882 196.387C116.882 199.894 116.18 201.647 114.775 202.699C113.37 203.751 111.264 203.751 109.859 203.05ZM236.271 200.244C234.164 198.491 228.546 194.282 224.332 190.776C194.134 167.279 189.218 164.123 176.225 159.213C173.065 157.811 169.554 156.408 169.202 156.408L168.5 156.057L170.607 155.005C174.119 153.252 177.981 152.901 180.79 153.953C181.493 154.304 183.248 155.005 185.004 155.706C190.271 157.811 193.08 159.564 201.157 166.227C202.561 167.279 202.561 167.279 202.561 169.033C202.561 171.137 203.615 173.241 204.668 174.293C205.722 175.345 208.18 176.397 210.638 176.397C212.393 176.748 212.744 177.099 213.447 177.8C213.447 178.151 214.851 178.852 215.905 179.553C218.012 180.255 219.416 182.008 229.599 191.828C235.569 198.14 240.836 203.4 240.836 203.4V203.751C240.836 203.751 238.729 202.348 236.271 200.244ZM71.5842 201.998V201.647L71.9353 201.998V202.348V202.699H71.5842V201.998ZM120.744 200.946V199.192L121.096 199.894C121.096 200.595 121.096 201.296 121.096 201.647L120.744 202.699V200.946ZM167.447 200.946V200.595L167.798 200.946V201.296V201.647H167.447V200.946ZM167.798 196.387V193.23L168.149 194.633C168.149 195.335 168.149 196.737 168.149 197.789L167.798 199.543V196.387ZM96.1643 198.491H96.5155H96.8666V198.841H96.1643H95.8132L96.1643 198.491ZM94.0575 197.088L93.3552 196.387V196.036H93.7063L94.0575 197.088L94.7598 198.14C94.4086 198.14 94.0575 197.789 94.0575 197.088ZM70.1796 194.633V194.282L70.5307 194.633V194.984V195.335H70.1796V194.633ZM122.851 194.984H123.202H123.554V195.335H122.851H122.5L122.851 194.984ZM125.309 194.633C125.309 194.282 126.012 194.282 126.714 193.932L127.767 193.23C127.767 193.581 125.661 194.633 125.309 194.633ZM69.8284 192.88V192.178L70.1796 192.529V193.23L69.8284 193.932V192.88ZM92.6529 192.88V192.178L93.004 192.529V193.23L92.6529 193.932V192.88ZM128.119 193.23C128.119 193.23 128.47 192.529 129.172 191.828L130.577 191.126L129.523 192.178C128.821 192.88 128.119 193.23 128.119 193.23ZM69.4773 191.126V190.776L69.8284 191.126V191.477V191.828H69.4773V191.126ZM167.447 191.126V190.074L167.798 190.425C167.798 190.776 167.798 191.477 167.798 191.477L167.447 192.178V191.126ZM92.3017 190.425V189.373L92.6529 189.723C92.6529 190.074 92.6529 190.776 92.6529 191.126L92.3017 191.828V190.425ZM69.1262 189.022V188.671L69.4773 189.022V189.373V189.723H69.1262V189.022ZM167.096 188.671V188.321L167.447 188.671V189.022V189.373H167.096V188.671ZM92.6529 188.671C92.6529 188.671 93.004 187.97 93.7063 187.269L95.1109 186.567L94.0575 187.619C93.3552 188.321 92.6529 189.022 92.6529 189.022V188.671ZM68.775 187.269V186.918L69.1262 187.269V187.619V187.97H68.775V187.269ZM131.279 187.269V186.217L131.63 186.567C131.63 186.918 131.63 187.619 131.63 187.619L131.279 188.321V187.269ZM166.744 186.918V186.567L167.096 186.918V187.269V187.619H166.744V186.918ZM95.462 186.217C96.1643 185.866 96.5155 185.515 96.5155 185.515H96.8666C96.8666 185.866 96.1643 185.866 95.8132 186.217L95.1109 186.567L95.462 186.217ZM68.4239 185.515V184.814L68.775 185.165V185.866L68.4239 186.567V185.515ZM100.027 184.463H100.378H100.729V184.814H100.027H99.6758L100.027 184.463ZM101.783 184.112C101.783 183.762 102.134 182.359 102.134 180.606L102.485 177.8V180.606C102.485 183.06 102.485 183.762 101.783 184.112ZM68.0727 183.411V183.06L68.4239 183.411V183.762V184.112H68.0727V183.411ZM166.042 183.411V183.06L166.393 183.411V183.762V184.112H166.042V183.411ZM129.523 183.06L129.172 182.359L129.874 182.71C130.225 183.06 130.577 183.411 130.577 183.762C130.225 183.762 129.874 183.411 129.523 183.06ZM67.7216 181.658V180.956L68.0727 181.307V182.008L67.7216 182.71V181.658ZM165.691 181.658V181.307L166.042 181.658V182.008V182.359H165.691V181.658ZM123.202 180.606H123.905L124.607 180.956H123.554H122.851L123.202 180.606ZM116.531 180.255V179.904L116.882 180.255C117.233 180.255 117.233 180.255 117.233 180.606H116.882H116.531V180.255ZM67.3704 179.553V179.203L67.7216 179.553V179.904V180.255H67.3704V179.553ZM165.34 179.553V179.203L165.691 179.553V179.904V180.255H165.34V179.553ZM116.18 178.852V178.501L116.531 178.852V179.203V179.553H116.18V178.852ZM67.0193 177.8V177.099L67.3704 177.449V178.151L67.0193 178.852V177.8ZM164.989 177.8V177.449L165.34 177.8V178.151V178.501H164.989V177.8ZM102.485 176.397V176.047L102.836 176.397V176.748V177.099H102.485V176.397ZM115.126 175.696L114.424 174.644C114.775 174.644 115.126 174.994 115.477 175.696L115.828 176.748V177.099H115.477L115.126 175.696ZM66.6681 176.047V175.696L67.0193 176.047V176.397V176.748H66.6681V176.047ZM164.638 176.047V175.696L164.989 176.047V176.397V176.748H164.638V176.047ZM131.279 175.345C131.63 175.345 132.332 175.345 132.683 175.345L133.737 175.696H131.981H130.577L131.279 175.345ZM215.202 174.994L214.5 174.293H214.851C214.851 173.942 215.202 173.942 215.554 173.942H216.256V173.592C216.256 172.89 215.202 170.786 213.798 169.033L212.744 167.63L212.042 168.331C211.34 169.033 211.34 169.033 211.691 170.085C212.393 171.838 211.691 172.89 209.584 173.241C208.531 173.241 208.18 173.241 207.126 172.189C205.019 170.435 206.073 167.279 209.233 164.123C210.286 163.422 211.34 162.37 211.34 162.019C211.34 161.668 210.638 160.616 209.584 159.564C208.18 158.512 207.477 157.811 207.477 157.46C207.477 157.46 213.447 153.953 214.149 153.953C214.851 153.953 216.607 156.408 216.958 158.161L217.309 159.564L218.714 159.213C221.172 159.213 222.577 159.564 223.981 161.318C227.493 165.526 225.386 172.189 219.065 174.994C216.958 175.696 215.905 176.047 215.202 174.994ZM127.065 174.994C127.416 174.994 128.119 174.994 128.47 174.994L129.523 175.345H127.767H126.363L127.065 174.994ZM66.317 174.293V173.942L66.6681 174.293V174.644V174.994H66.317V174.293ZM120.393 173.241L120.042 172.89L120.744 173.241C121.096 173.592 121.798 173.592 121.798 173.942H121.447C121.447 173.942 121.096 173.592 120.393 173.241ZM104.241 172.89C104.241 172.54 104.943 172.189 104.943 172.189L104.592 172.89C104.241 173.241 103.538 173.592 103.538 173.592L104.241 172.89ZM112.668 172.54L111.966 171.488L113.019 172.189C113.722 172.89 114.073 173.592 114.073 173.592C114.073 173.592 113.37 173.241 112.668 172.54ZM65.9659 172.189V171.838L66.317 172.189V172.54V172.89H65.9659V172.189ZM118.286 171.838C118.638 172.189 118.989 172.189 118.989 172.54C118.638 172.54 118.638 172.189 118.286 171.838ZM163.584 171.488V171.137L163.935 171.488V171.838V172.189H163.584V171.488ZM122.5 171.137C121.447 170.436 120.042 169.734 119.691 169.383L118.989 168.331V167.981C119.691 167.279 120.042 167.63 122.851 168.682C123.905 169.383 126.012 170.085 126.714 170.436C127.767 170.786 128.47 171.137 128.821 171.488L129.172 171.838H126.714C124.607 171.838 123.554 171.488 122.5 171.137ZM59.9964 170.786L59.6452 170.085L60.3475 170.436L61.0498 171.137L61.401 170.436L61.7521 169.734V170.436C61.7521 170.786 61.401 171.488 61.0498 171.488H60.6987L59.9964 170.786ZM116.531 170.786L116.18 170.085L116.882 170.436C117.233 170.786 117.584 171.137 117.584 171.488C117.233 171.488 116.882 171.137 116.531 170.786ZM132.332 171.137C132.332 170.436 132.683 169.734 133.386 169.734H134.088L133.386 170.085H132.683V170.786L133.035 171.488H132.683L132.332 171.137ZM134.439 169.383H134.79H135.141V169.734H134.439H134.088L134.439 169.383ZM65.6147 169.033C65.6147 169.033 65.9659 168.682 66.317 168.331L67.0193 167.981L66.317 168.682C65.9659 169.033 65.6147 169.383 65.6147 169.383V169.033ZM61.0498 168.331V167.981L61.401 168.331V168.682V169.033H61.0498V168.331ZM58.2407 167.981C58.5918 168.331 58.943 168.331 58.943 168.682C58.5918 168.682 58.5918 168.331 58.2407 167.981ZM110.21 167.279C110.561 167.63 110.912 167.63 110.912 167.981C110.561 167.981 110.561 167.63 110.21 167.279ZM126.012 166.929C123.202 166.227 121.798 164.123 122.149 162.37L122.5 161.318L124.256 160.967C124.958 160.967 126.363 160.967 127.416 161.318C129.172 161.668 135.844 164.824 136.546 165.526L136.897 166.227L134.79 166.578C132.332 167.279 127.416 167.279 126.012 166.929ZM60.6987 165.877V165.175L61.0498 165.526V166.227L60.6987 166.929V165.877ZM109.157 166.227V165.877V165.526H109.508V165.877L109.859 166.578C109.508 166.578 109.508 166.578 109.157 166.227ZM112.317 165.526C110.912 163.772 111.264 160.967 113.019 159.564C114.073 158.863 116.531 158.512 117.584 159.564C118.286 159.915 118.989 162.019 118.989 163.422C118.286 165.877 114.424 167.279 112.317 165.526ZM139.706 164.824L139.004 164.123L139.706 164.474C140.057 164.824 140.409 165.175 140.409 165.526L140.76 165.877C140.409 165.877 140.057 165.526 139.706 164.824ZM72.6376 164.824H72.9888H73.3399V165.175H72.6376H72.2865L72.6376 164.824ZM59.6452 163.772L58.943 162.72L59.9964 163.422L60.6987 164.474V164.824L59.6452 163.772ZM74.0422 164.474H74.7445L75.4468 164.824H74.3933H73.691L74.0422 164.474ZM76.8513 164.123C77.2025 164.123 77.9048 164.123 78.2559 164.123L79.3094 164.474H77.5536H76.1491L76.8513 164.123ZM81.7674 163.772C82.1185 163.772 82.8208 163.772 83.172 163.772L84.2254 164.123H82.4697H81.0651L81.7674 163.772ZM160.424 163.772C160.424 163.422 160.775 163.422 161.126 163.422H161.477V163.772V164.123H160.775H160.073L160.424 163.772ZM85.63 163.422C85.9811 163.422 86.6834 163.422 87.0346 163.422L87.7368 163.772H86.3323H85.2788L85.63 163.422ZM89.8437 163.071H90.546L91.2483 163.422H90.1949H89.4926L89.8437 163.071ZM108.454 163.071V162.72H107.752L107.401 162.37H108.103H108.806V163.071V163.422H108.454V163.071ZM94.4086 162.72C95.1109 162.72 95.8132 162.72 96.1643 162.72L97.2178 163.071H95.462H93.7063L94.4086 162.72ZM159.37 162.72C159.37 162.37 161.828 158.512 162.531 157.811L163.233 157.109L162.531 158.161C161.828 158.863 161.126 160.265 160.424 161.318L159.37 163.422V162.72ZM199.752 159.213C196.943 157.46 194.485 155.356 194.485 155.356V155.005C194.836 155.005 197.645 156.759 200.103 158.512C201.508 159.564 202.912 160.265 203.615 160.265C203.966 160.265 204.668 160.616 205.37 160.967L206.073 162.019V162.37L205.722 163.071H205.019C204.668 163.071 202.21 161.318 199.752 159.213ZM100.027 162.37C100.729 162.37 101.783 162.37 102.485 162.37L103.89 162.72H101.432H98.9735L100.027 162.37ZM58.5918 161.668V161.318L58.943 161.668V162.019V162.37H58.5918V161.668ZM63.859 160.616C62.8056 159.915 62.4544 155.706 63.5078 155.005C64.2101 154.304 80.3628 155.356 88.088 157.109C90.8971 157.46 94.4086 158.161 96.5155 158.512L100.027 159.213H97.9201C96.8666 159.213 92.6529 159.564 88.7903 159.564C82.8208 160.265 67.0193 160.967 64.9124 160.967C64.5613 160.967 64.2101 160.967 63.859 160.616ZM131.981 160.265L131.279 159.564H131.981C132.332 159.213 133.737 159.213 135.141 159.213L137.599 159.564H134.79H131.981L132.683 159.915L133.386 160.616H133.035C133.035 160.616 132.332 160.265 131.981 160.265ZM141.813 159.564C142.164 159.564 142.867 159.564 142.867 159.564L143.569 159.915H142.515H141.462L141.813 159.564ZM149.187 159.915C149.187 159.564 149.538 159.564 149.89 159.213C149.538 159.564 149.538 159.915 149.187 159.915ZM57.8895 158.161V157.811L58.2407 158.161V158.512V158.863H57.8895V158.161ZM106.699 157.46C103.89 156.759 89.4926 153.953 78.2559 152.2C75.7979 151.849 72.6376 151.147 71.9353 151.147C70.8819 150.797 68.4239 150.797 66.6681 150.446C64.9124 150.446 63.1567 150.446 63.1567 150.095C62.8055 150.095 62.1033 146.238 58.943 125.547C57.8895 119.235 56.4849 111.519 56.1338 107.662C53.6758 95.7384 52.6223 86.2697 53.3246 85.919V85.5683L56.1338 86.9711C59.2941 88.3738 62.8056 89.7766 65.9659 90.8287C67.7216 91.1794 69.4773 91.1794 76.8513 91.1794C81.4162 91.1794 86.6834 91.1794 88.4391 90.8287C100.729 89.4259 112.668 86.2697 128.119 81.36C132.683 79.6066 134.088 79.2559 134.439 79.6066C134.439 79.9573 135.493 82.0614 136.546 84.8669C143.218 100.648 143.569 100.999 144.622 101.349C145.325 101.349 146.027 100.648 147.08 99.9466C149.187 97.8425 150.592 97.1411 152.699 97.1411C156.912 97.1411 160.073 101.349 159.019 105.558C158.317 108.013 157.264 109.766 156.21 110.818C155.157 111.87 152.699 112.922 151.294 112.922C149.538 112.922 149.538 113.273 152.699 123.794C155.508 133.964 156.561 139.224 155.859 139.575C155.859 139.575 154.103 140.276 152.348 140.977C148.836 142.38 147.08 143.082 144.271 144.835C143.218 145.186 141.462 146.238 140.76 146.589C136.546 147.991 123.554 153.602 121.096 155.005C118.638 156.408 118.286 156.408 116.18 156.408C114.424 156.408 113.019 156.759 111.966 157.109C110.561 157.811 108.454 157.811 106.699 157.46ZM107.401 151.849C111.615 151.147 115.477 149.745 118.638 147.991C122.5 145.186 127.767 138.523 131.279 131.86C132.683 129.405 136.195 118.884 136.195 117.832V117.481L135.844 117.13C135.493 117.13 131.981 117.832 127.767 118.884C121.096 120.988 117.233 122.04 98.6223 128.703C95.1109 130.106 90.1949 131.86 87.7368 132.561C82.8208 134.314 81.0651 135.016 80.714 136.068C80.3628 137.821 81.0651 138.873 84.5765 142.38C90.1949 147.991 95.1109 151.147 99.6758 151.849C102.485 152.2 103.187 152.2 107.401 151.849ZM83.8743 121.339C87.3857 119.585 88.088 113.624 85.2788 110.818L84.2254 110.117L85.2788 109.415L86.6834 109.065L86.3323 106.96C86.3323 105.558 86.3323 104.155 85.9811 103.804L85.63 102.752L84.5765 102.401H83.5231L83.172 103.103C83.172 103.804 82.4697 104.155 81.7674 104.506C81.4162 104.856 78.2559 104.856 75.0956 104.856C70.5307 104.856 69.1262 104.856 68.775 105.207C68.0727 105.908 66.317 112.572 66.6681 112.922C67.0193 112.922 68.4239 112.572 70.1796 112.221C74.7445 111.169 77.5536 110.818 77.9048 110.818C77.9048 110.818 77.5536 111.87 77.2025 112.922C76.5002 115.026 76.5002 115.377 76.8513 117.13C77.2025 119.235 77.9048 120.637 79.3094 121.339C80.7139 122.391 82.1185 122.04 83.8743 121.339ZM115.126 114.325C118.638 111.519 119.34 110.818 119.34 110.117V109.766L118.638 109.415C117.935 109.065 117.233 109.065 116.531 109.415L115.477 109.766L114.073 107.662C113.37 106.61 112.668 105.908 112.668 105.908V105.558H117.935C122.149 105.207 123.554 104.856 123.905 104.506C125.309 103.454 124.607 103.103 120.042 100.648C114.775 97.8425 115.126 97.8425 106.348 99.9466C102.836 100.648 100.027 101.349 100.027 100.999H99.3246V100.297C99.3246 98.1932 97.2178 97.1411 96.1643 98.5439C95.462 98.8946 95.8132 104.856 96.5155 106.61C97.2178 108.013 97.9201 108.013 100.378 107.662C101.432 107.311 102.836 106.96 103.538 106.96L104.943 106.61V107.311C104.943 107.662 104.592 108.363 104.592 108.714C103.187 110.818 104.241 115.026 105.996 116.078C107.05 116.78 110.561 117.13 111.615 116.78C112.317 116.429 113.722 115.377 115.126 114.325ZM151.645 109.065C151.996 108.714 152.699 108.013 152.699 106.96C153.05 105.908 153.752 104.506 154.454 103.804C154.806 103.103 155.157 102.401 155.157 102.051L154.806 101.7L154.103 101.349C153.401 101.349 151.996 101.7 150.592 102.401C148.134 103.804 147.783 103.804 147.783 104.856C147.783 105.908 148.485 108.013 149.187 109.065C149.538 109.415 150.592 109.415 151.645 109.065ZM151.294 156.759C151.294 156.057 151.645 155.706 151.996 155.706L151.645 156.759C151.294 157.46 150.943 157.811 150.592 157.811L151.294 156.759ZM49.8132 156.057L49.1109 155.005C49.462 155.005 49.8132 155.356 50.1643 156.057L50.8666 157.109C50.5155 157.109 50.1643 156.759 49.8132 156.057ZM127.767 155.706C128.47 155.005 147.432 148.342 151.645 147.641L152.699 147.29L150.241 150.446C148.836 152.55 147.432 153.953 147.08 153.953C146.378 154.304 143.92 154.304 141.111 154.654C136.195 155.005 133.035 155.356 128.821 156.057H127.416L127.767 155.706ZM165.691 154.304C166.393 153.252 167.447 152.55 167.447 152.55L166.042 154.304C164.989 155.356 163.935 156.057 163.935 156.057L165.691 154.304ZM205.019 154.304H205.722L206.424 154.654H205.37H204.668L205.019 154.304ZM47.7063 152.901C48.0575 153.252 48.4086 153.252 48.4086 153.602C48.0575 153.602 48.0575 153.252 47.7063 152.901ZM168.851 151.849C169.202 151.147 169.905 150.797 169.905 150.797H170.256C170.256 151.147 169.554 151.498 168.851 151.849ZM45.2483 149.745C45.2483 149.394 44.546 148.693 43.8437 147.991L43.1414 146.589H43.4926C43.4926 146.939 44.1949 147.641 44.8972 148.342L45.9506 150.095C45.5994 150.095 45.5994 149.745 45.2483 149.745ZM157.264 148.342C157.966 147.29 159.019 146.589 159.019 146.589C159.019 146.589 158.317 147.641 157.264 148.342ZM177.279 148.342H177.63H177.981V148.693H177.279H176.928L177.279 148.342ZM187.813 148.342H188.515L189.218 148.693H188.164H187.462L187.813 148.342ZM179.386 147.991C179.737 147.991 180.439 147.991 180.79 147.991L181.493 148.342H180.088H178.683L179.386 147.991ZM185.355 147.991H186.057L186.76 148.342H185.706H185.004L185.355 147.991ZM53.6758 146.939C54.0269 147.29 54.3781 147.29 54.3781 147.641C54.0269 147.641 54.0269 147.29 53.6758 146.939ZM208.882 146.589C209.233 146.939 209.584 146.939 209.584 147.29C209.233 147.29 209.233 146.939 208.882 146.589ZM160.073 145.887C160.073 145.536 160.775 145.186 160.775 145.186L160.424 145.887C160.073 146.238 159.37 146.589 159.37 146.589L160.073 145.887ZM41.3857 144.484L41.0346 143.783L41.7368 144.134C42.088 144.484 42.4391 144.835 42.4391 145.186C42.088 145.186 41.7368 144.835 41.3857 144.484ZM39.63 141.679C39.9811 142.03 40.3323 142.03 40.3323 142.38C39.9811 142.38 39.9811 142.03 39.63 141.679ZM49.8132 141.328C50.1643 141.679 50.5155 141.679 50.5155 142.03C50.1643 142.03 50.1643 141.679 49.8132 141.328ZM174.119 139.925H174.47H174.821V140.276H174.119H173.767L174.119 139.925ZM189.569 139.575C189.92 139.575 190.622 139.575 190.973 139.575L191.676 139.925H190.271H189.218L189.569 139.575ZM177.63 139.224H178.332L179.035 139.575H177.981H177.279L177.63 139.224ZM187.111 139.224H187.813L188.515 139.575H187.462H186.76L187.111 139.224ZM180.79 138.873C181.493 138.873 182.195 138.873 182.897 138.873L183.951 139.224H181.844H179.737L180.79 138.873ZM47.3552 137.821C47.7063 138.172 48.0575 138.172 48.0575 138.523C47.7063 138.523 47.7063 138.172 47.3552 137.821ZM33.6605 132.561L32.9582 131.86H33.3094C33.3094 132.21 33.6605 132.561 34.0117 132.912L34.3628 133.613C34.0117 133.613 33.6605 133.262 33.6605 132.561ZM43.4926 132.21C43.8437 132.561 44.1949 132.561 44.1949 132.912C43.8437 132.912 43.8437 132.561 43.4926 132.21ZM32.2559 130.807L31.9048 130.106C32.2559 130.106 32.2559 130.457 32.6071 130.807L32.9582 131.509C32.6071 131.509 32.6071 131.158 32.2559 130.807ZM30.8514 128.703L30.1491 127.651C30.5002 127.651 30.8514 128.002 31.2025 128.703L31.9048 129.755C31.5536 129.755 31.2025 129.405 30.8514 128.703ZM29.0956 125.898C29.0956 125.547 30.1491 124.846 30.8514 124.495C30.1491 124.846 29.7979 125.547 29.4468 125.898L29.0956 126.248V125.898ZM32.2559 123.443C32.6071 123.443 32.9582 122.742 33.6605 122.742L34.3628 122.391L33.6605 123.092C32.9582 123.092 32.6071 123.794 32.2559 123.794L31.5536 124.144L32.2559 123.443ZM34.7139 122.04C35.4162 121.689 35.7674 121.339 35.7674 121.339H36.1185C36.1185 121.689 35.4162 121.689 35.0651 122.04L34.3628 122.391L34.7139 122.04ZM25.233 117.13C20.6681 110.467 20.317 109.766 20.317 108.714L20.6681 108.013L19.9659 107.662C19.6147 107.662 18.5613 107.311 17.5078 106.96C16.4544 106.61 15.401 106.61 15.401 106.259H15.0498L17.1567 104.155C18.9124 102.051 20.6681 99.9466 23.1262 96.7904C23.4773 96.089 23.8285 95.3877 23.8285 95.037V94.6863L23.4773 94.3356C23.1262 94.3356 22.0727 94.6863 21.3704 95.037C19.9659 96.089 18.5613 95.7384 18.5613 93.9849C18.5613 92.5821 19.2636 91.5301 20.6681 90.8287C22.775 90.1273 25.233 91.1794 26.6376 93.6342C27.691 95.7384 27.3399 99.596 26.2865 100.999C25.233 102.401 24.8819 103.454 24.8819 104.155C25.233 104.506 26.9888 108.013 29.0956 111.519C31.2025 115.026 32.9582 117.832 32.9582 118.183C32.9582 118.183 29.0956 121.339 28.3933 121.339C28.3933 121.339 26.6376 119.235 25.233 117.13ZM9.78265 101.7C8.37807 100.648 7.67578 98.8946 7.67578 97.1411C7.67578 95.7384 8.02693 95.037 9.08036 93.9849C10.4849 92.2314 13.6452 90.8287 15.401 90.8287L16.8056 91.1794L16.4544 91.8808C16.4544 92.2314 16.4544 93.2835 16.1033 93.9849C16.1033 95.3877 16.1033 95.7384 17.1567 97.1411L18.5613 98.5439L17.859 99.596C15.7521 102.051 11.5384 103.103 9.78265 101.7ZM89.8437 139.925C88.4391 138.172 88.7903 137.471 93.7063 135.366C101.432 132.21 111.966 128.353 129.523 123.092H130.225V123.443C130.225 124.144 128.47 126.95 127.416 129.054C127.065 129.755 126.012 130.457 125.309 130.807C123.202 131.86 103.89 138.172 98.6223 139.575C92.6529 140.977 90.8971 140.977 89.8437 139.925ZM80.0117 115.026C78.9582 114.325 79.3094 113.624 80.0117 112.922C80.7139 111.87 81.7674 112.221 82.1185 113.624C82.8208 115.377 81.0651 116.429 80.0117 115.026ZM108.103 110.818C107.401 109.415 108.103 108.714 109.508 108.714H110.561L110.912 109.415C110.912 109.415 110.912 110.117 110.561 110.818C110.21 111.87 108.454 111.87 108.103 110.818Z" fill="#D4A5A5"/>
<path d="M163.233 308.606C162.881 308.255 162.179 307.554 161.828 306.852C160.775 305.449 160.775 302.995 161.477 295.981V292.825H161.828C162.179 292.825 163.233 293.175 164.286 293.526C165.691 293.877 166.042 294.227 166.042 295.279C166.042 295.63 166.393 297.383 166.744 298.786C167.095 301.942 167.095 306.852 166.744 307.904C166.042 308.956 164.637 309.307 163.233 308.606ZM72.6372 280.2C71.2326 278.797 71.2326 278.095 72.2861 272.484L73.6906 267.925L75.7975 267.575C78.2555 267.575 78.2555 267.575 80.0112 269.328C81.4158 270.731 81.4158 270.731 81.4158 272.835C81.0647 274.238 80.7135 275.991 80.3624 277.394C79.309 279.849 78.9578 280.2 75.4464 280.55C73.6906 280.901 73.3395 280.901 72.6372 280.2ZM109.859 203.048C108.454 202.346 107.752 201.294 107.049 197.787C107.049 196.385 106.347 194.982 106.347 194.982C106.347 194.631 104.591 194.631 102.485 194.982C99.3242 195.332 98.6219 195.332 97.5685 194.982C95.8128 194.28 95.4616 193.228 95.4616 191.475C96.1639 189.02 96.5151 188.669 100.729 187.968C102.836 187.267 104.591 186.916 104.943 186.916C104.943 186.565 104.943 184.812 104.591 182.357C104.24 177.798 104.24 177.097 105.996 175.694C107.049 174.642 108.454 174.291 109.859 174.642C110.912 175.343 112.668 177.798 113.37 180.603C113.721 182.006 114.072 183.409 114.423 183.76C115.126 184.461 115.126 184.461 118.637 184.11C122.149 183.76 122.5 183.76 123.904 184.461C124.958 184.812 125.309 185.162 125.66 186.565C126.011 187.968 126.011 187.968 125.66 189.02C124.958 190.423 123.553 191.124 120.744 191.826C116.179 192.527 116.53 192.176 116.53 196.385C116.53 199.541 116.53 200.242 115.828 201.294C114.775 203.048 112.317 203.749 109.859 203.048ZM201.156 160.263C199.401 158.51 197.645 157.458 197.645 157.458V157.107L200.103 158.861C201.507 159.913 202.912 160.614 203.263 160.614C204.317 160.614 205.721 161.666 205.721 162.368V162.718H205.37C205.019 162.718 203.263 161.666 201.156 160.263ZM90.1945 139.573C88.7899 138.871 89.141 137.819 91.9502 136.767C99.6754 132.909 109.859 129.753 127.065 124.493L129.874 123.441V124.142C129.523 124.844 127.065 128.701 126.714 129.403C126.011 130.455 124.607 130.805 115.477 133.962C97.5685 139.923 92.3013 140.975 90.1945 139.573ZM80.0112 114.674C79.309 114.323 80.0112 112.569 81.0647 112.569H81.4158L81.767 113.621C82.4693 115.024 81.0647 116.076 80.0112 114.674ZM108.454 110.465C108.103 109.413 108.454 109.062 109.507 109.062H110.561V109.413C110.561 109.764 110.561 110.465 110.21 110.465V111.167H109.156H108.454V110.465Z" fill="white"/>
</svg>
