<svg width="266" height="26" viewBox="0 0 266 26" fill="none" xmlns="http://www.w3.org/2000/svg">
<path d="M265.001 17.4809H261.84V2.87238H265.001V17.4809Z" stroke="#8F11A6" stroke-width="0.61" stroke-miterlimit="2.61313"/>
<path d="M265.001 17.4809H261.84V2.87238H265.001V17.4809Z" fill="#8F11A6"/>
<path d="M251.377 13.9451C251.62 13.7559 251.745 13.4212 251.745 12.9432V10.4792H254.906V12.9432C254.906 13.3615 254.98 13.6582 255.128 13.8335C255.302 14.0487 255.621 14.1562 256.083 14.1562C256.815 14.1562 257.183 13.8933 257.183 13.3575C257.183 13.2439 257.164 13.1125 257.134 12.9711C256.766 11.3855 256.529 10.3238 256.419 9.78205L259.489 9.01318C259.673 9.82189 259.911 10.8836 260.209 12.2022C260.274 12.493 260.304 12.7977 260.304 13.1125C260.304 13.3734 260.283 13.6363 260.238 13.9152C260.128 14.5426 259.911 15.1163 259.593 15.6282C258.827 16.8652 257.714 17.4807 256.245 17.4807C255.585 17.4807 254.963 17.3771 254.386 17.1659C253.994 17.0126 253.636 16.8094 253.315 16.5604C252.551 17.1739 251.673 17.4807 250.684 17.4807C249.641 17.4807 248.74 17.1739 247.972 16.5604C247.453 17.1739 246.529 17.4807 245.204 17.4807H243.354V14.1562H245.204C245.667 14.1562 245.985 14.0487 246.158 13.8335C246.306 13.6582 246.381 13.3615 246.381 12.9432V10.4792H249.546V12.9432C249.546 13.4212 249.654 13.7559 249.87 13.9451C250.026 14.0865 250.266 14.1562 250.596 14.1562C250.936 14.1562 251.197 14.0865 251.377 13.9451Z" stroke="#8F11A6" stroke-width="0.61" stroke-miterlimit="2.61313"/>
<path d="M251.377 13.9451C251.62 13.7559 251.745 13.4212 251.745 12.9432V10.4792H254.906V12.9432C254.906 13.3615 254.98 13.6582 255.128 13.8335C255.302 14.0487 255.621 14.1562 256.083 14.1562C256.815 14.1562 257.183 13.8933 257.183 13.3575C257.183 13.2439 257.164 13.1125 257.134 12.9711C256.766 11.3855 256.529 10.3238 256.419 9.78205L259.489 9.01318C259.673 9.82189 259.911 10.8836 260.209 12.2022C260.274 12.493 260.304 12.7977 260.304 13.1125C260.304 13.3734 260.283 13.6363 260.238 13.9152C260.128 14.5426 259.911 15.1163 259.593 15.6282C258.827 16.8652 257.714 17.4807 256.245 17.4807C255.585 17.4807 254.963 17.3771 254.386 17.1659C253.994 17.0126 253.636 16.8094 253.315 16.5604C252.551 17.1739 251.673 17.4807 250.684 17.4807C249.641 17.4807 248.74 17.1739 247.972 16.5604C247.453 17.1739 246.529 17.4807 245.204 17.4807H243.354V14.1562H245.204C245.667 14.1562 245.985 14.0487 246.158 13.8335C246.306 13.6582 246.381 13.3615 246.381 12.9432V10.4792H249.546V12.9432C249.546 13.4212 249.654 13.7559 249.87 13.9451C250.026 14.0865 250.266 14.1562 250.596 14.1562C250.936 14.1562 251.197 14.0865 251.377 13.9451Z" fill="#8F11A6"/>
<path d="M241.317 13.2358C241.317 13.5584 241.391 13.7895 241.54 13.9269C241.705 14.0783 242.003 14.156 242.428 14.156H243.835V17.4805H242.428C242.011 17.4805 241.614 17.4327 241.239 17.339C240.947 17.2653 240.666 17.1618 240.412 17.0243C240.115 16.8749 239.893 16.7275 239.747 16.5781C239.599 16.7275 239.358 16.8749 239.034 17.0243C238.384 17.3291 237.612 17.4805 236.717 17.4805H233.479V14.156H236.941C237.403 14.156 237.727 14.0783 237.913 13.915C238.082 13.7736 238.164 13.5465 238.164 13.2358V10.479H241.317V13.2358Z" stroke="#8F11A6" stroke-width="0.61" stroke-miterlimit="2.61313"/>
<path d="M241.317 13.2358C241.317 13.5584 241.391 13.7895 241.54 13.9269C241.705 14.0783 242.003 14.156 242.428 14.156H243.835V17.4805H242.428C242.011 17.4805 241.614 17.4327 241.239 17.339C240.947 17.2653 240.666 17.1618 240.412 17.0243C240.115 16.8749 239.893 16.7275 239.747 16.5781C239.599 16.7275 239.358 16.8749 239.034 17.0243C238.384 17.3291 237.612 17.4805 236.717 17.4805H233.479V14.156H236.941C237.403 14.156 237.727 14.0783 237.913 13.915C238.082 13.7736 238.164 13.5465 238.164 13.2358V10.479H241.317V13.2358Z" fill="#8F11A6"/>
<path d="M240.732 7.8079C240.262 7.8079 239.862 7.63461 239.53 7.28404C239.2 6.93944 239.035 6.51917 239.035 6.02518C239.035 5.53916 239.2 5.12285 239.53 4.77427C239.862 4.42569 240.262 4.25439 240.732 4.25439C241.195 4.25439 241.591 4.42569 241.923 4.77427C242.253 5.12285 242.418 5.53916 242.418 6.02518C242.418 6.51917 242.253 6.93944 241.923 7.28404C241.591 7.63461 241.195 7.8079 240.732 7.8079Z" stroke="#8F11A6" stroke-width="0.61" stroke-miterlimit="2.61313"/>
<path d="M240.732 7.8079C240.262 7.8079 239.862 7.63461 239.53 7.28404C239.2 6.93944 239.035 6.51917 239.035 6.02518C239.035 5.53916 239.2 5.12285 239.53 4.77427C239.862 4.42569 240.262 4.25439 240.732 4.25439C241.195 4.25439 241.591 4.42569 241.923 4.77427C242.253 5.12285 242.418 5.53916 242.418 6.02518C242.418 6.51917 242.253 6.93944 241.923 7.28404C241.591 7.63461 241.195 7.8079 240.732 7.8079Z" fill="#8F11A6"/>
<path d="M236.68 7.8079C236.215 7.8079 235.821 7.63461 235.487 7.28404C235.159 6.93944 234.992 6.51917 234.992 6.02518C234.992 5.53916 235.159 5.12285 235.487 4.77427C235.821 4.42569 236.215 4.25439 236.68 4.25439C237.15 4.25439 237.548 4.42569 237.874 4.77427C238.202 5.12285 238.369 5.53916 238.369 6.02518C238.369 6.51917 238.202 6.93944 237.874 7.28404C237.548 7.63461 237.15 7.8079 236.68 7.8079Z" stroke="#8F11A6" stroke-width="0.61" stroke-miterlimit="2.61313"/>
<path d="M236.68 7.8079C236.215 7.8079 235.821 7.63461 235.487 7.28404C235.159 6.93944 234.992 6.51917 234.992 6.02518C234.992 5.53916 235.159 5.12285 235.487 4.77427C235.821 4.42569 236.215 4.25439 236.68 4.25439C237.15 4.25439 237.548 4.42569 237.874 4.77427C238.202 5.12285 238.369 5.53916 238.369 6.02518C238.369 6.51917 238.202 6.93944 237.874 7.28404C237.548 7.63461 237.15 7.8079 236.68 7.8079Z" fill="#8F11A6"/>
<path d="M226.169 7.78619C227.587 7.78619 228.717 8.328 229.563 9.41756C230.34 10.4095 230.729 11.6465 230.729 13.1244V14.1682H233.945V17.4807H230.699C230.539 19.5801 229.563 21.084 227.768 21.9903C227.066 22.3409 226.247 22.5918 225.31 22.7492C224.571 22.8787 223.769 22.9424 222.908 22.9424V19.618C224.514 19.618 225.724 19.3829 226.533 18.9089C227.191 18.5324 227.515 18.0524 227.515 17.4807H226.169C225.024 17.4807 224.051 17.158 223.245 16.5087C222.282 15.7239 221.799 14.5984 221.799 13.1244C221.799 11.7281 222.121 10.5429 222.764 9.56892C223.541 8.38176 224.677 7.78619 226.169 7.78619ZM227.565 14.1682V13.1244C227.565 12.503 227.441 12.009 227.191 11.6465C226.939 11.2899 226.596 11.1067 226.169 11.1067C225.731 11.1067 225.384 11.2899 225.126 11.6465C224.889 11.9771 224.768 12.4074 224.768 12.9312C224.768 12.995 224.772 13.0567 224.779 13.1244C224.796 13.485 224.952 13.7519 225.242 13.9351C225.487 14.0905 225.794 14.1682 226.169 14.1682H227.565Z" stroke="#8F11A6" stroke-width="0.61" stroke-miterlimit="2.61313"/>
<path d="M226.169 7.78619C227.587 7.78619 228.717 8.328 229.563 9.41756C230.34 10.4095 230.729 11.6465 230.729 13.1244V14.1682H233.945V17.4807H230.699C230.539 19.5801 229.563 21.084 227.768 21.9903C227.066 22.3409 226.247 22.5918 225.31 22.7492C224.571 22.8787 223.769 22.9424 222.908 22.9424V19.618C224.514 19.618 225.724 19.3829 226.533 18.9089C227.191 18.5324 227.515 18.0524 227.515 17.4807H226.169C225.024 17.4807 224.051 17.158 223.245 16.5087C222.282 15.7239 221.799 14.5984 221.799 13.1244C221.799 11.7281 222.121 10.5429 222.764 9.56892C223.541 8.38176 224.677 7.78619 226.169 7.78619ZM227.565 14.1682V13.1244C227.565 12.503 227.441 12.009 227.191 11.6465C226.939 11.2899 226.596 11.1067 226.169 11.1067C225.731 11.1067 225.384 11.2899 225.126 11.6465C224.889 11.9771 224.768 12.4074 224.768 12.9312C224.768 12.995 224.772 13.0567 224.779 13.1244C224.796 13.485 224.952 13.7519 225.242 13.9351C225.487 14.0905 225.794 14.1682 226.169 14.1682H227.565Z" fill="#8F11A6"/>
<path d="M216.305 5.83221L216.477 6.09314C216.517 6.15688 216.553 6.20469 216.583 6.24452C216.627 6.31623 216.669 6.38197 216.709 6.44969C216.817 6.61303 216.934 6.78033 217.054 6.95362C217.368 7.43366 217.723 7.96552 218.108 8.54516C218.607 9.28813 219.155 10.1048 219.744 10.9892C220.209 11.6903 220.474 12.4213 220.537 13.1882C220.552 13.3217 220.556 13.4551 220.556 13.5926C220.556 14.228 220.417 14.8256 220.14 15.3932C219.801 16.0785 219.314 16.6043 218.677 16.9828C218.034 17.3692 217.312 17.5624 216.517 17.5624C215.59 17.5624 214.384 17.3592 212.9 16.9549C212.454 16.8314 212.008 16.6979 211.559 16.5485C211.419 16.5087 211.284 16.4629 211.153 16.419C211.112 16.4051 211.072 16.3932 211.04 16.3852L211.007 16.3673H210.99L212.001 13.2181C212.245 13.3018 212.532 13.3994 212.862 13.499C213.267 13.6225 213.664 13.734 214.056 13.8336C215.11 14.1045 215.929 14.2379 216.517 14.2379C216.934 14.2379 217.205 14.1164 217.334 13.8635C217.38 13.7699 217.404 13.6703 217.404 13.5587C217.404 13.3655 217.323 13.1464 217.16 12.9014C216.57 12.017 216.026 11.2003 215.524 10.4494C215.141 9.8817 214.788 9.35385 214.462 8.85987C213.946 8.09897 213.692 7.71253 213.692 7.70456L216.305 5.83221Z" stroke="#8F11A6" stroke-width="0.61" stroke-miterlimit="2.61313"/>
<path d="M216.305 5.83221L216.477 6.09314C216.517 6.15688 216.553 6.20469 216.583 6.24452C216.627 6.31623 216.669 6.38197 216.709 6.44969C216.817 6.61303 216.934 6.78033 217.054 6.95362C217.368 7.43366 217.723 7.96552 218.108 8.54516C218.607 9.28813 219.155 10.1048 219.744 10.9892C220.209 11.6903 220.474 12.4213 220.537 13.1882C220.552 13.3217 220.556 13.4551 220.556 13.5926C220.556 14.228 220.417 14.8256 220.14 15.3932C219.801 16.0785 219.314 16.6043 218.677 16.9828C218.034 17.3692 217.312 17.5624 216.517 17.5624C215.59 17.5624 214.384 17.3592 212.9 16.9549C212.454 16.8314 212.008 16.6979 211.559 16.5485C211.419 16.5087 211.284 16.4629 211.153 16.419C211.112 16.4051 211.072 16.3932 211.04 16.3852L211.007 16.3673H210.99L212.001 13.2181C212.245 13.3018 212.532 13.3994 212.862 13.499C213.267 13.6225 213.664 13.734 214.056 13.8336C215.11 14.1045 215.929 14.2379 216.517 14.2379C216.934 14.2379 217.205 14.1164 217.334 13.8635C217.38 13.7699 217.404 13.6703 217.404 13.5587C217.404 13.3655 217.323 13.1464 217.16 12.9014C216.57 12.017 216.026 11.2003 215.524 10.4494C215.141 9.8817 214.788 9.35385 214.462 8.85987C213.946 8.09897 213.692 7.71253 213.692 7.70456L216.305 5.83221Z" fill="#8F11A6"/>
<path d="M207.263 23.0539C206.793 23.0539 206.393 22.8786 206.061 22.53C205.731 22.1834 205.566 21.7671 205.566 21.2811C205.566 20.7871 205.731 20.3669 206.061 20.0223C206.393 19.6797 206.793 19.5063 207.263 19.5063C207.726 19.5063 208.122 19.6797 208.454 20.0223C208.784 20.3669 208.949 20.7871 208.949 21.2811C208.949 21.7671 208.784 22.1834 208.454 22.53C208.122 22.8786 207.726 23.0539 207.263 23.0539Z" stroke="#8F11A6" stroke-width="0.61" stroke-miterlimit="2.61313"/>
<path d="M207.263 23.0539C206.793 23.0539 206.393 22.8786 206.061 22.53C205.731 22.1834 205.566 21.7671 205.566 21.2811C205.566 20.7871 205.731 20.3669 206.061 20.0223C206.393 19.6797 206.793 19.5063 207.263 19.5063C207.726 19.5063 208.122 19.6797 208.454 20.0223C208.784 20.3669 208.949 20.7871 208.949 21.2811C208.949 21.7671 208.784 22.1834 208.454 22.53C208.122 22.8786 207.726 23.0539 207.263 23.0539Z" fill="#8F11A6"/>
<path d="M203.213 23.0539C202.748 23.0539 202.352 22.8786 202.02 22.53C201.692 22.1834 201.525 21.7671 201.525 21.2811C201.525 20.7871 201.692 20.3669 202.02 20.0223C202.352 19.6797 202.748 19.5063 203.213 19.5063C203.683 19.5063 204.081 19.6797 204.407 20.0223C204.735 20.3669 204.902 20.7871 204.902 21.2811C204.902 21.7671 204.735 22.1834 204.407 22.53C204.081 22.8786 203.683 23.0539 203.213 23.0539Z" stroke="#8F11A6" stroke-width="0.61" stroke-miterlimit="2.61313"/>
<path d="M203.213 23.0539C202.748 23.0539 202.352 22.8786 202.02 22.53C201.692 22.1834 201.525 21.7671 201.525 21.2811C201.525 20.7871 201.692 20.3669 202.02 20.0223C202.352 19.6797 202.748 19.5063 203.213 19.5063C203.683 19.5063 204.081 19.6797 204.407 20.0223C204.735 20.3669 204.902 20.7871 204.902 21.2811C204.902 21.7671 204.735 22.1834 204.407 22.53C204.081 22.8786 203.683 23.0539 203.213 23.0539Z" fill="#8F11A6"/>
<path d="M209.506 12.3338C209.559 12.6605 209.583 12.9692 209.583 13.266C209.583 14.1862 209.333 15.0069 208.831 15.7399C208.029 16.9012 206.719 17.4808 204.906 17.4808H201.137V14.1564H204.838C205.418 14.1564 205.826 14.0787 206.063 13.9154C206.309 13.76 206.43 13.515 206.43 13.1764C206.43 13.0768 206.415 12.9652 206.391 12.8417C206.328 12.4971 206.264 12.1485 206.199 11.788C206.171 11.6546 206.146 11.5092 206.121 11.3518L206.083 11.1586L206.055 10.9654C205.956 10.4136 205.884 10.0192 205.831 9.7822L208.852 8.82013C209.043 9.77026 209.261 10.9435 209.506 12.3338Z" stroke="#8F11A6" stroke-width="0.61" stroke-miterlimit="2.61313"/>
<path d="M209.506 12.3338C209.559 12.6605 209.583 12.9692 209.583 13.266C209.583 14.1862 209.333 15.0069 208.831 15.7399C208.029 16.9012 206.719 17.4808 204.906 17.4808H201.137V14.1564H204.838C205.418 14.1564 205.826 14.0787 206.063 13.9154C206.309 13.76 206.43 13.515 206.43 13.1764C206.43 13.0768 206.415 12.9652 206.391 12.8417C206.328 12.4971 206.264 12.1485 206.199 11.788C206.171 11.6546 206.146 11.5092 206.121 11.3518L206.083 11.1586L206.055 10.9654C205.956 10.4136 205.884 10.0192 205.831 9.7822L208.852 8.82013C209.043 9.77026 209.261 10.9435 209.506 12.3338Z" fill="#8F11A6"/>
<path d="M196.105 7.78619C197.523 7.78619 198.655 8.328 199.5 9.41756C200.278 10.4095 200.667 11.6465 200.667 13.1244V14.1682H201.62V17.4807H200.634C200.475 19.5801 199.5 21.084 197.703 21.9903C197.003 22.3409 196.182 22.5918 195.246 22.7492C194.506 22.8787 193.704 22.9424 192.845 22.9424V19.618C194.451 19.618 195.659 19.3829 196.469 18.9089C197.127 18.5324 197.453 18.0524 197.453 17.4807H196.105C194.96 17.4807 193.987 17.158 193.181 16.5087C192.22 15.7239 191.734 14.5984 191.734 13.1244C191.734 11.7281 192.057 10.5429 192.699 9.56892C193.479 8.38176 194.613 7.78619 196.105 7.78619ZM197.502 14.1682V13.1244C197.502 12.503 197.379 12.009 197.127 11.6465C196.876 11.2899 196.533 11.1067 196.105 11.1067C195.667 11.1067 195.32 11.2899 195.062 11.6465C194.825 11.9771 194.705 12.4074 194.705 12.9312C194.705 12.995 194.709 13.0567 194.715 13.1244C194.734 13.485 194.889 13.7519 195.179 13.9351C195.422 14.0905 195.731 14.1682 196.105 14.1682H197.502Z" stroke="#8F11A6" stroke-width="0.61" stroke-miterlimit="2.61313"/>
<path d="M196.105 7.78619C197.523 7.78619 198.655 8.328 199.5 9.41756C200.278 10.4095 200.667 11.6465 200.667 13.1244V14.1682H201.62V17.4807H200.634C200.475 19.5801 199.5 21.084 197.703 21.9903C197.003 22.3409 196.182 22.5918 195.246 22.7492C194.506 22.8787 193.704 22.9424 192.845 22.9424V19.618C194.451 19.618 195.659 19.3829 196.469 18.9089C197.127 18.5324 197.453 18.0524 197.453 17.4807H196.105C194.96 17.4807 193.987 17.158 193.181 16.5087C192.22 15.7239 191.734 14.5984 191.734 13.1244C191.734 11.7281 192.057 10.5429 192.699 9.56892C193.479 8.38176 194.613 7.78619 196.105 7.78619ZM197.502 14.1682V13.1244C197.502 12.503 197.379 12.009 197.127 11.6465C196.876 11.2899 196.533 11.1067 196.105 11.1067C195.667 11.1067 195.32 11.2899 195.062 11.6465C194.825 11.9771 194.705 12.4074 194.705 12.9312C194.705 12.995 194.709 13.0567 194.715 13.1244C194.734 13.485 194.889 13.7519 195.179 13.9351C195.422 14.0905 195.731 14.1682 196.105 14.1682H197.502Z" fill="#8F11A6"/>
<path d="M182.367 8.31396C183.86 8.31396 184.997 8.9673 185.778 10.278C186.084 10.7839 186.309 11.3596 186.465 11.9989C186.592 12.5487 186.66 13.0686 186.66 13.5586C186.66 15.1999 186.268 16.4309 185.483 17.2476C185.185 17.5663 184.838 17.8093 184.44 17.9786C184.117 18.112 183.795 18.1917 183.467 18.2096C183.403 18.2176 183.312 18.2196 183.198 18.2196C182.392 18.2196 181.537 18.0124 180.631 17.5921C180.324 17.4587 179.992 17.2854 179.637 17.0763L179.425 16.9548L179.235 16.8432C179.085 16.7496 178.979 16.6819 178.917 16.65C178.39 17.2037 177.51 17.4806 176.283 17.4806H175.762V14.1561H176.158C176.806 14.1561 177.233 14.0167 177.438 13.7339C177.531 13.6024 177.711 13.0985 177.98 12.2141C178.001 12.1503 178.018 12.0945 178.035 12.0388C178.058 11.9651 178.082 11.8914 178.113 11.8177C178.177 11.6265 178.251 11.4452 178.337 11.2699C178.556 10.7759 178.814 10.3417 179.106 9.96325C179.963 8.86373 181.048 8.31396 182.367 8.31396ZM183.602 14.5724C183.685 14.3314 183.729 14.0685 183.729 13.7817C183.729 13.708 183.725 13.6323 183.717 13.5586C183.685 13.0387 183.541 12.5925 183.283 12.2141C183.022 11.8276 182.714 11.6344 182.367 11.6344C181.89 11.6344 181.501 11.9312 181.19 12.5268C181.08 12.73 180.981 12.979 180.892 13.2757C180.86 13.3734 180.826 13.4849 180.786 13.6223L180.748 13.7737L180.708 13.9052C181.08 14.2418 181.558 14.5246 182.138 14.7477C182.61 14.923 182.989 15.0067 183.272 15.0067C183.389 15.0067 183.499 14.8633 183.602 14.5724Z" stroke="#8F11A6" stroke-width="0.61" stroke-miterlimit="2.61313"/>
<path d="M182.367 8.31396C183.86 8.31396 184.997 8.9673 185.778 10.278C186.084 10.7839 186.309 11.3596 186.465 11.9989C186.592 12.5487 186.66 13.0686 186.66 13.5586C186.66 15.1999 186.268 16.4309 185.483 17.2476C185.185 17.5663 184.838 17.8093 184.44 17.9786C184.117 18.112 183.795 18.1917 183.467 18.2096C183.403 18.2176 183.312 18.2196 183.198 18.2196C182.392 18.2196 181.537 18.0124 180.631 17.5921C180.324 17.4587 179.992 17.2854 179.637 17.0763L179.425 16.9548L179.235 16.8432C179.085 16.7496 178.979 16.6819 178.917 16.65C178.39 17.2037 177.51 17.4806 176.283 17.4806H175.762V14.1561H176.158C176.806 14.1561 177.233 14.0167 177.438 13.7339C177.531 13.6024 177.711 13.0985 177.98 12.2141C178.001 12.1503 178.018 12.0945 178.035 12.0388C178.058 11.9651 178.082 11.8914 178.113 11.8177C178.177 11.6265 178.251 11.4452 178.337 11.2699C178.556 10.7759 178.814 10.3417 179.106 9.96325C179.963 8.86373 181.048 8.31396 182.367 8.31396ZM183.602 14.5724C183.685 14.3314 183.729 14.0685 183.729 13.7817C183.729 13.708 183.725 13.6323 183.717 13.5586C183.685 13.0387 183.541 12.5925 183.283 12.2141C183.022 11.8276 182.714 11.6344 182.367 11.6344C181.89 11.6344 181.501 11.9312 181.19 12.5268C181.08 12.73 180.981 12.979 180.892 13.2757C180.86 13.3734 180.826 13.4849 180.786 13.6223L180.748 13.7737L180.708 13.9052C181.08 14.2418 181.558 14.5246 182.138 14.7477C182.61 14.923 182.989 15.0067 183.272 15.0067C183.389 15.0067 183.499 14.8633 183.602 14.5724Z" fill="#8F11A6"/>
<path d="M172.511 7.66459C172.022 7.66459 171.605 7.48533 171.262 7.12081C170.921 6.76227 170.746 6.32205 170.746 5.81014C170.746 5.29822 170.921 4.86002 171.262 4.49949C171.605 4.13896 172.022 3.9577 172.511 3.9577C172.999 3.9577 173.416 4.13896 173.759 4.49949C174.106 4.86002 174.275 5.29822 174.275 5.81014C174.275 6.32205 174.106 6.76227 173.759 7.12081C173.416 7.48533 172.999 7.66459 172.511 7.66459Z" stroke="#8F11A6" stroke-width="0.61" stroke-miterlimit="2.61313"/>
<path d="M172.511 7.66459C172.022 7.66459 171.605 7.48533 171.262 7.12081C170.921 6.76227 170.746 6.32205 170.746 5.81014C170.746 5.29822 170.921 4.86002 171.262 4.49949C171.605 4.13896 172.022 3.9577 172.511 3.9577C172.999 3.9577 173.416 4.13896 173.759 4.49949C174.106 4.86002 174.275 5.29822 174.275 5.81014C174.275 6.32205 174.106 6.76227 173.759 7.12081C173.416 7.48533 172.999 7.66459 172.511 7.66459Z" fill="#8F11A6"/>
<path d="M174.748 13.2358C174.748 13.5584 174.822 13.7895 174.972 13.9269C175.137 14.0783 175.435 14.156 175.859 14.156H176.244V17.4805H175.859C175.442 17.4805 175.046 17.4327 174.674 17.339C174.377 17.2653 174.102 17.1618 173.844 17.0243C173.546 16.8749 173.326 16.7275 173.178 16.5781C173.03 16.7275 172.791 16.8729 172.465 17.0243C171.813 17.3251 171.043 17.4805 170.152 17.4805H164.766V14.156H170.372C170.835 14.156 171.159 14.0783 171.347 13.915C171.512 13.7736 171.599 13.5465 171.599 13.2358V10.479H174.748V13.2358Z" stroke="#8F11A6" stroke-width="0.61" stroke-miterlimit="2.61313"/>
<path d="M174.748 13.2358C174.748 13.5584 174.822 13.7895 174.972 13.9269C175.137 14.0783 175.435 14.156 175.859 14.156H176.244V17.4805H175.859C175.442 17.4805 175.046 17.4327 174.674 17.339C174.377 17.2653 174.102 17.1618 173.844 17.0243C173.546 16.8749 173.326 16.7275 173.178 16.5781C173.03 16.7275 172.791 16.8729 172.465 17.0243C171.813 17.3251 171.043 17.4805 170.152 17.4805H164.766V14.156H170.372C170.835 14.156 171.159 14.0783 171.347 13.915C171.512 13.7736 171.599 13.5465 171.599 13.2358V10.479H174.748V13.2358Z" fill="#8F11A6"/>
<path d="M164.766 17.4809H163.896C163.185 17.4809 162.546 17.3474 161.979 17.0884C161.548 16.8912 161.169 16.6243 160.851 16.2857C160.53 15.9471 160.276 15.5547 160.088 15.1005C159.836 14.507 159.713 13.8337 159.713 13.0828V2.87238H162.866V13.0828C162.866 13.4951 162.938 13.7819 163.086 13.9353C163.228 14.0827 163.499 14.1564 163.896 14.1564H164.766V17.4809Z" stroke="#8F11A6" stroke-width="0.61" stroke-miterlimit="2.61313"/>
<path d="M164.766 17.4809H163.896C163.185 17.4809 162.546 17.3474 161.979 17.0884C161.548 16.8912 161.169 16.6243 160.851 16.2857C160.53 15.9471 160.276 15.5547 160.088 15.1005C159.836 14.507 159.713 13.8337 159.713 13.0828V2.87238H162.866V13.0828C162.866 13.4951 162.938 13.7819 163.086 13.9353C163.228 14.0827 163.499 14.1564 163.896 14.1564H164.766V17.4809Z" fill="#8F11A6"/>
<path d="M154.451 22.9083C153.964 22.9083 153.546 22.729 153.203 22.3665C152.86 22.006 152.688 21.5678 152.688 21.0539C152.688 20.5499 152.86 20.1157 153.203 19.7551C153.546 19.3906 153.964 19.2114 154.451 19.2114C154.94 19.2114 155.357 19.3906 155.7 19.7551C156.045 20.1157 156.216 20.5499 156.216 21.0539C156.216 21.5678 156.045 22.006 155.7 22.3665C155.357 22.729 154.94 22.9083 154.451 22.9083Z" stroke="#8F11A6" stroke-width="0.61" stroke-miterlimit="2.61313"/>
<path d="M154.451 22.9083C153.964 22.9083 153.546 22.729 153.203 22.3665C152.86 22.006 152.688 21.5678 152.688 21.0539C152.688 20.5499 152.86 20.1157 153.203 19.7551C153.546 19.3906 153.964 19.2114 154.451 19.2114C154.94 19.2114 155.357 19.3906 155.7 19.7551C156.045 20.1157 156.216 20.5499 156.216 21.0539C156.216 21.5678 156.045 22.006 155.7 22.3665C155.357 22.729 154.94 22.9083 154.451 22.9083Z" fill="#8F11A6"/>
<path d="M157.938 12.3337C157.991 12.6603 158.016 12.9691 158.016 13.2659C158.016 14.1861 157.766 15.0068 157.263 15.7398C156.459 16.9011 155.151 17.4807 153.338 17.4807H151.277V14.1562H153.27C153.85 14.1562 154.258 14.0786 154.497 13.9152C154.741 13.7599 154.863 13.5149 154.863 13.1763C154.863 13.0767 154.851 12.9651 154.823 12.8416C154.758 12.497 154.696 12.1484 154.631 11.7879C154.607 11.6544 154.578 11.509 154.554 11.3517L154.516 11.1585L154.487 10.9652C154.391 10.4135 154.317 10.0191 154.264 9.78208L157.284 8.82001C157.475 9.77014 157.693 10.9433 157.938 12.3337Z" stroke="#8F11A6" stroke-width="0.61" stroke-miterlimit="2.61313"/>
<path d="M157.938 12.3337C157.991 12.6603 158.016 12.9691 158.016 13.2659C158.016 14.1861 157.766 15.0068 157.263 15.7398C156.459 16.9011 155.151 17.4807 153.338 17.4807H151.277V14.1562H153.27C153.85 14.1562 154.258 14.0786 154.497 13.9152C154.741 13.7599 154.863 13.5149 154.863 13.1763C154.863 13.0767 154.851 12.9651 154.823 12.8416C154.758 12.497 154.696 12.1484 154.631 11.7879C154.607 11.6544 154.578 11.509 154.554 11.3517L154.516 11.1585L154.487 10.9652C154.391 10.4135 154.317 10.0191 154.264 9.78208L157.284 8.82001C157.475 9.77014 157.693 10.9433 157.938 12.3337Z" fill="#8F11A6"/>
<path d="M146.916 6.89581C147.591 6.89581 148.215 7.07707 148.787 7.44159C149.352 7.80212 149.789 8.27617 150.088 8.87174C150.346 9.37569 150.477 9.90754 150.477 10.4613C150.477 10.527 150.473 10.5908 150.467 10.6545C150.428 11.274 150.236 11.8536 149.897 12.3974C149.692 12.7121 149.402 13.0348 149.026 13.3575C148.882 13.4929 148.71 13.6324 148.518 13.7738C148.391 13.8754 148.219 14.0048 148.006 14.1562H151.757V17.4807H148.249C147.72 17.4807 147.193 17.3671 146.666 17.1361C146.294 16.9767 145.888 16.7357 145.452 16.419C145.316 16.3214 145.134 16.1859 144.901 16.0027C143.865 16.5644 143.147 17.0504 142.741 17.4588C142.275 17.9448 142.038 18.5105 142.038 19.1538C142.038 19.8371 142.275 20.4306 142.741 20.9366C143.204 21.4346 143.755 21.6855 144.392 21.6855H150.109V25H144.392C143.625 25 142.908 24.8427 142.231 24.5319C141.567 24.2272 140.987 23.8069 140.485 23.2651C139.982 22.7333 139.59 22.1138 139.307 21.4107C139.021 20.6677 138.877 19.9147 138.877 19.1538C138.877 17.4368 139.523 15.9887 140.824 14.8076C141.249 14.4211 141.74 14.0526 142.299 13.7041L140.709 12.2739L140.149 11.0071C140.149 10.6027 140.191 10.2123 140.284 9.83384C140.399 9.33985 140.583 8.89368 140.843 8.4953C141.164 7.98737 141.584 7.59695 142.104 7.31809C142.639 7.03524 143.253 6.89581 143.947 6.89581H146.916ZM145.325 12.232C145.86 11.9173 146.385 11.5608 146.907 11.1704C147.377 10.8099 147.648 10.5768 147.726 10.4613C147.726 10.4454 147.72 10.4195 147.697 10.3796C147.673 10.3318 147.642 10.29 147.602 10.2501C147.5 10.1266 147.394 10.0669 147.284 10.0669H143.706C143.539 10.0669 143.408 10.1087 143.321 10.1983C143.289 10.2302 143.264 10.2641 143.243 10.2979L143.215 10.3597V10.3676C143.388 10.531 143.742 10.8477 144.275 11.3118L144.573 11.5648C144.688 11.6604 144.785 11.7421 144.863 11.8177C145.064 11.995 145.215 12.1325 145.325 12.232Z" stroke="#8F11A6" stroke-width="0.61" stroke-miterlimit="2.61313"/>
<path d="M146.916 6.89581C147.591 6.89581 148.215 7.07707 148.787 7.44159C149.352 7.80212 149.789 8.27617 150.088 8.87174C150.346 9.37569 150.477 9.90754 150.477 10.4613C150.477 10.527 150.473 10.5908 150.467 10.6545C150.428 11.274 150.236 11.8536 149.897 12.3974C149.692 12.7121 149.402 13.0348 149.026 13.3575C148.882 13.4929 148.71 13.6324 148.518 13.7738C148.391 13.8754 148.219 14.0048 148.006 14.1562H151.757V17.4807H148.249C147.72 17.4807 147.193 17.3671 146.666 17.1361C146.294 16.9767 145.888 16.7357 145.452 16.419C145.316 16.3214 145.134 16.1859 144.901 16.0027C143.865 16.5644 143.147 17.0504 142.741 17.4588C142.275 17.9448 142.038 18.5105 142.038 19.1538C142.038 19.8371 142.275 20.4306 142.741 20.9366C143.204 21.4346 143.755 21.6855 144.392 21.6855H150.109V25H144.392C143.625 25 142.908 24.8427 142.231 24.5319C141.567 24.2272 140.987 23.8069 140.485 23.2651C139.982 22.7333 139.59 22.1138 139.307 21.4107C139.021 20.6677 138.877 19.9147 138.877 19.1538C138.877 17.4368 139.523 15.9887 140.824 14.8076C141.249 14.4211 141.74 14.0526 142.299 13.7041L140.709 12.2739L140.149 11.0071C140.149 10.6027 140.191 10.2123 140.284 9.83384C140.399 9.33985 140.583 8.89368 140.843 8.4953C141.164 7.98737 141.584 7.59695 142.104 7.31809C142.639 7.03524 143.253 6.89581 143.947 6.89581H146.916ZM145.325 12.232C145.86 11.9173 146.385 11.5608 146.907 11.1704C147.377 10.8099 147.648 10.5768 147.726 10.4613C147.726 10.4454 147.72 10.4195 147.697 10.3796C147.673 10.3318 147.642 10.29 147.602 10.2501C147.5 10.1266 147.394 10.0669 147.284 10.0669H143.706C143.539 10.0669 143.408 10.1087 143.321 10.1983C143.289 10.2302 143.264 10.2641 143.243 10.2979L143.215 10.3597V10.3676C143.388 10.531 143.742 10.8477 144.275 11.3118L144.573 11.5648C144.688 11.6604 144.785 11.7421 144.863 11.8177C145.064 11.995 145.215 12.1325 145.325 12.232Z" fill="#8F11A6"/>
<path d="M132.211 17.4809H129.051V2.87238H132.211V17.4809Z" stroke="#8F11A6" stroke-width="0.61" stroke-miterlimit="2.61313"/>
<path d="M132.211 17.4809H129.051V2.87238H132.211V17.4809Z" fill="#8F11A6"/>
<path d="M122.037 6.77226C121.549 6.77226 121.132 6.59499 120.789 6.23047C120.446 5.86994 120.271 5.43171 120.271 4.9198C120.271 4.40589 120.446 3.96769 120.789 3.60715C121.132 3.24662 121.549 3.06537 122.037 3.06537C122.524 3.06537 122.941 3.24662 123.284 3.60715C123.631 3.96769 123.8 4.40589 123.8 4.9198C123.8 5.43171 123.631 5.86994 123.284 6.23047C122.941 6.59499 122.524 6.77226 122.037 6.77226Z" stroke="#8F11A6" stroke-width="0.61" stroke-miterlimit="2.61313"/>
<path d="M122.037 6.77226C121.549 6.77226 121.132 6.59499 120.789 6.23047C120.446 5.86994 120.271 5.43171 120.271 4.9198C120.271 4.40589 120.446 3.96769 120.789 3.60715C121.132 3.24662 121.549 3.06537 122.037 3.06537C122.524 3.06537 122.941 3.24662 123.284 3.60715C123.631 3.96769 123.8 4.40589 123.8 4.9198C123.8 5.43171 123.631 5.86994 123.284 6.23047C122.941 6.59499 122.524 6.77226 122.037 6.77226Z" fill="#8F11A6"/>
<path d="M125.46 12.3337C125.513 12.6603 125.537 12.9691 125.537 13.2659C125.537 14.1861 125.287 15.0068 124.785 15.7398C123.983 16.9011 122.674 17.4807 120.86 17.4807H118.799V14.1562H120.793C121.372 14.1562 121.779 14.0786 122.02 13.9152C122.263 13.7599 122.384 13.5149 122.384 13.1763C122.384 13.0767 122.373 12.9651 122.344 12.8416C122.282 12.497 122.217 12.1484 122.153 11.7879C122.128 11.6544 122.1 11.509 122.075 11.3517L122.037 11.1585L122.009 10.9652C121.914 10.4135 121.84 10.0191 121.787 9.78208L124.805 8.82001C124.997 9.77014 125.215 10.9433 125.46 12.3337Z" stroke="#8F11A6" stroke-width="0.61" stroke-miterlimit="2.61313"/>
<path d="M125.46 12.3337C125.513 12.6603 125.537 12.9691 125.537 13.2659C125.537 14.1861 125.287 15.0068 124.785 15.7398C123.983 16.9011 122.674 17.4807 120.86 17.4807H118.799V14.1562H120.793C121.372 14.1562 121.779 14.0786 122.02 13.9152C122.263 13.7599 122.384 13.5149 122.384 13.1763C122.384 13.0767 122.373 12.9651 122.344 12.8416C122.282 12.497 122.217 12.1484 122.153 11.7879C122.128 11.6544 122.1 11.509 122.075 11.3517L122.037 11.1585L122.009 10.9652C121.914 10.4135 121.84 10.0191 121.787 9.78208L124.805 8.82001C124.997 9.77014 125.215 10.9433 125.46 12.3337Z" fill="#8F11A6"/>
<path d="M107.351 14.1561C107.679 14.1561 107.923 14.0864 108.082 13.945C108.3 13.7558 108.41 13.4211 108.41 12.9431V10.4791H111.575V12.9431C111.575 13.3813 111.632 13.6781 111.747 13.8334C111.897 14.0486 112.197 14.1561 112.654 14.1561C112.982 14.1561 113.226 14.0864 113.386 13.945C113.598 13.7558 113.704 13.4211 113.704 12.9431V10.4791H116.869V12.9431C116.869 13.3614 116.942 13.6582 117.09 13.8334C117.265 14.0486 117.581 14.1561 118.046 14.1561H119.278V17.4806H118.046C116.719 17.4806 115.797 17.1738 115.276 16.5603C114.514 17.1738 113.636 17.4806 112.654 17.4806C111.395 17.4806 110.504 17.1738 109.984 16.5603C109.216 17.1738 108.357 17.4806 107.4 17.4806C106.382 17.4806 105.492 17.1738 104.726 16.5603C104.207 17.1738 103.284 17.4806 101.962 17.4806H100.572V14.1561H101.962C102.421 14.1561 102.739 14.0486 102.916 13.8334C103.062 13.6582 103.136 13.3614 103.136 12.9431V10.4791H106.3V12.9431C106.3 13.4211 106.41 13.7558 106.628 13.945C106.78 14.0864 107.021 14.1561 107.351 14.1561Z" stroke="#8F11A6" stroke-width="0.61" stroke-miterlimit="2.61313"/>
<path d="M107.351 14.1561C107.679 14.1561 107.923 14.0864 108.082 13.945C108.3 13.7558 108.41 13.4211 108.41 12.9431V10.4791H111.575V12.9431C111.575 13.3813 111.632 13.6781 111.747 13.8334C111.897 14.0486 112.197 14.1561 112.654 14.1561C112.982 14.1561 113.226 14.0864 113.386 13.945C113.598 13.7558 113.704 13.4211 113.704 12.9431V10.4791H116.869V12.9431C116.869 13.3614 116.942 13.6582 117.09 13.8334C117.265 14.0486 117.581 14.1561 118.046 14.1561H119.278V17.4806H118.046C116.719 17.4806 115.797 17.1738 115.276 16.5603C114.514 17.1738 113.636 17.4806 112.654 17.4806C111.395 17.4806 110.504 17.1738 109.984 16.5603C109.216 17.1738 108.357 17.4806 107.4 17.4806C106.382 17.4806 105.492 17.1738 104.726 16.5603C104.207 17.1738 103.284 17.4806 101.962 17.4806H100.572V14.1561H101.962C102.421 14.1561 102.739 14.0486 102.916 13.8334C103.062 13.6582 103.136 13.3614 103.136 12.9431V10.4791H106.3V12.9431C106.3 13.4211 106.41 13.7558 106.628 13.945C106.78 14.0864 107.021 14.1561 107.351 14.1561Z" fill="#8F11A6"/>
<path d="M101.072 17.4809H100.204C99.4931 17.4809 98.8522 17.3474 98.2872 17.0884C97.8568 16.8912 97.4776 16.6243 97.1591 16.2857C96.8368 15.9471 96.5827 15.5547 96.395 15.1005C96.1447 14.507 96.0215 13.8337 96.0215 13.0828V2.87238H99.1746V13.0828C99.1746 13.4951 99.2447 13.7819 99.3945 13.9353C99.5348 14.0827 99.8078 14.1564 100.204 14.1564H101.072V17.4809Z" stroke="#8F11A6" stroke-width="0.61" stroke-miterlimit="2.61313"/>
<path d="M101.072 17.4809H100.204C99.4931 17.4809 98.8522 17.3474 98.2872 17.0884C97.8568 16.8912 97.4776 16.6243 97.1591 16.2857C96.8368 15.9471 96.5827 15.5547 96.395 15.1005C96.1447 14.507 96.0215 13.8337 96.0215 13.0828V2.87238H99.1746V13.0828C99.1746 13.4951 99.2447 13.7819 99.3945 13.9353C99.5348 14.0827 99.8078 14.1564 100.204 14.1564H101.072V17.4809Z" fill="#8F11A6"/>
<path d="M89.6227 6.77214C89.1354 6.77214 88.7183 6.59486 88.3751 6.23035C88.0319 5.86982 87.8594 5.43159 87.8594 4.91968C87.8594 4.40577 88.0319 3.96756 88.3751 3.60703C88.7183 3.2465 89.1354 3.06525 89.6227 3.06525C90.1118 3.06525 90.529 3.2465 90.8721 3.60703C91.2172 3.96756 91.3879 4.40577 91.3879 4.91968C91.3879 5.43159 91.2172 5.86982 90.8721 6.23035C90.529 6.59486 90.1118 6.77214 89.6227 6.77214Z" stroke="#8F11A6" stroke-width="0.61" stroke-miterlimit="2.61313"/>
<path d="M89.6227 6.77214C89.1354 6.77214 88.7183 6.59486 88.3751 6.23035C88.0319 5.86982 87.8594 5.43159 87.8594 4.91968C87.8594 4.40577 88.0319 3.96756 88.3751 3.60703C88.7183 3.2465 89.1354 3.06525 89.6227 3.06525C90.1118 3.06525 90.529 3.2465 90.8721 3.60703C91.2172 3.96756 91.3879 4.40577 91.3879 4.91968C91.3879 5.43159 91.2172 5.86982 90.8721 6.23035C90.529 6.59486 90.1118 6.77214 89.6227 6.77214Z" fill="#8F11A6"/>
<path d="M93.0474 12.3338C93.1005 12.6605 93.1252 12.9692 93.1252 13.266C93.1252 14.1862 92.8749 15.0069 92.3725 15.7399C91.5704 16.9012 90.2622 17.4808 88.4477 17.4808H86.3867V14.1564H88.3813C88.9615 14.1564 89.3673 14.0787 89.6081 13.9154C89.8526 13.76 89.9721 13.515 89.9721 13.1764C89.9721 13.0768 89.9607 12.9652 89.9323 12.8417C89.8697 12.4971 89.8052 12.1485 89.7427 11.788C89.718 11.6546 89.6896 11.5092 89.6649 11.3518L89.6251 11.1586L89.5967 10.9654C89.5019 10.4136 89.4279 10.0192 89.3748 9.7822L92.3933 8.82013C92.5848 9.77026 92.8047 10.9435 93.0474 12.3338Z" stroke="#8F11A6" stroke-width="0.61" stroke-miterlimit="2.61313"/>
<path d="M93.0474 12.3338C93.1005 12.6605 93.1252 12.9692 93.1252 13.266C93.1252 14.1862 92.8749 15.0069 92.3725 15.7399C91.5704 16.9012 90.2622 17.4808 88.4477 17.4808H86.3867V14.1564H88.3813C88.9615 14.1564 89.3673 14.0787 89.6081 13.9154C89.8526 13.76 89.9721 13.515 89.9721 13.1764C89.9721 13.0768 89.9607 12.9652 89.9323 12.8417C89.8697 12.4971 89.8052 12.1485 89.7427 11.788C89.718 11.6546 89.6896 11.5092 89.6649 11.3518L89.6251 11.1586L89.5967 10.9654C89.5019 10.4136 89.4279 10.0192 89.3748 9.7822L92.3933 8.82013C92.5848 9.77026 92.8047 10.9435 93.0474 12.3338Z" fill="#8F11A6"/>
<path d="M74.1305 11.8695C73.3835 13.5187 73.0099 14.9668 73.0099 16.2157C73.0099 16.3372 73.0118 16.4627 73.0194 16.6002C73.0346 16.7675 73.0554 16.9348 73.0877 17.0942C73.1578 17.5224 73.2811 17.9009 73.4555 18.2316C73.9504 19.1638 74.777 19.6278 75.9393 19.6278H78.6032C79.9323 19.6278 80.8689 19.4426 81.4093 19.0701C81.6785 18.8809 81.817 18.6956 81.8245 18.5144C80.9107 17.9527 79.6536 17.5145 78.0552 17.1997V14.1561H86.8661V17.4806H84.5434C84.6837 17.7196 84.7539 18.0523 84.7539 18.4845C84.7539 18.6399 84.7482 18.7972 84.7368 18.9486C84.7084 19.1677 84.6705 19.3749 84.6212 19.5761C84.479 20.1378 84.2344 20.6357 83.8893 21.066C82.8768 22.3169 81.1173 22.9423 78.6032 22.9423H75.9393C73.8006 22.9423 72.1852 22.1536 71.1006 20.58C70.2588 19.3569 69.8379 17.9049 69.8379 16.2157C69.8379 14.9708 70.0787 13.6323 70.5584 12.2021C70.8068 11.487 71.0476 10.8954 71.2827 10.4313L74.1305 11.8695Z" stroke="#8F11A6" stroke-width="0.61" stroke-miterlimit="2.61313"/>
<path d="M74.1305 11.8695C73.3835 13.5187 73.0099 14.9668 73.0099 16.2157C73.0099 16.3372 73.0118 16.4627 73.0194 16.6002C73.0346 16.7675 73.0554 16.9348 73.0877 17.0942C73.1578 17.5224 73.2811 17.9009 73.4555 18.2316C73.9504 19.1638 74.777 19.6278 75.9393 19.6278H78.6032C79.9323 19.6278 80.8689 19.4426 81.4093 19.0701C81.6785 18.8809 81.817 18.6956 81.8245 18.5144C80.9107 17.9527 79.6536 17.5145 78.0553 17.1997V14.1561H86.8661V17.4806H84.5434C84.6837 17.7196 84.7539 18.0523 84.7539 18.4845C84.7539 18.6399 84.7482 18.7972 84.7368 18.9486C84.7084 19.1677 84.6705 19.3749 84.6212 19.5761C84.479 20.1378 84.2344 20.6357 83.8893 21.066C82.8768 22.3169 81.1173 22.9423 78.6032 22.9423H75.9393C73.8006 22.9423 72.1852 22.1536 71.1006 20.58C70.2588 19.3569 69.8379 17.9049 69.8379 16.2157C69.8379 14.9708 70.0787 13.6323 70.5584 12.2021C70.8068 11.487 71.0476 10.8954 71.2827 10.4313L74.1305 11.8695Z" fill="#8F11A6"/>
<path d="M64.8429 4.02765L58.5272 7.04735C59.079 7.61902 59.8564 8.46356 60.8499 9.56905C61.7069 10.5351 62.3079 11.4335 62.6549 12.2621C62.8938 12.8457 63.0113 13.4034 63.0113 13.9353V14.0169C63.0037 14.4512 62.926 14.8515 62.7705 15.224C62.6302 15.5726 62.4274 15.8913 62.1619 16.1741C61.8225 16.5387 61.394 16.8335 60.8726 17.0466C60.1521 17.3414 59.2743 17.4808 58.2371 17.4808H50.8066V14.1564H58.2371C59.2345 14.1564 59.8298 14.1006 60.0232 13.9871C60.0099 13.9273 59.9777 13.8377 59.9284 13.7221C59.8601 13.5967 59.7767 13.4473 59.6668 13.276C59.3899 12.8378 59.0164 12.3597 58.55 11.8398C57.4275 10.5869 56.4587 9.54715 55.6358 8.70857C55.4936 8.56715 55.359 8.4337 55.2282 8.31418C55.1334 8.21061 55.0424 8.12097 54.9495 8.0393C54.9172 8.00544 54.8869 7.97555 54.8547 7.94965L54.7864 7.87596L54.758 7.85804L54.7485 7.83812L54.7295 7.82815L55.0954 5.05347L63.5346 1L64.8429 4.02765Z" stroke="#8F11A6" stroke-width="0.61" stroke-miterlimit="2.61313"/>
<path d="M64.8429 4.02765L58.5272 7.04735C59.079 7.61902 59.8564 8.46356 60.8499 9.56905C61.7069 10.5351 62.3079 11.4335 62.6549 12.2621C62.8938 12.8457 63.0113 13.4034 63.0113 13.9353V14.0169C63.0037 14.4512 62.926 14.8515 62.7705 15.224C62.6302 15.5726 62.4274 15.8913 62.1619 16.1741C61.8225 16.5387 61.394 16.8335 60.8726 17.0466C60.1521 17.3414 59.2743 17.4808 58.2371 17.4808H50.8066V14.1564H58.2371C59.2345 14.1564 59.8298 14.1006 60.0232 13.9871C60.0099 13.9273 59.9777 13.8377 59.9284 13.7221C59.8601 13.5967 59.7767 13.4473 59.6668 13.276C59.3899 12.8378 59.0164 12.3597 58.55 11.8398C57.4275 10.5869 56.4587 9.54715 55.6358 8.70857C55.4936 8.56715 55.359 8.4337 55.2282 8.31418C55.1334 8.21061 55.0424 8.12097 54.9495 8.0393C54.9172 8.00544 54.8869 7.97555 54.8547 7.94965L54.7864 7.87596L54.758 7.85804L54.7485 7.83812L54.7295 7.82815L55.0954 5.05347L63.5346 1L64.8429 4.02765Z" fill="#8F11A6"/>
<path d="M51.2404 17.4809H50.3701C49.6591 17.4809 49.0202 17.3474 48.4532 17.0884C48.0229 16.8912 47.6436 16.6243 47.3251 16.2857C47.0047 15.9471 46.7506 15.5547 46.5629 15.1005C46.3107 14.507 46.1875 13.8337 46.1875 13.0828V2.87238H49.3406V13.0828C49.3406 13.4951 49.4126 13.7819 49.5605 13.9353C49.7027 14.0827 49.9739 14.1564 50.3701 14.1564H51.2404V17.4809Z" stroke="#8F11A6" stroke-width="0.61" stroke-miterlimit="2.61313"/>
<path d="M51.2404 17.4809H50.3701C49.6591 17.4809 49.0202 17.3474 48.4532 17.0884C48.0229 16.8912 47.6436 16.6243 47.3251 16.2857C47.0047 15.9471 46.7506 15.5547 46.5629 15.1005C46.3107 14.507 46.1875 13.8337 46.1875 13.0828V2.87238H49.3406V13.0828C49.3406 13.4951 49.4126 13.7819 49.5605 13.9353C49.7027 14.0827 49.9739 14.1564 50.3701 14.1564H51.2404V17.4809Z" fill="#8F11A6"/>
<path d="M44.1265 15.9388C44.1265 18.0502 43.6203 19.7034 42.6097 20.9065C41.4853 22.251 39.8415 22.9183 37.6725 22.9183H36.7188V19.5978H37.6725C38.8575 19.5978 39.6993 19.317 40.2017 18.7592C40.7061 18.1975 40.962 17.2574 40.962 15.9388V10.479H44.1265V15.9388Z" stroke="#8F11A6" stroke-width="0.61" stroke-miterlimit="2.61313"/>
<path d="M44.1265 15.9388C44.1265 18.0502 43.6203 19.7034 42.6097 20.9065C41.4853 22.251 39.8415 22.9183 37.6725 22.9183H36.7188V19.5978H37.6725C38.8575 19.5978 39.6993 19.317 40.2017 18.7592C40.7061 18.1975 40.962 17.2574 40.962 15.9388V10.479H44.1265V15.9388Z" fill="#8F11A6"/>
<path d="M31.1246 22.8408C30.6373 22.8408 30.2202 22.6635 29.877 22.299C29.5338 21.9385 29.3594 21.5003 29.3594 20.9884C29.3594 20.4824 29.5338 20.0482 29.877 19.6877C30.2202 19.3231 30.6373 19.1459 31.1246 19.1459C31.6118 19.1459 32.029 19.3231 32.3722 19.6877C32.7191 20.0482 32.8879 20.4824 32.8879 20.9884C32.8879 21.5003 32.7191 21.9385 32.3722 22.299C32.029 22.6635 31.6118 22.8408 31.1246 22.8408Z" stroke="#8F11A6" stroke-width="0.61" stroke-miterlimit="2.61313"/>
<path d="M31.1246 22.8408C30.6373 22.8408 30.2202 22.6635 29.877 22.299C29.5338 21.9385 29.3594 21.5003 29.3594 20.9884C29.3594 20.4824 29.5338 20.0482 29.877 19.6877C30.2202 19.3231 30.6373 19.1459 31.1246 19.1459C31.6118 19.1459 32.029 19.3231 32.3722 19.6877C32.7191 20.0482 32.8879 20.4824 32.8879 20.9884C32.8879 21.5003 32.7191 21.9385 32.3722 22.299C32.029 22.6635 31.6118 22.8408 31.1246 22.8408Z" fill="#8F11A6"/>
<path d="M29.9196 8.0391C30.4467 8.12076 31.7587 8.46534 33.8557 9.07088C34.5876 9.28401 35.3612 9.5091 36.1784 9.75211C36.8211 9.94931 37.316 10.1007 37.6629 10.2083L38.154 13.1363C35.6683 15.0525 33.7989 16.2377 32.5437 16.6898C31.0648 17.2177 28.3497 17.4806 24.3965 17.4806V14.1562C26.9466 14.1562 28.7915 14.0645 29.931 13.8753C31.3056 13.6442 32.5323 13.1682 33.6149 12.4451L32.9115 12.244L32.2346 12.0388C31.681 11.8715 31.2677 11.75 30.9908 11.6763C30.1433 11.4333 29.6086 11.3117 29.3887 11.3117C29.2162 11.3117 29.0531 11.4153 28.8976 11.6265C28.7384 11.8277 28.6151 12.1065 28.5336 12.4551L25.4753 11.6165C25.773 10.4134 26.3209 9.4832 27.123 8.82987C27.8055 8.27015 28.5374 7.9873 29.3223 7.9873C29.5157 7.9873 29.7148 8.00523 29.9196 8.0391Z" stroke="#8F11A6" stroke-width="0.61" stroke-miterlimit="2.61313"/>
<path d="M29.9196 8.0391C30.4467 8.12076 31.7587 8.46534 33.8557 9.07088C34.5876 9.28401 35.3612 9.5091 36.1784 9.75211C36.8211 9.94931 37.316 10.1007 37.6629 10.2083L38.154 13.1363C35.6683 15.0525 33.7989 16.2377 32.5437 16.6898C31.0648 17.2177 28.3497 17.4806 24.3965 17.4806V14.1562C26.9466 14.1562 28.7915 14.0645 29.931 13.8753C31.3056 13.6442 32.5323 13.1682 33.6149 12.4451L32.9115 12.244L32.2346 12.0388C31.681 11.8715 31.2677 11.75 30.9908 11.6763C30.1433 11.4333 29.6086 11.3117 29.3887 11.3117C29.2162 11.3117 29.0531 11.4153 28.8976 11.6265C28.7384 11.8277 28.6151 12.1065 28.5336 12.4551L25.4753 11.6165C25.773 10.4134 26.3209 9.4832 27.123 8.82987C27.8055 8.27015 28.5374 7.9873 29.3223 7.9873C29.5157 7.9873 29.7148 8.00523 29.9196 8.0391Z" fill="#8F11A6"/>
<path d="M19.3547 7.78619C20.7729 7.78619 21.903 8.328 22.7486 9.41756C23.5259 10.4095 23.9165 11.6465 23.9165 13.1244V14.1682H24.8702V17.4807H23.8843C23.725 19.5801 22.7486 21.084 20.9531 21.9903C20.2534 22.3409 19.4324 22.5918 18.4958 22.7492C17.7564 22.8787 16.9543 22.9424 16.0955 22.9424V19.618C17.6995 19.618 18.9091 19.3829 19.7187 18.9089C20.3767 18.5324 20.7009 18.0524 20.7009 17.4807H19.3547C18.2095 17.4807 17.2368 17.158 16.431 16.5087C15.4698 15.7239 14.9844 14.5984 14.9844 13.1244C14.9844 11.7281 15.3067 10.5429 15.9495 9.56892C16.7268 8.38176 17.8625 7.78619 19.3547 7.78619ZM20.7502 14.1682V13.1244C20.7502 12.503 20.6269 12.009 20.3767 11.6465C20.1264 11.2899 19.7832 11.1067 19.3547 11.1067C18.9167 11.1067 18.5697 11.2899 18.3119 11.6465C18.0749 11.9771 17.9535 12.4074 17.9535 12.9312C17.9535 12.995 17.9573 13.0567 17.9649 13.1244C17.982 13.485 18.1375 13.7519 18.4276 13.9351C18.6721 14.0905 18.9793 14.1682 19.3547 14.1682H20.7502Z" stroke="#8F11A6" stroke-width="0.61" stroke-miterlimit="2.61313"/>
<path d="M19.3547 7.78619C20.7729 7.78619 21.903 8.328 22.7486 9.41756C23.5259 10.4095 23.9165 11.6465 23.9165 13.1244V14.1682H24.8702V17.4807H23.8843C23.725 19.5801 22.7486 21.084 20.9531 21.9903C20.2534 22.3409 19.4324 22.5918 18.4958 22.7492C17.7564 22.8787 16.9543 22.9424 16.0955 22.9424V19.618C17.6995 19.618 18.9091 19.3829 19.7187 18.9089C20.3767 18.5324 20.7009 18.0524 20.7009 17.4807H19.3547C18.2095 17.4807 17.2368 17.158 16.431 16.5087C15.4698 15.7239 14.9844 14.5984 14.9844 13.1244C14.9844 11.7281 15.3067 10.5429 15.9495 9.56892C16.7268 8.38176 17.8625 7.78619 19.3547 7.78619ZM20.7502 14.1682V13.1244C20.7502 12.503 20.6269 12.009 20.3767 11.6465C20.1264 11.2899 19.7832 11.1067 19.3547 11.1067C18.9167 11.1067 18.5697 11.2899 18.3119 11.6465C18.0749 11.9771 17.9535 12.4074 17.9535 12.9312C17.9535 12.995 17.9573 13.0567 17.9649 13.1244C17.982 13.485 18.1375 13.7519 18.4276 13.9351C18.6721 14.0905 18.9793 14.1682 19.3547 14.1682H20.7502Z" fill="#8F11A6"/>
<path d="M7.80481 10.0907H11.3371V13.2299H7.80481V17.4866H4.54935V13.2299H1V10.0907H4.54935V5.94562H7.80481V10.0907Z" stroke="#8F11A6" stroke-width="0.61" stroke-miterlimit="2.61313"/>
<path d="M7.80481 10.0907H11.3371V13.2299H7.80481V17.4866H4.54935V13.2299H1V10.0907H4.54935V5.94562H7.80481V10.0907Z" fill="#8F11A6"/>
</svg>
