<svg width="132" height="32" viewBox="0 0 132 32" fill="none" xmlns="http://www.w3.org/2000/svg">
<g id="Group 228">
<g id="Group">
<g id="Group_2">
<path id="Vector" d="M132.002 28.2405H130.422V20.9363H132.002V28.2405Z" fill="#595759"/>
<path id="_1" d="M132.002 28.2405H130.422V20.9363H132.002V28.2405Z" fill="#595759"/>
</g>
<g id="Group_3">
<path id="Vector_2" d="M125.192 26.4723C125.313 26.3777 125.376 26.2103 125.376 25.9713V24.7394H126.956V25.9713C126.956 26.1805 126.993 26.3289 127.067 26.4165C127.154 26.5241 127.313 26.5778 127.545 26.5778C127.911 26.5778 128.094 26.4464 128.094 26.1785C128.094 26.1217 128.085 26.056 128.07 25.9853C127.886 25.1925 127.767 24.6617 127.712 24.3908L129.247 24.0063C129.339 24.4107 129.459 24.9415 129.608 25.6008C129.64 25.7462 129.655 25.8986 129.655 26.056C129.655 26.1864 129.644 26.3179 129.622 26.4573C129.567 26.7711 129.459 27.0579 129.299 27.3138C128.916 27.9323 128.36 28.2401 127.625 28.2401C127.295 28.2401 126.984 28.1883 126.696 28.0827C126.5 28.006 126.321 27.9044 126.161 27.7799C125.778 28.0867 125.34 28.2401 124.845 28.2401C124.323 28.2401 123.873 28.0867 123.489 27.7799C123.229 28.0867 122.768 28.2401 122.105 28.2401H121.18V26.5778H122.105C122.336 26.5778 122.496 26.5241 122.582 26.4165C122.656 26.3289 122.694 26.1805 122.694 25.9713V24.7394H124.276V25.9713C124.276 26.2103 124.33 26.3777 124.438 26.4723C124.516 26.543 124.636 26.5778 124.801 26.5778C124.971 26.5778 125.102 26.543 125.192 26.4723Z" fill="#595759"/>
<path id="_1_0" d="M125.192 26.4723C125.313 26.3777 125.376 26.2103 125.376 25.9713V24.7394H126.956V25.9713C126.956 26.1805 126.993 26.3289 127.067 26.4165C127.154 26.5241 127.313 26.5778 127.545 26.5778C127.911 26.5778 128.094 26.4464 128.094 26.1785C128.094 26.1217 128.085 26.056 128.07 25.9853C127.886 25.1925 127.767 24.6617 127.712 24.3908L129.247 24.0063C129.339 24.4107 129.459 24.9415 129.608 25.6008C129.64 25.7462 129.655 25.8986 129.655 26.056C129.655 26.1864 129.644 26.3179 129.622 26.4573C129.567 26.7711 129.459 27.0579 129.299 27.3138C128.916 27.9323 128.36 28.2401 127.625 28.2401C127.295 28.2401 126.984 28.1883 126.696 28.0827C126.5 28.006 126.321 27.9044 126.161 27.7799C125.778 28.0867 125.34 28.2401 124.845 28.2401C124.323 28.2401 123.873 28.0867 123.489 27.7799C123.229 28.0867 122.768 28.2401 122.105 28.2401H121.18V26.5778H122.105C122.336 26.5778 122.496 26.5241 122.582 26.4165C122.656 26.3289 122.694 26.1805 122.694 25.9713V24.7394H124.276V25.9713C124.276 26.2103 124.33 26.3777 124.438 26.4723C124.516 26.543 124.636 26.5778 124.801 26.5778C124.971 26.5778 125.102 26.543 125.192 26.4723Z" fill="#595759"/>
</g>
<g id="Group_4">
<path id="Vector_3" d="M120.157 26.1179C120.157 26.2792 120.194 26.3947 120.269 26.4635C120.352 26.5391 120.501 26.578 120.713 26.578H121.416V28.2402H120.713C120.504 28.2402 120.306 28.2163 120.118 28.1695C119.972 28.1326 119.832 28.0809 119.705 28.0121C119.556 27.9374 119.445 27.8637 119.372 27.789C119.298 27.8637 119.178 27.9374 119.016 28.0121C118.691 28.1645 118.305 28.2402 117.857 28.2402H116.238V26.578H117.969C118.201 26.578 118.363 26.5392 118.456 26.4575C118.54 26.3868 118.581 26.2732 118.581 26.1179V24.7395H120.157V26.1179Z" fill="#595759"/>
<path id="_1_1" d="M120.157 26.1179C120.157 26.2792 120.194 26.3947 120.269 26.4635C120.352 26.5391 120.501 26.578 120.713 26.578H121.416V28.2402H120.713C120.504 28.2402 120.306 28.2163 120.118 28.1695C119.972 28.1326 119.832 28.0809 119.705 28.0121C119.556 27.9374 119.445 27.8637 119.372 27.789C119.298 27.8637 119.178 27.9374 119.016 28.0121C118.691 28.1645 118.305 28.2402 117.857 28.2402H116.238V26.578H117.969C118.201 26.578 118.363 26.5392 118.456 26.4575C118.54 26.3868 118.581 26.2732 118.581 26.1179V24.7395H120.157V26.1179Z" fill="#595759"/>
</g>
<g id="Group_5">
<path id="Vector_4" d="M119.862 23.4044C119.627 23.4044 119.427 23.3178 119.261 23.1425C119.096 22.9702 119.014 22.7601 119.014 22.5131C119.014 22.2701 119.096 22.0619 119.261 21.8876C119.427 21.7133 119.627 21.6277 119.862 21.6277C120.093 21.6277 120.292 21.7133 120.457 21.8876C120.622 22.0619 120.705 22.2701 120.705 22.5131C120.705 22.7601 120.622 22.9702 120.457 23.1425C120.292 23.3178 120.093 23.4044 119.862 23.4044Z" fill="#595759"/>
<path id="_1_2" d="M119.862 23.4044C119.627 23.4044 119.427 23.3178 119.261 23.1425C119.096 22.9702 119.014 22.7601 119.014 22.5131C119.014 22.2701 119.096 22.0619 119.261 21.8876C119.427 21.7133 119.627 21.6277 119.862 21.6277C120.093 21.6277 120.292 21.7133 120.457 21.8876C120.622 22.0619 120.705 22.2701 120.705 22.5131C120.705 22.7601 120.622 22.9702 120.457 23.1425C120.292 23.3178 120.093 23.4044 119.862 23.4044Z" fill="#595759"/>
</g>
<g id="Group_6">
<path id="Vector_5" d="M117.84 23.4042C117.608 23.4042 117.41 23.3175 117.244 23.1423C117.08 22.97 116.996 22.7598 116.996 22.5128C116.996 22.2698 117.08 22.0617 117.244 21.8874C117.41 21.7131 117.608 21.6274 117.84 21.6274C118.075 21.6274 118.274 21.7131 118.437 21.8874C118.601 22.0617 118.684 22.2698 118.684 22.5128C118.684 22.7598 118.601 22.97 118.437 23.1423C118.274 23.3175 118.075 23.4042 117.84 23.4042Z" fill="#595759"/>
<path id="_1_3" d="M117.84 23.4042C117.608 23.4042 117.41 23.3175 117.244 23.1423C117.08 22.97 116.996 22.7598 116.996 22.5128C116.996 22.2698 117.08 22.0617 117.244 21.8874C117.41 21.7131 117.608 21.6274 117.84 21.6274C118.075 21.6274 118.274 21.7131 118.437 21.8874C118.601 22.0617 118.684 22.2698 118.684 22.5128C118.684 22.7598 118.601 22.97 118.437 23.1423C118.274 23.3175 118.075 23.4042 117.84 23.4042Z" fill="#595759"/>
</g>
<g id="Group_7">
<path id="Vector_6" d="M112.582 23.3931C113.291 23.3931 113.856 23.664 114.279 24.2087C114.667 24.7047 114.862 25.3232 114.862 26.0622V26.584H116.469V28.2403H114.846C114.767 29.29 114.279 30.0419 113.381 30.4951C113.03 30.6704 112.621 30.7958 112.152 30.8745C111.782 30.9393 111.381 30.9711 110.951 30.9711V29.3089C111.754 29.3089 112.359 29.1914 112.764 28.9544C113.093 28.7661 113.255 28.5261 113.255 28.2403H112.582C112.009 28.2403 111.523 28.0789 111.12 27.7543C110.638 27.3619 110.396 26.7992 110.396 26.0622C110.396 25.364 110.558 24.7714 110.879 24.2844C111.268 23.6908 111.836 23.3931 112.582 23.3931ZM113.279 26.584V26.0622C113.279 25.7514 113.218 25.5044 113.093 25.3232C112.967 25.1449 112.795 25.0533 112.582 25.0533C112.363 25.0533 112.189 25.1449 112.06 25.3232C111.942 25.4885 111.881 25.7036 111.881 25.9656C111.881 25.9974 111.883 26.0283 111.887 26.0622C111.895 26.2424 111.973 26.3759 112.118 26.4675C112.24 26.5452 112.394 26.584 112.582 26.584H113.279Z" fill="#595759"/>
<path id="_1_4" d="M112.582 23.3931C113.291 23.3931 113.856 23.664 114.279 24.2087C114.667 24.7047 114.862 25.3232 114.862 26.0622V26.584H116.469V28.2403H114.846C114.767 29.29 114.279 30.0419 113.381 30.4951C113.03 30.6704 112.621 30.7958 112.152 30.8745C111.782 30.9393 111.381 30.9711 110.951 30.9711V29.3089C111.754 29.3089 112.359 29.1914 112.764 28.9544C113.093 28.7661 113.255 28.5261 113.255 28.2403H112.582C112.009 28.2403 111.523 28.0789 111.12 27.7543C110.638 27.3619 110.396 26.7992 110.396 26.0622C110.396 25.364 110.558 24.7714 110.879 24.2844C111.268 23.6908 111.836 23.3931 112.582 23.3931ZM113.279 26.584V26.0622C113.279 25.7514 113.218 25.5044 113.093 25.3232C112.967 25.1449 112.795 25.0533 112.582 25.0533C112.363 25.0533 112.189 25.1449 112.06 25.3232C111.942 25.4885 111.881 25.7036 111.881 25.9656C111.881 25.9974 111.883 26.0283 111.887 26.0622C111.895 26.2424 111.973 26.3759 112.118 26.4675C112.24 26.5452 112.394 26.584 112.582 26.584H113.279Z" fill="#595759"/>
</g>
<g id="Group_8">
<path id="Vector_7" d="M107.653 22.416L107.74 22.5465C107.76 22.5783 107.778 22.6022 107.793 22.6222C107.815 22.658 107.835 22.6909 107.855 22.7248C107.909 22.8064 107.968 22.8901 108.028 22.9767C108.185 23.2167 108.362 23.4827 108.555 23.7725C108.804 24.144 109.078 24.5523 109.373 24.9945C109.605 25.345 109.738 25.7106 109.769 26.094C109.777 26.1607 109.779 26.2274 109.779 26.2962C109.779 26.6139 109.71 26.9127 109.571 27.1965C109.401 27.5391 109.158 27.802 108.839 27.9912C108.518 28.1845 108.157 28.2811 107.76 28.2811C107.296 28.2811 106.693 28.1795 105.951 27.9773C105.728 27.9156 105.505 27.8488 105.28 27.7741C105.21 27.7542 105.143 27.7313 105.078 27.7094C105.057 27.7024 105.037 27.6965 105.021 27.6925L105.005 27.6835H104.996L105.501 26.1089C105.624 26.1508 105.767 26.1996 105.932 26.2494C106.135 26.3111 106.333 26.3669 106.529 26.4167C107.056 26.5521 107.466 26.6188 107.76 26.6188C107.968 26.6188 108.104 26.5581 108.168 26.4316C108.191 26.3848 108.203 26.335 108.203 26.2792C108.203 26.1826 108.162 26.0731 108.081 25.9506C107.786 25.5084 107.514 25.1 107.263 24.7246C107.071 24.4407 106.895 24.1768 106.732 23.9298C106.474 23.5494 106.347 23.3562 106.347 23.3522L107.653 22.416Z" fill="#595759"/>
<path id="_1_5" d="M107.653 22.416L107.74 22.5465C107.76 22.5783 107.778 22.6022 107.793 22.6222C107.815 22.658 107.835 22.6909 107.855 22.7248C107.909 22.8064 107.968 22.8901 108.028 22.9767C108.185 23.2167 108.362 23.4827 108.555 23.7725C108.804 24.144 109.078 24.5523 109.373 24.9945C109.605 25.345 109.738 25.7106 109.769 26.094C109.777 26.1607 109.779 26.2274 109.779 26.2962C109.779 26.6139 109.71 26.9127 109.571 27.1965C109.401 27.5391 109.158 27.802 108.839 27.9912C108.518 28.1845 108.157 28.2811 107.76 28.2811C107.296 28.2811 106.693 28.1795 105.951 27.9773C105.728 27.9156 105.505 27.8488 105.28 27.7741C105.21 27.7542 105.143 27.7313 105.078 27.7094C105.057 27.7024 105.037 27.6965 105.021 27.6925L105.005 27.6835H104.996L105.501 26.1089C105.624 26.1508 105.767 26.1996 105.932 26.2494C106.135 26.3111 106.333 26.3669 106.529 26.4167C107.056 26.5521 107.466 26.6188 107.76 26.6188C107.968 26.6188 108.104 26.5581 108.168 26.4316C108.191 26.3848 108.203 26.335 108.203 26.2792C108.203 26.1826 108.162 26.0731 108.081 25.9506C107.786 25.5084 107.514 25.1 107.263 24.7246C107.071 24.4407 106.895 24.1768 106.732 23.9298C106.474 23.5494 106.347 23.3562 106.347 23.3522L107.653 22.416Z" fill="#595759"/>
</g>
<g id="Group_9">
<path id="Vector_8" d="M103.13 31.0267C102.895 31.0267 102.695 30.939 102.529 30.7648C102.364 30.5915 102.281 30.3833 102.281 30.1403C102.281 29.8933 102.364 29.6832 102.529 29.5109C102.695 29.3396 102.895 29.2529 103.13 29.2529C103.361 29.2529 103.559 29.3396 103.725 29.5109C103.89 29.6832 103.973 29.8933 103.973 30.1403C103.973 30.3833 103.89 30.5915 103.725 30.7648C103.559 30.939 103.361 31.0267 103.13 31.0267Z" fill="#595759"/>
<path id="_1_6" d="M103.13 31.0267C102.895 31.0267 102.695 30.939 102.529 30.7648C102.364 30.5915 102.281 30.3833 102.281 30.1403C102.281 29.8933 102.364 29.6832 102.529 29.5109C102.695 29.3396 102.895 29.2529 103.13 29.2529C103.361 29.2529 103.559 29.3396 103.725 29.5109C103.89 29.6832 103.973 29.8933 103.973 30.1403C103.973 30.3833 103.89 30.5915 103.725 30.7648C103.559 30.939 103.361 31.0267 103.13 31.0267Z" fill="#595759"/>
</g>
<g id="Group_10">
<path id="Vector_9" d="M101.103 31.0269C100.871 31.0269 100.673 30.9393 100.507 30.765C100.343 30.5917 100.26 30.3836 100.26 30.1406C100.26 29.8936 100.343 29.6834 100.507 29.5111C100.673 29.3398 100.871 29.2532 101.103 29.2532C101.339 29.2532 101.538 29.3398 101.701 29.5111C101.865 29.6834 101.948 29.8936 101.948 30.1406C101.948 30.3836 101.865 30.5917 101.701 30.765C101.538 30.9393 101.339 31.0269 101.103 31.0269Z" fill="#595759"/>
<path id="_1_7" d="M101.103 31.0269C100.871 31.0269 100.673 30.9393 100.507 30.765C100.343 30.5917 100.26 30.3836 100.26 30.1406C100.26 29.8936 100.343 29.6834 100.507 29.5111C100.673 29.3398 100.871 29.2532 101.103 29.2532C101.339 29.2532 101.538 29.3398 101.701 29.5111C101.865 29.6834 101.948 29.8936 101.948 30.1406C101.948 30.3836 101.865 30.5917 101.701 30.765C101.538 30.9393 101.339 31.0269 101.103 31.0269Z" fill="#595759"/>
</g>
<g id="Group_11">
<path id="Vector_10" d="M104.253 25.6667C104.279 25.8301 104.292 25.9844 104.292 26.1328C104.292 26.593 104.167 27.0033 103.915 27.3698C103.514 27.9504 102.859 28.2402 101.953 28.2402H100.068V26.578H101.919C102.209 26.578 102.413 26.5392 102.531 26.4575C102.655 26.3798 102.715 26.2573 102.715 26.088C102.715 26.0382 102.708 25.9824 102.695 25.9207C102.664 25.7484 102.632 25.5741 102.6 25.3938C102.585 25.3271 102.573 25.2544 102.561 25.1757L102.542 25.0791L102.528 24.9825C102.478 24.7066 102.442 24.5095 102.416 24.3909L103.926 23.9099C104.022 24.385 104.131 24.9716 104.253 25.6667Z" fill="#595759"/>
<path id="_1_8" d="M104.253 25.6667C104.279 25.8301 104.292 25.9844 104.292 26.1328C104.292 26.593 104.167 27.0033 103.915 27.3698C103.514 27.9504 102.859 28.2402 101.953 28.2402H100.068V26.578H101.919C102.209 26.578 102.413 26.5392 102.531 26.4575C102.655 26.3798 102.715 26.2573 102.715 26.088C102.715 26.0382 102.708 25.9824 102.695 25.9207C102.664 25.7484 102.632 25.5741 102.6 25.3938C102.585 25.3271 102.573 25.2544 102.561 25.1757L102.542 25.0791L102.528 24.9825C102.478 24.7066 102.442 24.5095 102.416 24.3909L103.926 23.9099C104.022 24.385 104.131 24.9716 104.253 25.6667Z" fill="#595759"/>
</g>
<g id="Group_12">
<path id="Vector_11" d="M97.5524 23.3928C98.2615 23.3928 98.8274 23.6637 99.2502 24.2085C99.6389 24.7045 99.8333 25.3229 99.8333 26.0619V26.5838H100.31V28.24H99.8171C99.7375 29.2897 99.2502 30.0417 98.3515 30.4948C98.0017 30.6701 97.5912 30.7956 97.1229 30.8743C96.7532 30.939 96.3522 30.9709 95.9227 30.9709V29.3087C96.7257 29.3087 97.3296 29.1911 97.7344 28.9541C98.0633 28.7659 98.2264 28.5259 98.2264 28.24H97.5524C96.9798 28.24 96.4934 28.0787 96.0905 27.754C95.6099 27.3616 95.3672 26.7989 95.3672 26.0619C95.3672 25.3638 95.5283 24.7712 95.8497 24.2842C96.2394 23.6906 96.8063 23.3928 97.5524 23.3928ZM98.251 26.5838V26.0619C98.251 25.7512 98.1894 25.5042 98.0633 25.3229C97.9382 25.1447 97.7666 25.053 97.5524 25.053C97.3334 25.053 97.1599 25.1447 97.0309 25.3229C96.9124 25.4883 96.8527 25.7034 96.8527 25.9653C96.8527 25.9972 96.8546 26.0281 96.8575 26.0619C96.8669 26.2422 96.9447 26.3756 97.0897 26.4673C97.2111 26.545 97.3656 26.5838 97.5524 26.5838H98.251Z" fill="#595759"/>
<path id="_1_9" d="M97.5524 23.3928C98.2615 23.3928 98.8274 23.6637 99.2502 24.2085C99.6389 24.7045 99.8333 25.3229 99.8333 26.0619V26.5838H100.31V28.24H99.8171C99.7375 29.2897 99.2502 30.0417 98.3515 30.4948C98.0017 30.6701 97.5912 30.7956 97.1229 30.8743C96.7532 30.939 96.3522 30.9709 95.9227 30.9709V29.3087C96.7257 29.3087 97.3296 29.1911 97.7344 28.9541C98.0633 28.7659 98.2264 28.5259 98.2264 28.24H97.5524C96.9798 28.24 96.4934 28.0787 96.0905 27.754C95.6099 27.3616 95.3672 26.7989 95.3672 26.0619C95.3672 25.3638 95.5283 24.7712 95.8497 24.2842C96.2394 23.6906 96.8063 23.3928 97.5524 23.3928ZM98.251 26.5838V26.0619C98.251 25.7512 98.1894 25.5042 98.0633 25.3229C97.9382 25.1447 97.7666 25.053 97.5524 25.053C97.3334 25.053 97.1599 25.1447 97.0309 25.3229C96.9124 25.4883 96.8527 25.7034 96.8527 25.9653C96.8527 25.9972 96.8546 26.0281 96.8575 26.0619C96.8669 26.2422 96.9447 26.3756 97.0897 26.4673C97.2111 26.545 97.3656 26.5838 97.5524 26.5838H98.251Z" fill="#595759"/>
</g>
<g id="Group_13">
<path id="Vector_12" d="M90.6837 23.6575C91.4298 23.6575 91.9986 23.9841 92.3892 24.6395C92.5418 24.8924 92.6546 25.1803 92.7324 25.4999C92.7959 25.7748 92.83 26.0348 92.83 26.2798C92.83 27.1004 92.6338 27.7159 92.2413 28.1242C92.0925 28.2836 91.919 28.4051 91.7199 28.4897C91.5587 28.5565 91.3976 28.5963 91.2336 28.6053C91.2013 28.6092 91.1558 28.6102 91.099 28.6102C90.696 28.6102 90.2685 28.5067 89.8153 28.2965C89.6618 28.2298 89.4959 28.1432 89.3186 28.0386L89.2124 27.9778L89.1176 27.9221C89.0427 27.8752 88.9896 27.8414 88.9583 27.8254C88.6948 28.1023 88.2549 28.2408 87.6416 28.2408H87.3809V26.5785H87.579C87.9032 26.5785 88.1165 26.5088 88.2189 26.3674C88.2653 26.3017 88.3554 26.0497 88.49 25.6075C88.5005 25.5756 88.509 25.5477 88.5175 25.5199C88.5289 25.483 88.5412 25.4462 88.5564 25.4093C88.5886 25.3137 88.6256 25.2231 88.6683 25.1354C88.7782 24.8884 88.9072 24.6713 89.0532 24.4821C89.4817 23.9324 90.0239 23.6575 90.6837 23.6575ZM91.3009 26.7867C91.3426 26.6662 91.3644 26.5347 91.3644 26.3913C91.3644 26.3545 91.3625 26.3166 91.3587 26.2798C91.3426 26.0198 91.2705 25.7967 91.1416 25.6075C91.0108 25.4143 90.8572 25.3177 90.6837 25.3177C90.4448 25.3177 90.2505 25.4661 90.095 25.7639C90.04 25.8655 89.9907 25.9899 89.9462 26.1383C89.9301 26.1871 89.913 26.2429 89.8931 26.3116L89.8741 26.3873L89.8542 26.453C90.04 26.6214 90.2789 26.7628 90.569 26.8743C90.8051 26.962 90.9947 27.0038 91.1359 27.0038C91.1947 27.0038 91.2497 26.9321 91.3009 26.7867Z" fill="#595759"/>
<path id="_1_10" d="M90.6837 23.6575C91.4298 23.6575 91.9986 23.9841 92.3892 24.6395C92.5418 24.8924 92.6546 25.1803 92.7324 25.4999C92.7959 25.7748 92.83 26.0348 92.83 26.2798C92.83 27.1004 92.6338 27.7159 92.2413 28.1242C92.0925 28.2836 91.919 28.4051 91.7199 28.4897C91.5587 28.5565 91.3976 28.5963 91.2336 28.6053C91.2013 28.6092 91.1558 28.6102 91.099 28.6102C90.696 28.6102 90.2685 28.5067 89.8153 28.2965C89.6618 28.2298 89.4959 28.1432 89.3186 28.0386L89.2124 27.9778L89.1176 27.9221C89.0427 27.8752 88.9896 27.8414 88.9583 27.8254C88.6948 28.1023 88.2549 28.2408 87.6416 28.2408H87.3809V26.5785H87.579C87.9032 26.5785 88.1165 26.5088 88.2189 26.3674C88.2653 26.3017 88.3554 26.0497 88.49 25.6075C88.5005 25.5756 88.509 25.5477 88.5175 25.5199C88.5289 25.483 88.5412 25.4462 88.5564 25.4093C88.5886 25.3137 88.6256 25.2231 88.6683 25.1354C88.7782 24.8884 88.9072 24.6713 89.0532 24.4821C89.4817 23.9324 90.0239 23.6575 90.6837 23.6575ZM91.3009 26.7867C91.3426 26.6662 91.3644 26.5347 91.3644 26.3913C91.3644 26.3545 91.3625 26.3166 91.3587 26.2798C91.3426 26.0198 91.2705 25.7967 91.1416 25.6075C91.0108 25.4143 90.8572 25.3177 90.6837 25.3177C90.4448 25.3177 90.2505 25.4661 90.095 25.7639C90.04 25.8655 89.9907 25.9899 89.9462 26.1383C89.9301 26.1871 89.913 26.2429 89.8931 26.3116L89.8741 26.3873L89.8542 26.453C90.04 26.6214 90.2789 26.7628 90.569 26.8743C90.8051 26.962 90.9947 27.0038 91.1359 27.0038C91.1947 27.0038 91.2497 26.9321 91.3009 26.7867Z" fill="#595759"/>
</g>
<g id="Group_14">
<path id="Vector_13" d="M85.7576 23.3324C85.513 23.3324 85.3044 23.2428 85.1329 23.0605C84.9622 22.8813 84.875 22.6612 84.875 22.4052C84.875 22.1493 84.9622 21.9302 85.1329 21.7499C85.3044 21.5696 85.513 21.479 85.7576 21.479C86.0012 21.479 86.2098 21.5696 86.3814 21.7499C86.5549 21.9302 86.6392 22.1493 86.6392 22.4052C86.6392 22.6612 86.5549 22.8813 86.3814 23.0605C86.2098 23.2428 86.0012 23.3324 85.7576 23.3324Z" fill="#595759"/>
<path id="_1_11" d="M85.7576 23.3324C85.513 23.3324 85.3044 23.2428 85.1329 23.0605C84.9622 22.8813 84.875 22.6612 84.875 22.4052C84.875 22.1493 84.9622 21.9302 85.1329 21.7499C85.3044 21.5696 85.513 21.479 85.7576 21.479C86.0012 21.479 86.2098 21.5696 86.3814 21.7499C86.5549 21.9302 86.6392 22.1493 86.6392 22.4052C86.6392 22.6612 86.5549 22.8813 86.3814 23.0605C86.2098 23.2428 86.0012 23.3324 85.7576 23.3324Z" fill="#595759"/>
</g>
<g id="Group_15">
<path id="Vector_14" d="M86.8721 26.1179C86.8721 26.2792 86.9091 26.3947 86.984 26.4635C87.0665 26.5391 87.2153 26.578 87.4277 26.578H87.6201V28.2402H87.4277C87.2191 28.2402 87.021 28.2163 86.8352 28.1695C86.6863 28.1326 86.5489 28.0809 86.4199 28.0121C86.2711 27.9374 86.1611 27.8637 86.0872 27.789C86.0132 27.8637 85.8938 27.9364 85.7307 28.0121C85.4046 28.1625 85.0197 28.2402 84.5742 28.2402H81.8809V26.578H84.6841C84.9154 26.578 85.0775 26.5392 85.1714 26.4575C85.2539 26.3868 85.2975 26.2732 85.2975 26.1179V24.7395H86.8721V26.1179Z" fill="#595759"/>
<path id="_1_12" d="M86.8721 26.1179C86.8721 26.2792 86.9091 26.3947 86.984 26.4635C87.0665 26.5391 87.2153 26.578 87.4277 26.578H87.6201V28.2402H87.4277C87.2191 28.2402 87.021 28.2163 86.8352 28.1695C86.6863 28.1326 86.5489 28.0809 86.4199 28.0121C86.2711 27.9374 86.1611 27.8637 86.0872 27.789C86.0132 27.8637 85.8938 27.9364 85.7307 28.0121C85.4046 28.1625 85.0197 28.2402 84.5742 28.2402H81.8809V26.578H84.6841C84.9154 26.578 85.0775 26.5392 85.1714 26.4575C85.2539 26.3868 85.2975 26.2732 85.2975 26.1179V24.7395H86.8721V26.1179Z" fill="#595759"/>
</g>
<g id="Group_16">
<path id="Vector_15" d="M81.8819 28.2405H81.4468C81.0913 28.2405 80.7718 28.1737 80.4883 28.0443C80.2731 27.9457 80.0835 27.8122 79.9243 27.6429C79.7641 27.4736 79.637 27.2774 79.5432 27.0503C79.4171 26.7535 79.3555 26.4169 79.3555 26.0414V20.9363H80.932V26.0414C80.932 26.2476 80.968 26.391 81.042 26.4677C81.1131 26.5414 81.2487 26.5782 81.4468 26.5782H81.8819V28.2405Z" fill="#595759"/>
<path id="_1_13" d="M81.8819 28.2405H81.4468C81.0913 28.2405 80.7718 28.1737 80.4883 28.0443C80.2731 27.9457 80.0835 27.8122 79.9243 27.6429C79.7641 27.4736 79.637 27.2774 79.5432 27.0503C79.4171 26.7535 79.3555 26.4169 79.3555 26.0414V20.9363H80.932V26.0414C80.932 26.2476 80.968 26.391 81.042 26.4677C81.1131 26.5414 81.2487 26.5782 81.4468 26.5782H81.8819V28.2405Z" fill="#595759"/>
</g>
<g id="Group_17">
<path id="Vector_16" d="M76.7274 30.9542C76.4837 30.9542 76.2752 30.8645 76.1036 30.6833C75.932 30.503 75.8457 30.2839 75.8457 30.027C75.8457 29.775 75.932 29.5579 76.1036 29.3776C76.2752 29.1953 76.4837 29.1057 76.7274 29.1057C76.9719 29.1057 77.1805 29.1953 77.3521 29.3776C77.5246 29.5579 77.61 29.775 77.61 30.027C77.61 30.2839 77.5246 30.503 77.3521 30.6833C77.1805 30.8645 76.9719 30.9542 76.7274 30.9542Z" fill="#595759"/>
<path id="_1_14" d="M76.7274 30.9542C76.4837 30.9542 76.2752 30.8645 76.1036 30.6833C75.932 30.503 75.8457 30.2839 75.8457 30.027C75.8457 29.775 75.932 29.5579 76.1036 29.3776C76.2752 29.1953 76.4837 29.1057 76.7274 29.1057C76.9719 29.1057 77.1805 29.1953 77.3521 29.3776C77.5246 29.5579 77.61 29.775 77.61 30.027C77.61 30.2839 77.5246 30.503 77.3521 30.6833C77.1805 30.8645 76.9719 30.9542 76.7274 30.9542Z" fill="#595759"/>
</g>
<g id="Group_18">
<path id="Vector_17" d="M78.469 25.6667C78.4956 25.8301 78.5079 25.9844 78.5079 26.1328C78.5079 26.593 78.3828 27.0033 78.1315 27.3698C77.7296 27.9504 77.0755 28.2402 76.1692 28.2402H75.1387V26.578H76.135C76.4251 26.578 76.6289 26.5392 76.7484 26.4575C76.8707 26.3798 76.9314 26.2573 76.9314 26.088C76.9314 26.0382 76.9257 25.9824 76.9114 25.9207C76.8792 25.7484 76.8479 25.5741 76.8157 25.3938C76.8034 25.3271 76.7892 25.2544 76.7768 25.1757L76.7579 25.0791L76.7437 24.9825C76.6953 24.7066 76.6583 24.5095 76.6318 24.3909L78.142 23.9099C78.2377 24.385 78.3467 24.9716 78.469 25.6667Z" fill="#595759"/>
<path id="_1_15" d="M78.469 25.6667C78.4956 25.8301 78.5079 25.9844 78.5079 26.1328C78.5079 26.593 78.3828 27.0033 78.1315 27.3698C77.7296 27.9504 77.0755 28.2402 76.1692 28.2402H75.1387V26.578H76.135C76.4251 26.578 76.6289 26.5392 76.7484 26.4575C76.8707 26.3798 76.9314 26.2573 76.9314 26.088C76.9314 26.0382 76.9257 25.9824 76.9114 25.9207C76.8792 25.7484 76.8479 25.5741 76.8157 25.3938C76.8034 25.3271 76.7892 25.2544 76.7768 25.1757L76.7579 25.0791L76.7437 24.9825C76.6953 24.7066 76.6583 24.5095 76.6318 24.3909L78.142 23.9099C78.2377 24.385 78.3467 24.9716 78.469 25.6667Z" fill="#595759"/>
</g>
<g id="Group_19">
<path id="Vector_18" d="M72.961 22.948C73.2985 22.948 73.6104 23.0386 73.8967 23.2209C74.1792 23.4011 74.3972 23.6382 74.547 23.936C74.6759 24.1879 74.7413 24.4539 74.7413 24.7307C74.7413 24.7636 74.7394 24.7955 74.7366 24.8273C74.7167 25.1371 74.6209 25.4269 74.4512 25.6988C74.3489 25.8561 74.2038 26.0175 74.0161 26.1788C73.9441 26.2465 73.8578 26.3162 73.762 26.387C73.6985 26.4378 73.6123 26.5025 73.5061 26.5782H75.3812V28.2404H73.6274C73.3629 28.2404 73.0994 28.1836 72.8358 28.0681C72.65 27.9884 72.4472 27.8679 72.2291 27.7095C72.1609 27.6607 72.0698 27.593 71.9532 27.5014C71.4356 27.7823 71.0763 28.0253 70.8735 28.2294C70.6402 28.4724 70.5217 28.7553 70.5217 29.077C70.5217 29.4186 70.6402 29.7154 70.8735 29.9683C71.1048 30.2173 71.3806 30.3428 71.6992 30.3428H74.5574V32H71.6992C71.3152 32 70.9569 31.9213 70.6184 31.766C70.2866 31.6136 69.9965 31.4035 69.7453 31.1326C69.4941 30.8667 69.2979 30.5569 69.1566 30.2054C69.0135 29.8339 68.9414 29.4574 68.9414 29.077C68.9414 28.2185 69.2647 27.4944 69.915 26.9038C70.1274 26.7106 70.3729 26.5264 70.6526 26.3521L69.8572 25.637L69.5775 25.0036C69.5775 24.8014 69.5984 24.6062 69.6448 24.417C69.7027 24.17 69.7946 23.9469 69.9245 23.7477C70.0847 23.4938 70.2952 23.2986 70.5549 23.1591C70.8223 23.0177 71.1294 22.948 71.4764 22.948H72.961ZM72.1656 25.6161C72.4329 25.4587 72.6955 25.2805 72.9562 25.0853C73.1913 24.905 73.3269 24.7885 73.3658 24.7307C73.3658 24.7228 73.3629 24.7098 73.3516 24.6899C73.3392 24.666 73.3241 24.6451 73.3041 24.6251C73.253 24.5634 73.1999 24.5335 73.1449 24.5335H71.356C71.2726 24.5335 71.2072 24.5544 71.1635 24.5993C71.1474 24.6152 71.1351 24.6321 71.1247 24.649L71.1105 24.6799V24.6839C71.1967 24.7656 71.374 24.9239 71.6404 25.156L71.7892 25.2825C71.8471 25.3303 71.8954 25.3711 71.9343 25.4089C72.0348 25.4976 72.1106 25.5663 72.1656 25.6161Z" fill="#595759"/>
<path id="_1_16" d="M72.961 22.948C73.2985 22.948 73.6104 23.0386 73.8967 23.2209C74.1792 23.4011 74.3972 23.6382 74.547 23.936C74.6759 24.1879 74.7413 24.4539 74.7413 24.7307C74.7413 24.7636 74.7394 24.7955 74.7366 24.8273C74.7167 25.1371 74.6209 25.4269 74.4512 25.6988C74.3489 25.8561 74.2038 26.0175 74.0161 26.1788C73.9441 26.2465 73.8578 26.3162 73.762 26.387C73.6985 26.4378 73.6123 26.5025 73.5061 26.5782H75.3812V28.2404H73.6274C73.3629 28.2404 73.0994 28.1836 72.8358 28.0681C72.65 27.9884 72.4472 27.8679 72.2291 27.7095C72.1609 27.6607 72.0698 27.593 71.9532 27.5014C71.4356 27.7823 71.0763 28.0253 70.8735 28.2294C70.6402 28.4724 70.5217 28.7553 70.5217 29.077C70.5217 29.4186 70.6402 29.7154 70.8735 29.9683C71.1048 30.2173 71.3806 30.3428 71.6992 30.3428H74.5574V32H71.6992C71.3152 32 70.9569 31.9213 70.6184 31.766C70.2866 31.6136 69.9965 31.4035 69.7453 31.1326C69.4941 30.8667 69.2979 30.5569 69.1566 30.2054C69.0135 29.8339 68.9414 29.4574 68.9414 29.077C68.9414 28.2185 69.2647 27.4944 69.915 26.9038C70.1274 26.7106 70.3729 26.5264 70.6526 26.3521L69.8572 25.637L69.5775 25.0036C69.5775 24.8014 69.5984 24.6062 69.6448 24.417C69.7027 24.17 69.7946 23.9469 69.9245 23.7477C70.0847 23.4938 70.2952 23.2986 70.5549 23.1591C70.8223 23.0177 71.1294 22.948 71.4764 22.948H72.961ZM72.1656 25.6161C72.4329 25.4587 72.6955 25.2805 72.9562 25.0853C73.1913 24.905 73.3269 24.7885 73.3658 24.7307C73.3658 24.7228 73.3629 24.7098 73.3516 24.6899C73.3392 24.666 73.3241 24.6451 73.3041 24.6251C73.253 24.5634 73.1999 24.5335 73.1449 24.5335H71.356C71.2726 24.5335 71.2072 24.5544 71.1635 24.5993C71.1474 24.6152 71.1351 24.6321 71.1247 24.649L71.1105 24.6799V24.6839C71.1967 24.7656 71.374 24.9239 71.6404 25.156L71.7892 25.2825C71.8471 25.3303 71.8954 25.3711 71.9343 25.4089C72.0348 25.4976 72.1106 25.5663 72.1656 25.6161Z" fill="#595759"/>
</g>
<g id="Group_20">
<path id="Vector_19" d="M65.6057 28.2405H64.0254V20.9363H65.6057V28.2405Z" fill="#595759"/>
<path id="_1_17" d="M65.6057 28.2405H64.0254V20.9363H65.6057V28.2405Z" fill="#595759"/>
</g>
<g id="Group_21">
<path id="Vector_20" d="M60.5174 22.8861C60.2737 22.8861 60.0652 22.7975 59.8936 22.6153C59.722 22.435 59.6348 22.2159 59.6348 21.9599C59.6348 21.703 59.722 21.4839 59.8936 21.3036C60.0652 21.1233 60.2737 21.0327 60.5174 21.0327C60.761 21.0327 60.9696 21.1233 61.1412 21.3036C61.3146 21.4839 61.399 21.703 61.399 21.9599C61.399 22.2159 61.3146 22.435 61.1412 22.6153C60.9696 22.7975 60.761 22.8861 60.5174 22.8861Z" fill="#595759"/>
<path id="_1_18" d="M60.5174 22.8861C60.2737 22.8861 60.0652 22.7975 59.8936 22.6153C59.722 22.435 59.6348 22.2159 59.6348 21.9599C59.6348 21.703 59.722 21.4839 59.8936 21.3036C60.0652 21.1233 60.2737 21.0327 60.5174 21.0327C60.761 21.0327 60.9696 21.1233 61.1412 21.3036C61.3146 21.4839 61.399 21.703 61.399 21.9599C61.399 22.2159 61.3146 22.435 61.1412 22.6153C60.9696 22.7975 60.761 22.8861 60.5174 22.8861Z" fill="#595759"/>
</g>
<g id="Group_22">
<path id="Vector_21" d="M62.2268 25.6667C62.2534 25.8301 62.2657 25.9844 62.2657 26.1328C62.2657 26.593 62.1406 27.0033 61.8894 27.3698C61.4884 27.9504 60.8342 28.2402 59.927 28.2402H58.8965V26.578H59.8938C60.1829 26.578 60.3868 26.5392 60.5072 26.4575C60.6285 26.3798 60.6892 26.2573 60.6892 26.088C60.6892 26.0382 60.6835 25.9824 60.6693 25.9207C60.638 25.7484 60.6058 25.5741 60.5735 25.3938C60.5612 25.3271 60.547 25.2544 60.5346 25.1757L60.5157 25.0791L60.5015 24.9825C60.4541 24.7066 60.4171 24.5095 60.3905 24.3909L61.8998 23.9099C61.9955 24.385 62.1046 24.9716 62.2268 25.6667Z" fill="#595759"/>
<path id="_1_19" d="M62.2268 25.6667C62.2534 25.8301 62.2657 25.9844 62.2657 26.1328C62.2657 26.593 62.1406 27.0033 61.8894 27.3698C61.4884 27.9504 60.8342 28.2402 59.927 28.2402H58.8965V26.578H59.8938C60.1829 26.578 60.3868 26.5392 60.5072 26.4575C60.6285 26.3798 60.6892 26.2573 60.6892 26.088C60.6892 26.0382 60.6835 25.9824 60.6693 25.9207C60.638 25.7484 60.6058 25.5741 60.5735 25.3938C60.5612 25.3271 60.547 25.2544 60.5346 25.1757L60.5157 25.0791L60.5015 24.9825C60.4541 24.7066 60.4171 24.5095 60.3905 24.3909L61.8998 23.9099C61.9955 24.385 62.1046 24.9716 62.2268 25.6667Z" fill="#595759"/>
</g>
<g id="Group_23">
<path id="Vector_22" d="M53.1723 26.578C53.3363 26.578 53.4586 26.5431 53.5383 26.4724C53.6473 26.3778 53.7023 26.2105 53.7023 25.9715V24.7395H55.2845V25.9715C55.2845 26.1906 55.3129 26.339 55.3708 26.4166C55.4457 26.5242 55.5955 26.578 55.8239 26.578C55.9879 26.578 56.1102 26.5431 56.1899 26.4724C56.296 26.3778 56.3491 26.2105 56.3491 25.9715V24.7395H57.9314V25.9715C57.9314 26.1806 57.9683 26.329 58.0423 26.4166C58.1295 26.5242 58.2878 26.578 58.5201 26.578H59.1363V28.2402H58.5201C57.8565 28.2402 57.3957 28.0868 57.135 27.7801C56.7539 28.0868 56.315 28.2402 55.8239 28.2402C55.1944 28.2402 54.7489 28.0868 54.4891 27.7801C54.1052 28.0868 53.6757 28.2402 53.197 28.2402C52.6879 28.2402 52.2433 28.0868 51.8603 27.7801C51.6005 28.0868 51.1389 28.2402 50.4781 28.2402H49.7832V26.578H50.4781C50.7075 26.578 50.8668 26.5242 50.9549 26.4166C51.0279 26.329 51.0649 26.1806 51.0649 25.9715V24.7395H52.6471V25.9715C52.6471 26.2105 52.7021 26.3778 52.8111 26.4724C52.887 26.5431 53.0074 26.578 53.1723 26.578Z" fill="#595759"/>
<path id="_1_20" d="M53.1723 26.578C53.3363 26.578 53.4586 26.5431 53.5383 26.4724C53.6473 26.3778 53.7023 26.2105 53.7023 25.9715V24.7395H55.2845V25.9715C55.2845 26.1906 55.3129 26.339 55.3708 26.4166C55.4457 26.5242 55.5955 26.578 55.8239 26.578C55.9879 26.578 56.1102 26.5431 56.1899 26.4724C56.296 26.3778 56.3491 26.2105 56.3491 25.9715V24.7395H57.9314V25.9715C57.9314 26.1806 57.9683 26.329 58.0423 26.4166C58.1295 26.5242 58.2878 26.578 58.5201 26.578H59.1363V28.2402H58.5201C57.8565 28.2402 57.3957 28.0868 57.135 27.7801C56.7539 28.0868 56.315 28.2402 55.8239 28.2402C55.1944 28.2402 54.7489 28.0868 54.4891 27.7801C54.1052 28.0868 53.6757 28.2402 53.197 28.2402C52.6879 28.2402 52.2433 28.0868 51.8603 27.7801C51.6005 28.0868 51.1389 28.2402 50.4781 28.2402H49.7832V26.578H50.4781C50.7075 26.578 50.8668 26.5242 50.9549 26.4166C51.0279 26.329 51.0649 26.1806 51.0649 25.9715V24.7395H52.6471V25.9715C52.6471 26.2105 52.7021 26.3778 52.8111 26.4724C52.887 26.5431 53.0074 26.578 53.1723 26.578Z" fill="#595759"/>
</g>
<g id="Group_24">
<path id="Vector_23" d="M50.0353 28.2405H49.6011C49.2456 28.2405 48.9251 28.1737 48.6426 28.0443C48.4274 27.9457 48.2378 27.8122 48.0786 27.6429C47.9174 27.4736 47.7904 27.2774 47.6965 27.0503C47.5714 26.7535 47.5098 26.4169 47.5098 26.0414V20.9363H49.0863V26.0414C49.0863 26.2476 49.1214 26.391 49.1963 26.4677C49.2664 26.5414 49.4029 26.5782 49.6011 26.5782H50.0353V28.2405Z" fill="#595759"/>
<path id="_1_21" d="M50.0353 28.2405H49.6011C49.2456 28.2405 48.9251 28.1737 48.6426 28.0443C48.4274 27.9457 48.2378 27.8122 48.0786 27.6429C47.9174 27.4736 47.7904 27.2774 47.6965 27.0503C47.5714 26.7535 47.5098 26.4169 47.5098 26.0414V20.9363H49.0863V26.0414C49.0863 26.2476 49.1214 26.391 49.1963 26.4677C49.2664 26.5414 49.4029 26.5782 49.6011 26.5782H50.0353V28.2405Z" fill="#595759"/>
</g>
<g id="Group_25">
<path id="Vector_24" d="M44.3152 22.8861C44.0716 22.8861 43.863 22.7975 43.6914 22.6153C43.5199 22.435 43.4336 22.2159 43.4336 21.9599C43.4336 21.703 43.5199 21.4839 43.6914 21.3036C43.863 21.1233 44.0716 21.0327 44.3152 21.0327C44.5598 21.0327 44.7684 21.1233 44.94 21.3036C45.1125 21.4839 45.1978 21.703 45.1978 21.9599C45.1978 22.2159 45.1125 22.435 44.94 22.6153C44.7684 22.7975 44.5598 22.8861 44.3152 22.8861Z" fill="#595759"/>
<path id="_1_22" d="M44.3152 22.8861C44.0716 22.8861 43.863 22.7975 43.6914 22.6153C43.5199 22.435 43.4336 22.2159 43.4336 21.9599C43.4336 21.703 43.5199 21.4839 43.6914 21.3036C43.863 21.1233 44.0716 21.0327 44.3152 21.0327C44.5598 21.0327 44.7684 21.1233 44.94 21.3036C45.1125 21.4839 45.1978 21.703 45.1978 21.9599C45.1978 22.2159 45.1125 22.435 44.94 22.6153C44.7684 22.7975 44.5598 22.8861 44.3152 22.8861Z" fill="#595759"/>
</g>
<g id="Group_26">
<path id="Vector_25" d="M46.0257 25.6665C46.0522 25.8298 46.0645 25.9842 46.0645 26.1326C46.0645 26.5927 45.9394 27.003 45.6882 27.3695C45.2872 27.9502 44.633 28.24 43.7258 28.24H42.6953V26.5778H43.6926C43.9827 26.5778 44.1856 26.5389 44.306 26.4573C44.4283 26.3796 44.488 26.2571 44.488 26.0878C44.488 26.038 44.4823 25.9822 44.4681 25.9205C44.4368 25.7482 44.4046 25.5739 44.3733 25.3936C44.361 25.3269 44.3467 25.2542 44.3344 25.1755L44.3145 25.0789L44.3003 24.9823C44.2529 24.7064 44.2159 24.5092 44.1894 24.3907L45.6986 23.9097C45.7944 24.3847 45.9043 24.9713 46.0257 25.6665Z" fill="#595759"/>
<path id="_1_23" d="M46.0257 25.6665C46.0522 25.8298 46.0645 25.9842 46.0645 26.1326C46.0645 26.5927 45.9394 27.003 45.6882 27.3695C45.2872 27.9502 44.633 28.24 43.7258 28.24H42.6953V26.5778H43.6926C43.9827 26.5778 44.1856 26.5389 44.306 26.4573C44.4283 26.3796 44.488 26.2571 44.488 26.0878C44.488 26.038 44.4823 25.9822 44.4681 25.9205C44.4368 25.7482 44.4046 25.5739 44.3733 25.3936C44.361 25.3269 44.3467 25.2542 44.3344 25.1755L44.3145 25.0789L44.3003 24.9823C44.2529 24.7064 44.2159 24.5092 44.1894 24.3907L45.6986 23.9097C45.7944 24.3847 45.9043 24.9713 46.0257 25.6665Z" fill="#595759"/>
</g>
<g id="Group_27">
<path id="Vector_26" d="M36.5643 25.4344C36.1907 26.259 36.004 26.9831 36.004 27.6075C36.004 27.6683 36.0049 27.731 36.0087 27.7997C36.0163 27.8834 36.0267 27.967 36.0429 28.0467C36.0779 28.2608 36.1396 28.4501 36.2268 28.6154C36.4742 29.0815 36.8875 29.3135 37.4687 29.3135H38.8006C39.4652 29.3135 39.9335 29.2209 40.2037 29.0347C40.3383 28.9401 40.4075 28.8475 40.4113 28.7568C39.9544 28.476 39.3258 28.2569 38.5266 28.0995V26.5777H42.932V28.2399H41.7707C41.8409 28.3595 41.876 28.5258 41.876 28.7419C41.876 28.8196 41.8731 28.8983 41.8674 28.9739C41.8532 29.0835 41.8343 29.1871 41.8096 29.2877C41.7385 29.5685 41.6162 29.8175 41.4437 30.0326C40.9374 30.6581 40.0577 30.9708 38.8006 30.9708H37.4687C36.3993 30.9708 35.5916 30.5764 35.0493 29.7896C34.6284 29.1781 34.418 28.4521 34.418 27.6075C34.418 26.9851 34.5384 26.3158 34.7782 25.6007C34.9024 25.2432 35.0228 24.9474 35.1404 24.7153L36.5643 25.4344Z" fill="#595759"/>
<path id="_1_24" d="M36.5643 25.4344C36.1907 26.259 36.004 26.9831 36.004 27.6075C36.004 27.6683 36.0049 27.731 36.0087 27.7997C36.0163 27.8834 36.0267 27.967 36.0429 28.0467C36.0779 28.2608 36.1396 28.4501 36.2268 28.6154C36.4742 29.0815 36.8875 29.3135 37.4687 29.3135H38.8006C39.4652 29.3135 39.9335 29.2209 40.2037 29.0347C40.3383 28.9401 40.4075 28.8475 40.4113 28.7568C39.9544 28.476 39.3258 28.2569 38.5266 28.0995V26.5777H42.932V28.2399H41.7707C41.8409 28.3595 41.876 28.5258 41.876 28.7419C41.876 28.8196 41.8731 28.8983 41.8674 28.9739C41.8532 29.0835 41.8343 29.1871 41.8096 29.2877C41.7385 29.5685 41.6162 29.8175 41.4437 30.0326C40.9374 30.6581 40.0577 30.9708 38.8006 30.9708H37.4687C36.3993 30.9708 35.5916 30.5764 35.0493 29.7896C34.6284 29.1781 34.418 28.4521 34.418 27.6075C34.418 26.9851 34.5384 26.3158 34.7782 25.6007C34.9024 25.2432 35.0228 24.9474 35.1404 24.7153L36.5643 25.4344Z" fill="#595759"/>
</g>
<g id="Group_28">
<path id="Vector_27" d="M31.9224 21.5136L28.7646 23.0234C29.0405 23.3092 29.4292 23.7315 29.9259 24.2842C30.3544 24.7673 30.6549 25.2164 30.8284 25.6308C30.9479 25.9226 31.0066 26.2014 31.0066 26.4673V26.5082C31.0028 26.7253 30.964 26.9255 30.8862 27.1117C30.8161 27.286 30.7147 27.4453 30.5819 27.5868C30.4122 27.769 30.198 27.9164 29.9373 28.023C29.577 28.1704 29.1381 28.2401 28.6195 28.2401H24.9043V26.5779H28.6195C29.1182 26.5779 29.4159 26.55 29.5126 26.4932C29.5059 26.4634 29.4898 26.4185 29.4652 26.3608C29.431 26.298 29.3893 26.2233 29.3344 26.1377C29.1959 25.9186 29.0092 25.6796 28.776 25.4196C28.2148 24.7932 27.7303 24.2733 27.3189 23.854C27.2478 23.7833 27.1805 23.7166 27.1151 23.6568C27.0677 23.605 27.0222 23.5602 26.9757 23.5194C26.9596 23.5024 26.9444 23.4875 26.9283 23.4746L26.8942 23.4377L26.88 23.4287L26.8752 23.4188L26.8657 23.4138L27.0487 22.0265L31.2683 19.9998L31.9224 21.5136Z" fill="#595759"/>
<path id="_1_25" d="M31.9224 21.5136L28.7646 23.0234C29.0405 23.3092 29.4292 23.7315 29.9259 24.2842C30.3544 24.7673 30.6549 25.2164 30.8284 25.6308C30.9479 25.9226 31.0066 26.2014 31.0066 26.4673V26.5082C31.0028 26.7253 30.964 26.9255 30.8862 27.1117C30.8161 27.286 30.7147 27.4453 30.5819 27.5868C30.4122 27.769 30.198 27.9164 29.9373 28.023C29.577 28.1704 29.1381 28.2401 28.6195 28.2401H24.9043V26.5779H28.6195C29.1182 26.5779 29.4159 26.55 29.5126 26.4932C29.5059 26.4634 29.4898 26.4185 29.4652 26.3608C29.431 26.298 29.3893 26.2233 29.3344 26.1377C29.1959 25.9186 29.0092 25.6796 28.776 25.4196C28.2148 24.7932 27.7303 24.2733 27.3189 23.854C27.2478 23.7833 27.1805 23.7166 27.1151 23.6568C27.0677 23.605 27.0222 23.5602 26.9757 23.5194C26.9596 23.5024 26.9444 23.4875 26.9283 23.4746L26.8942 23.4377L26.88 23.4287L26.8752 23.4188L26.8657 23.4138L27.0487 22.0265L31.2683 19.9998L31.9224 21.5136Z" fill="#595759"/>
</g>
<g id="Group_29">
<path id="Vector_28" d="M25.1222 28.2405H24.687C24.3315 28.2405 24.012 28.1737 23.7286 28.0443C23.5134 27.9457 23.3238 27.8122 23.1645 27.6429C23.0043 27.4736 22.8773 27.2774 22.7834 27.0503C22.6573 26.7535 22.5957 26.4169 22.5957 26.0414V20.9363H24.1722V26.0414C24.1722 26.2476 24.2083 26.391 24.2822 26.4677C24.3533 26.5414 24.4889 26.5782 24.687 26.5782H25.1222V28.2405Z" fill="#595759"/>
<path id="_1_26" d="M25.1222 28.2405H24.687C24.3315 28.2405 24.012 28.1737 23.7286 28.0443C23.5134 27.9457 23.3238 27.8122 23.1645 27.6429C23.0043 27.4736 22.8773 27.2774 22.7834 27.0503C22.6573 26.7535 22.5957 26.4169 22.5957 26.0414V20.9363H24.1722V26.0414C24.1722 26.2476 24.2083 26.391 24.2822 26.4677C24.3533 26.5414 24.4889 26.5782 24.687 26.5782H25.1222V28.2405Z" fill="#595759"/>
</g>
<g id="Group_30">
<path id="Vector_29" d="M21.5633 27.4691C21.5633 28.5248 21.3101 29.3514 20.8048 29.953C20.2427 30.6252 19.4208 30.9589 18.3362 30.9589H17.8594V29.2986H18.3362C18.9287 29.2986 19.3496 29.1582 19.6009 28.8793C19.853 28.5985 19.981 28.1284 19.981 27.4691V24.7393H21.5633V27.4691Z" fill="#595759"/>
<path id="_1_27" d="M21.5633 27.4691C21.5633 28.5248 21.3101 29.3514 20.8048 29.953C20.2427 30.6252 19.4208 30.9589 18.3362 30.9589H17.8594V29.2986H18.3362C18.9287 29.2986 19.3496 29.1582 19.6009 28.8793C19.853 28.5985 19.981 28.1284 19.981 27.4691V24.7393H21.5633V27.4691Z" fill="#595759"/>
</g>
<g id="Group_31">
<path id="Vector_30" d="M15.0584 30.92C14.8147 30.92 14.6062 30.8313 14.4346 30.6491C14.263 30.4688 14.1758 30.2497 14.1758 29.9937C14.1758 29.7408 14.263 29.5237 14.4346 29.3434C14.6062 29.1611 14.8147 29.0725 15.0584 29.0725C15.302 29.0725 15.5106 29.1611 15.6822 29.3434C15.8557 29.5237 15.94 29.7408 15.94 29.9937C15.94 30.2497 15.8557 30.4688 15.6822 30.6491C15.5106 30.8313 15.302 30.92 15.0584 30.92Z" fill="#595759"/>
<path id="_1_28" d="M15.0584 30.92C14.8147 30.92 14.6062 30.8313 14.4346 30.6491C14.263 30.4688 14.1758 30.2497 14.1758 29.9937C14.1758 29.7408 14.263 29.5237 14.4346 29.3434C14.6062 29.1611 14.8147 29.0725 15.0584 29.0725C15.302 29.0725 15.5106 29.1611 15.6822 29.3434C15.8557 29.5237 15.94 29.7408 15.94 29.9937C15.94 30.2497 15.8557 30.4688 15.6822 30.6491C15.5106 30.8313 15.302 30.92 15.0584 30.92Z" fill="#595759"/>
</g>
<g id="Group_32">
<path id="Vector_31" d="M14.4608 23.5198C14.7243 23.5606 15.3803 23.7329 16.4288 24.0357C16.7948 24.1422 17.1816 24.2548 17.5902 24.3763C17.9115 24.4749 18.159 24.5506 18.3324 24.6044L18.578 26.0684C17.3351 27.0265 16.4004 27.619 15.7728 27.8451C15.0334 28.109 13.6758 28.2405 11.6992 28.2405V26.5783C12.9743 26.5783 13.8967 26.5325 14.4665 26.4379C15.1538 26.3223 15.7671 26.0843 16.3084 25.7228L15.9567 25.6222L15.6183 25.5196C15.3415 25.436 15.1348 25.3752 14.9964 25.3384C14.5726 25.2169 14.3053 25.1561 14.1953 25.1561C14.1091 25.1561 14.0275 25.2079 13.9498 25.3135C13.8702 25.4141 13.8085 25.5535 13.7678 25.7278L12.2386 25.3085C12.3875 24.7069 12.6614 24.2418 13.0625 23.9152C13.4037 23.6353 13.7697 23.4939 14.1621 23.4939C14.2588 23.4939 14.3584 23.5029 14.4608 23.5198Z" fill="#595759"/>
<path id="_1_29" d="M14.4608 23.5198C14.7243 23.5606 15.3803 23.7329 16.4288 24.0357C16.7948 24.1422 17.1816 24.2548 17.5902 24.3763C17.9115 24.4749 18.159 24.5506 18.3324 24.6044L18.578 26.0684C17.3351 27.0265 16.4004 27.619 15.7728 27.8451C15.0334 28.109 13.6758 28.2405 11.6992 28.2405V26.5783C12.9743 26.5783 13.8967 26.5325 14.4665 26.4379C15.1538 26.3223 15.7671 26.0843 16.3084 25.7228L15.9567 25.6222L15.6183 25.5196C15.3415 25.436 15.1348 25.3752 14.9964 25.3384C14.5726 25.2169 14.3053 25.1561 14.1953 25.1561C14.1091 25.1561 14.0275 25.2079 13.9498 25.3135C13.8702 25.4141 13.8085 25.5535 13.7678 25.7278L12.2386 25.3085C12.3875 24.7069 12.6614 24.2418 13.0625 23.9152C13.4037 23.6353 13.7697 23.4939 14.1621 23.4939C14.2588 23.4939 14.3584 23.5029 14.4608 23.5198Z" fill="#595759"/>
</g>
<g id="Group_33">
<path id="Vector_32" d="M9.17735 23.3928C9.88646 23.3928 10.4515 23.6637 10.8743 24.2085C11.263 24.7045 11.4583 25.3229 11.4583 26.0619V26.5838H11.9351V28.24H11.4421C11.3625 29.2897 10.8743 30.0417 9.97653 30.4948C9.62671 30.6701 9.21622 30.7956 8.7479 30.8743C8.37818 30.939 7.97717 30.9709 7.54773 30.9709V29.3087C8.34974 29.3087 8.95457 29.1911 9.35937 28.9541C9.68833 28.7659 9.85044 28.5259 9.85044 28.24H9.17735C8.60475 28.24 8.11842 28.0787 7.71552 27.754C7.23488 27.3616 6.99219 26.7989 6.99219 26.0619C6.99219 25.3638 7.15335 24.7712 7.47473 24.2842C7.86341 23.6906 8.43127 23.3928 9.17735 23.3928ZM9.87509 26.5838V26.0619C9.87509 25.7512 9.81347 25.5042 9.68833 25.3229C9.56319 25.1447 9.3916 25.053 9.17735 25.053C8.95836 25.053 8.78487 25.1447 8.65594 25.3229C8.53744 25.4883 8.47677 25.7034 8.47677 25.9653C8.47677 25.9972 8.47867 26.0281 8.48246 26.0619C8.49099 26.2422 8.56873 26.3756 8.71378 26.4673C8.83607 26.545 8.98964 26.5838 9.17735 26.5838H9.87509Z" fill="#595759"/>
<path id="_1_30" d="M9.17735 23.3928C9.88646 23.3928 10.4515 23.6637 10.8743 24.2085C11.263 24.7045 11.4583 25.3229 11.4583 26.0619V26.5838H11.9351V28.24H11.4421C11.3625 29.2897 10.8743 30.0417 9.97653 30.4948C9.62671 30.6701 9.21622 30.7956 8.7479 30.8743C8.37818 30.939 7.97717 30.9709 7.54773 30.9709V29.3087C8.34974 29.3087 8.95457 29.1911 9.35937 28.9541C9.68833 28.7659 9.85044 28.5259 9.85044 28.24H9.17735C8.60475 28.24 8.11842 28.0787 7.71552 27.754C7.23488 27.3616 6.99219 26.7989 6.99219 26.0619C6.99219 25.3638 7.15335 24.7712 7.47473 24.2842C7.86341 23.6906 8.43127 23.3928 9.17735 23.3928ZM9.87509 26.5838V26.0619C9.87509 25.7512 9.81347 25.5042 9.68833 25.3229C9.56319 25.1447 9.3916 25.053 9.17735 25.053C8.95836 25.053 8.78487 25.1447 8.65594 25.3229C8.53744 25.4883 8.47677 25.7034 8.47677 25.9653C8.47677 25.9972 8.47867 26.0281 8.48246 26.0619C8.49099 26.2422 8.56873 26.3756 8.71378 26.4673C8.83607 26.545 8.98964 26.5838 9.17735 26.5838H9.87509Z" fill="#595759"/>
</g>
<g id="Group_34">
<path id="Vector_33" d="M3.40241 24.5449H5.16855V26.1145H3.40241V28.2428H1.77468V26.1145H0V24.5449H1.77468V22.4724H3.40241V24.5449Z" fill="#595759"/>
<path id="_1_31" d="M3.40241 24.5449H5.16855V26.1145H3.40241V28.2428H1.77468V26.1145H0V24.5449H1.77468V22.4724H3.40241V24.5449Z" fill="#595759"/>
</g>
</g>
<g id="Group_35">
<path id="Vector_34" fill-rule="evenodd" clip-rule="evenodd" d="M2.16291 0H8.88405L10.8458 1.99917L18.8173 1.99823C19.9528 2.01145 20.6918 2.89956 20.7582 3.79333V13.6191C20.7582 14.8039 19.7849 15.7732 18.5953 15.7732H2.16291C0.973307 15.7732 0 14.8039 0 13.6191V2.15318C0 0.968412 0.973307 0 2.16291 0ZM13.6975 12.6904V10.1707H10.7718V8.12613H13.6975V5.2124H15.7655V8.12613H18.6911V10.1707H15.7655V13.1004H13.6975V12.6904Z" fill="#8F11A6"/>
<path id="Vector_35" d="M24.4727 1.99908H28.7406V7.20204L33.2173 1.99908H38.8977L33.851 7.17275L39.1292 15.7694H33.8737L30.9576 10.1158L28.7406 12.4173V15.7694H24.4727V1.99908ZM50.0936 13.5H45.2536L44.5583 15.7694H40.1974L45.4016 1.99908H50.0775L55.259 15.7694H50.7861L50.0936 13.5ZM49.1886 10.5192L47.6803 5.57038L46.1643 10.5192H49.1886ZM57.7141 15.7694V1.99908H64.8327C66.1523 1.99908 67.1626 2.11152 67.8579 2.33921C68.5571 2.56407 69.1196 2.98356 69.5484 3.59295C69.9762 4.20517 70.1878 4.95155 70.1878 5.8302C70.1878 6.59265 70.0246 7.25306 69.6964 7.80765C69.371 8.36508 68.9204 8.81384 68.3436 9.16058C67.9803 9.37788 67.4785 9.56117 66.8448 9.70478C67.3532 9.87484 67.7232 10.0421 67.9547 10.2112C68.1093 10.3236 68.3379 10.5674 68.6368 10.9358C68.9327 11.3043 69.1329 11.5896 69.2325 11.7918L71.3082 15.7694H66.4805L64.199 11.5707C63.9097 11.0256 63.6516 10.6732 63.4268 10.5097C63.1176 10.2981 62.7666 10.1923 62.3776 10.1923H62.001V15.7694H57.7141ZM62.001 7.59602H63.8063C63.9989 7.59602 64.3793 7.53177 64.939 7.40706C65.2226 7.35226 65.4541 7.2077 65.6315 6.97434C65.8117 6.74003 65.9018 6.47455 65.9018 6.17316C65.9018 5.72722 65.7595 5.38426 65.4768 5.14712C65.1932 4.90714 64.6629 4.7881 63.8803 4.7881H62.001V7.59602ZM79.4788 1.99908H83.7657V9.47708C83.7657 11.0483 83.6272 12.2434 83.3474 13.0645C83.0675 13.8817 82.504 14.5771 81.6579 15.1477C80.8117 15.7155 79.7264 15.9999 78.4068 15.9999C77.0104 15.9999 75.929 15.8119 75.1625 15.4359C74.3941 15.0617 73.8021 14.5128 73.3828 13.7882C72.9645 13.0673 72.7169 12.1735 72.6429 11.1087L76.7173 10.5579C76.724 11.1607 76.779 11.6095 76.8786 11.9005C76.9782 12.1952 77.1489 12.4296 77.3899 12.6119C77.554 12.7309 77.7864 12.7886 78.0881 12.7886C78.5681 12.7886 78.9191 12.6119 79.1439 12.2595C79.3659 11.9071 79.4788 11.3109 79.4788 10.4748V1.99908ZM87.1116 8.89416C87.1116 6.64745 87.7396 4.89675 88.9975 3.6468C90.2564 2.39401 92.0066 1.76855 94.2539 1.76855C96.5544 1.76855 98.3284 2.38456 99.573 3.61184C100.819 4.8429 101.44 6.56714 101.44 8.78172C101.44 10.3907 101.17 11.7087 100.626 12.7376C100.081 13.7664 99.2931 14.5676 98.2667 15.1411C97.2374 15.7155 95.9558 15.9999 94.4209 15.9999C92.8632 15.9999 91.5731 15.7533 90.5485 15.2601C89.5287 14.7632 88.6987 13.9809 88.064 12.9105C87.4304 11.8428 87.1116 10.5031 87.1116 8.89416ZM91.3795 8.9036C91.3795 10.2915 91.6404 11.292 92.1584 11.8976C92.6792 12.5032 93.3878 12.8075 94.2824 12.8075C95.1997 12.8075 95.9141 12.5099 96.4159 11.9165C96.9215 11.3204 97.1729 10.2565 97.1729 8.71464C97.1729 7.41934 96.9092 6.47455 96.3836 5.87744C95.8562 5.27844 95.1447 4.98084 94.2435 4.98084C93.3812 4.98084 92.6858 5.28506 92.165 5.89067C91.6404 6.49628 91.3795 7.50343 91.3795 8.9036ZM104.246 8.89416C104.246 6.64745 104.873 4.89675 106.132 3.6468C107.39 2.39401 109.141 1.76855 111.387 1.76855C113.688 1.76855 115.462 2.38456 116.707 3.61184C117.953 4.8429 118.574 6.56714 118.574 8.78172C118.574 10.3907 118.304 11.7087 117.759 12.7376C117.216 13.7664 116.428 14.5676 115.4 15.1411C114.371 15.7155 113.09 15.9999 111.554 15.9999C109.997 15.9999 108.707 15.7533 107.683 15.2601C106.663 14.7632 105.832 13.9809 105.198 12.9105C104.565 11.8428 104.246 10.5031 104.246 8.89416ZM108.513 8.9036C108.513 10.2915 108.774 11.292 109.292 11.8976C109.814 12.5032 110.521 12.8075 111.417 12.8075C112.333 12.8075 113.048 12.5099 113.55 11.9165C114.055 11.3204 114.306 10.2565 114.306 8.71464C114.306 7.41934 114.043 6.47455 113.518 5.87744C112.99 5.27844 112.279 4.98084 111.378 4.98084C110.515 4.98084 109.82 5.28506 109.298 5.89067C108.774 6.49628 108.513 7.50343 108.513 8.9036ZM121.708 7.38439H125.319V3.76868H128.37V7.38439H132V10.4228H128.37V14.0196H125.319V10.4228H121.708V7.38439Z" fill="#595759"/>
</g>
</g>
</svg>
