<svg width="24" height="24" viewBox="0 0 24 24" fill="none" xmlns="http://www.w3.org/2000/svg">
<path fill-rule="evenodd" clip-rule="evenodd" d="M2.50068 3H9.30085C9.92168 3 10.5164 3.24965 10.9513 3.69277L11.8597 4.61849C12.2946 5.06168 12.8895 5.31134 13.5104 5.31126L21.756 5.31028C23.0688 5.32558 23.9232 6.35238 24 7.38573V18.746C24 20.1158 22.8747 21.2365 21.4993 21.2365H2.50068C1.12531 21.2365 0 20.1158 0 18.746V5.48944C0 4.11965 1.12531 3 2.50068 3ZM15.8366 14.759H13.0322C12.7129 14.759 12.4541 14.5002 12.4541 14.1809V12.9733C12.4541 12.654 12.7129 12.3952 13.0322 12.3952H15.8366V9.6045C15.8366 9.28523 16.0954 9.02642 16.4147 9.02642H17.6495C17.9688 9.02642 18.2276 9.28523 18.2276 9.6045V12.3952H21.032C21.3513 12.3952 21.6101 12.654 21.6101 12.9733V14.1809C21.6101 14.5002 21.3513 14.759 21.032 14.759H18.2276V17.5682C18.2276 17.8875 17.9688 18.1463 17.6495 18.1463H16.4147C16.0954 18.1463 15.8366 17.8875 15.8366 17.5682V14.759Z" fill="#8F11A6"/>
</svg>
