<svg width="130" height="35" viewBox="0 0 130 35" fill="none" xmlns="http://www.w3.org/2000/svg">
<g id="logo.76b52e9e 1" clip-path="url(#clip0_1967_365)">
<path id="Vector" d="M103.519 20.3575C103.869 21.3318 104.391 22.2355 105.06 23.0256C105.074 23.0521 105.092 23.0769 105.112 23.0992L105.577 23.5926L106.074 24.0564C106.096 24.0785 106.121 24.0967 106.149 24.11C106.94 24.7855 107.847 25.3113 108.827 25.66C109.538 25.9172 110.279 26.0844 111.031 26.158C111.055 26.1451 111.065 26.158 111.087 26.158C111.114 26.1664 111.142 26.1696 111.171 26.1677H111.328C111.673 26.1903 112.018 26.1903 112.362 26.1677H112.523C112.551 26.1695 112.579 26.1662 112.605 26.158C112.626 26.158 112.64 26.1451 112.659 26.158C117.955 25.8402 122.532 22.3513 124.242 17.3291C124.717 15.9661 124.957 14.5324 124.952 13.089C124.941 6.12279 119.481 0.382393 112.523 0.0258789C112.809 0.0362127 113.083 0.0568802 113.363 0.0762559C114.175 0.149238 114.981 0.270014 115.777 0.456021C115.903 0.476279 116.027 0.508059 116.148 0.550963C116.298 0.583256 116.454 0.624591 116.6 0.667217C116.974 0.774112 117.344 0.893883 117.71 1.02632C118.098 1.16388 118.485 1.31954 118.879 1.48875L119.575 1.81556C119.584 1.82847 119.597 1.82847 119.607 1.83687C119.828 1.94021 120.039 2.05969 120.259 2.18563C120.461 2.29091 120.647 2.40716 120.854 2.526C120.909 2.55442 120.96 2.588 121.009 2.62675C121.22 2.75593 121.441 2.90254 121.654 3.04915H121.666C122.099 3.35528 122.52 3.67305 122.93 4.01148L122.975 4.04829L123.608 4.61019C123.774 4.76003 123.947 4.91374 124.104 5.07521C124.261 5.23667 124.419 5.40201 124.567 5.57123C124.711 5.72424 124.849 5.88282 124.98 6.04658C125.033 6.09567 125.082 6.14798 125.127 6.20417L125.168 6.24486C125.505 6.65467 125.825 7.07761 126.128 7.51268V7.5256C126.277 7.73321 126.417 7.94651 126.549 8.165C126.589 8.21538 126.625 8.26834 126.657 8.32388C126.771 8.52603 126.887 8.7114 126.993 8.9129C127.122 9.13508 127.238 9.34757 127.343 9.56845C127.354 9.57814 127.354 9.59106 127.363 9.60074L127.69 10.2983C127.694 10.3176 127.702 10.3344 127.713 10.3499L127.723 10.3596C127.87 10.7187 128.018 11.0869 128.156 11.4666C128.29 11.8308 128.41 12.2004 128.515 12.5743C128.558 12.7239 128.596 12.8746 128.631 13.0264C128.674 13.1556 128.696 13.2783 128.725 13.3919C128.907 14.1878 129.034 14.995 129.106 15.8081L129.159 16.6522C129.177 17.1022 129.177 17.5528 129.159 18.0027C129.161 18.0419 129.156 18.0811 129.146 18.119C128.73 25.0284 123.008 30.42 116.085 30.4252C114.643 30.4304 113.21 30.1926 111.847 29.7218C109.39 28.8853 107.238 27.336 105.665 25.2715C104.092 23.207 103.17 20.7208 103.016 18.13C103.086 18.8913 103.255 19.6403 103.518 20.3582L103.519 20.3575Z" fill="url(#paint0_linear_1967_365)"/>
<path id="Vector_2" d="M99.4507 17.3322C101.165 12.3184 105.735 8.8327 111.023 8.50525C110.27 8.57759 109.529 8.74422 108.819 9.00256C107.839 9.35354 106.931 9.87867 106.139 10.5526C106.112 10.5682 106.088 10.5871 106.066 10.6088C105.898 10.7541 105.73 10.915 105.57 11.0674C105.41 11.2198 105.254 11.4 105.103 11.5679C105.085 11.5854 105.064 11.6183 105.039 11.6325C104.889 11.8095 104.742 12.0006 104.605 12.2009C104.139 12.8494 103.767 13.5604 103.499 14.3128C103.242 15.0232 103.076 15.7632 103.004 16.5152C103.014 16.5268 103.004 16.5475 103.004 16.5669C102.995 16.5946 102.991 16.6231 102.992 16.6521C102.982 16.8749 102.969 17.1042 102.969 17.3277C102.969 17.5512 102.982 17.7798 102.992 18.0026C102.991 18.0315 102.995 18.0604 103.004 18.0879C103.004 18.0956 103.014 18.1072 103.004 18.1286C103.125 20.2903 103.789 22.3867 104.934 24.2242C106.397 26.5888 108.575 28.4261 111.152 29.4701C113.729 30.514 116.572 30.7102 119.268 30.0303C121.964 29.3504 124.374 27.8297 126.148 25.6886C127.922 23.5474 128.968 20.897 129.135 18.1214C129.135 18.3604 129.114 18.6058 129.094 18.8448C129.021 19.6547 128.895 20.4582 128.713 21.2506C128.69 21.3796 128.658 21.5067 128.618 21.6311C128.587 21.7796 128.544 21.9372 128.503 22.0864C128.428 22.3478 128.347 22.6075 128.26 22.8653C127.921 23.8612 127.495 24.8248 126.984 25.7439C126.929 25.8375 126.878 25.9376 126.816 26.0281C126.738 26.1674 126.655 26.3042 126.568 26.4382C126.433 26.6707 126.275 26.9161 126.116 27.1486C125.811 27.5781 125.494 28.0012 125.157 28.4145L125.114 28.4546C124.937 28.6651 124.747 28.8744 124.555 29.0875C124.407 29.2586 124.252 29.4236 124.091 29.5822C123.929 29.7383 123.764 29.8901 123.594 30.0376L123.119 30.447C123.055 30.5168 122.985 30.5801 122.91 30.6369C122.708 30.8068 122.509 30.9644 122.297 31.1239C121.877 31.443 121.444 31.7453 120.999 32.03C120.984 32.0294 120.968 32.0365 120.959 32.0494C120.918 32.0707 120.879 32.0953 120.843 32.123C120.185 32.5234 119.501 32.8799 118.796 33.19C118.555 33.2959 118.299 33.4012 118.057 33.4968C117.062 33.8681 116.04 34.1575 114.999 34.3622C114.47 34.457 113.942 34.5271 113.415 34.5728C113.151 34.596 112.888 34.6141 112.623 34.6244C112.096 34.6566 111.568 34.6566 111.041 34.6244C110.988 34.6257 110.935 34.6223 110.883 34.6141C110.699 34.612 110.516 34.5982 110.333 34.5728C108.372 34.348 106.488 33.6817 104.821 32.6241C103.154 31.5664 101.749 30.1449 100.71 28.4662C99.4125 26.3996 98.7274 24.0073 98.7344 21.5671C98.7306 20.123 98.9734 18.6885 99.4494 17.3251L99.4507 17.3322Z" fill="url(#paint1_linear_1967_365)"/>
<path id="Vector_3" d="M94.5908 15.7493C94.6334 15.2184 94.7032 14.6901 94.8001 14.1669L95.1598 12.6272L95.4136 11.7876L95.6675 11.101L96.2164 9.82741L96.6879 8.90835L97.038 8.31804L97.5547 7.50426L98.5138 6.23966L98.557 6.19445L99.1138 5.56474L99.5775 5.07001L100.075 4.6037L100.55 4.19487C100.599 4.14158 100.652 4.09213 100.709 4.04697C100.724 4.03446 100.739 4.02109 100.753 4.00693L102.019 3.05622V3.0446L102.723 2.5925L103.137 2.34836C103.23 2.287 103.331 2.23081 103.423 2.18044C104.339 1.66141 105.303 1.23352 106.303 0.902928L107.082 0.660731L107.538 0.544476C107.661 0.502376 107.787 0.471464 107.916 0.452118C108.708 0.26934 109.512 0.142106 110.322 0.0710611L111.167 0.0161631C111.616 -0.0161299 112.068 -0.0161299 112.518 0.0161631C114.63 0.121463 116.684 0.73796 118.505 1.81267C120.326 2.88739 121.859 4.38817 122.972 6.18606C124.267 8.25215 124.952 10.6425 124.948 13.0813C124.952 14.5247 124.712 15.9586 124.237 17.3213C122.524 22.3422 117.948 25.8299 112.652 26.1502C113.405 26.0772 114.146 25.91 114.857 25.6529C115.838 25.3041 116.746 24.7784 117.538 24.1028C117.563 24.0867 117.588 24.0686 117.612 24.0492C117.781 23.902 117.946 23.7444 118.106 23.5874C118.265 23.4305 118.422 23.2645 118.571 23.0901C118.59 23.0669 118.614 23.0385 118.636 23.0165C118.786 22.8357 118.933 22.6484 119.07 22.4456C119.53 21.8 119.899 21.0944 120.167 20.3485C120.431 19.6316 120.6 18.8824 120.673 18.1222C120.66 18.1009 120.673 18.0899 120.673 18.0789C120.681 18.0523 120.685 18.0246 120.684 17.9969V17.8387C120.706 17.4946 120.706 17.1494 120.684 16.8053V16.6477C120.685 16.6187 120.682 16.5897 120.674 16.5618C120.674 16.5411 120.661 16.5185 120.674 16.5088C120.343 11.2205 116.857 6.65301 111.842 4.94149C110.479 4.46804 109.045 4.22893 107.601 4.23427C100.747 4.23815 95.0558 9.52773 94.5508 16.3635C94.5585 16.1478 94.5702 15.9502 94.5928 15.7435L94.5908 15.7493Z" fill="url(#paint2_linear_1967_365)"/>
<path id="Vector_4" d="M94.5436 16.3641C95.0539 9.53092 100.744 4.24391 107.598 4.23875C109.041 4.23304 110.475 4.47104 111.84 4.94273C114.701 5.9188 117.134 7.85755 118.725 10.428C119.872 12.2623 120.533 14.3536 120.667 16.512C120.596 15.7589 120.43 15.0175 120.169 14.307C119.82 13.3279 119.294 12.4208 118.619 11.63C118.604 11.6028 118.585 11.5783 118.563 11.5557C118.415 11.3865 118.258 11.2173 118.101 11.0584C117.943 10.8995 117.773 10.7419 117.603 10.5946C117.584 10.5753 117.563 10.5624 117.542 10.541C116.742 9.87129 115.831 9.3462 114.851 8.99098C114.139 8.73522 113.398 8.56794 112.646 8.49367C112.626 8.50659 112.613 8.49367 112.592 8.49367C112.565 8.48899 112.538 8.48683 112.51 8.48721C112.288 8.47429 112.054 8.46783 111.835 8.46783C111.609 8.46841 111.384 8.47508 111.158 8.48786C111.13 8.48749 111.101 8.48965 111.072 8.49432C111.052 8.49432 111.042 8.50723 111.02 8.49432C104.252 8.91864 98.929 14.4395 98.7508 21.2177C98.5725 27.996 103.599 33.7888 110.335 34.5677C110.306 34.5741 110.277 34.5741 110.249 34.5677C109.72 34.522 109.193 34.4513 108.671 34.3558C107.627 34.1546 106.602 33.8662 105.607 33.4936L104.869 33.1855C104.846 33.1726 104.837 33.1649 104.827 33.1649C104.139 32.8576 103.47 32.5086 102.825 32.1199C102.786 32.094 102.747 32.0695 102.706 32.0475C102.698 32.032 102.681 32.023 102.664 32.0243C101.98 31.5909 101.324 31.113 100.703 30.5937C100.489 30.4128 100.28 30.2204 100.07 30.0318C99.9017 29.8858 99.7312 29.7257 99.5723 29.5797C99.4134 29.4337 99.27 29.2529 99.1086 29.085C98.9653 28.9327 98.8286 28.7744 98.6991 28.6103C98.6455 28.5618 98.5958 28.5082 98.5505 28.4514L98.5066 28.4126C98.1682 27.9993 97.8524 27.5775 97.5475 27.1416C97.368 26.8716 97.1884 26.6074 97.0308 26.3317C96.9055 26.1379 96.7867 25.9441 96.6821 25.7407C96.5167 25.4346 96.3527 25.1304 96.2074 24.8223C96.0083 24.4052 95.825 23.9808 95.6577 23.5499L95.4059 22.8621C95.3122 22.5879 95.2275 22.3107 95.152 22.0309C95.0138 21.5207 94.8853 21.0078 94.7923 20.4918C94.698 19.9635 94.6231 19.4352 94.5817 18.9082C94.5611 18.6433 94.5385 18.3818 94.5301 18.1189C94.4952 17.5912 94.4952 17.061 94.5301 16.5333C94.5236 16.4765 94.5275 16.419 94.5417 16.3641H94.5436Z" fill="url(#paint3_linear_1967_365)"/>
<g id="Group">
<path id="Vector_5" d="M83.1203 24.1164C82.05 24.1167 80.9961 23.8531 80.0519 23.349C79.1078 22.8449 78.3025 22.1158 77.7073 21.2262C76.9914 20.1559 76.6092 18.8971 76.6094 17.6094C76.6101 15.8833 77.2962 14.2281 78.5169 13.0078C79.7376 11.7875 81.3929 11.1019 83.119 11.1017C84.8451 11.1022 86.5003 11.7881 87.7207 13.0087C88.9412 14.2293 89.627 15.8846 89.6273 17.6107C89.627 19.3367 88.9412 20.992 87.7207 22.2126C86.5003 23.4332 84.8451 24.1191 83.119 24.1196L83.1203 24.1164ZM83.1203 14.9278C82.6969 14.9254 82.2793 15.0253 81.9028 15.219C81.4925 15.4289 81.1426 15.7402 80.8863 16.1232C80.7104 16.3844 80.5839 16.6755 80.5129 16.9822C80.4632 17.187 80.438 17.3956 80.4387 17.6068C80.4383 17.8549 80.4724 18.1018 80.5401 18.3405C80.615 18.6085 80.7319 18.8623 80.8869 19.0935C81.1416 19.4742 81.489 19.7838 81.8964 19.9932C82.2749 20.1889 82.6947 20.2903 83.1203 20.2884C83.8311 20.2884 84.5129 20.006 85.0155 19.5033C85.5182 19.0007 85.8006 18.3189 85.8006 17.6081C85.8006 16.8972 85.5182 16.2155 85.0155 15.7128C84.5129 15.2101 83.8311 14.9278 83.1203 14.9278Z" fill="#111441"/>
<path id="Vector_6" d="M73.8086 20.2594H83.1374V24.0803H73.8086V20.2594Z" fill="#111441"/>
<path id="Vector_7" d="M74.0431 24.0745C73.2356 24.0745 72.436 23.9154 71.69 23.6064C70.944 23.2973 70.2661 22.8444 69.6952 22.2734C69.1242 21.7023 68.6713 21.0245 68.3624 20.2784C68.0534 19.5323 67.8944 18.7327 67.8945 17.9252V6.68729C67.8945 6.6776 67.8984 6.66792 67.9049 6.66146C67.9113 6.655 67.921 6.65112 67.9307 6.65112H71.6799C71.6896 6.65112 71.6993 6.655 71.7057 6.66146C71.7122 6.66792 71.7161 6.6776 71.7161 6.68729V17.9252C71.7161 19.2105 72.7559 20.2516 74.0412 20.2536C74.0605 20.2542 74.0767 20.2697 74.0767 20.2897V24.0357C74.0773 24.0454 74.0741 24.0551 74.0677 24.0616C74.0612 24.068 74.0522 24.0732 74.0431 24.0745Z" fill="#111441"/>
<path id="Vector_8" d="M65.6012 24.0906H59.6322V20.2697H65.6012C66.2088 20.268 66.791 20.0259 67.2206 19.5963C67.6502 19.1667 67.8923 18.5845 67.894 17.9769V4.09094H71.7143V17.9847C71.7117 19.6051 71.0669 21.1583 69.9212 22.3042C68.7755 23.45 67.2222 24.095 65.6018 24.0977L65.6012 24.0906ZM59.6322 4.09223H63.4976V17.3246H59.6322V4.09223ZM50.7884 24.1836H44.1638C40.7892 24.1798 38.054 21.4452 38.0508 18.0712V16.3661H41.8717V18.0712C41.8736 19.3371 42.9051 20.3614 44.1645 20.3627H50.7884C52.0543 20.3614 53.0793 19.3293 53.0812 18.0712V15.006H56.9021V18.0712C56.8983 21.4458 54.1637 24.181 50.7884 24.1836Z" fill="#111441"/>
<path id="Vector_9" d="M35.7625 24.163H28.5935C26.9708 24.1608 25.4152 23.5152 24.2679 22.3678C23.1205 21.2204 22.4749 19.6649 22.4727 18.0422V14.9485H26.2987V18.0422C26.2998 18.6507 26.5419 19.2339 26.9722 19.6642C27.4024 20.0944 27.9857 20.3366 28.5941 20.3376H35.7631C36.3716 20.3366 36.9549 20.0944 37.3851 19.6642C37.8153 19.2339 38.0575 18.6507 38.0585 18.0422V13.8248L41.8846 12.2941V18.0422C41.882 19.6649 41.2361 21.2203 40.0885 22.3674C38.9409 23.5146 37.3852 24.1599 35.7625 24.1617V24.163Z" fill="#111441"/>
<path id="Vector_10" d="M48.2583 30.4898C49.4322 30.4898 50.3839 29.5382 50.3839 28.3643C50.3839 27.1904 49.4322 26.2388 48.2583 26.2388C47.0844 26.2388 46.1328 27.1904 46.1328 28.3643C46.1328 29.5382 47.0844 30.4898 48.2583 30.4898Z" fill="#111441"/>
<path id="Vector_11" d="M52.7232 30.4898C53.8971 30.4898 54.8487 29.5382 54.8487 28.3643C54.8487 27.1904 53.8971 26.2388 52.7232 26.2388C51.5493 26.2388 50.5977 27.1904 50.5977 28.3643C50.5977 29.5382 51.5493 30.4898 52.7232 30.4898Z" fill="#111441"/>
<path id="Vector_12" d="M17.3638 30.4898C18.5377 30.4898 19.4893 29.5382 19.4893 28.3643C19.4893 27.1904 18.5377 26.2388 17.3638 26.2388C16.1899 26.2388 15.2383 27.1904 15.2383 28.3643C15.2383 29.5382 16.1899 30.4898 17.3638 30.4898Z" fill="#111441"/>
<path id="Vector_13" d="M21.8286 30.4898C23.0025 30.4898 23.9542 29.5382 23.9542 28.3643C23.9542 27.1904 23.0025 26.2388 21.8286 26.2388C20.6548 26.2388 19.7031 27.1904 19.7031 28.3643C19.7031 29.5382 20.6548 30.4898 21.8286 30.4898Z" fill="#111441"/>
<path id="Vector_14" d="M29.9497 9.28169C31.1236 9.28169 32.0753 8.33006 32.0753 7.15616C32.0753 5.98227 31.1236 5.03064 29.9497 5.03064C28.7758 5.03064 27.8242 5.98227 27.8242 7.15616C27.8242 8.33006 28.7758 9.28169 29.9497 9.28169Z" fill="#111441"/>
<path id="Vector_15" d="M34.3872 9.28169C35.5611 9.28169 36.5128 8.33006 36.5128 7.15616C36.5128 5.98227 35.5611 5.03064 34.3872 5.03064C33.2133 5.03064 32.2617 5.98227 32.2617 7.15616C32.2617 8.33006 33.2133 9.28169 34.3872 9.28169Z" fill="#111441"/>
<path id="Vector_16" d="M83.0747 9.28169C84.2486 9.28169 85.2003 8.33006 85.2003 7.15616C85.2003 5.98227 84.2486 5.03064 83.0747 5.03064C81.9009 5.03064 80.9492 5.98227 80.9492 7.15616C80.9492 8.33006 81.9009 9.28169 83.0747 9.28169Z" fill="#111441"/>
<path id="Vector_17" d="M6.45604 24.2134C4.73713 24.2042 3.09206 23.5135 1.88175 22.2929C0.67143 21.0723 -0.00529575 19.4214 3.12123e-05 17.7025C0.00618727 15.9835 0.694004 14.3371 1.91257 13.1246C3.13114 11.9121 4.78092 11.2325 6.49996 11.2349C8.21899 11.2379 9.86659 11.9228 11.0813 13.1392C12.296 14.3556 12.9785 16.0041 12.9792 17.7232V20.397H20.2051C20.8124 20.3965 21.3947 20.1551 21.8242 19.7257C22.2537 19.2963 22.4953 18.7141 22.496 18.1068V16.4043H26.313V18.1068C26.3108 19.726 25.6665 21.2783 24.5216 22.4233C23.3766 23.5683 21.8243 24.2125 20.2051 24.2147H12.261M6.48898 20.3964H9.16025V17.7225C9.15957 17.0143 8.87791 16.3352 8.3771 15.8344C7.87629 15.3336 7.19724 15.0519 6.48898 15.0513C6.06723 15.0493 5.6513 15.1494 5.27606 15.3419C4.86674 15.552 4.51792 15.8633 4.2627 16.2461C4.08738 16.5067 3.9613 16.7971 3.89069 17.1031L3.88552 17.1251C3.83896 17.3215 3.81597 17.5227 3.81706 17.7245C3.81684 17.9719 3.85096 18.2182 3.91846 18.4562C3.99273 18.723 4.10963 18.9768 4.26399 19.2067C4.51812 19.5863 4.86461 19.895 5.27089 20.1038C5.64754 20.2992 6.06597 20.4003 6.49027 20.3983L6.48898 20.3964Z" fill="#111441"/>
<path id="Vector_18" d="M6.46484 29.7742V25.9637C7.17846 25.9631 7.86271 25.6794 8.36731 25.1748C8.87191 24.6702 9.15563 23.986 9.15614 23.2724V18.6047H12.9667V23.2724C12.9645 24.9961 12.2788 26.6486 11.0599 27.8674C9.84105 29.0863 8.18856 29.772 6.46484 29.7742Z" fill="#111441"/>
<path id="Vector_19" d="M3.53906 25.9636H6.4661V29.7742H3.53906V25.9636Z" fill="#111441"/>
</g>
</g>
<defs>
<linearGradient id="paint0_linear_1967_365" x1="129.173" y1="4.85938" x2="117.528" y2="30.4169" gradientUnits="userSpaceOnUse">
<stop stop-color="#E0AAFF"/>
<stop offset="1" stop-color="#9A24DD"/>
</linearGradient>
<linearGradient id="paint1_linear_1967_365" x1="99.3728" y1="21.5769" x2="116.541" y2="38.869" gradientUnits="userSpaceOnUse">
<stop stop-color="#0E58EE"/>
<stop offset="1" stop-color="#6294F9"/>
</linearGradient>
<linearGradient id="paint2_linear_1967_365" x1="124.948" y1="15.4776" x2="104.176" y2="-3.03193" gradientUnits="userSpaceOnUse">
<stop stop-color="#FF003B"/>
<stop offset="1" stop-color="#FFCC80"/>
</linearGradient>
<linearGradient id="paint3_linear_1967_365" x1="105.911" y1="6.42269" x2="92.1329" y2="23.4302" gradientUnits="userSpaceOnUse">
<stop stop-color="#FF4242"/>
<stop offset="1" stop-color="#FFF56D"/>
</linearGradient>
<clipPath id="clip0_1967_365">
<rect width="129.172" height="34.651" fill="white"/>
</clipPath>
</defs>
</svg>
