<svg width="136" height="136" viewBox="0 0 136 136" fill="none" xmlns="http://www.w3.org/2000/svg">
<g id="Group 40011">
<g id="Group 40008">
<rect id="Rectangle 6331" width="136" height="136" rx="37" fill="#FAFAFA"/>
</g>
<g id="Layer_x0020_1">
<g id="_2164563539664">
<path id="Vector" fill-rule="evenodd" clip-rule="evenodd" d="M95.7867 71.4893C95.8683 72.3976 94.6037 74.3659 93.2861 75.1126C91.9757 75.8549 90.0002 76.2929 88.0615 76.0748C80.8784 75.2652 80.4799 63.493 85.9406 60.7573C88.4824 59.4837 92.1346 60.0581 94.1145 62.1225C94.3551 62.3738 94.6136 62.7867 94.8792 63.0137L100.977 60.2825C100.834 59.3904 98.8625 57.4472 98.0556 56.8351C96.7641 55.8549 95.4375 55.2293 93.7456 54.6881C90.2488 53.5689 85.9505 53.8489 82.7974 55.2814C77.1088 57.8654 73.2493 64.9309 75.8037 72.5349C79.6434 83.9633 95.0381 83.8691 100.289 76.6367C101.664 74.7429 102.588 71.9129 102.746 69.4321C102.816 68.338 102.716 67.2313 102.778 66.235L102.735 65.7055C102.276 65.5852 89.4859 65.5574 88.9016 65.683L88.8792 71.1805L95.8486 71.2173L95.7867 71.4893Z" fill="black"/>
<path id="Vector_2" fill-rule="evenodd" clip-rule="evenodd" d="M59.282 71.1177C59.5737 70.2292 62.5132 60.1165 62.7618 59.7216C62.9234 59.9245 62.9638 60.1713 63.0436 60.4379C63.119 60.6892 63.1863 60.8992 63.2546 61.138C63.7204 62.7643 66.1402 70.424 66.2461 71.1608L59.282 71.1177ZM56.1227 81.0518C56.3964 80.629 57.3774 76.924 57.7374 76.1916C58.257 76.0659 66.702 76.1036 67.7988 76.1494L69.2107 80.4755C69.4036 81.05 69.4377 80.9216 69.4853 81.0724L76.3865 81.0868C76.33 80.5222 75.5518 78.5072 75.2781 77.73C74.6399 75.9151 67.4901 54.7788 67.2504 54.6146C66.9318 54.5006 58.9805 54.4836 58.231 54.585L50.2348 77.7973C49.9763 78.5404 49.2268 80.4343 49.1523 81.0742L56.1227 81.0518Z" fill="black"/>
<path id="Vector_3" fill-rule="evenodd" clip-rule="evenodd" d="M115.967 80.979L115.985 60.9342L121.999 60.9135L121.965 54.5598L102.887 54.5697L102.902 60.8193C103.02 60.9934 102.755 60.9252 103.217 60.9674C104.122 61.0509 107.585 60.8453 108.872 60.9826L108.895 81.0948C110.392 81.2995 115.074 80.9063 115.915 81.1711L115.967 80.979Z" fill="black"/>
<path id="Vector_4" fill-rule="evenodd" clip-rule="evenodd" d="M21.3832 75.7077L21.2979 75.7813L21.2656 80.9144C21.4038 81.2106 21.4254 81.1271 21.8427 81.1172C25.3503 81.0347 41.5456 81.2599 42.5365 81.058C42.6748 80.5572 42.594 63.3468 42.5895 60.366C42.5886 59.77 42.5581 59.8885 42.4558 59.8257L37.1934 59.8104L37.1773 75.7158L21.3832 75.7077Z" fill="#D22618"/>
<path id="Vector_5" fill-rule="evenodd" clip-rule="evenodd" d="M21.3422 59.8328C22.0997 60.0087 36.9119 59.8759 37.1228 59.7727C37.3176 59.5806 37.1937 55.7615 37.2081 54.8074C37.1946 54.3766 37.0357 54.5202 36.1131 54.5247H26.6924C23.1929 54.5247 19.487 54.4062 16.0135 54.531L16 75.7373L21.2982 75.7813L21.3835 75.7077C21.2497 75.1718 21.3395 72.656 21.3395 71.8545C21.3395 70.5387 21.3395 69.2229 21.3395 67.9071C21.3395 65.2163 21.3413 62.5209 21.3422 59.8328Z" fill="#019C40"/>
</g>
</g>
</g>
</svg>
