<svg width="136" height="136" viewBox="0 0 136 136" fill="none" xmlns="http://www.w3.org/2000/svg">
<g id="Group 40030">
<g id="Group 40006">
<rect id="Rectangle 6333" width="136" height="136" rx="37" fill="#FAFAFA"/>
</g>
<g id="Layer_x0020_1">
<g id="_2199288930784">
<path id="Vector" fill-rule="evenodd" clip-rule="evenodd" d="M63.0273 22L52.725 63.0016L104.741 48.0001L102.193 59.8306L46.6602 71.6746L57.9445 25.3909L63.0273 22Z" fill="#C3EFFF"/>
<path id="Vector_2" fill-rule="evenodd" clip-rule="evenodd" d="M54.7173 32.8892L44.9306 72.9923L78.6233 66.2742L78.6242 66.2706L82.9577 65.4099L82.9912 65.4027L87.987 64.41L85.7183 74.8969L76.5712 75.8735L39.9883 79.7796L50.7888 35.519L54.7173 32.8892Z" fill="#78BEFF"/>
<path id="Vector_3" fill-rule="evenodd" clip-rule="evenodd" d="M89.7622 64.0483L101.804 61.6465L99.2509 73.4519L87.4609 74.7111L89.7622 64.0483Z" fill="#78BEFF"/>
<path id="Vector_4" fill-rule="evenodd" clip-rule="evenodd" d="M48.5058 41.2129L44.7703 43.7027L34.4336 86.1063L72.4299 85.206L74.0689 77.6334L38.8875 80.6483L48.5058 41.2129Z" fill="#0476DF"/>
<path id="Vector_5" fill-rule="evenodd" clip-rule="evenodd" d="M48.5064 41.2129L46.6328 42.4614L48.405 41.6285L48.5064 41.2129ZM85.2661 84.9009L96.8159 84.628L98.7946 75.4991L87.0781 76.507L85.2661 84.9009Z" fill="#0476DF"/>
<path id="Vector_6" fill-rule="evenodd" clip-rule="evenodd" d="M76.2332 77.4477L74.5625 85.1549L83.5936 84.9413L85.3603 76.6543L76.2332 77.4477Z" fill="#0476DF"/>
<g id="Group">
<path id="Vector_7" fill-rule="evenodd" clip-rule="evenodd" d="M99.7138 93.9184H92.2936V95.9271H99.7138V93.9184ZM92.2945 96.9583H94.0368C94.603 96.9583 95.0868 96.9969 95.6576 97.1585C97.9589 97.8092 99.6595 100.097 99.6595 102.82C99.6595 106.617 96.7956 108.866 93.1851 108.866C92.9278 108.866 92.675 108.854 92.4304 108.831C90.6564 108.665 89.2838 107.925 89.0999 107.008C89.051 106.82 88.9785 106.401 88.9894 105.677V93.1519H90.9128V103.716C90.96 105.644 90.6383 107.005 92.9858 106.911C95.403 106.815 97.6445 105.385 97.6445 102.82C97.6445 100.557 95.8126 98.8432 93.553 98.8064H92.2945V96.9583Z" fill="#103E7F"/>
<path id="Vector_8" fill-rule="evenodd" clip-rule="evenodd" d="M87.69 96.7815H85.5962V106.022C85.5962 106.369 85.309 106.654 84.9584 106.654C84.6069 106.654 84.3206 106.369 84.3206 106.022V96.7815H82.2539V106.199C82.1769 106.461 81.9305 106.654 81.6415 106.654C81.2909 106.654 81.0036 106.369 81.0036 106.022V96.7815H78.9099V105.247C78.8763 105.864 78.7567 106.265 78.6743 106.47C78.446 106.786 77.4965 106.843 76.3576 106.843C75.0738 106.843 73.5472 106.77 72.5433 106.917C73.0244 108.338 73.4566 108.599 75.0838 108.831C75.0593 108.862 75.0339 108.893 75.0077 108.923C74.4333 109.356 73.7764 109.602 73.0797 109.602C70.8291 109.602 69.0017 107.039 68.9791 103.865H68.9781V96.7725H67.0547V105.812C67.0782 108.995 69.7229 111.569 72.9827 111.569C74.8663 111.569 76.5443 110.71 77.6297 109.37C78.6317 108.232 79.3511 108.371 80.673 108.669C81.3207 108.849 82.6879 108.841 83.2995 108.498C83.5967 108.664 83.9382 108.758 84.3006 108.758H84.9611C86.4624 108.758 87.69 107.542 87.69 106.056V96.7815ZM84.2934 93.9201C84.8424 93.9201 85.2882 94.3617 85.2882 94.9065C85.2882 95.4504 84.8424 95.892 84.2934 95.892C83.7434 95.892 83.2986 95.4504 83.2986 94.9065C83.2986 94.3617 83.7434 93.9201 84.2934 93.9201ZM81.8471 93.9201C82.3962 93.9201 82.8419 94.3617 82.8419 94.9065C82.8419 95.4504 82.3962 95.892 81.8471 95.892C81.2972 95.892 80.8523 95.4504 80.8523 94.9065C80.8523 94.3617 81.2972 93.9201 81.8471 93.9201ZM83.1219 91.9285C83.6709 91.9285 84.1167 92.3701 84.1167 92.914C84.1167 93.4588 83.6709 93.8995 83.1219 93.8995C82.572 93.8995 82.1262 93.4588 82.1262 92.914C82.1262 92.3701 82.572 91.9285 83.1219 91.9285Z" fill="#103E7F"/>
<path id="Vector_9" fill-rule="evenodd" clip-rule="evenodd" d="M49.846 96.7815H47.7522V106.022C47.7522 106.369 47.465 106.654 47.1143 106.654C46.7637 106.654 46.4765 106.369 46.4765 106.022V96.7815H44.4099V106.199C44.3329 106.461 44.0873 106.654 43.7983 106.654C43.4477 106.654 43.1605 106.369 43.1605 106.022V96.7815H41.0658V105.688C40.9498 107.779 39.1876 109.453 37.0503 109.453C34.8379 109.453 33.0277 107.661 33.0277 105.469V96.7842H31V105.504C31 108.803 33.7244 111.502 37.054 111.502C39.3036 111.502 41.276 110.272 42.3197 108.456C43.0219 108.856 44.7116 108.914 45.4563 108.498C46.0199 108.813 46.5064 108.758 47.117 108.758C48.6183 108.758 49.846 107.542 49.846 106.056V96.7815Z" fill="#103E7F"/>
<path id="Vector_10" fill-rule="evenodd" clip-rule="evenodd" d="M52.1357 96.7412H54.0601V107.922C54.0601 109.825 53.907 111.565 52.384 113.085L50.9062 112.064C51.1681 111.728 51.4 111.342 51.5948 110.897C52.3269 109.225 52.1357 107.627 52.1357 105.845V96.7412Z" fill="#103E7F"/>
<path id="Vector_11" fill-rule="evenodd" clip-rule="evenodd" d="M61.6607 96.811V106.133C61.6607 107.648 60.4095 108.887 58.8802 108.887H58.3157C56.7864 108.887 55.5352 107.648 55.5352 106.133V93.2495H57.4595V105.77C57.4595 106.333 57.9243 106.794 58.4933 106.794H58.7026C59.2715 106.794 59.7363 106.333 59.7363 105.77V96.811H61.6607Z" fill="#103E7F"/>
<path id="Vector_12" d="M60.7565 113.655C61.3059 113.655 61.7513 113.214 61.7513 112.67C61.7513 112.126 61.3059 111.684 60.7565 111.684C60.2071 111.684 59.7617 112.126 59.7617 112.67C59.7617 113.214 60.2071 113.655 60.7565 113.655Z" fill="#103E7F"/>
<path id="Vector_13" d="M59.4831 111.664C60.0325 111.664 60.4779 111.223 60.4779 110.678C60.4779 110.134 60.0325 109.693 59.4831 109.693C58.9337 109.693 58.4883 110.134 58.4883 110.678C58.4883 111.223 58.9337 111.664 59.4831 111.664Z" fill="#103E7F"/>
<path id="Vector_14" d="M61.9284 111.664C62.4778 111.664 62.9232 111.223 62.9232 110.678C62.9232 110.134 62.4778 109.693 61.9284 109.693C61.379 109.693 60.9336 110.134 60.9336 110.678C60.9336 111.223 61.379 111.664 61.9284 111.664Z" fill="#103E7F"/>
</g>
</g>
</g>
</g>
</svg>
