<svg width="136" height="136" viewBox="0 0 136 136" fill="none" xmlns="http://www.w3.org/2000/svg">
<g id="Group 40031">
<g id="Group 40008">
<rect id="Rectangle 6331" width="136" height="136" rx="37" fill="#FAFAFA"/>
</g>
<g id="Group 40032">
<path id="Vector" fill-rule="evenodd" clip-rule="evenodd" d="M84.1657 31C89.9328 31 104.278 32.7839 112.123 48.4729C108.511 45.4848 105.605 44.3058 100.661 44.3058C86.4644 44.3058 82.9752 63.5034 65.0411 63.5034C58.8336 63.5034 54.1055 60.2272 54.1055 54.5338C54.1055 47.9721 63.2489 31 84.1657 31Z" fill="#F04923"/>
<path id="Vector_2" fill-rule="evenodd" clip-rule="evenodd" d="M100.659 44.3057C105.597 44.3057 108.503 45.4821 112.11 48.4636C112.519 49.115 112.909 50.0146 112.909 51.1824C112.909 52.5903 112.039 55.1806 108.104 55.1806C101.355 55.1806 95.6022 49.0471 91.0039 47.7503C93.7712 45.7061 96.8249 44.3057 100.659 44.3057Z" fill="#B11116"/>
<path id="Vector_3" fill-rule="evenodd" clip-rule="evenodd" d="M53.0597 88.0317C58.8265 88.0317 73.1723 86.2477 81.0175 70.5587C77.4057 73.5472 74.4985 74.7258 69.5553 74.7258C55.3576 74.7258 51.8696 55.5282 33.9352 55.5282C27.7284 55.5282 23 58.8042 23 64.4978C23 71.0594 32.1436 88.0317 53.0597 88.0317Z" fill="#F04923"/>
<path id="Vector_4" fill-rule="evenodd" clip-rule="evenodd" d="M69.5578 74.7259C74.496 74.7259 77.4021 73.5496 81.0084 70.5676C81.4175 69.9166 81.8073 69.017 81.8073 67.8489C81.8073 66.4412 80.937 63.851 77.0035 63.851C70.2531 63.851 64.5014 69.9845 59.9023 71.2814C62.6703 73.3252 65.7233 74.7259 69.5578 74.7259Z" fill="#B11116"/>
<path id="Vector_5" fill-rule="evenodd" clip-rule="evenodd" d="M99.0443 78.1308C97.4194 81.3193 92.3918 88.7474 81.5078 88.6645C84.1773 87.5098 85.6486 86.2349 87.0408 83.5024C91.04 75.6528 81.4095 68.3167 86.4613 58.4017C88.2094 54.97 91.3531 53.2787 94.501 54.8825C98.1282 56.7309 104.936 66.5672 99.0443 78.1308Z" fill="#F04923"/>
<path id="Vector_6" fill-rule="evenodd" clip-rule="evenodd" d="M87.0412 83.5022C85.6504 86.2318 84.1809 87.5071 81.5167 88.6611C81.042 88.7041 80.434 88.6661 79.7888 88.337C79.0101 87.9404 77.8234 86.7295 78.9314 84.5545C80.8331 80.8235 85.8446 79.3708 87.8567 77.1937C88.207 79.2997 88.1215 81.3822 87.0412 83.5022Z" fill="#B11116"/>
<path id="Vector_7" fill-rule="evenodd" clip-rule="evenodd" d="M58.7937 104.009C55.9725 103.862 49.0015 102.621 45.5664 94.7456C47.2569 96.3002 48.6486 96.9509 51.0664 97.0779C58.0102 97.4419 60.2092 88.1406 68.982 88.6001C72.0184 88.7596 74.2472 90.4837 74.1015 93.2683C73.9332 96.4779 69.0248 104.546 58.7937 104.009Z" fill="#F04923"/>
<path id="Vector_8" fill-rule="evenodd" clip-rule="evenodd" d="M51.0693 97.0779C48.6542 96.9517 47.2627 96.3015 45.5746 94.7508C45.391 94.4209 45.2237 93.9713 45.2534 93.4003C45.29 92.711 45.7821 91.4661 47.7058 91.5677C51.008 91.7404 53.6643 94.8888 55.8799 95.6405C54.4741 96.5693 52.9446 97.176 51.0693 97.0779Z" fill="#B11116"/>
</g>
</g>
</svg>
