<svg width="166" height="52" viewBox="0 0 166 52" fill="none" xmlns="http://www.w3.org/2000/svg">
<g id="Group">
<path id="Vector" d="M40.9597 1.67466C41.6081 1.24027 42.2564 0.588686 42.9047 0.154297C42.9047 0.697283 42.5806 1.02308 42.2564 1.45746C41.6081 2.21765 41.0678 3.08642 40.3114 3.73801C35.9891 7.43031 31.1265 10.3624 26.372 13.4032C25.3995 13.9461 24.535 14.7063 23.5625 15.0321C23.5625 14.8149 23.5625 14.5977 23.6706 14.4891C24.3189 13.5118 25.1834 12.5344 26.1559 11.8828C28.6412 10.2538 31.0184 8.62488 33.5038 6.99592C35.9891 5.25837 38.5825 3.62941 40.9597 1.67466Z" fill="#403F40"/>
<path id="Vector_2" d="M91.0987 9.71084C91.2067 9.49365 91.4229 9.16786 91.639 9.27645C92.5034 9.71084 93.584 10.5796 93.2598 11.7742C92.9357 12.7516 92.2873 13.5117 91.4229 14.0547C91.2068 14.1633 90.9906 13.9461 90.8826 13.8375C90.3423 13.4031 89.802 12.9688 89.2617 12.5344C89.802 11.557 90.5584 10.6882 91.0987 9.71084Z" fill="#403F40"/>
<path id="Vector_3" d="M16.8643 11.0141C17.0804 10.6883 17.4046 11.0141 17.6207 11.1227C18.3771 11.5571 19.1335 12.4259 18.8093 13.4033C18.4852 14.1634 17.9449 14.9236 17.2965 15.4666C17.0804 15.6838 16.7563 15.358 16.6482 15.2494C16.1079 14.815 15.5676 14.3806 15.0273 13.9462C15.5676 12.9689 16.216 11.9915 16.8643 11.0141Z" fill="#403F40"/>
<path id="Vector_4" d="M82.3477 15.4661C82.996 14.2716 83.7524 13.1856 84.5088 12.0996C85.3733 12.4254 86.2377 13.1856 86.4538 14.163C86.5619 14.7059 86.2377 15.2489 85.9136 15.6833C85.4813 16.2263 85.0491 16.8779 84.2927 17.0951C83.6443 16.4435 82.996 15.9005 82.3477 15.4661Z" fill="#403F40"/>
<path id="Vector_5" d="M118.006 16.1178C118.439 15.4663 118.763 14.7061 119.411 14.1631C120.168 14.5975 121.032 15.2491 121.248 16.2264C121.356 17.0952 120.708 17.8554 120.168 18.507C119.843 18.7242 119.627 19.1586 119.195 19.05C118.547 18.6156 118.006 17.964 117.25 17.6382C117.25 16.9866 117.79 16.5522 118.006 16.1178Z" fill="#403F40"/>
<path id="Vector_6" d="M121.572 17.7466C122.22 16.7692 122.868 15.7918 123.517 14.8145C124.273 15.1402 125.029 15.6832 125.354 16.552C125.678 17.4208 125.029 18.2896 124.489 18.9411C124.165 19.2669 123.841 19.7013 123.301 19.7013C122.652 19.2669 122.112 18.724 121.464 18.2896C121.247 18.181 121.464 17.8552 121.572 17.7466Z" fill="#403F40"/>
<path id="Vector_7" d="M23.2386 15.4664C23.2386 15.3578 23.3467 15.1406 23.5628 15.1406C23.5628 15.4664 23.5628 15.7922 23.5628 16.118C23.4547 17.5298 23.4547 18.9415 23.3467 20.4619C23.3467 22.0908 23.1306 23.8284 22.6983 25.3488C22.2661 26.9777 21.2936 28.3895 19.8888 29.2583C18.9163 29.4755 18.268 30.3442 17.2955 30.5614C16.7552 30.5614 16.3229 31.1044 15.6746 31.213C14.9182 31.4302 14.3779 31.8646 13.6215 32.1904C13.0812 33.6022 12.5409 35.0139 11.6765 36.2085C11.1362 36.9687 10.2717 37.1859 9.40729 37.5117C8.97506 37.6203 8.32671 37.7289 7.57031 37.7289C8.1106 37.1859 8.867 36.8601 9.51534 36.3171C10.812 35.4483 12.0007 34.4709 12.649 32.9506C11.7845 33.1678 10.704 33.2764 10.0556 32.6248C9.51534 32.1904 9.6234 31.3216 9.83951 30.7786C10.2717 29.6927 10.704 28.7153 11.4604 27.8465C11.8926 27.3035 12.7571 27.4121 13.1893 27.8465C13.8376 28.3895 14.0537 29.3669 14.1618 30.2356C14.9182 30.0184 15.6746 29.5841 16.1068 28.8239C16.3229 28.9325 16.5391 29.0411 16.7552 29.1497C17.1874 28.9325 17.5116 28.6067 17.8358 28.1723C18.1599 28.1723 18.4841 28.2809 18.8083 28.0637C19.1324 27.8465 19.3486 27.4121 19.5647 27.0863C19.9969 27.1949 20.5372 27.3035 20.8614 26.8691C22.05 25.7832 22.05 23.937 22.05 22.4166C22.05 20.8963 21.8339 19.3759 22.3742 17.9642C22.5903 17.204 22.9144 16.3352 23.2386 15.4664Z" fill="#403F40"/>
<path id="Vector_8" d="M18.7003 15.3576C18.9164 15.249 19.0244 15.4662 19.2405 15.4662C19.9969 15.9005 20.7533 16.6607 20.6453 17.6381C20.3211 18.5069 19.7808 19.2671 19.0244 19.9186C18.7003 20.1358 18.4841 19.81 18.268 19.7014C17.8358 19.2671 17.2955 18.9413 16.8633 18.6155C16.8633 18.5069 16.8633 18.3983 16.8633 18.2897C17.4036 17.3123 17.9439 16.2263 18.7003 15.3576Z" fill="#403F40"/>
<path id="Vector_9" d="M14.5974 16.0098C14.7055 15.7926 14.9216 15.5754 15.1377 15.4668C15.678 15.7926 16.3263 16.227 16.6505 16.77C16.9747 17.2044 16.8666 17.8559 16.6505 18.3989C16.2183 19.1591 15.678 19.8107 15.0296 20.3537C14.3813 19.7021 13.6249 19.1591 12.9766 18.6161C13.4088 17.7473 14.0571 16.8786 14.5974 16.0098Z" fill="#403F40"/>
<g id="Group_2">
<path id="Vector_10" d="M101.798 16.4435C102.447 15.9005 103.203 15.3575 104.176 15.4661C104.824 15.4661 105.472 15.7919 105.472 16.4435C105.689 18.1811 104.716 19.7014 103.852 21.1132C102.771 22.6335 101.042 23.9367 99.0971 24.0453C97.9084 24.1539 96.5037 23.8281 95.8553 22.7421C95.207 23.5023 94.7748 24.3711 93.9103 24.8055C93.37 25.0227 92.9378 24.6969 92.3975 24.5883C92.0733 24.5883 91.7492 24.8055 91.425 25.0227C90.5605 25.6743 89.9122 26.543 88.9397 26.8688C88.1833 27.1946 87.3188 26.9774 86.4544 27.1946C84.9415 27.4118 83.3207 27.8462 82.1321 28.9322C81.9159 29.1494 81.5918 29.4752 81.8079 29.801C82.4562 30.344 83.3207 30.4526 84.0771 30.8869C84.5093 31.2127 84.6174 31.8643 84.6174 32.5159C84.4013 35.2308 83.5368 38.0544 81.9159 40.2263C80.9434 41.5295 79.6467 42.5069 78.1339 43.1584C76.5131 43.7014 74.6761 43.7014 73.1633 42.8326C71.9747 42.0725 71.4344 40.5521 71.3263 39.1403C71.2183 37.1856 71.7586 35.3394 72.4069 33.6019C72.9472 31.9729 73.7036 30.4526 74.46 29.0408C74.7842 28.4978 75.0003 27.9548 75.4325 27.5204C75.5406 27.9548 75.2164 28.3892 75.1083 28.715C74.0278 30.8869 73.0553 33.1675 72.7311 35.5566C72.623 36.6426 72.8391 37.7286 73.5955 38.4888C74.46 39.3575 75.7567 39.6833 76.8373 39.6833C79.2145 39.6833 81.4837 38.4888 82.8885 36.7512C83.3207 36.2082 83.6449 35.5566 83.6449 34.905C83.3207 34.3621 82.6723 34.2535 82.1321 34.1449C81.3757 33.9277 80.5112 33.6019 80.2951 32.8417C79.9709 31.6471 80.5112 30.344 81.0515 29.258C81.8079 27.9548 82.9965 26.8688 84.2932 26.1087C84.1851 25.2399 84.7254 24.4797 85.1577 23.8281C85.806 22.9593 86.3463 21.982 87.4269 21.5476C88.0752 21.3304 88.8316 21.6562 89.0477 22.4164C89.3719 23.3937 89.0477 24.3711 88.7236 25.2399C89.2638 25.1313 89.8041 24.9141 90.3444 24.5883C91.2089 23.9367 91.7492 22.8507 92.8297 22.3078C93.37 22.0906 93.9103 22.525 94.4506 22.7421C95.315 21.982 95.6392 20.6788 96.8279 20.1358C97.4762 20.1358 98.0165 20.353 98.6648 20.5702C99.7454 19.3756 100.394 17.6381 101.798 16.4435ZM101.907 17.9639C100.934 18.6154 100.178 19.5928 99.5293 20.5702C101.042 20.4616 102.663 19.9186 103.852 18.8326C103.96 18.6154 104.284 18.3983 104.068 18.1811C103.419 17.7467 102.555 17.5295 101.907 17.9639ZM86.1302 23.6109C85.806 23.8281 85.2657 24.2625 85.4818 24.6969C86.0221 25.3485 87.1027 25.4571 87.751 24.8055C88.0752 24.5883 87.9672 24.0453 87.751 23.8281C87.3188 23.6109 86.6705 23.2851 86.1302 23.6109Z" fill="#403F40"/>
</g>
<path id="Vector_11" d="M151.394 19.2678C151.61 18.942 151.935 19.1592 152.151 19.2678C152.907 19.7022 153.663 20.5709 153.447 21.5483C153.231 22.3085 152.691 22.9601 152.151 23.5031C151.935 23.7203 151.61 24.046 151.286 23.8289C150.638 23.2859 150.098 22.8515 149.449 22.3085C150.098 21.3311 150.746 20.3537 151.394 19.2678Z" fill="#403F40"/>
<g id="Group_3">
<path id="Vector_12" d="M115.306 24.6974C115.847 22.9599 116.603 21.4395 117.251 19.8105C117.36 19.8105 117.468 19.8105 117.576 19.8105C116.927 22.1997 116.711 24.6974 116.279 27.0866C116.063 28.3897 115.523 29.4757 115.198 30.6703C115.847 30.0187 116.387 29.1499 117.251 28.7155C117.792 28.3897 118.548 28.2811 118.98 28.8241C119.521 29.3671 119.521 30.2359 119.305 30.8875C118.872 32.1906 118.116 33.3852 117.36 34.5798C118.548 33.9282 119.737 33.0594 120.493 31.8648C121.142 30.7789 120.817 29.3671 121.358 28.2811C121.682 27.521 122.006 26.7608 122.33 26.1092C122.438 25.892 122.546 25.7834 122.762 25.6748C122.654 27.3038 122.546 29.0413 122.006 30.5617C121.358 32.4078 120.385 34.4712 118.548 35.4486C117.684 35.9915 116.603 36.1001 115.739 36.5345C114.766 37.2947 113.578 37.8377 112.281 37.9463C111.524 38.0549 110.552 37.9463 110.012 37.2947C108.931 36.3173 108.607 34.797 108.715 33.3852C109.039 30.6703 109.363 27.8467 109.796 25.1318C110.012 23.7201 110.552 22.3083 111.092 21.0051L111.308 20.8965C110.984 23.1771 110.66 25.4576 110.444 27.7381C110.336 29.2585 110.12 30.7789 110.336 32.2992C110.552 33.2766 111.416 34.1454 112.497 34.254C113.145 33.3852 113.794 32.5164 114.226 31.5391C114.874 29.1499 114.658 26.8694 115.306 24.6974ZM115.847 31.2133C114.874 31.9734 114.226 32.9508 113.578 33.8196C115.415 33.711 117.251 32.7336 118.332 31.2133C117.576 30.9961 116.603 30.6703 115.847 31.2133Z" fill="#403F40"/>
</g>
<path id="Vector_13" d="M141.021 24.4796C141.237 23.1764 141.777 21.8733 142.317 20.6787C142.425 20.8959 142.425 21.1131 142.425 21.4389C141.993 24.1538 141.669 26.8688 141.453 29.4751C141.453 30.4525 141.345 31.5384 141.561 32.5158C141.669 33.276 142.209 33.819 142.966 34.0362C143.398 33.3846 143.506 32.6244 143.83 31.9728C144.587 32.19 144.911 32.9502 144.911 33.7104C144.803 35.0136 144.478 36.3167 143.506 37.2941C142.858 37.9457 141.777 38.1629 141.021 37.5113C139.832 36.5339 139.832 34.7964 139.832 33.3846C140.156 30.2353 140.588 27.3031 141.021 24.4796Z" fill="#403F40"/>
<path id="Vector_14" d="M53.0629 24.4796C53.279 23.1764 53.7112 21.9819 54.3595 20.7873L54.5757 20.6787C54.2515 23.9366 53.7112 27.1946 53.4951 30.5611C53.4951 31.4298 53.4951 32.4072 54.0354 33.1674C54.3595 33.7104 55.1159 33.9276 55.6562 33.6018C56.3046 33.1674 56.4126 32.2986 56.8449 31.647C57.169 31.8642 57.061 32.2986 57.061 32.6244C56.8449 34.0362 56.5207 35.5565 55.6562 36.7511C55.224 37.4027 54.4676 37.8371 53.7112 37.7285C52.9548 37.6199 52.4145 36.8597 52.1984 36.0995C51.6581 34.2534 52.0903 32.4072 52.3065 30.5611C52.5226 28.4977 52.7387 26.4344 53.0629 24.4796Z" fill="#403F40"/>
<path id="Vector_15" d="M155.718 21.8733C155.934 21.4389 155.934 20.8959 156.366 20.6787C156.15 22.5249 155.934 24.2624 155.718 26.1086C155.502 27.7375 155.285 29.2579 155.393 30.8869C155.502 31.8642 155.718 32.9502 156.582 33.4932C157.447 33.9276 158.419 33.9276 159.284 33.4932C160.04 33.1674 160.364 32.2986 161.012 32.0814C161.553 31.9728 162.093 32.19 162.525 31.9728C163.174 31.647 163.498 30.9955 163.93 30.4525C164.146 30.4525 164.47 30.5611 164.686 30.4525C165.335 30.1267 165.335 29.0407 165.983 28.7149C165.983 29.9095 165.551 30.9955 164.902 31.9728C164.578 32.5158 164.038 32.6244 163.498 32.9502C163.066 33.3846 162.633 33.819 162.093 34.1448C161.553 34.5792 160.796 34.2534 160.256 34.5792C159.175 35.3393 158.743 36.7511 157.663 37.4027C156.582 38.1629 154.853 37.8371 154.313 36.5339C153.773 35.2307 153.773 33.819 153.881 32.4072C154.097 30.5611 154.313 28.7149 154.529 26.9774C154.745 25.2398 154.961 23.3936 155.718 21.8733Z" fill="#403F40"/>
<path id="Vector_16" d="M41.0687 23.8288C41.3928 23.1772 41.609 22.5256 41.9331 21.874C42.1492 22.0912 41.9331 22.417 41.9331 22.6342C41.3928 25.5663 41.5009 28.4985 40.9606 31.4306C40.7445 32.9509 40.2042 34.4713 39.4478 35.8831C39.2317 36.2089 39.0156 36.5347 38.6914 36.6433C38.6914 36.4261 38.6914 36.2089 38.7995 35.9917C39.4478 34.1455 39.5559 32.0822 39.772 30.1274C39.88 28.8242 39.88 27.4125 40.0962 26.1093C40.3123 25.4577 40.7445 24.6976 41.0687 23.8288Z" fill="#403F40"/>
<path id="Vector_17" d="M60.195 24.8061C60.6273 23.9374 60.9514 22.96 61.3837 21.9826L61.5998 21.874C60.9514 25.0233 61.0595 28.2813 60.5192 31.4306C60.3031 32.8423 59.7628 34.2541 59.1145 35.4487C58.8983 35.8831 58.6822 36.3175 58.25 36.5347C58.25 35.9917 58.4661 35.4487 58.5742 34.9057C58.8983 33.1681 59.1145 31.4306 59.2225 29.693C59.5467 28.1727 59.4386 26.4351 60.195 24.8061Z" fill="#403F40"/>
<path id="Vector_18" d="M35.1271 23.5022C35.8835 22.9592 36.6399 22.4162 37.5043 22.3076C37.6124 22.4162 37.7205 22.5248 37.7205 22.6334C37.2882 23.7194 37.0721 24.8054 36.3157 25.6741C35.8835 25.4569 35.4513 25.5655 35.019 25.6741C33.9385 25.9999 32.9659 26.6515 32.2095 27.4117C31.6693 27.9547 31.0209 28.6063 30.8048 29.475C31.129 30.6696 32.8579 30.3438 33.3982 31.3212C33.8304 32.0814 33.6143 32.9502 33.5062 33.8189C33.074 36.6425 31.8854 39.466 29.8323 41.5293C28.6436 42.6153 27.1308 43.4841 25.51 43.5927C23.9972 43.7013 22.3763 43.3755 21.4038 42.1809C20.3232 40.8777 20.2152 39.1402 20.4313 37.6198C20.8635 34.5791 22.0522 31.647 23.565 28.9321C23.8891 28.4977 23.9972 27.9547 24.5375 27.5203C24.5375 28.1719 24.1052 28.7149 23.8891 29.2578C22.9166 31.3212 21.9441 33.4931 21.728 35.7737C21.6199 37.0768 22.1602 38.4886 23.3488 39.1402C24.7536 39.9004 26.5906 39.7918 28.1034 39.3574C29.9403 38.7058 31.6692 37.5112 32.5337 35.7737C32.6418 35.4479 32.9659 34.7963 32.5337 34.5791C31.6692 33.9275 30.3726 34.1447 29.6162 33.1673C29.0759 32.2986 29.4 31.104 29.7242 30.1266C30.8048 27.5203 32.7498 25.1311 35.1271 23.5022Z" fill="#403F40"/>
<path id="Vector_19" d="M49.0648 23.0684C49.389 23.0684 49.7131 23.2856 50.0373 23.5028C50.6857 23.9371 51.226 24.8059 51.0098 25.5661C50.6857 26.5435 49.9293 27.4123 49.0648 27.8466C48.3084 27.4123 47.7681 26.7607 47.0117 26.3263C47.2278 25.7833 47.6601 25.2403 47.9842 24.6973C48.3084 24.1543 48.6326 23.6113 49.0648 23.0684Z" fill="#403F40"/>
<path id="Vector_20" d="M137.887 26.3266C138.103 25.8922 138.103 25.2406 138.643 25.0234C138.535 26.218 138.319 27.4126 138.211 28.6071C137.887 32.1909 137.131 35.7746 135.294 38.9239C134.105 40.8786 132.484 42.7248 130.323 43.5936C129.134 44.028 127.73 44.2451 126.433 44.028C124.812 43.7022 123.407 42.5076 122.867 40.9872C122.327 39.2497 122.651 37.5121 122.975 35.7746C123.515 33.7112 124.272 31.7565 125.46 29.9103C125.569 30.6705 125.136 31.3221 124.812 32.0823C124.272 33.3854 123.732 34.7972 123.732 36.209C123.623 37.5121 124.38 38.8153 125.569 39.4669C127.514 40.5528 129.891 40.4442 131.836 39.5755C133.673 38.8153 135.078 37.2949 136.05 35.5574C136.915 33.9284 137.023 32.0823 136.915 30.3447C136.806 28.8243 137.455 27.5212 137.887 26.3266Z" fill="#403F40"/>
<path id="Vector_21" d="M103.635 27.3034C103.959 26.7604 104.607 27.0862 105.148 27.0862C105.796 27.3034 106.66 27.412 107.093 28.0636C107.309 29.0409 106.768 29.9097 106.228 30.6699C105.796 31.3215 105.04 31.8645 104.283 31.9731C101.906 32.2989 99.4206 33.2762 98.0159 35.3396C97.1514 36.6427 96.8272 38.1631 96.6111 39.6835C95.9628 43.4844 95.7467 47.2853 95.6386 51.0862C95.6386 51.3034 95.5305 51.5206 95.4225 51.7378C95.2064 48.3713 95.3144 45.0047 95.5305 41.7468C95.7467 39.2491 96.2869 36.7513 97.3675 34.4708C98.34 32.4075 100.177 30.7785 102.23 29.8011C102.662 29.0409 103.095 28.1722 103.635 27.3034Z" fill="#403F40"/>
<path id="Vector_22" d="M69.3819 27.8469C69.4899 27.6297 69.598 27.3039 69.8141 27.1953C69.9221 27.4125 69.9221 27.6297 69.8141 27.8469C69.4899 29.9102 69.0577 32.0822 68.4093 34.1455C68.0852 35.1229 67.6529 36.2089 66.6804 36.7519C65.4918 37.2949 64.1951 37.7292 62.8984 37.8378C63.0065 37.4035 63.3307 37.0777 63.6548 36.8605C64.7354 35.9917 65.816 35.1229 66.7885 34.1455C67.3288 33.6026 67.6529 32.951 67.9771 32.2994C68.5174 30.779 68.8416 29.2587 69.3819 27.8469Z" fill="#403F40"/>
<path id="Vector_23" d="M152.368 27.1953C152.368 27.1953 152.476 27.1953 152.584 27.1953C152.692 27.7383 152.476 28.1727 152.476 28.7157C152.151 30.779 151.719 32.8424 150.963 34.7971C150.639 35.5573 150.206 36.3175 149.45 36.6433C148.261 37.1863 146.965 37.6206 145.668 37.7292C145.668 37.2949 146.1 36.9691 146.316 36.7519C147.505 35.7745 148.802 34.9057 149.774 33.7111C150.747 32.5166 150.963 30.9962 151.503 29.5845C151.719 28.8243 151.827 27.9555 152.368 27.1953Z" fill="#403F40"/>
<path id="Vector_24" d="M6.70741 27.8471C6.81546 27.5213 6.92352 27.3041 7.13964 27.0869C7.35575 27.4127 7.13964 27.8471 7.13964 28.2815C6.81546 30.4534 6.38324 32.734 5.51878 34.7973C5.19461 35.5575 4.76238 36.4263 3.89792 36.7521C2.81735 37.1865 1.62872 37.6208 0.332031 37.7294C0.440088 37.2951 0.76426 36.9693 1.08843 36.7521C2.169 35.8833 3.35763 35.0145 4.33015 33.9285C4.87043 33.3856 5.19461 32.8426 5.41072 32.191C5.95101 30.7792 6.27518 29.2589 6.70741 27.8471Z" fill="#403F40"/>
<path id="Vector_25" d="M130.541 29.3672C131.081 29.4758 131.406 29.9102 131.838 30.236C132.378 30.6704 132.918 31.3219 132.702 32.0821C132.378 33.0595 131.73 33.9283 130.865 34.5799C130.217 34.0369 129.569 33.3853 128.812 32.8423C128.596 32.7337 128.704 32.4079 128.812 32.1907C129.461 31.3219 130.001 30.3446 130.541 29.3672Z" fill="#403F40"/>
<path id="Vector_26" d="M48.9561 33.928C49.7125 33.6022 49.9286 32.7334 50.4689 32.1904L50.685 32.299C50.7931 33.1678 50.3608 33.928 50.0367 34.6882C49.4964 35.8827 48.74 37.0773 47.4433 37.6203C46.3627 38.1633 45.066 37.2945 43.9855 37.9461C43.4452 38.1633 43.121 38.8149 42.4727 38.9235C42.4727 38.0547 43.0129 37.4031 43.4452 36.7515C44.0935 35.7741 44.8499 34.7968 45.9305 34.2538C46.903 33.6022 47.9836 34.3624 48.9561 33.928Z" fill="#403F40"/>
<path id="Vector_27" d="M55.0078 49.4571C55.6562 48.4797 56.3045 47.3938 57.0609 46.4164C57.3851 46.3078 57.7092 46.6336 58.0334 46.7422C58.6818 47.1766 59.3301 48.1539 58.8979 48.9141C58.5737 49.6743 58.0334 50.3259 57.3851 50.8689C57.0609 51.0861 56.7367 50.7603 56.5206 50.5431C55.9803 50.2173 55.44 49.7829 55.0078 49.4571Z" fill="#403F40"/>
<path id="Vector_28" d="M52.7381 47.3942C52.9542 47.177 53.0623 46.634 53.4945 46.5254C54.359 46.8512 55.2234 47.6114 55.2234 48.5887C55.1154 49.5661 54.467 50.3263 53.8187 50.8693C53.6026 51.0865 53.3864 51.1951 53.1703 50.9779C52.63 50.5435 51.9817 50.1091 51.4414 49.6747C51.6575 48.9145 52.3059 48.1544 52.7381 47.3942Z" fill="#403F40"/>
</g>
</svg>
