<svg width="87" height="99" viewBox="0 0 87 99" fill="none" xmlns="http://www.w3.org/2000/svg">
<g id="Group 178">
<path id="Vector" d="M43.0849 99.0003C42.8551 99.0003 42.7402 99.0003 42.6254 98.8869L0.693908 74.7373C0.349266 74.5105 0.234375 74.1704 0.234375 73.8303V26.0978C0.234375 25.7577 0.464147 25.4176 0.693908 25.1908L42.6254 1.04116C42.97 0.814404 43.3146 0.814404 43.6593 1.04116L85.5908 25.1908C85.9354 25.4176 86.0503 25.7577 86.0503 26.0978V73.9436C86.0503 74.2838 85.8205 74.6239 85.5908 74.8507L43.6593 99.0003C43.4295 99.0003 43.1998 99.0003 43.0849 99.0003ZM2.18736 73.3767L43.0849 96.8461L83.9824 73.3767V26.7781L43.0849 3.19536L2.18736 26.6647V73.3767Z" fill="white"/>
<g id="Group">
<path id="Vector_2" d="M64.7984 37.5491C65.0282 38.0026 65.2579 38.5695 65.2579 39.023V48.2067C65.2579 49.3405 64.6835 50.2475 63.7645 50.8144L44.5794 61.6988C44.1199 61.9255 43.5455 62.0389 43.0859 62.0389V68.048L60.6627 58.0706C62.1562 57.277 63.9943 57.7305 64.7984 59.2044C65.6026 60.6783 65.1431 62.4924 63.6496 63.2861L44.5794 74.1704C44.1199 74.3972 43.5455 74.6239 43.0859 74.6239V93.6715L81.3413 71.9028V28.1387L64.7984 37.5491Z" fill="#E5E5E5"/>
<path id="Vector_3" d="M43.0859 55.5762L59.1692 46.5059V40.7236H59.0544L43.0859 49.7939V55.5762Z" fill="#E5E5E5"/>
</g>
<g id="Group_2">
<path id="Vector_4" d="M22.4049 36.4154L41.5899 25.531C42.509 24.9641 43.6578 24.9641 44.5769 25.531L63.7619 36.4154C64.2214 36.6421 64.5661 37.0956 64.9107 37.5492L81.3387 28.2521L43.0834 6.4834L4.82812 28.1387L21.2561 37.4358C21.4858 37.0956 21.9454 36.6421 22.4049 36.4154Z" fill="#F0F0F0"/>
<path id="Vector_5" d="M27 40.7236L43.0833 49.7939L59.0517 40.7236L43.0833 31.6533L27 40.7236Z" fill="#F0F0F0"/>
</g>
<g id="Group_3">
<path id="Vector_6" d="M43.0872 62.0388C42.0533 62.0388 41.0193 61.4719 40.4449 60.5649C39.6408 59.091 40.1003 57.2769 41.5937 56.4833L43.0872 55.5762V49.7939L27.0039 40.7236V58.9776L43.0872 68.0479V62.0388Z" fill="#CCCCCC"/>
<path id="Vector_7" d="M22.4072 63.286C21.4881 62.7191 20.9137 61.6987 20.9137 60.6782V39.0229C20.9137 38.456 21.0286 38.0025 21.3732 37.549L4.94531 28.252V72.0161L43.2006 93.6714V74.5105C42.6262 74.5105 42.1666 74.3971 41.7071 74.0569L22.4072 63.286Z" fill="#CCCCCC"/>
</g>
</g>
</svg>
