<svg width="97" height="86" viewBox="0 0 97 86" fill="none" xmlns="http://www.w3.org/2000/svg">
<g id="Layer_x0020_1">
<g id="_2199291971904">
<g id="_1235554417312">
<path id="Vector" fill-rule="evenodd" clip-rule="evenodd" d="M46.1752 9.28518C45.9161 11.9329 46.1444 18.844 46.1453 22.2475C46.1462 24.5389 46.1988 23.9618 45.0001 25.7049C43.8495 27.377 33.7719 41.6327 33.3289 42.5311C32.344 44.5291 34.0238 44.3693 36.0442 44.3675H58.352C59.9321 44.3675 62.6275 44.617 63.1167 43.8801C63.3659 42.5356 61.8293 40.8446 61.1298 39.8152C57.909 35.0725 54.1354 30.0992 50.9463 25.274C50.322 24.3289 50.0701 24.4052 50.0828 23.1406L50.0402 9.28339L46.1752 9.28518Z" fill="#FEFEFE"/>
<path id="Vector_2" fill-rule="evenodd" clip-rule="evenodd" d="M29.9277 23.7733C30.59 23.487 36.9421 23.6459 38.1906 23.6459L38.9869 14.0888C39.4345 11.0363 40.1593 8.44955 41.2701 5.54779C41.6397 4.58382 42.0556 3.92413 42.5095 3.06877C42.9661 2.20892 43.6438 1.70809 43.6438 0.508972C42.7233 0.567313 41.6932 1.08609 40.972 1.50435L40.3369 1.90555C40.3106 1.92261 40.2735 1.94684 40.2472 1.96389C40.2209 1.98094 40.1838 2.00518 40.1575 2.02223C35.8259 5.50201 33.9876 8.05642 32.2725 12.8637C31.5287 14.9496 30.7912 17.7023 30.4532 19.8546L29.9277 23.7733Z" fill="#0D4293"/>
<path id="Vector_3" fill-rule="evenodd" clip-rule="evenodd" d="M58.0216 23.6458H65.788C66.4195 23.6458 65.8478 23.6072 66.2836 23.7732L65.7744 19.9695C65.6874 19.3807 65.5579 18.8008 65.45 18.1851C64.5241 12.8824 61.4645 5.61592 56.1435 2.08049L55.425 1.61557C54.6857 1.16141 53.5396 0.570824 52.5684 0.507996C52.5684 1.7125 53.1663 2.07242 53.6556 2.97714C55.4912 6.37883 56.7478 10.2769 57.2099 13.9721C57.4925 16.2267 58.0216 21.4755 58.0216 23.6458Z" fill="#0D4293"/>
<path id="Vector_4" fill-rule="evenodd" clip-rule="evenodd" d="M58.8477 52.5045C59.3623 52.4121 59.4502 52.3385 59.876 52.1518C61.0402 51.6429 61.0212 51.7775 62.4282 51.064L62.7199 50.9069C64.1551 50.0803 65.8692 49.0705 67.0353 47.9971L69.2106 45.9848C72.4433 42.6818 74.8134 38.4948 76.3083 34.5366C76.7867 33.2675 77.9853 29.6486 78.0161 28.6038H70.084C70.084 33.0269 67.6015 41.1317 64.9605 45.0029C64.3317 45.9246 63.8153 46.7513 63.1141 47.6506L59.3623 51.8834C59.0035 52.2227 59.0035 52.0549 58.8477 52.5045Z" fill="#0D4293"/>
<path id="Vector_5" fill-rule="evenodd" clip-rule="evenodd" d="M37.3658 52.5045C37.2099 52.0549 37.2099 52.2227 36.8511 51.8834L33.0993 47.6506C29.0603 41.7008 26.1285 35.4171 26.1285 28.6038H18.1973C18.296 32.0271 22.1556 40.0206 24.5285 43.057C24.957 43.6045 25.2379 44.0452 25.6981 44.572C28.4569 47.7341 32.8629 50.8656 37.3658 52.5045Z" fill="#0D4293"/>
<path id="Vector_6" fill-rule="evenodd" clip-rule="evenodd" d="M18.1973 24.0273H26.1285L26.6721 20.3779C26.7555 19.869 26.8615 19.1806 26.9792 18.5792C27.9595 13.5548 28.7795 11.1835 31.7231 6.84653C33.8468 3.71589 35.2022 2.67474 37.5307 6.10352e-05C33.2271 2.13891 29.3258 3.68089 26.5099 7.15798C26.2363 7.49635 26.1131 7.5879 25.8295 7.90563C24.8909 8.95845 23.0725 11.5577 22.4446 12.6761C21.2786 14.7539 19.9187 17.7616 19.2881 19.9085C18.9266 21.1381 18.2317 22.8246 18.1973 24.0273Z" fill="#0D4293"/>
<path id="Vector_7" fill-rule="evenodd" clip-rule="evenodd" d="M70.0838 24.0273H78.0159C77.7659 15.4109 68.6478 3.84694 58.6816 6.10352e-05C58.8021 0.256759 58.7568 0.12841 58.9263 0.320484C60.5181 2.13173 61.0355 2.35252 62.9689 4.83783L65.7422 8.80677C68.4648 13.4919 68.5753 15.1748 69.494 20.2855C69.6145 20.9568 69.677 21.4298 69.7839 22.0976C69.8654 22.6128 70.0838 23.4574 70.0838 24.0273Z" fill="#0D4293"/>
<path id="Vector_8" fill-rule="evenodd" clip-rule="evenodd" d="M45.3311 23.6458L45.3438 8.38483C46.084 8.22956 50.1348 8.23315 50.9629 8.37586L50.9728 23.7696C54.133 23.8666 53.9772 24.3863 53.8938 23.022C53.8231 21.8803 53.8893 20.6067 53.8893 19.4507C53.8893 15.5329 53.2179 4.36024 49.3764 1.8193L48.6607 1.47105C44.7059 0.296164 43.0778 8.1425 42.8432 9.93579C42.2733 14.2907 42.3213 19.0297 42.3213 23.7732C42.9909 23.5264 44.3861 23.6458 45.3311 23.6458Z" fill="#0D4293"/>
<path id="Vector_9" fill-rule="evenodd" clip-rule="evenodd" d="M28.093 1.52948C27.3546 1.69732 24.6502 3.22674 24.016 3.58755C21.8905 4.79654 19.6798 6.31519 17.8795 7.76562L17.1647 8.35979C12.4552 12.0325 8.28125 17.9375 8.28125 24.0273H14.5608C14.5608 23.2527 14.6695 22.8372 14.7284 22.1218L15.1524 20.4147C15.7187 18.0281 17.3975 13.1679 18.8553 10.9313C20.0349 9.12181 21.4918 7.50802 23.061 5.90411L26.0989 3.15583C26.3353 2.9476 26.4848 2.8372 26.7476 2.63795C27.2386 2.26277 27.7206 1.96569 28.093 1.54653V1.52948Z" fill="#0D4293"/>
<path id="Vector_10" fill-rule="evenodd" clip-rule="evenodd" d="M68.1016 1.52582C68.4558 1.93241 68.9106 2.21334 69.3827 2.57415C75.5109 7.96839 78.4772 11.3306 80.5656 18.6339C81.0258 20.2423 81.6519 22.3076 81.6519 24.0273H87.9314C87.9314 20.7925 86.9883 18.5092 85.8096 16.2527C84.5874 13.9155 81.8566 10.6915 79.6043 8.82196C79.4312 8.67835 79.376 8.62629 79.2111 8.48897L78.0795 7.57976C78.0568 7.56001 78.0251 7.53129 78.0025 7.51154L72.7422 3.93034C72.7168 3.91329 72.6805 3.88816 72.6543 3.8711C72.4332 3.72749 72.5945 3.82533 72.3852 3.69698C72.2049 3.58748 72.0826 3.52824 71.9059 3.43041C71.1775 3.02831 68.6678 1.6416 68.1016 1.52582Z" fill="#0D4293"/>
<path id="Vector_11" fill-rule="evenodd" clip-rule="evenodd" d="M68.1016 51.1062C68.8309 50.9751 68.8246 50.8333 69.4669 50.503C71.7084 49.3506 73.2142 48.4521 75.2083 47.1659L77.1726 45.7523C77.197 45.7344 77.2333 45.7092 77.2577 45.6913C82.0034 41.6532 85.5006 38.51 87.3045 32.9524C87.7665 31.5289 87.9314 30.4537 87.9314 28.6038H81.6528C81.6528 32.693 78.5361 40.6578 75.4421 44.2938C74.3313 45.5988 72.8273 47.0421 71.4973 48.2511C71.4665 48.2798 71.3759 48.3606 71.3451 48.3884L68.1016 51.1062Z" fill="#0D4293"/>
<path id="Vector_12" fill-rule="evenodd" clip-rule="evenodd" d="M28.1111 51.1062L25.5652 48.996C21.7201 45.8726 19.34 42.8407 17.4148 38.8663C16.3303 36.627 14.5608 31.0685 14.5608 28.6038H8.28125C8.28125 34.2862 11.6308 39.2424 16.3294 43.5165L21.9965 47.8005C22.0227 47.8176 22.0599 47.8418 22.0862 47.8588L24.3113 49.198C25.0669 49.6055 27.3818 50.9751 28.1111 51.1062Z" fill="#0D4293"/>
<path id="Vector_13" fill-rule="evenodd" clip-rule="evenodd" d="M46.1738 9.28509L50.0388 9.2833L50.0814 23.1405C50.0687 24.4051 50.3206 24.3288 50.9448 25.2739C54.134 30.0991 57.9075 35.0724 61.1284 39.8151C61.8278 40.8446 63.3644 42.5355 63.1153 43.88C62.626 44.6169 59.9307 44.3674 58.3506 44.3674H36.0427C34.0223 44.3692 32.3426 44.529 33.3274 42.531C33.7705 41.6326 43.848 27.3769 44.9987 25.7048C46.1973 23.9617 46.1448 24.5389 46.1439 22.2474C46.143 18.8439 45.9146 11.9329 46.1738 9.28509ZM45.3312 23.6458H45.4535C45.4028 24.2615 44.7522 24.8351 44.2802 25.5342L41.236 29.9295C40.2883 31.1582 39.4358 32.3322 38.4473 33.5619L33.1018 41.3167C32.9098 42.19 32.2429 42.9681 32.5193 43.8899C32.763 44.7067 32.9623 44.7534 33.746 44.9912C34.5061 45.221 34.5388 45.0792 35.0507 45.2443H40.6697C41.6455 45.1644 42.8931 45.2578 43.4585 45.2443L52.4017 45.2452C53.9519 45.2246 54.5073 45.2129 55.5419 45.2443L61.1601 45.2461C64.8485 44.7821 64.1545 43.7032 63.1316 41.3167C62.9531 40.8508 62.1739 39.859 61.8541 39.3869C61.3875 38.6976 60.9381 38.107 60.4543 37.4132C59.3318 35.8039 57.9728 33.9756 56.7306 32.3933C55.3553 30.6422 52.7985 26.6975 51.2257 24.5487C51.0282 24.2786 50.9022 24.2391 50.9729 23.7697L50.9629 8.37588C50.1349 8.23317 46.0841 8.22958 45.3439 8.38486L45.3312 23.6458Z" fill="#23AAE2"/>
<path id="Vector_14" fill-rule="evenodd" clip-rule="evenodd" d="M33.0616 41.4756L38.447 33.562C38.3065 32.8816 38.2368 30.8011 38.1897 30.1306C38.1616 29.733 38.1906 29.2636 38.1906 28.8588H29.9277L30.3735 32.2022C30.9615 35.5868 31.4607 37.4788 32.6757 40.5996C32.7626 40.824 32.7255 40.7863 32.8415 40.9838L33.0616 41.4756Z" fill="#0D4293"/>
<path id="Vector_15" fill-rule="evenodd" clip-rule="evenodd" d="M57.6716 33.6544C58.2115 34.7404 59.6557 36.2681 60.4539 37.4133C60.9377 38.1071 61.3871 38.6968 61.8537 39.387C62.1735 39.8591 62.9527 40.8509 63.1312 41.3167C63.2363 41.2081 63.2064 41.2575 63.3178 41.0717L63.7799 40.027C64.9921 37.6503 65.6019 33.2586 66.092 30.6189C66.1545 30.1549 66.2696 29.2968 66.2823 28.8588H58.0204C57.9443 30.3461 57.6453 32.2408 57.6716 33.6544Z" fill="#0D4293"/>
<path id="Vector_16" fill-rule="evenodd" clip-rule="evenodd" d="M52.4018 45.2452L43.4785 45.2443C43.647 46.8716 44.9535 50.1072 46.8625 51.0461L47.0745 51.1403C47.8047 51.4455 47.7413 51.4661 48.5304 51.1861C49.7662 50.5964 50.3452 50.0049 50.973 48.9889C51.5674 48.0258 52.3665 46.5458 52.4018 45.2452Z" fill="#0D4293"/>
<path id="Vector_17" fill-rule="evenodd" clip-rule="evenodd" d="M61.161 45.2461L55.5428 45.2443C55.4259 46.3707 53.9165 49.3021 53.2297 50.3433C52.765 51.0469 52.5684 51.0586 52.5684 52.1231C53.2415 51.8745 53.3829 52.1671 55.4051 51.0003L56.1299 50.5407C56.1562 50.5237 56.1933 50.4994 56.2196 50.4824C57.9492 49.3506 60.7433 46.6885 61.161 45.2461Z" fill="#0D4293"/>
<path id="Vector_18" fill-rule="evenodd" clip-rule="evenodd" d="M40.6699 45.2443H35.0508C35.2338 45.8789 36.1163 46.8635 36.5457 47.4137C37.0993 48.1218 37.7018 48.7672 38.4791 49.3587C39.9324 50.4223 40.3999 50.8136 41.9763 51.6268C43.0907 52.1141 43.117 51.9283 43.6443 52.1231C43.6443 50.6197 40.9054 47.5232 40.6699 45.2443Z" fill="#0D4293"/>
<path id="Vector_19" fill-rule="evenodd" clip-rule="evenodd" d="M68.1013 1.52592L67.7715 1.27191V1.52592H68.1013Z" fill="#344C87"/>
<path id="Vector_20" fill-rule="evenodd" clip-rule="evenodd" d="M28.2754 51.2327V51.3602L28.4684 51.2543L28.2754 51.2327Z" fill="#344C87"/>
<path id="Vector_21" fill-rule="evenodd" clip-rule="evenodd" d="M37.3652 52.5046V52.6311L37.5582 52.5252L37.3652 52.5046Z" fill="#344C87"/>
<path id="Vector_22" fill-rule="evenodd" clip-rule="evenodd" d="M58.8474 52.5046H58.6816L58.8194 52.6527L58.8474 52.5046Z" fill="#344C87"/>
<path id="Vector_23" fill-rule="evenodd" clip-rule="evenodd" d="M67.4402 51.4888L67.4898 51.449C67.4871 51.4518 67.4237 51.4749 67.4402 51.4888Z" fill="#344C87"/>
<path id="Vector_24" fill-rule="evenodd" clip-rule="evenodd" d="M28.6063 51.4888L28.6568 51.449C28.6531 51.4518 28.5897 51.4749 28.6063 51.4888Z" fill="#344C87"/>
<path id="Vector_25" fill-rule="evenodd" clip-rule="evenodd" d="M67.7718 1.27185L67.4492 1.12555L67.7718 1.27185Z" fill="#344C87"/>
<path id="Vector_26" fill-rule="evenodd" clip-rule="evenodd" d="M28.2762 51.2328L28.1113 51.1063L28.2762 51.2328Z" fill="#344C87"/>
<path id="Vector_27" fill-rule="evenodd" clip-rule="evenodd" d="M68.1004 51.1063L67.9355 51.2328L68.1004 51.1063Z" fill="#344C87"/>
</g>
<path id="Vector_28" d="M10.2307 64.8898C10.2307 65.4364 10.1174 65.9238 9.89184 66.3474C9.61007 66.8787 9.20961 67.1435 8.69046 67.1435C8.23384 67.1435 7.85784 66.8904 7.55976 66.3842C7.27346 66.8904 6.92827 67.1435 6.52419 67.1435C6.38195 67.1435 6.22974 67.1121 6.07118 67.0493C6.10018 67.2503 6.11467 67.4433 6.11467 67.6291C6.11467 68.5841 5.74865 69.2914 5.02021 69.75C4.41771 70.1279 3.60774 70.3172 2.58848 70.3172C1.67069 70.3172 0.988459 70.0677 0.541795 69.5714C0.181202 69.1711 0 68.664 0 68.0527C0 67.7431 0.0951312 67.2925 0.2863 66.7019C0.507367 66.0081 0.731151 65.6599 0.95856 65.6599C1.11711 65.6599 1.19594 65.7685 1.19594 65.9875C1.19594 66.0539 1.13523 66.263 1.01111 66.6131C0.889704 66.9631 0.828095 67.2306 0.828095 67.4137C0.828095 67.9684 1.05369 68.3588 1.50217 68.5796C1.82743 68.7403 2.31033 68.821 2.94997 68.821C3.57693 68.821 4.14682 68.725 4.66052 68.5311C5.24762 68.3121 5.54207 68.0267 5.54207 67.6731C5.54207 67.4532 5.36903 67.1076 5.02202 66.6373C4.72757 66.2352 4.46392 65.9336 4.22836 65.7308L4.81727 64.5397C4.85985 64.4536 4.9124 64.4536 4.97129 64.5397C5.47503 65.2695 5.96428 65.6357 6.43903 65.6357C6.72714 65.6357 6.93462 65.5172 7.05602 65.2775C7.08501 65.2273 7.14572 65.0065 7.24085 64.6187C7.29974 64.3791 7.3994 64.2606 7.53893 64.2606C7.66939 64.2606 7.7609 64.3809 7.81163 64.6223C7.88683 64.9706 7.95569 65.1959 8.02002 65.2982C8.17041 65.5396 8.43044 65.6599 8.79738 65.6599C9.24223 65.6599 9.46329 65.4947 9.46329 65.1635C9.46329 64.9984 9.29478 64.7049 8.95593 64.2848L9.49863 63.4501C9.56477 63.3433 9.60554 63.2895 9.61822 63.285C9.64178 63.2975 9.68074 63.337 9.7351 63.4097C9.83476 63.5345 9.93442 63.7239 10.0341 63.9752C10.1664 64.3109 10.2307 64.6142 10.2307 64.8898ZM6.06394 62.0679L6.79237 61.34L7.51537 62.058L6.78603 62.7868L6.06394 62.0688V62.0679ZM7.67936 62.0625L8.41413 61.34L9.1471 62.0661L8.41232 62.7886L7.67936 62.0625ZM6.86757 60.8661L7.58785 60.1463L8.31266 60.8616L7.59238 61.5814L6.86757 60.8661ZM12.6017 65.8071C12.6017 66.0862 12.4513 66.5431 12.1496 67.174C12.0699 67.3392 12.0155 67.4218 11.9847 67.4218C11.9322 67.4218 11.8914 67.2387 11.8588 66.8743L11.2989 60.6525L12.3888 59.7522C12.4595 59.6939 12.5102 59.6634 12.5428 59.6634C12.5818 59.6634 12.6017 59.7038 12.6017 59.7864V65.8071ZM19.5608 67.1435H18.923C18.3567 67.1435 17.8774 66.78 17.4842 66.0539C17.1553 66.4641 16.8872 66.7298 16.6824 66.8482C16.3408 67.0457 15.8416 67.1435 15.182 67.1435C14.1872 67.1435 13.6898 66.6876 13.6898 65.7766C13.6898 65.6401 13.7061 65.4867 13.737 65.3224C13.8321 64.8234 13.9924 64.5739 14.2199 64.5739C14.3458 64.5739 14.411 64.6726 14.4146 64.8674C14.4228 65.1312 14.4618 65.3098 14.5279 65.4086C14.6647 65.5998 14.9564 65.6958 15.4094 65.6958C16.5112 65.6958 17.0611 65.4867 17.0611 65.0711C17.0611 64.809 16.783 64.0937 16.2294 62.9269L16.9017 62.05C16.9524 61.98 16.985 61.944 16.9968 61.944C17.0249 61.944 17.0575 61.9961 17.0983 62.1029L18.1338 64.8395C18.3341 65.3781 18.6185 65.6482 18.9819 65.6482H19.5608V67.1435ZM25.1219 67.1435H24.5864C24.1624 67.1435 23.8761 67.1624 23.7303 67.1965C23.4476 67.2629 23.3072 67.4074 23.3072 67.6309C23.3072 67.9746 23.6424 68.2843 24.3119 68.5581L23.8027 69.943C22.8324 69.6656 22.065 69.2456 21.4951 68.6846C21.1581 68.3543 20.9225 68.0285 20.7884 67.7027C20.7622 67.6246 20.6824 67.4074 20.5511 67.0493C20.1832 67.1121 19.867 67.1435 19.6034 67.1435H19.27V65.624H20.4025C20.4025 64.5864 20.8292 63.4842 21.6836 62.3183C21.9817 62.6675 22.2498 63.0857 22.4899 63.5722C22.7717 64.1493 22.9121 64.6501 22.9121 65.0747C22.9121 66.1742 22.4102 66.8025 21.4054 66.955C21.6428 67.3957 22.0569 67.7718 22.6476 68.0815C22.615 67.4639 22.7717 66.9129 23.1169 66.4264C23.4938 65.8914 23.9812 65.624 24.5801 65.624H25.1219V67.1435ZM22.2009 65.4409C22.2009 65.2533 22.1121 64.9966 21.9336 64.6708C21.7914 64.4114 21.6609 64.2121 21.5413 64.0757C21.2333 64.5101 21.0766 65.0128 21.0766 65.5836C21.3384 65.5836 21.7144 65.5351 22.2009 65.4409ZM27.1622 64.8377C27.1622 65.4184 27.049 65.913 26.8234 66.3178C26.5144 66.8689 26.0379 67.1435 25.3946 67.1435H24.8238V65.624H25.4852C26.0605 65.624 26.3468 65.5172 26.3468 65.3063C26.3468 65.1214 26.123 64.7875 25.6746 64.3046C25.6275 64.2498 25.6275 64.1861 25.6746 64.1152L26.3704 63.1566C26.4302 63.0741 26.4909 63.0642 26.5489 63.1261C26.7283 63.3155 26.8759 63.583 26.9955 63.9285C27.1079 64.2498 27.1622 64.5541 27.1622 64.8377ZM26.9348 68.9718L26.1267 69.7742L25.3167 68.9718L26.1267 68.1676L26.9348 68.9718ZM38.4348 67.1435H37.9247C37.71 67.1435 37.3911 67.1139 36.9644 67.0538C36.5404 66.9909 36.2196 66.9613 36.0067 66.9613C35.8237 66.9613 35.6552 66.9847 35.4966 67.0313C35.2638 67.1013 35.146 67.2064 35.146 67.3446C35.146 67.4271 35.3163 67.4936 35.6552 67.5438C35.86 67.5645 36.0656 67.5842 36.2722 67.6049C36.7188 67.6587 37.0314 67.7287 37.2144 67.8158C37.4437 67.9262 37.5569 68.103 37.5569 68.3462C37.5569 69.1693 37.113 69.7626 36.226 70.1261C35.6045 70.3819 34.8072 70.5102 33.8368 70.5102C31.8273 70.5102 30.8225 69.7805 30.8225 68.3247C30.8225 67.9262 30.9521 67.4451 31.2139 66.8788C31.464 66.3375 31.6606 66.0665 31.8028 66.0665C31.9895 66.0665 32.0828 66.149 32.0828 66.3133C32.0828 66.3438 32.0284 66.5206 31.9161 66.8402C31.8046 67.1597 31.7476 67.4191 31.7476 67.6201C31.7476 68.2637 32.0728 68.6945 32.7224 68.9099C33.1238 69.0445 33.7716 69.1109 34.6667 69.1109C34.9693 69.1109 35.3707 69.0688 35.8744 68.9817C36.4769 68.8794 36.7777 68.7591 36.7777 68.6218C36.7777 68.5554 36.573 68.5051 36.1626 68.4755C35.6081 68.4351 35.2248 68.3848 35.0119 68.3202C34.5979 68.2035 34.3904 68.0025 34.3904 67.7206C34.3904 67.2889 34.5979 66.8644 35.0137 66.4479C35.5601 65.8995 36.313 65.624 37.2706 65.624H38.4339V67.1435H38.4348ZM40.4888 64.8377C40.4888 65.4184 40.3746 65.913 40.1499 66.3178C39.841 66.8689 39.3635 67.1435 38.7202 67.1435H38.1503V65.624H38.8117C39.3861 65.624 39.6724 65.5172 39.6724 65.3063C39.6724 65.1214 39.4496 64.7875 39.0011 64.3046C38.954 64.2498 38.954 64.1861 39.0011 64.1152L39.6969 63.1566C39.7558 63.0741 39.8165 63.0642 39.8754 63.1261C40.0539 63.3155 40.2025 63.583 40.3221 63.9285C40.4335 64.2498 40.4888 64.5541 40.4888 64.8377ZM41.556 68.9018L40.8258 69.6297L40.1028 68.9135L40.8312 68.1856L41.556 68.9018ZM39.9325 68.9018L39.204 69.6297L38.4792 68.9135L39.2077 68.1856L39.9325 68.9018ZM45.0759 67.1435H44.3719C43.9805 67.1435 43.6426 67.0134 43.3644 66.754C42.9957 66.4084 42.8109 65.8789 42.8109 65.1671C42.8109 64.6843 42.7828 63.9546 42.7257 62.9789C42.6587 61.8857 42.5934 61.1659 42.5309 60.8194C42.5101 60.7054 42.5182 60.63 42.5554 60.5941L43.5248 59.8043C43.6435 59.7101 43.7124 59.6634 43.7323 59.6634C43.7323 59.6634 43.7341 59.6652 43.7386 59.6697C43.7604 59.6733 43.7731 59.728 43.7731 59.8339V64.7973C43.7731 65.3565 44.0874 65.6357 44.7189 65.6357H45.0759V67.1435ZM49.3351 67.1435H48.7706C48.4644 67.1435 48.1699 67.0636 47.8873 66.9012C47.6037 66.7396 47.3844 66.5269 47.2295 66.263C46.8843 66.85 46.3769 67.1435 45.7074 67.1435H44.7679V65.624H45.47C46.0481 65.624 46.4485 65.4947 46.6714 65.2398C46.7855 65.1088 46.8743 64.8718 46.9378 64.5236C46.9867 64.2678 47.0836 64.1394 47.2295 64.1394C47.3717 64.1394 47.465 64.2678 47.5103 64.5236C47.5683 64.8718 47.6444 65.1088 47.735 65.2398C47.9181 65.4947 48.2469 65.624 48.7217 65.624H49.3351V67.1435ZM48.4354 68.9018L47.7051 69.6297L46.9822 68.9135L47.7106 68.1856L48.4354 68.9018ZM46.8118 68.9018L46.0807 69.6297L45.3586 68.9135L46.087 68.1856L46.8118 68.9018ZM54.7322 67.1435H54.1741C53.9548 67.1435 53.7501 67.0654 53.5553 66.9066C53.3722 66.7603 53.24 66.579 53.1575 66.36C52.9274 66.9631 52.5278 67.2647 51.9571 67.2647C51.4497 67.2647 51.0139 66.9811 50.6479 66.4138C50.3942 66.9012 50.0227 67.1435 49.5317 67.1435H49.0198V65.6357H49.5335C49.8769 65.6357 50.0916 65.606 50.1795 65.5477C50.2501 65.4992 50.2782 65.3906 50.2628 65.2219C50.2302 64.8252 50.3498 64.4491 50.6198 64.0937C50.9124 63.705 51.2794 63.5121 51.7215 63.5121C52.3167 63.5121 52.7616 63.8424 53.0579 64.4994L53.4329 65.3341C53.5634 65.5351 53.7618 65.6357 54.0318 65.6357H54.7322V67.1435ZM52.6375 65.5674C52.6375 65.3323 52.5541 65.0648 52.3901 64.7668C52.199 64.4294 51.9978 64.2606 51.7849 64.2606C51.5167 64.2606 51.3826 64.4392 51.3826 64.7955C51.3826 65.0666 51.4542 65.3484 51.5965 65.6437C51.7686 66.0001 51.9761 66.1787 52.2116 66.1787C52.4952 66.1787 52.6375 65.9758 52.6375 65.5674ZM58.9931 67.1435H58.4287C58.1225 67.1435 57.828 67.0636 57.5453 66.9012C57.2618 66.7396 57.0425 66.5269 56.8885 66.263C56.5433 66.85 56.0359 67.1435 55.3655 67.1435H54.4259V65.624H55.1281C55.707 65.624 56.1066 65.4947 56.3295 65.2398C56.4436 65.1088 56.5333 64.8718 56.5958 64.5236C56.6448 64.2678 56.7417 64.1394 56.8885 64.1394C57.0298 64.1394 57.124 64.2678 57.1684 64.5236C57.2273 64.8718 57.3025 65.1088 57.3931 65.2398C57.5761 65.4947 57.905 65.624 58.3798 65.624H58.9931V67.1435ZM58.0944 68.9018L57.3632 69.6297L56.6402 68.9135L57.3687 68.1856L58.0944 68.9018ZM56.4699 68.9018L55.7388 69.6297L55.0167 68.9135L55.7451 68.1856L56.4699 68.9018ZM66.1081 64.8898C66.1081 65.4364 65.9957 65.9238 65.7746 66.3474C65.4965 66.8787 65.0969 67.1435 64.5733 67.1435C64.0822 67.1435 63.6763 66.8743 63.3529 66.3357C63.0494 66.8743 62.6589 67.1435 62.1877 67.1435C61.6804 67.1435 61.2727 66.8743 60.9619 66.3357C60.6457 66.8743 60.1646 67.1435 59.5168 67.1435H58.6905V65.6357H59.6672C60.0187 65.6357 60.2697 65.5172 60.4219 65.282C60.4808 65.1914 60.5524 64.9724 60.6357 64.6259C60.6937 64.3908 60.7916 64.2723 60.9275 64.2723C61.0733 64.2723 61.1757 64.389 61.2301 64.6241C61.3171 64.9921 61.3805 65.2138 61.4213 65.2838C61.5508 65.519 61.79 65.6357 62.1352 65.6357C62.4768 65.6357 62.7178 65.519 62.86 65.2838C62.9044 65.2138 62.976 64.9921 63.0756 64.6241C63.1382 64.389 63.246 64.2723 63.3955 64.2723C63.5259 64.2723 63.6174 64.3908 63.67 64.6304C63.7452 65.0002 63.8059 65.2237 63.853 65.3018C63.9925 65.5414 64.2408 65.6599 64.5977 65.6599C65.0933 65.6599 65.3407 65.4947 65.3407 65.1626C65.3407 64.9984 65.1721 64.7049 64.8333 64.2839L65.3751 63.4501C65.4439 63.3433 65.4829 63.2886 65.4947 63.285C65.5191 63.2966 65.5581 63.337 65.6152 63.4097C65.7121 63.5345 65.8118 63.723 65.9115 63.9743C66.0428 64.3028 66.1081 64.6062 66.1081 64.8898ZM61.7293 62.0661L62.4605 61.34L63.1907 62.0679L62.4577 62.7949L61.7293 62.0661ZM63.3493 62.0625L64.0804 61.3364L64.8106 62.0661L64.0777 62.7904L63.3493 62.0625ZM62.5248 60.8697L63.2577 60.1463L63.9871 60.8742L63.2541 61.5976L62.5248 60.8697ZM78.9444 67.1435H78.4987C78.1372 67.1435 77.8083 67.0197 77.512 66.7701C77.2683 66.5691 77.1061 66.3438 77.0228 66.0943C76.4565 66.579 75.7806 66.9084 74.9942 67.0816C74.4787 67.1965 73.8155 67.253 73.0028 67.253C70.8456 67.253 69.7674 66.5269 69.7674 65.0765C69.7674 64.6843 69.8626 64.3028 70.0537 63.9321C70.2241 63.5991 70.3708 63.4322 70.4922 63.4322C70.6445 63.4322 70.7197 63.5148 70.7197 63.679C70.7197 63.7661 70.6952 63.8962 70.6445 64.073C70.5955 64.2498 70.5711 64.3827 70.5711 64.4733C70.5711 65.0101 70.8764 65.3763 71.487 65.5674C71.8866 65.694 72.4982 65.7568 73.3181 65.7568C74.8484 65.7568 76.0035 65.4714 76.7854 64.8979C76.9086 64.8072 77.079 64.6448 77.2964 64.4096C77.4667 64.2265 77.5909 64.1332 77.6661 64.1332C77.8038 64.1332 77.8735 64.2301 77.8735 64.4213C77.8735 64.5074 77.7757 64.757 77.5827 65.1689C77.7041 65.4732 78.0393 65.624 78.5875 65.624H78.9444V67.1435ZM75.2379 62.4763L74.5158 63.1943L73.791 62.4808L74.514 61.7627L75.2379 62.4763ZM73.6126 62.4808L72.8896 63.1988L72.1675 62.4808L72.8896 61.7627L73.6126 62.4808ZM83.7092 59.8321L83.4573 61.174C82.824 61.3768 81.7748 61.7349 80.3089 62.2456C80.7999 62.7321 81.1551 63.1405 81.3744 63.4699C81.6815 63.9348 81.8337 64.3988 81.8337 64.862C81.8337 66.3842 80.9947 67.1435 79.3204 67.1435H78.6427V65.624H79.0994C79.9392 65.624 80.5055 65.5854 80.7936 65.5109C81.0237 65.4525 81.1388 65.344 81.1388 65.1833C81.1388 64.9284 80.8951 64.5362 80.4086 64.0048C79.9601 63.5183 79.546 63.1584 79.1664 62.9233L79.4563 61.4028C80.3578 61.0465 81.7748 60.5223 83.7092 59.8321ZM89.0845 67.1435H88.8227C88.4385 67.1435 88.1404 67.0915 87.9312 66.9847C87.9312 68.182 87.566 69.1289 86.8367 69.8281C86.6138 70.0417 86.4734 70.1485 86.4145 70.1485C85.3554 70.1485 84.5653 70.048 84.0417 69.8469C83.9384 69.8083 83.9347 69.7706 84.0299 69.7356C84.7465 69.4709 85.4424 69.0885 86.1164 68.5841C86.8693 68.0204 87.2453 67.5384 87.2453 67.1319C87.2453 66.9389 87.1094 66.6777 86.8349 66.3474C86.6338 66.1024 86.4109 65.8771 86.1653 65.668L86.7887 64.4168C86.8249 64.3468 86.8675 64.3468 86.9201 64.4168C87.5153 65.221 88.0634 65.624 88.5663 65.624H89.0845V67.1435ZM96.2112 64.8898C96.2112 65.4364 96.0998 65.9238 95.8787 66.3474C95.6006 66.8787 95.2001 67.1435 94.6764 67.1435C94.1854 67.1435 93.7795 66.8743 93.4569 66.3357C93.1525 66.8743 92.762 67.1435 92.2918 67.1435C91.7835 67.1435 91.3758 66.8743 91.0651 66.3357C90.7489 66.8743 90.2678 67.1435 89.62 67.1435H88.7937V65.6357H89.7704C90.1219 65.6357 90.3729 65.5172 90.5251 65.282C90.584 65.1914 90.6555 64.9724 90.7389 64.6259C90.7969 64.3908 90.8947 64.2723 91.0306 64.2723C91.1774 64.2723 91.278 64.389 91.3332 64.6241C91.4202 64.9921 91.4836 65.2138 91.5244 65.2838C91.654 65.519 91.8941 65.6357 92.2383 65.6357C92.5799 65.6357 92.8209 65.519 92.9632 65.2838C93.0076 65.2138 93.0791 64.9921 93.1788 64.6241C93.2413 64.389 93.3491 64.2723 93.4995 64.2723C93.6291 64.2723 93.7206 64.3908 93.7731 64.6304C93.8483 65.0002 93.909 65.2237 93.9561 65.3018C94.0966 65.5414 94.3439 65.6599 94.7009 65.6599C95.1965 65.6599 95.4438 65.4947 95.4438 65.1626C95.4438 64.9984 95.2753 64.7049 94.9364 64.2839L95.4782 63.4501C95.5471 63.3433 95.5861 63.2886 95.5978 63.285C95.6223 63.2966 95.6613 63.337 95.7183 63.4097C95.8153 63.5345 95.9149 63.723 96.0146 63.9743C96.1469 64.3028 96.2112 64.6062 96.2112 64.8898ZM91.8325 62.0661L92.5636 61.34L93.2939 62.0679L92.5618 62.7949L91.8325 62.0661ZM93.4524 62.0625L94.1836 61.3364L94.9138 62.0661L94.1817 62.7904L93.4524 62.0625ZM92.6279 60.8697L93.3609 60.1463L94.0902 60.8742L93.3573 61.5976L92.6279 60.8697Z" fill="#1FA9E1"/>
<g id="Group">
<path id="Vector_29" d="M23.25 79.1249C23.25 80.4156 23.7773 81.6102 24.831 82.7097C25.168 83.0579 25.371 83.2329 25.438 83.2329C25.4743 83.2329 25.5232 83.2168 25.5839 83.1863C25.6446 83.154 25.6754 83.1226 25.6754 83.092C25.6754 83.1118 25.5476 82.9089 25.2894 82.4844C24.5528 81.2763 24.1832 80.1544 24.1832 79.1141C24.1832 78.1205 24.5673 76.969 25.3365 75.6595L25.7406 74.9702C25.7406 74.9477 25.7125 74.9217 25.6555 74.8912C25.5984 74.8616 25.554 74.8472 25.5214 74.8472C25.4425 74.8472 25.2333 75.024 24.8917 75.3758C24.4595 75.8246 24.1026 76.321 23.8208 76.8667C23.4403 77.6062 23.25 78.3602 23.25 79.1249ZM31.5319 79.8788C31.5319 80.1921 31.4422 80.526 31.2637 80.8805C31.0181 81.367 30.6748 81.612 30.2344 81.612C29.9971 81.612 29.6437 81.5662 29.1744 81.4729C28.7042 81.3804 28.3508 81.3346 28.1135 81.3346C27.839 81.3346 27.703 81.419 27.703 81.5878C27.703 81.6165 27.7058 81.6479 27.7094 81.6883C27.8353 82.8973 27.8761 83.6916 27.8308 84.0677C27.819 84.1574 27.742 84.3253 27.5934 84.5676C27.5391 84.6547 27.4412 84.809 27.3035 85.0343C27.2528 85.1214 27.2138 85.1636 27.1857 85.1636C27.1495 85.1636 27.1286 85.0909 27.1205 84.9464C27.0879 84.3674 27.0317 83.627 26.9483 82.724C26.875 81.9495 26.8387 81.4917 26.8387 81.3508C26.8387 80.955 26.9728 80.6364 27.2428 80.4012C27.5001 80.1741 27.8335 80.0601 28.2412 80.0601C28.2376 80.0179 28.2267 79.9327 28.2068 79.8061C28.1905 79.6957 28.1823 79.6114 28.1823 79.5467C28.1823 79.2838 28.32 78.9777 28.5928 78.6276C28.8954 78.2399 29.2116 78.0451 29.5441 78.0451C29.9364 78.0451 30.3703 78.2758 30.8478 78.7407C31.3026 79.185 31.5319 79.5629 31.5319 79.8788ZM30.6141 80.2208C30.4474 80.0117 30.239 79.8178 29.9853 79.641C29.68 79.43 29.4181 79.3232 29.1998 79.3232C28.9986 79.3232 28.8972 79.4247 28.8972 79.6248C28.8972 79.9713 28.8954 80.1059 28.8908 80.0314C28.8954 80.0942 28.9316 80.1337 29.005 80.1499C29.2967 80.2127 29.7923 80.3087 30.4908 80.4398C30.6204 80.4622 30.6875 80.4398 30.6875 80.3671C30.6875 80.3294 30.663 80.2791 30.6141 80.2208ZM35.1713 81.918H34.4673C34.075 81.918 33.738 81.787 33.4598 81.5276C33.0911 81.1821 32.9063 80.6525 32.9063 79.9408C32.9063 79.4579 32.8773 78.7282 32.8211 77.7534C32.7541 76.6593 32.6888 75.9395 32.6254 75.593C32.6055 75.4791 32.6136 75.4046 32.6499 75.3678L33.6202 74.5779C33.738 74.4837 33.8069 74.437 33.8277 74.437C33.8277 74.437 33.8295 74.4388 33.8331 74.4433C33.8558 74.4469 33.8685 74.5016 33.8685 74.6075V79.571C33.8685 80.1301 34.1828 80.4093 34.8143 80.4093H35.1713V81.918ZM40.37 80.1625L39.6977 81.3867C38.7111 81.4513 37.7697 81.5599 36.8719 81.7143C36.0927 81.8489 35.6261 81.918 35.4757 81.918H34.875V80.3976H36.3446C36.2332 80.3105 36.1317 80.166 36.0384 79.965C35.945 79.7621 35.8979 79.5889 35.8979 79.4444C35.8979 79.0082 36.1498 78.5271 36.6526 78.0003C37.189 77.4429 37.7272 77.1638 38.2708 77.1638C38.5833 77.1638 38.8896 77.2804 39.1922 77.512C39.4622 77.7148 39.6733 77.968 39.8282 78.2713C39.9007 78.4086 39.9351 78.5074 39.9351 78.5657C39.9351 78.6115 39.9088 78.6357 39.8581 78.6357C39.8155 78.6357 39.7367 78.616 39.6207 78.5774C39.1922 78.4302 38.7419 78.3584 38.2671 78.3584C37.9745 78.3584 37.6864 78.4024 37.4064 78.493C37.0187 78.6196 36.8239 78.7982 36.8239 79.0297C36.8239 79.203 36.9453 79.4103 37.1908 79.6553C37.5079 79.9731 37.8993 80.1319 38.3623 80.1319C39.1822 80.1319 39.8074 80.1041 40.2395 80.0494C40.3274 80.0377 40.38 80.0395 40.3999 80.0556C40.4126 80.0673 40.4026 80.1041 40.37 80.1625ZM49.0559 81.918H48.5459C48.3311 81.918 48.0122 81.8875 47.5864 81.8274C47.1615 81.7646 46.8407 81.735 46.6278 81.735C46.4457 81.735 46.2772 81.7592 46.1186 81.805C45.8849 81.875 45.7671 81.98 45.7671 82.1182C45.7671 82.2008 45.9374 82.2672 46.2772 82.3175C46.482 82.3381 46.6867 82.3578 46.8933 82.3785C47.34 82.4323 47.6534 82.5023 47.8355 82.5894C48.0648 82.6998 48.1789 82.8766 48.1789 83.1199C48.1789 83.9429 47.7341 84.5362 46.8471 84.8997C46.2265 85.1555 45.4283 85.2838 44.4579 85.2838C42.4484 85.2838 41.4436 84.5541 41.4436 83.0983C41.4436 82.6998 41.5732 82.2187 41.835 81.6524C42.0851 81.1112 42.2817 80.8401 42.4239 80.8401C42.6106 80.8401 42.7039 80.9218 42.7039 81.0869C42.7039 81.1174 42.6495 81.2942 42.5372 81.6138C42.4257 81.9333 42.3696 82.1936 42.3696 82.3937C42.3696 83.0373 42.6939 83.4681 43.3435 83.6835C43.7458 83.8181 44.3927 83.8846 45.2878 83.8846C45.5904 83.8846 45.9927 83.8424 46.4955 83.7553C47.099 83.653 47.3988 83.5327 47.3988 83.3954C47.3988 83.329 47.1941 83.2787 46.7846 83.2491C46.2301 83.2087 45.8459 83.1584 45.633 83.0938C45.219 82.9771 45.0124 82.7761 45.0124 82.4952C45.0124 82.0626 45.219 81.638 45.6348 81.2216C46.1812 80.6732 46.9341 80.3976 47.8926 80.3976H49.0559V81.918ZM53.1194 80.6749C53.1194 81.077 52.9962 81.4073 52.7479 81.6578C52.5006 81.9118 52.1717 82.0383 51.764 82.0383C51.2195 82.0383 50.7674 81.7547 50.4014 81.1874C50.1477 81.6748 49.7744 81.918 49.2833 81.918H48.7714V80.3976H49.2852C49.6285 80.3976 49.8433 80.3671 49.9302 80.3087C50.0018 80.263 50.0299 80.1544 50.0136 79.9847C49.981 79.5934 50.1033 79.2227 50.3751 78.8754C50.6732 78.4993 51.0446 78.3099 51.4913 78.3099C52.0476 78.3099 52.4698 78.5774 52.7642 79.1105C53.0016 79.5449 53.1194 80.0655 53.1194 80.6749ZM52.3883 80.3411C52.3883 80.1059 52.3058 79.8384 52.1409 79.5404C51.9506 79.203 51.7495 79.0342 51.5366 79.0342C51.2684 79.0342 51.1343 79.2128 51.1343 79.5692C51.1343 79.8402 51.205 80.1221 51.3472 80.4174C51.5203 80.7737 51.7269 80.9523 51.9624 80.9523C52.2469 80.9523 52.3892 80.7494 52.3892 80.3411H52.3883ZM56.7208 81.918H56.0159C55.6245 81.918 55.2875 81.787 55.0093 81.5276C54.6397 81.1821 54.4549 80.6525 54.4549 79.9408C54.4549 79.4579 54.4268 78.7282 54.3697 77.7534C54.3036 76.6593 54.2383 75.9395 54.1749 75.593C54.155 75.4791 54.1631 75.4046 54.1994 75.3678L55.1697 74.5779C55.2875 74.4837 55.3563 74.437 55.3772 74.437C55.3772 74.437 55.379 74.4388 55.3826 74.4433C55.4053 74.4469 55.417 74.5016 55.417 74.6075V79.571C55.417 80.1301 55.7323 80.4093 56.3638 80.4093H56.7208V81.918ZM62.2765 81.918H61.741C61.3161 81.918 61.0298 81.936 60.8839 81.9701C60.6022 82.0365 60.4617 82.181 60.4617 82.4045C60.4617 82.7483 60.797 83.0579 61.4665 83.3317L60.9573 84.7166C59.987 84.4392 59.2196 84.0192 58.6488 83.4582C58.3118 83.1279 58.0762 82.8021 57.9421 82.4763C57.9158 82.3982 57.837 82.181 57.7056 81.8229C57.3378 81.8857 57.0207 81.918 56.757 81.918H56.4245V80.3976H57.557C57.557 79.36 57.9829 78.2579 58.8372 77.0919C59.1362 77.4411 59.4044 77.8593 59.6436 78.3467C59.9254 78.9229 60.0658 79.4247 60.0658 79.8483C60.0658 80.9487 59.5648 81.5761 58.56 81.7287C58.7974 82.1685 59.2114 82.5445 59.8021 82.8551C59.7695 82.2376 59.9254 81.6865 60.2706 81.2C60.6484 80.6651 61.1358 80.3976 61.7347 80.3976H62.2765V81.918ZM59.3555 80.2145C59.3555 80.0269 59.2658 79.7702 59.0873 79.4444C58.946 79.185 58.8155 78.9858 58.6959 78.8493C58.387 79.2838 58.2311 79.7864 58.2311 80.3572C58.493 80.3572 58.868 80.3087 59.3555 80.2145ZM69.395 79.6634C69.395 80.21 69.2836 80.6947 69.0625 81.121C68.7844 81.6524 68.3839 81.918 67.8611 81.918C67.3692 81.918 66.9633 81.6479 66.6407 81.1094C66.3363 81.6479 65.9467 81.918 65.4756 81.918C64.9682 81.918 64.5605 81.6479 64.2498 81.1094C63.9327 81.6479 63.4516 81.918 62.8047 81.918H61.9784V80.4093H62.9542C63.3057 80.4093 63.5576 80.2908 63.7098 80.0556C63.7687 79.965 63.8393 79.746 63.9227 79.3995C63.9816 79.1644 64.0794 79.0459 64.2153 79.0459C64.3612 79.0459 64.4627 79.1626 64.5179 79.3977C64.6049 79.7657 64.6674 79.9874 64.7082 80.0574C64.8387 80.2926 65.0779 80.4093 65.423 80.4093C65.7637 80.4093 66.0056 80.2926 66.1479 80.0574C66.1922 79.9874 66.2638 79.7657 66.3626 79.3977C66.426 79.1626 66.5329 79.0459 66.6833 79.0459C66.8129 79.0459 66.9053 79.1644 66.9578 79.404C67.033 79.7738 67.0937 79.9973 67.1399 80.0754C67.2804 80.315 67.5277 80.4335 67.8856 80.4335C68.3803 80.4335 68.6285 80.2684 68.6285 79.9372C68.6285 79.772 68.46 79.4785 68.1202 79.0558L68.6629 78.2211C68.7318 78.1152 68.7699 78.0604 68.7825 78.0568C68.807 78.0685 68.846 78.1089 68.9021 78.1816C69 78.3063 69.0987 78.4948 69.1984 78.7461C69.3307 79.0746 69.3959 79.3798 69.3959 79.6634H69.395ZM72.9593 79.1249C72.9593 79.8465 72.7771 80.5619 72.412 81.2745C72.142 81.7987 71.7987 82.278 71.381 82.7097C71.0439 83.0579 70.8383 83.2329 70.7676 83.2329C70.7314 83.2329 70.6824 83.2168 70.6208 83.1863C70.5583 83.154 70.5275 83.1226 70.5275 83.092C70.5275 83.1118 70.658 82.9089 70.918 82.4844C71.6628 81.2763 72.0342 80.1544 72.0342 79.1141C72.0342 78.1205 71.6464 76.969 70.8709 75.6595L70.4632 74.9702C70.4632 74.9477 70.4913 74.9217 70.5502 74.8912C70.6072 74.8616 70.6516 74.8472 70.6843 74.8472C70.7631 74.8472 70.9742 75.024 71.3158 75.3758C71.7479 75.8246 72.1049 76.321 72.3876 76.8667C72.769 77.6062 72.9593 78.3602 72.9593 79.1249Z" fill="#1FA9E1"/>
<path id="Vector_30" d="M23.2863 79.1276C23.2872 79.7667 23.4177 80.3824 23.6786 80.9748C23.9404 81.5681 24.3336 82.138 24.8573 82.6846C25.0249 82.8578 25.1599 82.988 25.2605 83.0741L25.2623 83.0759C25.3547 83.1558 25.4145 83.1962 25.4381 83.1962C25.4526 83.1962 25.4707 83.1926 25.4906 83.1863H25.4924C25.5142 83.1791 25.5395 83.1684 25.5676 83.154C25.5939 83.1397 25.6138 83.1262 25.6256 83.1136L25.6365 83.1002L25.6374 83.1055C25.6401 83.1046 25.6383 83.102 25.6365 83.1002L25.6383 83.0921H25.7126C25.7126 83.1235 25.7071 83.1397 25.6963 83.1432L25.6791 83.1639C25.6618 83.1818 25.6365 83.1998 25.603 83.2177L25.6002 83.2186C25.5694 83.2348 25.5404 83.2465 25.5151 83.2554H25.5133C25.4852 83.2644 25.4598 83.2689 25.4381 83.2689C25.3964 83.2689 25.3203 83.2231 25.2134 83.1316L25.2116 83.1298C25.1101 83.0418 24.9742 82.9108 24.8048 82.7358C24.2747 82.182 23.877 81.6049 23.6115 81.0035C23.3461 80.4013 23.2129 79.7748 23.2129 79.1249V79.1231C23.2129 78.739 23.2618 78.3566 23.3569 77.9779C23.453 77.5991 23.5961 77.2221 23.7873 76.8497C23.9295 76.5759 24.0899 76.3138 24.2702 76.0643C24.4496 75.8139 24.6489 75.576 24.8655 75.3508C25.0349 75.1757 25.1726 75.0438 25.2786 74.9541L25.2813 74.9523C25.3928 74.858 25.4725 74.8104 25.5214 74.8104C25.5404 74.8104 25.5631 74.8149 25.5894 74.823L25.5912 74.8239C25.6156 74.832 25.6428 74.8437 25.6727 74.8598C25.7425 74.8966 25.7778 74.9334 25.7778 74.9702C25.7778 74.9765 25.776 74.9828 25.7724 74.9882L25.3683 75.6775C24.9851 76.33 24.6978 76.943 24.5067 77.5156C24.3164 78.0883 24.2204 78.6214 24.2204 79.1142C24.2204 79.6303 24.3128 80.1679 24.4949 80.7253C24.6788 81.2835 24.9542 81.8642 25.3212 82.4656C25.4516 82.681 25.5486 82.8381 25.6102 82.9359C25.6238 82.9566 25.6328 83.0661 25.6365 83.0993C25.6129 83.0714 25.583 83.0293 25.5486 82.9745C25.4825 82.8695 25.3855 82.7124 25.2587 82.5033C24.889 81.8975 24.6109 81.3114 24.4251 80.7477C24.2403 80.1822 24.147 79.6374 24.147 79.1142C24.147 78.6133 24.2439 78.073 24.4369 77.4932C24.6299 76.9152 24.9189 76.2977 25.3049 75.6416L25.7008 74.9648C25.6945 74.9558 25.6736 74.9424 25.6383 74.9235C25.612 74.9101 25.5885 74.8993 25.5685 74.893L25.5667 74.8921C25.5486 74.8867 25.5341 74.884 25.5214 74.884C25.4906 74.884 25.4263 74.9253 25.3284 75.0079L25.3266 75.0088C25.2242 75.0959 25.0874 75.2269 24.9189 75.401C24.7033 75.6245 24.5067 75.8597 24.33 76.1056C24.1524 76.3524 23.993 76.6118 23.8534 76.8829C23.6641 77.2509 23.5227 77.6216 23.4285 77.9958C23.3343 78.3683 23.2872 78.7453 23.2872 79.1249L23.2863 79.1276ZM31.5681 79.8789C31.5681 80.0386 31.5455 80.2038 31.5002 80.3734C31.4549 80.5431 31.3869 80.7172 31.2972 80.8967L31.2954 80.8994C31.1704 81.1462 31.0191 81.3329 30.8433 81.4586C30.6648 81.5851 30.4619 81.6488 30.2345 81.6488C30.1149 81.6488 29.9645 81.6363 29.786 81.6138C29.6093 81.5905 29.4028 81.5555 29.1681 81.5088C28.9335 81.463 28.7278 81.428 28.552 81.4056C28.3772 81.3823 28.2304 81.3706 28.1135 81.3706C27.8644 81.3706 27.7402 81.4433 27.7402 81.5878L27.7457 81.6847C27.8091 82.2888 27.8508 82.7905 27.8707 83.1881C27.8915 83.5875 27.8906 83.8819 27.868 84.0722L27.8671 84.0749C27.8598 84.1243 27.8363 84.1925 27.7946 84.2804C27.7547 84.3639 27.6986 84.4662 27.6252 84.5865C27.5246 84.7328 27.4295 84.9006 27.3352 85.0532C27.309 85.0981 27.2845 85.1331 27.2637 85.1555C27.2365 85.1852 27.2102 85.1995 27.1858 85.1995C27.1486 85.1995 27.1232 85.1726 27.1069 85.1196C27.0961 85.0801 27.0879 85.0236 27.0843 84.9482C27.068 84.6565 27.0444 84.3226 27.0154 83.9457C26.9873 83.5759 26.952 83.1693 26.9112 82.7277C26.875 82.3364 26.8469 82.0276 26.8297 81.8023C26.8107 81.5725 26.8016 81.4218 26.8016 81.3509C26.8016 81.148 26.836 80.964 26.9058 80.8007C26.9747 80.6382 27.0797 80.4955 27.2184 80.3743L27.2202 80.3725C27.3525 80.2567 27.5038 80.1688 27.6741 80.1113C27.8335 80.0566 28.0093 80.027 28.2005 80.0234L28.1706 79.8116C28.1624 79.7568 28.1561 79.7074 28.1516 79.6626C28.1479 79.6186 28.1452 79.58 28.1452 79.5468C28.1452 79.4104 28.1815 79.2632 28.2512 79.1052C28.321 78.949 28.4252 78.783 28.5638 78.6053C28.7169 78.4087 28.8755 78.2597 29.0376 78.1601C29.2025 78.0587 29.3711 78.0084 29.5441 78.0084C29.7461 78.0084 29.9591 78.0676 30.1819 78.1861C30.4012 78.3037 30.6322 78.4796 30.8732 78.7148C31.1024 78.9392 31.2764 79.1474 31.3915 79.3395C31.5092 79.5342 31.5681 79.7146 31.5681 79.8789ZM31.4295 80.3555C31.473 80.1912 31.4947 80.0324 31.4947 79.8789C31.4947 79.7272 31.4395 79.5603 31.3289 79.3763C31.2157 79.1896 31.0472 78.9867 30.8216 78.7668C30.586 78.537 30.3604 78.3647 30.1466 78.2507C29.9355 78.1376 29.7344 78.0811 29.5441 78.0811C29.3846 78.0811 29.2288 78.1278 29.0766 78.222C28.9217 78.3163 28.7704 78.4599 28.6218 78.6501C28.4877 78.8225 28.3862 78.984 28.3192 79.1348C28.2521 79.2829 28.2186 79.4202 28.2186 79.5468C28.2186 79.5782 28.2213 79.615 28.2249 79.6563C28.2286 79.6967 28.2349 79.7451 28.2431 79.8008L28.2639 79.9426L28.2784 80.0602C28.2784 80.0799 28.2612 80.0961 28.2413 80.0961C28.041 80.0961 27.8598 80.1239 27.6976 80.1796C27.5373 80.2343 27.3941 80.3169 27.2691 80.4273L27.2664 80.4291C27.1368 80.5431 27.0381 80.6768 26.9737 80.8294C26.9085 80.9829 26.875 81.157 26.875 81.3509C26.875 81.42 26.885 81.569 26.9031 81.7969C26.9212 82.0294 26.9484 82.3382 26.9846 82.7205C27.0263 83.1702 27.0607 83.5768 27.0888 83.9403C27.1178 84.3145 27.1405 84.6493 27.1577 84.9437C27.1613 85.0137 27.1676 85.0658 27.1776 85.099L27.1858 85.1268C27.1894 85.1268 27.1966 85.1205 27.2084 85.1071C27.2265 85.0873 27.2474 85.0577 27.2718 85.0164C27.3633 84.8674 27.4811 84.6996 27.5627 84.5497C27.6342 84.4303 27.6895 84.3298 27.7285 84.249C27.7665 84.1691 27.7883 84.1072 27.7946 84.065V84.0632C27.8172 83.8765 27.8181 83.5857 27.7973 83.1917C27.7774 82.7959 27.7357 82.296 27.6732 81.6919L27.6668 81.5878C27.6668 81.3948 27.8145 81.2979 28.1135 81.2979C28.2331 81.2979 28.3826 81.3096 28.5611 81.3329C28.7387 81.3562 28.9461 81.3912 29.1817 81.4379C29.4154 81.4837 29.6202 81.5178 29.796 81.5411C29.9708 81.5636 30.1176 81.5752 30.2345 81.5752C30.4465 81.5752 30.6358 81.5169 30.8007 81.3993C30.9665 81.2808 31.1097 81.1031 31.2293 80.8662L31.2311 80.8644C31.319 80.6894 31.3851 80.5197 31.4295 80.3555ZM30.5833 80.2397C30.5018 80.1383 30.4093 80.0395 30.307 79.9453C30.2037 79.8502 30.0895 79.7586 29.9636 79.6715L29.9627 79.6697C29.8132 79.5665 29.6746 79.4884 29.5468 79.4373C29.42 79.3861 29.304 79.3601 29.1998 79.3601C29.1092 79.3601 29.0422 79.3816 28.9987 79.4247C28.9561 79.4678 28.9335 79.5351 28.9335 79.6249L28.9325 80.0557C28.9362 80.0665 28.9416 80.0754 28.9489 80.0835C28.9624 80.0979 28.9833 80.1086 29.0123 80.1149C29.1581 80.1454 29.3557 80.1858 29.6057 80.2343L30.4963 80.4039C30.5552 80.4138 30.5987 80.4147 30.625 80.4048C30.6422 80.3986 30.6503 80.386 30.6503 80.3671C30.6503 80.3537 30.6458 80.3366 30.6358 80.3169C30.625 80.2953 30.6078 80.2702 30.586 80.2442L30.5833 80.2397ZM30.3577 79.8923C30.4628 79.9893 30.557 80.0907 30.6413 80.1957L30.6449 80.2002C30.6694 80.2298 30.6884 80.2585 30.702 80.2846C30.7165 80.3151 30.7246 80.3429 30.7246 80.3671C30.7246 80.421 30.6993 80.456 30.6503 80.4731C30.6105 80.4874 30.5552 80.4883 30.4845 80.4757L29.5912 80.3061C29.343 80.2576 29.1445 80.2173 28.9969 80.1858C28.9733 80.1805 28.9525 80.1733 28.9344 80.1625C28.9416 80.3519 28.938 80.4183 28.928 80.4048C28.9171 80.8491 28.8927 80.7253 28.8546 80.035V80.0333C28.8537 80.0189 28.8619 80.0054 28.8746 79.9992C28.8664 79.8807 28.8601 79.7496 28.8601 79.6249C28.8601 79.5154 28.8891 79.431 28.947 79.3736C29.0041 79.3161 29.0893 79.2874 29.1998 79.2874C29.314 79.2874 29.4381 79.3152 29.574 79.37C29.7063 79.4229 29.8503 79.5037 30.0044 79.6105L30.0062 79.6114C30.1339 79.7012 30.2517 79.7945 30.3577 79.8923ZM35.1713 81.954H34.4674C34.2662 81.954 34.0796 81.9208 33.9075 81.8535C33.7353 81.7871 33.5768 81.6865 33.4345 81.5537C33.2461 81.3778 33.1038 81.1534 33.0096 80.8832C32.9163 80.6149 32.8692 80.3007 32.8692 79.9408C32.8692 79.6985 32.8619 79.3951 32.8474 79.0334C32.8338 78.6699 32.8121 78.2436 32.784 77.7553C32.7505 77.2078 32.717 76.7545 32.6852 76.3955C32.6526 76.0365 32.6209 75.7708 32.5901 75.5994C32.5783 75.5393 32.5756 75.4881 32.5801 75.4477C32.5856 75.401 32.6001 75.366 32.6245 75.3427L33.5976 74.5502C33.6565 74.5017 33.7045 74.4658 33.7389 74.4425C33.7797 74.4146 33.8096 74.4003 33.8277 74.4003C33.8377 74.4003 33.8468 74.4048 33.854 74.411C33.8739 74.4218 33.8875 74.4451 33.8957 74.4801C33.902 74.5107 33.9047 74.5529 33.9047 74.6076V79.571C33.9047 79.8394 33.9799 80.0404 34.1285 80.1733C34.2789 80.3061 34.5072 80.3734 34.8144 80.3734H34.8479C34.8542 80.3653 34.8642 80.3609 34.8751 80.3609H36.2495C36.2169 80.3276 36.1852 80.2882 36.1544 80.2451C36.1018 80.1715 36.052 80.0826 36.0049 79.9803C35.9569 79.8762 35.9206 79.7801 35.8971 79.6922C35.8735 79.6024 35.8608 79.5199 35.8608 79.4445C35.8608 79.2201 35.9251 78.9849 36.0538 78.7399C36.1815 78.4958 36.3727 78.2409 36.6264 77.9752C36.8973 77.6943 37.1691 77.4824 37.4418 77.3415C37.7172 77.1988 37.9936 77.127 38.2708 77.127C38.4321 77.127 38.5906 77.1575 38.7483 77.2168C38.905 77.276 39.0608 77.3649 39.2149 77.4824L39.2158 77.4842C39.3526 77.5865 39.4749 77.7032 39.5818 77.8307C39.6896 77.959 39.782 78.1008 39.8609 78.2552C39.8971 78.3243 39.9243 78.3836 39.9424 78.4329C39.9623 78.4877 39.9723 78.5317 39.9723 78.5658C39.9723 78.599 39.9614 78.6259 39.9406 78.6448C39.9207 78.6627 39.8935 78.6726 39.8581 78.6726C39.8337 78.6726 39.8002 78.6672 39.7585 78.6564C39.7186 78.6465 39.6688 78.6313 39.609 78.6115C39.397 78.5397 39.1795 78.485 38.9558 78.4491C38.732 78.4123 38.5027 78.3943 38.2672 78.3943C38.1222 78.3943 37.9782 78.406 37.8359 78.4275C37.6946 78.45 37.5551 78.4832 37.4173 78.5272C37.2289 78.5891 37.0876 78.6636 36.9942 78.7489C36.9054 78.8314 36.8601 78.9248 36.8601 79.0298C36.8601 79.1097 36.8891 79.1985 36.9471 79.2973C37.006 79.3987 37.0966 79.5091 37.2171 79.6294C37.372 79.7846 37.5451 79.9013 37.7354 79.9785C37.9265 80.0566 38.1358 80.0952 38.3623 80.0952C38.7709 80.0952 39.1306 80.0889 39.4405 80.0745C39.754 80.0611 40.0194 80.0404 40.235 80.0135C40.2803 80.0072 40.3175 80.0045 40.3465 80.0054C40.3809 80.0072 40.4072 80.0144 40.4235 80.027L40.4307 80.035C40.4434 80.0512 40.4452 80.0736 40.4371 80.1015C40.4316 80.1212 40.4199 80.1481 40.4017 80.1796L39.7304 81.4047C39.7241 81.4155 39.7123 81.4227 39.7005 81.4236C39.2085 81.455 38.7265 81.4989 38.2554 81.5528C37.7861 81.6076 37.3267 81.6731 36.8783 81.7503C36.4896 81.8176 36.177 81.8687 35.9433 81.9028C35.7086 81.937 35.5528 81.954 35.4758 81.954H35.1713ZM34.4674 81.8813H34.8379V80.4461H34.8144C34.4891 80.4461 34.2445 80.3725 34.0796 80.2271C33.9138 80.0799 33.8314 79.8609 33.8314 79.571V74.6076C33.8314 74.5573 33.8286 74.5196 33.8232 74.4954C33.8214 74.4846 33.8304 74.4802 33.8277 74.4793L33.8205 74.4766L33.7797 74.5026C33.7462 74.5259 33.7 74.5609 33.6438 74.6058L32.6762 75.3947C32.6644 75.4064 32.6563 75.4262 32.6535 75.454C32.6499 75.489 32.6526 75.533 32.6617 75.5868C32.6934 75.7618 32.726 76.0293 32.7586 76.3892C32.7912 76.7509 32.8239 77.2051 32.8574 77.7508C32.8855 78.2373 32.9072 78.6645 32.9208 79.0307C32.9353 79.3978 32.9426 79.7012 32.9426 79.9408C32.9426 80.2926 32.9888 80.5996 33.0794 80.8599C33.1691 81.1184 33.305 81.332 33.4853 81.5007C33.6212 81.6273 33.7706 81.7224 33.9346 81.7862C34.0977 81.849 34.2762 81.8813 34.4674 81.8813ZM34.9122 81.8813H35.1342V80.4461H34.9122V81.8813ZM35.2085 80.4336V81.8813H35.4758C35.5491 81.8813 35.7014 81.8642 35.9324 81.8301C36.1643 81.7969 36.476 81.7458 36.8656 81.6785C37.315 81.6013 37.7752 81.5348 38.2473 81.4801C38.712 81.4271 39.1886 81.3841 39.6751 81.3518L40.3374 80.1446C40.3519 80.1185 40.3619 80.097 40.3664 80.0817L40.3673 80.0808L40.3438 80.0781C40.3202 80.0772 40.2867 80.0799 40.245 80.0853C40.0267 80.1131 39.7594 80.1338 39.4441 80.1472C39.1297 80.1616 38.7691 80.1688 38.3623 80.1688C38.1258 80.1688 37.9075 80.1275 37.7073 80.0467C37.5079 79.965 37.3267 79.843 37.1646 79.6805C37.0395 79.5558 36.9462 79.44 36.8837 79.3341C36.8185 79.2237 36.7868 79.1231 36.7868 79.0298C36.7868 78.9041 36.8393 78.7928 36.9444 78.6959C37.045 78.6026 37.1954 78.5236 37.3947 78.4581C37.536 78.4123 37.6801 78.3782 37.825 78.3557C37.9709 78.3333 38.1186 78.3216 38.2672 78.3216C38.5064 78.3216 38.7401 78.3405 38.9675 78.3764C39.194 78.4132 39.416 78.4688 39.6325 78.5433C39.6887 78.5613 39.7367 78.5756 39.7757 78.5855C39.8119 78.5945 39.84 78.599 39.8581 78.599C39.8744 78.599 39.8853 78.5963 39.8908 78.5909C39.8962 78.5864 39.8989 78.5774 39.8989 78.5658C39.8989 78.5397 39.8899 78.5038 39.8735 78.4581C39.8563 78.4114 39.831 78.3548 39.7965 78.2902L39.7947 78.2875C39.7195 78.1385 39.6289 78.0021 39.5247 77.8774C39.4214 77.7535 39.3037 77.6413 39.1723 77.5417L39.1705 77.5408C39.0219 77.4268 38.8724 77.3424 38.722 77.285C38.5734 77.2284 38.423 77.2006 38.2708 77.2006C38.0044 77.2006 37.7399 77.2688 37.4762 77.4052C37.2108 77.5426 36.9453 77.7499 36.6799 78.0254C36.4307 78.2866 36.2441 78.5353 36.119 78.7731C35.9958 79.0083 35.9351 79.2318 35.9351 79.4445C35.9351 79.5136 35.946 79.5899 35.9686 79.6733C35.9913 79.7586 36.0257 79.8511 36.071 79.9498C36.1172 80.0485 36.1652 80.1329 36.2142 80.2038C36.2631 80.2711 36.3129 80.3268 36.3655 80.3671C36.3754 80.3743 36.3818 80.3851 36.3818 80.3977C36.3818 80.4174 36.3646 80.4336 36.3446 80.4336H35.2085ZM49.056 81.954H48.5459C48.4381 81.954 48.3031 81.9468 48.1418 81.9316C47.9805 81.9163 47.7939 81.893 47.581 81.8633C47.3699 81.8328 47.1851 81.8095 47.0283 81.7942C46.8689 81.779 46.7348 81.7709 46.6279 81.7709C46.5382 81.7709 46.4521 81.7772 46.3696 81.7889C46.2863 81.8005 46.2057 81.8176 46.1286 81.84C46.0172 81.8732 45.9339 81.9154 45.8795 81.9639C45.8297 82.0087 45.8043 82.0599 45.8043 82.1182C45.8043 82.1434 45.8387 82.1694 45.9085 82.1963C45.9909 82.2286 46.1151 82.2565 46.2818 82.2816L46.8969 82.3417C47.1216 82.3687 47.3128 82.401 47.4714 82.436C47.6317 82.4719 47.7577 82.5123 47.8519 82.5562C47.9733 82.6155 48.0639 82.6918 48.1246 82.7851C48.1853 82.8803 48.2161 82.9916 48.2161 83.1199C48.2161 83.5391 48.1019 83.9008 47.8754 84.2033C47.6489 84.5057 47.311 84.7489 46.8616 84.9338C46.5481 85.0622 46.1903 85.1591 45.7889 85.2238C45.3875 85.2884 44.9445 85.3207 44.458 85.3207C43.4459 85.3207 42.6849 85.1358 42.1757 84.7669C41.6629 84.3953 41.4065 83.8379 41.4065 83.0984C41.4065 82.8964 41.44 82.6729 41.5062 82.4288C41.5714 82.1865 41.6702 81.9226 41.8024 81.6372C41.9275 81.3643 42.0407 81.1597 42.1404 81.0223C42.2455 80.876 42.3406 80.8033 42.424 80.8033C42.5263 80.8033 42.6052 80.8267 42.6586 80.8743C42.713 80.9227 42.7411 80.9936 42.7411 81.087C42.7411 81.1058 42.7257 81.1651 42.6958 81.2611C42.6686 81.3455 42.6278 81.4675 42.5726 81.6255C42.5173 81.7844 42.4756 81.928 42.4475 82.0563C42.4203 82.1829 42.4058 82.296 42.4058 82.3938C42.4058 82.7079 42.4847 82.97 42.6423 83.1783C42.8 83.3865 43.0382 83.5436 43.3553 83.6486C43.5538 83.715 43.8138 83.7652 44.1345 83.7985C44.4571 83.8317 44.8412 83.8478 45.2879 83.8478C45.4392 83.8478 45.6149 83.837 45.8152 83.8164C46.0145 83.7949 46.2392 83.7626 46.4901 83.7195C46.7882 83.6692 47.0111 83.6136 47.1588 83.5552C47.2947 83.5014 47.3626 83.4475 47.3626 83.3955C47.3626 83.3811 47.3201 83.364 47.2349 83.3434C47.1352 83.3201 46.9839 83.3003 46.7819 83.2851C46.5037 83.2653 46.2682 83.242 46.0761 83.2169C45.8831 83.1908 45.7318 83.1612 45.6231 83.1289C45.4111 83.0696 45.2498 82.9871 45.142 82.883C45.0306 82.7753 44.9753 82.646 44.9753 82.4952C44.9753 82.2735 45.0278 82.0536 45.1348 81.8364C45.2399 81.621 45.3984 81.4074 45.6095 81.1965C45.8858 80.9182 46.2156 80.7091 46.5971 80.5691C46.9776 80.4309 47.4097 80.3609 47.8927 80.3609H49.2852C49.4546 80.3609 49.5923 80.3537 49.6974 80.3393C49.7998 80.325 49.8714 80.3043 49.9103 80.2792L49.9131 80.2765C49.9393 80.2585 49.9584 80.2271 49.9692 80.184C49.9819 80.1338 49.9846 80.0683 49.9774 79.9884C49.9602 79.7882 49.9837 79.5926 50.0453 79.4041C50.1069 79.2138 50.2075 79.0307 50.3461 78.853C50.4983 78.6609 50.6705 78.5164 50.8607 78.4195C51.0528 78.3225 51.2621 78.2732 51.4913 78.2732C51.7767 78.2732 52.0277 78.3423 52.246 78.4796C52.4626 78.616 52.6465 78.8216 52.7969 79.0935C52.9174 79.3134 53.0071 79.5549 53.0669 79.8187C53.1267 80.0826 53.1566 80.368 53.1566 80.675C53.1566 80.8805 53.124 81.0681 53.0605 81.2369C52.9971 81.4047 52.9011 81.5546 52.7742 81.6838C52.6474 81.814 52.4988 81.9118 52.3294 81.9773L52.3276 81.9782C52.16 82.042 51.9715 82.0752 51.764 82.0752C51.485 82.0752 51.2286 82.0016 50.9957 81.8562C50.7783 81.7206 50.5817 81.5214 50.405 81.2593C50.2809 81.4801 50.1296 81.6497 49.952 81.7655C49.759 81.8912 49.5362 81.954 49.2834 81.954H49.056ZM48.5459 81.8813H48.7343V80.4336H47.8927C47.4179 80.4336 46.9939 80.5018 46.6224 80.6382C46.251 80.7737 45.9302 80.9766 45.6611 81.2476C45.4564 81.4523 45.3024 81.6596 45.2009 81.8678C45.0994 82.0752 45.0487 82.2843 45.0487 82.4952C45.0487 82.6254 45.0967 82.7376 45.1936 82.8309C45.2924 82.926 45.4428 83.0023 45.643 83.0589C45.7481 83.0903 45.8958 83.119 46.0861 83.1441C46.2763 83.1693 46.5101 83.1926 46.7864 83.2124C46.9921 83.2276 47.1479 83.2483 47.2521 83.2734C47.3744 83.3021 47.436 83.3434 47.436 83.3955C47.436 83.4798 47.3527 83.5561 47.1869 83.6225C47.0338 83.6836 46.8054 83.7401 46.5019 83.7913C46.2519 83.8344 46.0254 83.8667 45.8233 83.8882C45.6195 83.9098 45.441 83.9214 45.2879 83.9214C44.8403 83.9214 44.4525 83.9044 44.1273 83.8703C43.8002 83.837 43.5356 83.7859 43.3318 83.7177C43.0002 83.6082 42.7501 83.4421 42.5834 83.2213C42.4158 82.9996 42.3325 82.7241 42.3325 82.3938C42.3325 82.2915 42.347 82.1739 42.3759 82.0411C42.404 81.91 42.4466 81.7637 42.5028 81.6022C42.5553 81.4514 42.5961 81.3293 42.6251 81.2396C42.6532 81.1498 42.6677 81.0986 42.6677 81.087C42.6677 81.0152 42.6478 80.9622 42.6097 80.929C42.5698 80.894 42.5082 80.876 42.424 80.876C42.3651 80.876 42.2908 80.9389 42.1993 81.0645C42.1032 81.1974 41.9927 81.3993 41.8686 81.6668C41.739 81.9486 41.6421 82.2089 41.5768 82.4476C41.5125 82.6855 41.4808 82.9018 41.4808 83.0984C41.4808 83.8137 41.7272 84.3504 42.2192 84.7077C42.7148 85.0676 43.4613 85.2471 44.458 85.2471C44.9409 85.2471 45.3803 85.2157 45.7753 85.152C46.1721 85.0882 46.5255 84.9931 46.8335 84.8665C47.2702 84.687 47.5991 84.451 47.8165 84.1602C48.0331 83.8703 48.1418 83.5229 48.1418 83.1199C48.1418 83.0059 48.1155 82.9072 48.0621 82.8246C48.0095 82.742 47.928 82.6747 47.8202 82.6227C47.7305 82.5805 47.6091 82.5419 47.455 82.5069C47.301 82.4728 47.1126 82.4414 46.8897 82.4144L46.2718 82.3534C46.0997 82.3283 45.9692 82.2987 45.8813 82.2645C45.7807 82.2251 45.73 82.1766 45.73 82.1182C45.73 82.0384 45.7644 81.9684 45.8306 81.9091C45.8931 81.8535 45.9855 81.8068 46.1069 81.7709L46.1078 81.77C46.1894 81.7467 46.2727 81.7287 46.3588 81.7161C46.4458 81.7045 46.5354 81.6982 46.6279 81.6982C46.7357 81.6982 46.8725 81.7063 47.0356 81.7215C47.1959 81.7368 47.3817 81.7601 47.591 81.7916C47.8048 81.8212 47.9905 81.8436 48.1491 81.8589C48.3067 81.8732 48.439 81.8813 48.5459 81.8813ZM48.8086 81.8813H49.0188V80.4336H48.8086V81.8813ZM49.0922 80.4336V81.8813H49.2834C49.5217 81.8813 49.7319 81.8221 49.9112 81.7045C50.0924 81.5869 50.2447 81.4083 50.3688 81.1713C50.3715 81.1651 50.376 81.1606 50.3815 81.157C50.3987 81.1462 50.4213 81.1516 50.4322 81.1677C50.6125 81.4469 50.8127 81.656 51.0356 81.7951C51.2558 81.9325 51.4986 82.0016 51.764 82.0016C51.9625 82.0016 52.1418 81.9711 52.3013 81.91L52.3031 81.9091C52.4617 81.8481 52.6021 81.7556 52.7217 81.6327C52.8422 81.5115 52.9319 81.3697 52.9917 81.2117C53.0524 81.0511 53.0823 80.8725 53.0823 80.675C53.0823 80.3725 53.0533 80.0925 52.9953 79.8349C52.9364 79.5782 52.8494 79.3421 52.7317 79.1276C52.5885 78.8673 52.4127 78.6717 52.2062 78.5415C52.0005 78.4114 51.7622 78.3468 51.4913 78.3468C51.2739 78.3468 51.0755 78.3925 50.8943 78.4841C50.714 78.5756 50.55 78.7139 50.4041 78.8979C50.27 79.0684 50.174 79.2452 50.1151 79.4256C50.0562 79.606 50.0345 79.7909 50.0508 79.9821C50.0589 80.0701 50.0553 80.1437 50.0408 80.2011C50.0245 80.263 49.9955 80.3088 49.9538 80.3366L49.9511 80.3393C49.9031 80.3716 49.8216 80.3959 49.7074 80.4111C49.5987 80.4264 49.4573 80.4336 49.2852 80.4336H49.0922ZM52.352 80.3411C52.352 80.2271 52.3312 80.1051 52.2913 79.9758C52.2506 79.8439 52.1899 79.7048 52.1092 79.5585C52.0159 79.3933 51.9208 79.2703 51.8238 79.1887C51.7296 79.1097 51.6336 79.0702 51.5366 79.0702C51.4143 79.0702 51.3237 79.1106 51.2639 79.1896C51.2023 79.2721 51.1715 79.3987 51.1715 79.5692C51.1715 79.7021 51.1887 79.8376 51.2232 79.9758C51.2585 80.114 51.311 80.2558 51.3808 80.4021L51.3817 80.4039C51.4651 80.5763 51.5566 80.7055 51.6553 80.7908C51.7514 80.8743 51.8537 80.9164 51.9625 80.9164C52.092 80.9164 52.189 80.8707 52.2524 80.7791C52.3185 80.684 52.352 80.5395 52.352 80.3438V80.3411ZM52.362 79.9543C52.4037 80.0898 52.4254 80.2181 52.4254 80.3384V80.3411C52.4254 80.5529 52.3874 80.7127 52.3122 80.8204C52.2343 80.9326 52.1174 80.9891 51.9625 80.9891C51.8356 80.9891 51.7169 80.9407 51.6073 80.8455C51.5013 80.754 51.4034 80.6167 51.3156 80.4363L51.3147 80.4336C51.2422 80.2837 51.1878 80.1365 51.1516 79.9929C51.1162 79.8484 51.0972 79.7074 51.0972 79.5692C51.0972 79.3834 51.1335 79.2416 51.205 79.1465C51.2793 79.0478 51.3899 78.9975 51.5366 78.9975C51.6517 78.9975 51.7631 79.0424 51.871 79.133C51.9751 79.2201 52.0757 79.3502 52.1736 79.5234C52.2569 79.6751 52.3203 79.8187 52.362 79.9543ZM56.7208 81.954H56.016C55.8157 81.954 55.6291 81.9208 55.4569 81.8535C55.2848 81.7871 55.1262 81.6865 54.984 81.5537C54.7956 81.3778 54.6533 81.1534 54.5591 80.8832C54.4658 80.6149 54.4187 80.3007 54.4187 79.9408C54.4187 79.6985 54.4114 79.3951 54.3969 79.0334C54.3833 78.6699 54.3616 78.2436 54.3335 77.7553C54.3 77.2078 54.2664 76.7554 54.2347 76.3973C54.2021 76.0374 54.1704 75.7708 54.1387 75.5994C54.1278 75.5393 54.1251 75.4881 54.1296 75.4477C54.1351 75.401 54.1496 75.366 54.1731 75.3427L55.1462 74.5502C55.206 74.5017 55.2531 74.4658 55.2884 74.4425C55.3292 74.4146 55.3591 74.4003 55.3772 74.4003C55.3872 74.4003 55.3971 74.4048 55.4035 74.4119C55.4234 74.4218 55.437 74.4451 55.4443 74.4801C55.4506 74.5107 55.4542 74.5529 55.4542 74.6076V79.571C55.4542 79.8394 55.5285 80.0404 55.678 80.1733C55.8284 80.3061 56.0567 80.3734 56.3639 80.3734H56.3974C56.4037 80.3653 56.4137 80.3609 56.4246 80.3609H57.5199C57.5254 79.8493 57.6323 79.3215 57.8434 78.7794C58.0572 78.2256 58.3788 77.6557 58.8083 77.0705C58.8201 77.0543 58.8427 77.0507 58.859 77.0624L58.8672 77.0696C59.0167 77.2446 59.1589 77.4376 59.2939 77.6485C59.4289 77.8585 59.5567 78.0865 59.6772 78.3306L59.6781 78.3324C59.8185 78.6214 59.9254 78.8925 59.9952 79.1438C60.0667 79.3978 60.103 79.633 60.103 79.8484C60.103 80.4066 59.9743 80.8464 59.7179 81.1669C59.4697 81.4765 59.1027 81.6731 58.6171 81.7565C58.7313 81.9558 58.8835 82.1425 59.0737 82.3148C59.2649 82.4871 59.495 82.6469 59.7623 82.7923C59.7533 82.5033 59.7859 82.2287 59.8593 81.9684C59.939 81.6892 60.0658 81.4262 60.2407 81.1785L60.2425 81.1776C60.4337 80.9066 60.6538 80.7019 60.9021 80.5664C61.1512 80.4291 61.4294 80.3609 61.7347 80.3609H62.2765C62.2874 80.3609 62.2973 80.3653 62.3037 80.3734H62.9542C63.1245 80.3734 63.2704 80.3447 63.3909 80.2882C63.5105 80.2325 63.6065 80.1481 63.679 80.0359L63.6799 80.0342C63.7071 79.9911 63.7379 79.9175 63.7723 79.8125C63.8067 79.7057 63.8448 79.5647 63.8874 79.3915V79.3888C63.9182 79.2668 63.9599 79.1743 64.0115 79.1115C64.0677 79.0433 64.1356 79.0092 64.2154 79.0092C64.2996 79.0092 64.3712 79.0433 64.4292 79.1106C64.4826 79.1734 64.5252 79.2668 64.5533 79.3897C64.5968 79.5719 64.6339 79.7191 64.6657 79.8295C64.6965 79.9363 64.7218 80.0072 64.7399 80.0395L64.7418 80.0422C64.8025 80.1517 64.8894 80.2343 65.0009 80.2891C65.115 80.3447 65.2555 80.3725 65.4231 80.3725C65.588 80.3725 65.7284 80.3447 65.8435 80.2891C65.9576 80.2334 66.0491 80.1499 66.1162 80.0386L66.1171 80.0368C66.1379 80.0036 66.1651 79.9336 66.1995 79.8286C66.2349 79.7209 66.2774 79.5737 66.3273 79.3888V79.387C66.3608 79.265 66.4061 79.1725 66.4632 79.1097C66.5239 79.0424 66.5973 79.0092 66.6833 79.0092C66.7603 79.0092 66.8256 79.0442 66.879 79.1133C66.928 79.177 66.966 79.2712 66.9932 79.396L66.9941 79.3996C67.0312 79.5809 67.0648 79.7281 67.0956 79.8394C67.1246 79.948 67.1499 80.0207 67.1717 80.0566L67.1726 80.0584C67.2387 80.1715 67.3302 80.2558 67.4471 80.3115C67.5667 80.3689 67.7126 80.3968 67.8856 80.3968C68.1257 80.3968 68.3042 80.3573 68.422 80.2792C68.5343 80.2038 68.5914 80.0898 68.5914 79.9372C68.5914 79.8609 68.5506 79.7514 68.4691 79.6105L68.4682 79.6087C68.3848 79.4642 68.2589 79.2874 68.0922 79.0792C68.0813 79.0657 68.0813 79.0477 68.0904 79.0352L68.6322 78.2014L68.7146 78.0784C68.7391 78.0452 68.7572 78.0263 68.7708 78.0219C68.7808 78.0192 68.7907 78.0201 68.7989 78.0246C68.8152 78.0317 68.8342 78.0479 68.8569 78.0712L68.8587 78.073C68.8795 78.0946 68.904 78.1233 68.9312 78.1592L68.933 78.161C68.9828 78.2247 69.0326 78.3055 69.0825 78.3997C69.1323 78.4949 69.183 78.6062 69.2329 78.7327L69.2338 78.7345C69.2999 78.8997 69.3497 79.0594 69.3824 79.2138C69.4159 79.3691 69.4322 79.5199 69.4322 79.6635V79.668C69.4322 79.9417 69.4041 80.2011 69.3479 80.4461C69.2917 80.6921 69.2066 80.9227 69.0951 81.1381C68.9529 81.4092 68.7799 81.6129 68.5742 81.7485C68.3676 81.8858 68.1302 81.954 67.8612 81.954C67.6075 81.954 67.3764 81.8849 67.1671 81.7458C66.9733 81.6174 66.7975 81.4289 66.6417 81.1812C66.494 81.428 66.3273 81.6165 66.1425 81.7449C65.9413 81.884 65.7184 81.954 65.4756 81.954C65.2147 81.954 64.9791 81.8849 64.7689 81.7458C64.5732 81.6174 64.4002 81.4289 64.2489 81.1803C64.093 81.4298 63.8992 81.6183 63.669 81.7476C63.4226 81.8849 63.1345 81.954 62.8047 81.954H61.741C61.5299 81.954 61.3533 81.9585 61.2128 81.9675C61.0706 81.9755 60.9637 81.989 60.8921 82.0052C60.7589 82.0366 60.6593 82.0868 60.594 82.1533C60.5306 82.2188 60.4989 82.3022 60.4989 82.4046C60.4989 82.5661 60.5786 82.7205 60.7381 82.8677C60.9021 83.0194 61.1494 83.163 61.4801 83.2976C61.4991 83.3057 61.5082 83.3263 61.5 83.3452L60.9918 84.7292C60.9845 84.7472 60.9646 84.757 60.9456 84.7516C60.4581 84.6125 60.0214 84.4366 59.6355 84.2257C59.2477 84.0148 58.9107 83.767 58.6235 83.4843C58.4531 83.3183 58.3091 83.1522 58.1895 82.9871C58.0699 82.821 57.9766 82.6559 57.9086 82.4907C57.8434 82.2843 57.7564 82.0689 57.6812 81.8642C57.5091 81.893 57.3469 81.9154 57.1956 81.9298C57.0361 81.9459 56.8894 81.954 56.7571 81.954H56.7208ZM56.016 81.8813H56.3874V80.4461H56.3639C56.0386 80.4461 55.794 80.3725 55.6291 80.2271C55.4633 80.0799 55.3808 79.8609 55.3808 79.571V74.6076C55.3808 74.5573 55.3781 74.5196 55.3727 74.4954C55.37 74.4837 55.3799 74.4802 55.3772 74.4793L55.37 74.4766L55.3292 74.5026C55.2957 74.5259 55.2495 74.56 55.1933 74.6058L54.2248 75.3947C54.213 75.4064 54.2057 75.4271 54.203 75.454C54.1994 75.489 54.2021 75.533 54.2112 75.5868C54.2429 75.7618 54.2755 76.0302 54.3081 76.3901C54.3407 76.7518 54.3734 77.2051 54.4069 77.7508C54.435 78.2373 54.4567 78.6645 54.4703 79.0307C54.4848 79.3978 54.492 79.7012 54.492 79.9408C54.492 80.2935 54.5373 80.5996 54.6289 80.8599C54.7185 81.1184 54.8544 81.332 55.0347 81.5007C55.1697 81.6273 55.3201 81.7224 55.4832 81.7862C55.6472 81.849 55.8248 81.8813 56.016 81.8813ZM56.4608 81.8813H56.6837V80.4461H56.4608V81.8813ZM56.7571 80.4345V81.8813C56.8884 81.8813 57.0325 81.8732 57.1883 81.858C57.3451 81.8418 57.5154 81.8185 57.6993 81.7871C57.7165 81.7844 57.7338 81.7942 57.7401 81.8104L57.8977 82.2421L57.9766 82.4629C58.0427 82.6236 58.1342 82.7842 58.2493 82.9449C58.3661 83.1065 58.5075 83.2689 58.6751 83.4323C58.9578 83.7105 59.2894 83.9537 59.6708 84.162C60.0441 84.3657 60.4654 84.5362 60.9347 84.6727L61.4203 83.3515C61.0978 83.2169 60.8532 83.0732 60.6883 82.9216C60.5125 82.7591 60.4246 82.5868 60.4246 82.4046C60.4246 82.2834 60.4636 82.1829 60.5406 82.103C60.6158 82.0258 60.7272 81.9693 60.8758 81.9343C60.951 81.9172 61.0624 81.9037 61.2083 81.8948C61.3515 81.8858 61.5299 81.8813 61.741 81.8813H61.9413V80.4336H61.7347C61.4412 80.4336 61.1757 80.4991 60.9374 80.6301C60.6991 80.7603 60.4871 80.9568 60.3023 81.2189L60.3005 81.2207C60.1311 81.4604 60.0069 81.7162 59.9299 81.9881C59.8529 82.2601 59.823 82.5482 59.8384 82.8533C59.8393 82.8596 59.8375 82.8659 59.8348 82.8722C59.8248 82.8892 59.8031 82.8964 59.785 82.8874C59.4869 82.7313 59.2332 82.558 59.0239 82.3678C58.8146 82.1784 58.6497 81.9719 58.5292 81.7494L58.5229 81.7341C58.5202 81.7144 58.5338 81.6955 58.5546 81.6928C59.0466 81.6174 59.4153 81.4271 59.6608 81.1211C59.9064 80.815 60.0287 80.3905 60.0287 79.8484C60.0287 79.6392 59.9943 79.4104 59.9245 79.1635C59.8556 78.9158 59.7505 78.6492 59.611 78.3638V78.362C59.4914 78.1206 59.3646 77.8944 59.2314 77.6871C59.1082 77.4941 58.9768 77.3155 58.84 77.1512C58.4287 77.7176 58.1188 78.2696 57.9113 78.8054C57.6993 79.352 57.5933 79.8834 57.5933 80.3977C57.5933 80.4174 57.577 80.4345 57.5571 80.4345H56.7571ZM62.0147 81.8813H62.2393V80.4461H62.0147V81.8813ZM62.3136 80.4461V81.8813H62.8047C63.1218 81.8813 63.3981 81.8149 63.6328 81.6838C63.8675 81.5528 64.0632 81.3553 64.2181 81.0915C64.2208 81.0861 64.2253 81.0807 64.2317 81.078C64.2489 81.0681 64.2715 81.0744 64.2815 81.0915C64.4337 81.3562 64.6095 81.5537 64.8088 81.6856C65.0072 81.8158 65.2292 81.8813 65.4756 81.8813C65.7039 81.8813 65.9123 81.8158 66.0999 81.6856C66.2892 81.5546 66.4596 81.3562 66.609 81.0915C66.6118 81.0861 66.6163 81.0816 66.6217 81.078C66.6399 81.0681 66.6625 81.0735 66.6725 81.0906C66.831 81.3553 67.0095 81.5537 67.2079 81.6856C67.4045 81.8158 67.6229 81.8813 67.8612 81.8813C68.1148 81.8813 68.3395 81.8167 68.5334 81.6883C68.7282 81.5591 68.8931 81.3643 69.0299 81.1049C69.1386 80.894 69.2211 80.6696 69.2763 80.43C69.3307 80.1903 69.3588 79.9345 69.3588 79.6635V79.6608C69.3588 79.5226 69.3425 79.378 69.3108 79.2291C69.2791 79.0792 69.2301 78.923 69.1658 78.7614L69.1649 78.7596C69.1151 78.6358 69.0662 78.5272 69.0172 78.4338C68.9692 78.3414 68.9212 78.2651 68.875 78.205L68.8732 78.2032C68.846 78.1691 68.8233 78.1421 68.8052 78.1233L68.7853 78.1035L68.6938 78.2409L68.1656 79.054C68.3268 79.256 68.4492 79.4292 68.5316 79.5719L68.5334 79.5737C68.6213 79.7263 68.6648 79.8484 68.6648 79.9372C68.6648 80.1158 68.5977 80.2496 68.4627 80.3402C68.3332 80.4264 68.1402 80.4704 67.8856 80.4704C67.7017 80.4704 67.545 80.4389 67.4154 80.377C67.2849 80.3142 67.1826 80.2208 67.1092 80.0943C67.0838 80.0521 67.0548 79.9731 67.024 79.8582C66.9941 79.7478 66.9597 79.5997 66.9225 79.414L66.9216 79.4113C66.8963 79.2973 66.8627 79.2129 66.8201 79.1573C66.7821 79.1079 66.7359 79.0828 66.6833 79.0828C66.619 79.0828 66.5637 79.1079 66.5175 79.1582C66.4686 79.212 66.4287 79.2946 66.3988 79.4059L66.3979 79.4077C66.349 79.5899 66.3064 79.738 66.2693 79.8502C66.234 79.9623 66.2032 80.0377 66.1796 80.0754C66.1044 80.2002 66.0029 80.2926 65.8761 80.3546C65.7501 80.4156 65.5988 80.4461 65.4231 80.4461C65.2446 80.4461 65.0924 80.4147 64.9683 80.3537C64.8432 80.2926 64.7463 80.2002 64.6774 80.0772L64.6765 80.0754C64.6548 80.0377 64.6276 79.9623 64.595 79.8493C64.5633 79.7398 64.5252 79.5917 64.4817 79.4059C64.4555 79.2946 64.4192 79.2111 64.373 79.1573C64.3295 79.1079 64.277 79.0828 64.2154 79.0828C64.1592 79.0828 64.1103 79.1079 64.0686 79.1573C64.0233 79.212 63.987 79.2955 63.959 79.4068V79.4086C63.9173 79.5809 63.8783 79.7236 63.8421 79.8349C63.8058 79.9453 63.7723 80.0252 63.7415 80.0728L63.7406 80.0754C63.6609 80.1984 63.554 80.2917 63.4217 80.3537C63.2912 80.4147 63.1354 80.4461 62.9542 80.4461H62.3136ZM59.3184 80.1849C59.3138 80.1015 59.2921 80.0036 59.254 79.8932C59.2096 79.7658 59.1435 79.6222 59.0556 79.4615C58.985 79.3323 58.917 79.2183 58.8527 79.1205C58.7992 79.0397 58.7485 78.9697 58.6987 78.9095C58.56 79.1124 58.454 79.3305 58.3825 79.5638C58.3091 79.8008 58.271 80.053 58.2683 80.3205C58.3906 80.3187 58.5356 80.3061 58.7041 80.2855C58.8826 80.2621 59.0873 80.2289 59.3184 80.1849ZM59.3229 79.869C59.3691 80.0018 59.3927 80.1167 59.3927 80.2146C59.3927 80.2316 59.38 80.2469 59.3628 80.2505C59.119 80.2971 58.9016 80.3339 58.7132 80.3573C58.5238 80.3815 58.3625 80.3941 58.2312 80.3941C58.2103 80.3941 58.194 80.377 58.194 80.3573C58.194 80.0692 58.2339 79.7972 58.3118 79.5432C58.3906 79.2883 58.5084 79.0504 58.6642 78.8305L58.6715 78.8216C58.6869 78.8081 58.7104 78.8099 58.724 78.8252C58.7838 78.8943 58.8481 78.9795 58.9143 79.081C58.9795 79.1806 59.0484 79.2964 59.12 79.4274C59.2096 79.5917 59.2785 79.7398 59.3229 79.869ZM72.9964 79.1249C72.9964 79.4884 72.9502 79.8511 72.8587 80.2119C72.7663 80.5727 72.6286 80.9326 72.4447 81.2907C72.3097 81.5537 72.1547 81.8059 71.9817 82.0482C71.8087 82.2888 71.6166 82.5186 71.4073 82.7349C71.2379 82.9099 71.102 83.0409 70.9978 83.1298C70.889 83.2222 70.812 83.2689 70.7676 83.2689C70.7459 83.2689 70.7205 83.2644 70.6924 83.2554H70.6906C70.6644 83.2465 70.6363 83.2348 70.6046 83.2186C70.5701 83.2016 70.5439 83.1827 70.5248 83.1648L70.5067 83.1414C70.4967 83.1379 70.4913 83.1217 70.4913 83.0939V83.0921H70.5647L70.5674 83.1002C70.5656 83.102 70.5629 83.1046 70.5665 83.1055L70.5674 83.1002L70.5774 83.1136C70.5901 83.1262 70.6109 83.1397 70.6381 83.154C70.6662 83.1684 70.6915 83.1791 70.7133 83.1863H70.7151C70.735 83.1926 70.7531 83.1962 70.7676 83.1962C70.7939 83.1962 70.8555 83.1558 70.9507 83.0741C71.0512 82.988 71.1862 82.8578 71.3538 82.6846C71.5622 82.4701 71.7516 82.243 71.9219 82.0061C72.0922 81.7691 72.2444 81.5196 72.3794 81.2575C72.5606 80.9048 72.6965 80.5493 72.7871 80.1939C72.8777 79.8394 72.923 79.4822 72.923 79.1249C72.923 78.7453 72.875 78.3683 72.7808 77.9949C72.6857 77.6207 72.5443 77.25 72.3541 76.8829C72.2145 76.6118 72.0551 76.3524 71.8775 76.1056C71.7008 75.8597 71.5042 75.6245 71.2886 75.401C71.1192 75.226 70.9815 75.0941 70.8782 75.007C70.7794 74.9253 70.7151 74.884 70.6843 74.884C70.6716 74.884 70.6553 74.8867 70.6372 74.893C70.6181 74.8993 70.5955 74.9092 70.5701 74.9226L70.5674 74.9244C70.5402 74.9379 70.5212 74.9496 70.5094 74.9603L70.5031 74.9666L70.9026 75.6416C71.2913 76.2977 71.5831 76.9152 71.7778 77.4932C71.9735 78.0739 72.0714 78.6142 72.0714 79.1142C72.0714 79.6374 71.9772 80.1822 71.7905 80.7477C71.603 81.3123 71.323 81.8975 70.9488 82.5033C70.8184 82.7178 70.7205 82.8758 70.6562 82.9745C70.6209 83.0302 70.591 83.0714 70.5674 83.0993C70.571 83.067 70.5801 82.9575 70.5946 82.9359C70.6607 82.8327 70.7577 82.6756 70.8863 82.4656C71.2578 81.8633 71.5359 81.2835 71.7208 80.7253C71.9047 80.167 71.9971 79.6303 71.9971 79.1142C71.9971 78.6214 71.9011 78.0883 71.709 77.5165C71.516 76.9439 71.2261 76.3309 70.8392 75.6775L70.4315 74.9882C70.4279 74.9828 70.4261 74.9765 70.4261 74.9702C70.4261 74.9478 70.4369 74.9271 70.4596 74.9065C70.4768 74.8912 70.5013 74.8751 70.5339 74.8589L70.5357 74.858C70.5638 74.8437 70.5901 74.832 70.6136 74.8239C70.6408 74.8149 70.6644 74.8104 70.6843 74.8104C70.7323 74.8104 70.8129 74.858 70.9253 74.9514C71.0313 75.0411 71.1708 75.1739 71.3421 75.3508C71.5586 75.576 71.7579 75.8139 71.9373 76.0643C72.1176 76.3138 72.2789 76.5759 72.4202 76.8497C72.6123 77.2221 72.7563 77.5982 72.8524 77.977C72.9484 78.3566 72.9964 78.7399 72.9964 79.1249Z" fill="#1FA9E1"/>
</g>
</g>
</g>
</svg>
